<svg width="91" height="53" viewBox="0 0 91 53" fill="none" xmlns="http://www.w3.org/2000/svg">
<ellipse cx="45.418" cy="26.425" rx="45.418" ry="26.425" fill="#0059E7"/>
<ellipse cx="45.2948" cy="26.5424" rx="32.0018" ry="22.0796" fill="#FFC32A"/>
<path d="M37.9787 29.3705C37.703 30.1409 37.3682 31.2355 36.9743 32.6543C36.5804 34.073 36.2752 35.2709 36.0586 36.2481C34.9557 36.2105 33.5624 36.1776 31.8786 36.1494C30.1948 36.1212 28.7621 36.1071 27.5805 36.1071C26.3989 36.1071 24.8431 36.1259 22.9132 36.1635C20.9832 36.2011 19.4767 36.2293 18.3935 36.2481C18.3542 36.2481 18.3148 36.2011 18.2754 36.1071C18.236 36.0132 18.2163 35.9004 18.2163 35.7689C18.2163 35.6373 18.2754 35.4823 18.3935 35.3038C18.5117 35.1253 18.6102 35.0266 18.689 35.0078C19.8509 34.8763 20.5894 34.6414 20.9045 34.3032C21.2196 33.9649 21.4657 33.4106 21.643 32.6402L24.7151 20.2662C24.7742 20.0783 24.8185 19.9092 24.8481 19.7589C24.8776 19.6085 24.8924 19.4582 24.8924 19.3079C24.8924 18.8945 24.7988 18.5891 24.6117 18.3918C24.4247 18.1945 23.7994 18.0301 22.736 17.8985C22.6769 17.8797 22.6375 17.8093 22.6178 17.6871C22.5981 17.565 22.5882 17.4757 22.5882 17.4194C22.5882 17.2878 22.6424 17.1281 22.7507 16.9402C22.859 16.7523 22.9526 16.6583 23.0314 16.6583C23.9766 16.6583 24.9318 16.6818 25.8967 16.7288C26.8617 16.7758 27.7282 16.7993 28.4963 16.7993C29.2446 16.7993 30.1062 16.7758 31.081 16.7288C32.0559 16.6818 32.9667 16.6583 33.8135 16.6583C33.8529 16.6583 33.8923 16.6865 33.9317 16.7429C33.9711 16.7993 33.9907 16.8932 33.9907 17.0247C33.9907 17.1563 33.9317 17.3348 33.8135 17.5603C33.6953 17.7858 33.5969 17.8985 33.5181 17.8985C32.3759 18.0113 31.6521 18.2321 31.3469 18.5609C31.0417 18.8898 30.7807 19.4582 30.5641 20.2662L27.5805 32.1892C27.5411 32.3395 27.487 32.5791 27.4181 32.9079C27.3491 33.2368 27.3147 33.467 27.3147 33.5985C27.3147 34.0307 27.4427 34.3267 27.6987 34.4864C27.9547 34.6461 28.2797 34.726 28.6735 34.726H29.4711C30.9284 34.726 32.3316 34.1575 33.6806 33.0207C35.0296 31.8838 36.029 30.5262 36.6789 28.9477C36.6789 28.9289 36.7527 28.9148 36.9004 28.9054C37.0481 28.896 37.1712 28.8913 37.2697 28.8913C37.4469 28.8913 37.6193 28.9524 37.7867 29.0745C37.954 29.1967 38.0181 29.2953 37.9787 29.3705Z" fill="#0059E7"/>
<path d="M55.3012 17.0247C55.3012 17.1563 55.2421 17.3348 55.1239 17.5603C55.0058 17.7858 54.9073 17.8985 54.8285 17.8985C53.6863 18.0113 52.9626 18.2321 52.6573 18.5609C52.3521 18.8898 52.0912 19.4582 51.8745 20.2662L48.8024 32.6402C48.763 32.7905 48.7285 32.9643 48.699 33.1616C48.6694 33.3589 48.6547 33.5046 48.6547 33.5985C48.6547 33.9931 48.7433 34.2985 48.9205 34.5146C49.0978 34.7307 49.7279 34.8951 50.8111 35.0078C50.8505 35.0078 50.8849 35.0736 50.9145 35.2052C50.944 35.3367 50.9588 35.4306 50.9588 35.487C50.9588 35.6186 50.8997 35.7783 50.7815 35.9662C50.6634 36.1541 50.5649 36.2481 50.4861 36.2481C49.5409 36.2481 48.5857 36.2246 47.6208 36.1776C46.6558 36.1306 45.7893 36.1071 45.0212 36.1071C44.2532 36.1071 43.3965 36.1306 42.4512 36.1776C41.5059 36.2246 40.5902 36.2481 39.704 36.2481C39.6646 36.2481 39.6301 36.2011 39.6006 36.1071C39.5711 36.0132 39.5563 35.9004 39.5563 35.7689C39.5563 35.6561 39.6104 35.5058 39.7188 35.3179C39.8271 35.13 39.9305 35.0266 40.0289 35.0078C41.1908 34.8763 41.9244 34.6414 42.2297 34.3032C42.5349 33.9649 42.7762 33.4106 42.9534 32.6402L46.0551 20.2662C46.0945 20.0971 46.129 19.9327 46.1585 19.7729C46.1881 19.6132 46.2028 19.4582 46.2028 19.3079C46.2028 18.8945 46.1093 18.5891 45.9222 18.3918C45.7351 18.1945 45.1098 18.0301 44.0464 17.8985C44.007 17.8797 43.9725 17.8093 43.943 17.6871C43.9135 17.565 43.8987 17.4757 43.8987 17.4194C43.8987 17.2878 43.9528 17.1281 44.0612 16.9402C44.1695 16.7523 44.263 16.6583 44.3418 16.6583C45.2871 16.6583 46.2422 16.6818 47.2072 16.7288C48.1722 16.7758 49.0387 16.7993 49.8067 16.7993C50.5748 16.7993 51.4413 16.7758 52.4063 16.7288C53.3712 16.6818 54.2771 16.6583 55.1239 16.6583C55.1633 16.6583 55.2027 16.6865 55.2421 16.7429C55.2815 16.7993 55.3012 16.8932 55.3012 17.0247Z" fill="#0059E7"/>
<path d="M72.3849 17.1657C72.2076 18.124 72.0599 19.0542 71.9417 19.9562C71.8236 20.8581 71.7153 21.7601 71.6168 22.6621C71.5971 22.7185 71.4986 22.7701 71.3214 22.8171C71.1442 22.8641 71.0063 22.8876 70.9078 22.8876C70.77 22.8876 70.6321 22.8688 70.4943 22.8312C70.3564 22.7936 70.2875 22.7372 70.2875 22.6621C70.3269 21.2715 70.0019 20.0736 69.3127 19.0683C68.6234 18.063 67.8357 17.5603 66.9495 17.5603C66.2011 17.5603 65.5758 17.7905 65.0737 18.2509C64.5715 18.7113 64.3204 19.383 64.3204 20.2662C64.3204 21.1306 64.6995 21.9151 65.4577 22.6198C66.2159 23.3245 66.9495 23.9869 67.6584 24.607C68.4855 25.321 69.2487 26.1525 69.9478 27.1015C70.6469 28.0504 70.9965 29.2296 70.9965 30.6389C70.9965 32.2174 70.2629 33.622 68.7957 34.8528C67.3286 36.0836 65.2558 36.699 62.5775 36.699C61.2187 36.699 60.0765 36.4923 59.1509 36.0789C58.2253 35.6655 57.1815 35.3555 56.0196 35.1488C56.1772 34.2844 56.3593 33.2979 56.5661 32.1892C56.7729 31.0805 56.9255 30.094 57.024 29.2296C57.024 29.1732 57.1224 29.1215 57.3194 29.0745C57.5163 29.0276 57.664 29.0041 57.7625 29.0041C57.9003 29.0041 58.0283 29.0229 58.1465 29.0605C58.2647 29.098 58.3237 29.1544 58.3237 29.2296C58.4025 31.1087 58.8653 32.5979 59.7121 33.6972C60.5589 34.7964 61.5535 35.3461 62.6957 35.3461C63.6804 35.3461 64.4435 35.0924 64.985 34.585C65.5266 34.0777 65.7974 33.326 65.7974 32.3301C65.7974 31.4845 65.4331 30.6953 64.7044 29.9624C63.9758 29.2296 63.2077 28.4967 62.4003 27.7639C61.5338 26.9746 60.746 26.129 60.0371 25.2271C59.3281 24.3251 58.9736 23.254 58.9736 22.0138C58.9736 20.5857 59.5841 19.2609 60.8051 18.0395C62.0261 16.818 63.9364 16.2073 66.5359 16.2073C67.6584 16.2073 68.717 16.3483 69.7115 16.6301C70.706 16.912 71.5971 17.0905 72.3849 17.1657Z" fill="#0059E7"/>
</svg>
