<svg width="51" height="56" viewBox="0 0 51 56" fill="none" xmlns="http://www.w3.org/2000/svg">
<path d="M25.3384 56C39.3325 56 50.6769 48.6134 50.6769 39.5017C50.6769 30.3899 39.3325 23.0034 25.3384 23.0034C11.3444 23.0034 0 30.3899 0 39.5017C0 48.6134 11.3444 56 25.3384 56Z" fill="#EB0202"/>
<path d="M14.7541 43.2301C13.9631 43.2301 13.2614 43.1221 12.649 42.9058C12.0392 42.692 11.525 42.3765 11.1065 41.9593C10.688 41.5444 10.3704 41.0357 10.1535 40.4326C9.93657 39.8296 9.82812 39.1413 9.82812 38.3679C9.82812 37.6146 9.93786 36.9379 10.1573 36.3374C10.3767 35.737 10.6957 35.2255 11.1142 34.8031C11.5352 34.3783 12.0468 34.0538 12.649 33.83C13.2512 33.606 13.9351 33.494 14.7006 33.494C15.4329 33.494 16.0785 33.6087 16.6373 33.8376C17.1961 34.0667 17.6656 34.3808 18.0458 34.7803C18.4286 35.1797 18.7169 35.6377 18.9109 36.1543C19.1047 36.6707 19.2017 37.2166 19.2017 37.7915C19.2017 38.1935 19.1762 38.5866 19.1252 38.9709C19.0741 39.3525 18.9798 39.6985 18.8419 40.0091C18.7067 40.3168 18.5102 40.5636 18.2525 40.7493C17.9973 40.9326 17.6656 41.028 17.2573 41.0357C17.0405 41.0433 16.8299 41.0178 16.6258 40.9594C16.4217 40.9007 16.2482 40.8066 16.1053 40.6769C15.9624 40.5446 15.8756 40.3767 15.845 40.1731H15.7991C15.7378 40.3232 15.6358 40.4631 15.4929 40.593C15.35 40.7201 15.1675 40.8219 14.9455 40.8983C14.7261 40.972 14.4709 41.0025 14.18 40.9899C13.8585 40.9771 13.5689 40.9047 13.3112 40.7723C13.0534 40.64 12.8327 40.4569 12.649 40.2227C12.4678 39.9887 12.3288 39.7113 12.2318 39.3908C12.1349 39.0701 12.0864 38.7139 12.0864 38.3221C12.0864 37.9455 12.1412 37.6084 12.251 37.3107C12.3607 37.0105 12.51 36.7522 12.6988 36.5359C12.8901 36.317 13.1096 36.1441 13.3571 36.0168C13.6046 35.8896 13.8662 35.8094 14.1418 35.7764C14.4097 35.7459 14.6559 35.7534 14.8805 35.7993C15.105 35.8451 15.2913 35.915 15.4393 36.0093C15.5898 36.1034 15.6842 36.2063 15.7225 36.3183H15.7723V35.8909H16.7138V39.4327C16.7138 39.6337 16.7662 39.8041 16.8708 39.9442C16.9779 40.0841 17.1298 40.1541 17.3262 40.1541C17.5585 40.1541 17.7396 40.0688 17.8698 39.8984C18.0024 39.7279 18.0956 39.4658 18.1492 39.1121C18.2053 38.7584 18.2334 38.3055 18.2334 37.7534C18.2334 37.3667 18.1811 37.0028 18.0764 36.6619C17.9744 36.3183 17.8225 36.008 17.621 35.7306C17.4219 35.4508 17.177 35.2102 16.8861 35.0092C16.5952 34.8082 16.2635 34.653 15.8909 34.5437C15.5209 34.4343 15.1114 34.3795 14.6623 34.3795C14.0524 34.3795 13.5102 34.4737 13.0356 34.6619C12.561 34.8476 12.1604 35.1161 11.8338 35.4672C11.5097 35.8183 11.2635 36.2395 11.095 36.7305C10.9292 37.2191 10.8463 37.7674 10.8463 38.3754C10.8463 39.009 10.9317 39.5714 11.1027 40.0624C11.2737 40.551 11.5263 40.9631 11.8605 41.2989C12.1948 41.6348 12.6082 41.8893 13.1007 42.0624C13.5931 42.2379 14.1609 42.3256 14.8039 42.3256C15.0897 42.3256 15.3704 42.3002 15.646 42.2493C15.9216 42.201 16.1665 42.145 16.3808 42.0814C16.5977 42.0204 16.7598 41.9708 16.8669 41.9325L17.1349 42.7683C16.9767 42.8422 16.7662 42.9147 16.5033 42.9859C16.243 43.0572 15.9598 43.1157 15.6536 43.1615C15.35 43.2073 15.0501 43.2301 14.7541 43.2301ZM14.402 40.0549C14.7337 40.0549 15.0004 39.9887 15.202 39.8563C15.4061 39.724 15.5528 39.5267 15.6421 39.2648C15.734 39.0001 15.7799 38.6694 15.7799 38.2725C15.7774 37.8858 15.7276 37.5779 15.6306 37.3488C15.5362 37.1172 15.3882 36.9519 15.1867 36.8527C14.9876 36.7509 14.7312 36.7 14.4173 36.7C14.129 36.7 13.8828 36.7699 13.6786 36.91C13.477 37.0499 13.3227 37.2394 13.2155 37.4787C13.1109 37.7178 13.0573 37.9836 13.0547 38.2763C13.0573 38.5842 13.1007 38.8742 13.1849 39.1464C13.2716 39.4161 13.412 39.635 13.6059 39.803C13.8024 39.9708 14.0677 40.0549 14.402 40.0549Z" fill="white"/>
<path d="M36.3109 43.2301C35.5199 43.2301 34.8182 43.1221 34.2057 42.9058C33.5959 42.692 33.0817 42.3765 32.6633 41.9593C32.2448 41.5444 31.9271 41.0357 31.7102 40.4326C31.4934 39.8296 31.385 39.1413 31.385 38.3679C31.385 37.6146 31.4947 36.9379 31.714 36.3374C31.9336 35.737 32.2526 35.2255 32.671 34.8031C33.092 34.3783 33.6036 34.0538 34.2057 33.83C34.808 33.606 35.4919 33.494 36.2574 33.494C36.9897 33.494 37.6353 33.6087 38.1941 33.8376C38.7528 34.0667 39.2223 34.3808 39.6026 34.7803C39.9853 35.1797 40.2737 35.6377 40.4677 36.1543C40.6615 36.6707 40.7585 37.2166 40.7585 37.7915C40.7585 38.1935 40.733 38.5866 40.682 38.9709C40.6309 39.3525 40.5365 39.6985 40.3987 40.0091C40.2635 40.3168 40.067 40.5636 39.8093 40.7493C39.5542 40.9326 39.2223 41.028 38.8141 41.0357C38.5972 41.0433 38.3867 41.0178 38.1825 40.9594C37.9785 40.9007 37.8049 40.8066 37.6621 40.6769C37.5192 40.5446 37.4324 40.3767 37.4018 40.1731H37.3558C37.2945 40.3232 37.1926 40.4631 37.0497 40.593C36.9067 40.7201 36.7242 40.8219 36.5022 40.8983C36.2829 40.972 36.0276 41.0025 35.7368 40.9899C35.4153 40.9771 35.1256 40.9047 34.8679 40.7723C34.6102 40.64 34.3895 40.4569 34.2057 40.2227C34.0246 39.9887 33.8856 39.7113 33.7886 39.3908C33.6916 39.0701 33.6432 38.7139 33.6432 38.3221C33.6432 37.9455 33.698 37.6084 33.8077 37.3107C33.9175 37.0105 34.0667 36.7522 34.2556 36.5359C34.447 36.317 34.6663 36.1441 34.9139 36.0168C35.1614 35.8896 35.4229 35.8094 35.6986 35.7764C35.9665 35.7459 36.2127 35.7534 36.4372 35.7993C36.6618 35.8451 36.8481 35.915 36.9962 36.0093C37.1467 36.1034 37.241 36.2063 37.2792 36.3183H37.3291V35.8909H38.2706V39.4327C38.2706 39.6337 38.323 39.8041 38.4276 39.9442C38.5348 40.0841 38.6866 40.1541 38.8831 40.1541C39.1153 40.1541 39.2965 40.0688 39.4266 39.8984C39.5593 39.7279 39.6523 39.4658 39.7059 39.1121C39.762 38.7584 39.7902 38.3055 39.7902 37.7534C39.7902 37.3667 39.7378 37.0028 39.6332 36.6619C39.5311 36.3183 39.3793 36.008 39.1777 35.7306C38.9788 35.4508 38.7337 35.2102 38.4429 35.0092C38.1519 34.8082 37.8202 34.653 37.4477 34.5437C37.0777 34.4343 36.6683 34.3795 36.2192 34.3795C35.6092 34.3795 35.067 34.4737 34.5924 34.6619C34.1178 34.8476 33.7171 35.1161 33.3905 35.4672C33.0664 35.8183 32.8202 36.2395 32.6517 36.7305C32.4859 37.2191 32.4031 37.7674 32.4031 38.3754C32.4031 39.009 32.4886 39.5714 32.6595 40.0624C32.8304 40.551 33.0831 40.9631 33.4174 41.2989C33.7517 41.6348 34.1651 41.8893 34.6575 42.0624C35.1498 42.2379 35.7177 42.3256 36.3606 42.3256C36.6465 42.3256 36.9271 42.3002 37.2028 42.2493C37.4783 42.201 37.7232 42.145 37.9376 42.0814C38.1545 42.0204 38.3166 41.9708 38.4238 41.9325L38.6917 42.7683C38.5335 42.8422 38.323 42.9147 38.0602 42.9859C37.7998 43.0572 37.5165 43.1157 37.2104 43.1615C36.9067 43.2073 36.607 43.2301 36.3109 43.2301ZM35.9588 40.0549C36.2905 40.0549 36.5573 39.9887 36.7588 39.8563C36.9629 39.724 37.1096 39.5267 37.1989 39.2648C37.2908 39.0001 37.3367 38.6694 37.3367 38.2725C37.3343 37.8858 37.2843 37.5779 37.1875 37.3488C37.093 37.1172 36.9451 36.9519 36.7435 36.8527C36.5444 36.7509 36.288 36.7 35.9741 36.7C35.6857 36.7 35.4395 36.7699 35.2353 36.91C35.0337 37.0499 34.8794 37.2394 34.7722 37.4787C34.6677 37.7178 34.6141 37.9836 34.6115 38.2763C34.6141 38.5842 34.6575 38.8742 34.7416 39.1464C34.8284 39.4161 34.9687 39.635 35.1627 39.803C35.3592 39.9708 35.6245 40.0549 35.9588 40.0549Z" fill="white"/>
<path d="M21.1785 47.798C23.7942 50.1549 29.0636 53.2094 29.2149 46.5724" stroke="white" stroke-width="4"/>
<path d="M26.284 43.7441C26.284 44.369 25.7761 44.8754 25.1495 44.8754C24.5228 44.8754 24.0149 44.369 24.0149 43.7441C24.0149 43.1192 24.5228 42.6128 25.1495 42.6128C25.7761 42.6128 26.284 43.1192 26.284 43.7441Z" fill="white"/>
<path d="M34.0369 0L22.5022 24.1428H24.0932L34.0369 26.3973V0Z" fill="#EB0202"/>
</svg>
