<svg width="92" height="56" viewBox="0 0 92 56" fill="none" xmlns="http://www.w3.org/2000/svg">
<path fill-rule="evenodd" clip-rule="evenodd" d="M81.6835 50.1062C89.5666 48.5621 93.843 36.7205 91.2352 23.6573C88.6274 10.594 80.1229 1.25593 72.2399 2.80003C64.3569 4.34414 60.0805 16.1857 62.6883 29.249C65.296 42.3122 73.8005 51.6503 81.6835 50.1062ZM78.0335 44.8084C83.6641 43.9831 87.0484 35.4131 85.5924 25.6667C84.1365 15.9204 78.3916 8.68849 72.761 9.51382C67.1304 10.3391 63.7462 18.9092 65.2021 28.6555C66.6581 38.4018 72.4028 45.6338 78.0335 44.8084Z" fill="#0077F7"/>
<path d="M70.9982 3.1681L57.4554 8.82096C62.864 18.0596 62.2678 26.581 60.8624 31.5589L57.6684 37.3805L52.6005 43.2443L39.9094 46.6613C38.3195 46.2957 33.2346 45.832 35.0118 49.4456C37.4393 54.3813 37.8226 54.3391 38.3762 54.8031C40.1829 56.3176 43.4482 56.03 45.3694 55.8608L45.4032 55.8578L81.6451 50.0784L78.1955 48.0535L71.637 44.8896L66.1007 36.6212L63.9713 30.2934L63.6732 21.2235L64.312 15.9503L70.6149 5.82579L70.9982 3.1681Z" fill="#0077F7"/>
<path d="M1.02708 20.9704C2.21953 17.0219 5.83946 15.4863 7.50037 14.7692L9.03352 14.1364L10.6518 13.5036L13.9737 12.238C15.6346 26.6655 12.9516 30.2512 9.16128 33.7105C5.83946 37.3384 2.24792 36.3541 0.473447 35.4401C-0.463481 30.5044 0.132743 23.4594 1.02708 20.9704Z" fill="#0077F7"/>
<path d="M28.9218 5.61487L13.8459 12.238L14.0162 17.3424V20.0845L13.8459 23.375C13.2071 27.8044 10.6092 31.7558 9.11868 33.3729C6.35902 37.0177 2.17693 36.2697 0.430847 35.44C1.2826 44.5521 6.57763 50.3737 9.11868 52.1455C11.4354 53.2254 14.9532 52.6517 16.4437 52.3142L17.4658 51.9767L22.6189 50.2049L24.1946 44.1302L25.1316 32.023V21.2657L28.9218 5.61487Z" fill="#014FD7"/>
<path fill-rule="evenodd" clip-rule="evenodd" d="M51.2856 47.1587C58.796 45.6777 62.7698 33.9549 60.1612 20.9751C57.5527 7.99527 49.3497 -1.32634 41.8392 0.154665C34.3288 1.63567 30.3551 13.3585 32.9636 26.3383C35.5722 39.3181 43.7752 48.6397 51.2856 47.1587ZM47.6889 42.1186C53.3021 41.1877 56.5178 32.5349 54.8712 22.792C53.2246 13.049 47.3393 5.90542 41.726 6.83627C36.1127 7.76711 32.8971 16.4199 34.5437 26.1629C36.1903 35.9058 42.0756 43.0494 47.6889 42.1186Z" fill="#023284"/>
<path d="M29.6884 5.10865L41.4425 0.383871C38.8873 4.11026 34.0323 11.5208 34.0323 12.0271C34.0323 12.6599 31.5197 22.1516 31.5623 22.6578C31.5963 23.0628 32.8541 32.5573 33.4787 37.254L42.5924 44.9318L51.3654 47.041L16.8696 52.2298C20.5832 50.1374 22.7041 43.16 23.5558 40.5866C23.9987 36.6043 24.2514 32.2199 24.0669 29.8715L23.5132 22.1516C23.377 16.7181 24.4218 12.3505 24.9612 10.8459C25.7107 7.57228 28.425 5.65706 29.6884 5.10865Z" fill="#023284"/>
<path d="M32.1535 18.1819L29.8964 19.7006C29.5699 20.685 28.9169 22.7717 28.9169 23.2442C28.9169 23.8348 29.5131 31.2595 29.5131 31.5126C29.5131 31.7657 30.5352 39.3169 30.8333 40.0762C31.1314 40.8356 35.1772 44.7166 35.7308 45.2228C36.2845 45.7291 39.436 46.1509 39.9044 46.1509C40.3729 46.1509 43.6947 46.2353 43.9502 46.1509C44.1546 46.0834 45.0859 45.5041 45.526 45.2228L43.6947 43.2823L40.3729 40.0762L37.8176 36.8279L35.7308 33.2844L34.4532 28.9814L33.7292 24.6363L33.3034 18.1819H32.1535Z" fill="#023284"/>
</svg>
