<svg width="696" height="581" viewBox="0 0 696 581" fill="none" xmlns="http://www.w3.org/2000/svg">
<rect x="232" y="349" width="232" height="232" rx="116" fill="#8B8EC5"/>
<path d="M287.36 454.34L285.86 455.32C284.72 453.6 284.24 452.68 283.74 451.24C283.12 449.52 282.82 447.7 282.82 445.82C282.82 443.94 283.12 442.14 283.74 440.4C284.24 438.96 284.72 438.06 285.86 436.32L287.36 437.32C286.22 439.04 285.76 439.94 285.32 441.34C284.88 442.74 284.66 444.24 284.66 445.82C284.66 447.4 284.88 448.92 285.32 450.32C285.76 451.72 286.22 452.62 287.36 454.34ZM292.422 436.5H294.402C294.342 436.94 294.322 437.56 294.322 438.38V443.28C294.322 444.3 294.342 444.78 294.402 445.3H292.422C292.502 444.72 292.522 444.2 292.522 443.28V438.4C292.522 437.46 292.502 437.02 292.422 436.5ZM301.342 436.52H303.322C303.242 437.04 303.222 437.4 303.222 438.48V440.74C303.222 443.9 303.062 445.66 302.702 446.84C302.142 448.74 300.862 450.24 298.882 451.36C297.902 451.9 296.922 452.28 295.162 452.8C294.902 452.1 294.762 451.86 294.162 451.14C296.242 450.7 297.302 450.3 298.442 449.52C300.382 448.22 301.102 446.92 301.342 444.2C301.402 443.34 301.422 442.9 301.422 440.64V438.5C301.422 437.28 301.402 437 301.342 436.52ZM325.517 450.82L324.097 452.38C322.557 450.44 320.137 448.1 317.797 446.28C316.477 447.78 315.437 448.74 313.997 449.8C312.617 450.8 311.577 451.44 310.097 452.18C309.717 451.46 309.537 451.2 308.937 450.6C311.517 449.52 313.537 448.16 315.557 446.12C317.437 444.24 319.057 441.86 319.997 439.56C320.057 439.42 320.057 439.4 320.117 439.3C320.137 439.24 320.157 439.22 320.177 439.14C319.937 439.16 319.937 439.16 313.377 439.26C312.297 439.28 311.797 439.32 311.077 439.42L311.017 437.52C311.637 437.62 312.037 437.64 312.917 437.64C312.997 437.64 313.177 437.64 313.357 437.64L320.277 437.56C321.097 437.54 321.317 437.52 321.697 437.38L322.677 438.38C322.457 438.64 322.297 438.9 322.097 439.38C321.077 441.68 320.177 443.22 318.877 444.94C321.397 446.82 323.217 448.44 325.517 450.82ZM339.377 440.22H336.697C336.317 441.18 336.037 441.72 335.457 442.66C335.017 442.24 334.837 442.1 334.277 441.76C335.157 440.54 335.797 439.04 336.217 437.3C336.317 436.84 336.357 436.52 336.377 436.18L337.877 436.54C337.797 436.74 337.797 436.74 337.537 437.7C337.417 438.14 337.337 438.4 337.197 438.86H339.377V437.1C339.377 436.28 339.337 435.8 339.257 435.3H340.917C340.837 435.78 340.797 436.26 340.797 437.1V438.86H343.557C344.477 438.86 345.037 438.82 345.537 438.74V440.32C345.037 440.26 344.417 440.22 343.537 440.22H340.797V443.32H344.177C345.037 443.32 345.597 443.28 346.197 443.2V444.8C345.557 444.74 344.957 444.7 344.177 444.7H341.297C342.617 447.04 344.237 448.72 346.697 450.24C346.197 450.78 345.977 451.08 345.657 451.68C343.477 450.06 341.917 448.24 340.717 445.9C340.797 447.2 340.797 447.46 340.797 448.12V451.42C340.797 452.38 340.837 453 340.917 453.58H339.257C339.337 452.96 339.377 452.32 339.377 451.4V448.2C339.377 447.46 339.417 446.64 339.477 445.88C338.177 448.42 336.617 450.2 334.317 451.74C333.957 451.12 333.737 450.82 333.337 450.42C335.617 449.12 337.417 447.24 338.777 444.7H336.857C336.017 444.7 335.357 444.74 334.797 444.82V443.2C335.377 443.28 335.977 443.32 336.857 443.32H339.377V440.22ZM333.297 440.54H332.717C333.217 441.96 333.757 442.96 334.697 444.18C334.337 444.66 334.177 444.92 333.937 445.46C333.337 444.54 333.017 443.82 332.537 442.4C332.577 443.26 332.617 444.28 332.637 445.52V451.18C332.637 452.28 332.677 452.94 332.757 453.54H331.077C331.157 452.92 331.197 452.26 331.197 451.18V445.9C331.197 444.84 331.217 444.16 331.317 442.8C330.717 445.22 329.997 446.84 328.797 448.58C328.537 447.92 328.357 447.58 327.997 447.1C329.257 445.6 330.357 443.16 330.997 440.54H329.937C329.357 440.54 328.877 440.56 328.557 440.62V439.12C328.897 439.18 329.297 439.2 329.937 439.2H331.197V437.34C331.197 436.22 331.157 435.72 331.097 435.26H332.737C332.657 435.78 332.637 436.34 332.637 437.32V439.2H333.277C333.817 439.2 334.117 439.18 334.477 439.12V440.6C334.097 440.56 333.717 440.54 333.297 440.54ZM360.557 439.1H364.197C365.077 439.1 365.637 439.06 366.137 438.98V440.64C365.537 440.56 364.877 440.52 363.997 440.52H360.617C360.717 442.78 360.897 444.18 361.317 446.1C361.697 447.82 362.417 449.62 363.117 450.54C363.477 451 363.957 451.4 364.157 451.4C364.517 451.4 364.837 450.34 365.137 448.16C365.677 448.64 365.917 448.8 366.537 449.06C366.197 450.8 365.917 451.7 365.497 452.36C365.157 452.92 364.697 453.2 364.197 453.2C363.457 453.2 362.537 452.5 361.717 451.34C360.757 449.92 359.917 447.56 359.477 444.92C359.257 443.64 359.137 442.3 359.057 440.52H350.797C349.997 440.52 349.357 440.56 348.657 440.64V438.98C349.217 439.06 349.897 439.1 350.797 439.1H358.997C358.957 437.84 358.957 437.84 358.937 436.72C358.937 436.32 358.937 436.32 358.837 435.62H360.617C360.557 436 360.497 436.8 360.497 437.44C360.497 437.74 360.517 438.14 360.557 439.1ZM353.037 444.78H351.297C350.557 444.78 349.937 444.82 349.437 444.88V443.32C349.917 443.4 350.477 443.42 351.317 443.42H356.417C357.257 443.42 357.797 443.4 358.277 443.32V444.88C357.757 444.82 357.177 444.78 356.437 444.78H354.577V449.94C355.937 449.66 356.717 449.48 358.957 448.88V450.34C356.757 450.92 355.157 451.28 352.817 451.74C352.657 451.78 351.577 451.98 349.597 452.36C349.337 452.4 349.277 452.42 349.077 452.46L348.757 450.8C349.657 450.8 350.357 450.7 353.037 450.22V444.78ZM364.877 437.92L363.697 438.78C362.937 437.82 362.397 437.28 361.357 436.48L362.497 435.72C363.617 436.6 364.077 437.02 364.877 437.92ZM374.697 446.72H371.197C370.197 446.72 369.497 446.76 368.897 446.84V445.14C369.537 445.22 370.217 445.26 371.197 445.26H383.537C384.557 445.26 385.217 445.22 385.837 445.14V446.84C385.237 446.76 384.537 446.72 383.537 446.72H376.457C375.577 448.7 375.037 449.72 374.077 451.22C375.917 451.12 378.877 450.84 381.437 450.52C380.437 449.42 380.057 449.02 379.137 448.14L380.417 447.42C382.597 449.54 383.817 450.92 385.197 452.7L383.857 453.66C383.157 452.66 382.917 452.3 382.477 451.76C379.117 452.2 375.597 452.58 372.597 452.8C370.557 452.96 369.957 453.02 369.457 453.12L369.197 451.36C369.577 451.4 369.937 451.42 370.237 451.42C370.517 451.42 370.517 451.42 372.257 451.32C373.337 449.64 373.977 448.4 374.697 446.72ZM376.417 435.4H378.117C379.077 436.84 379.917 437.74 381.457 438.9C383.197 440.24 385.057 441.28 386.877 441.96C386.437 442.56 386.197 442.98 385.997 443.52C384.117 442.64 382.177 441.46 380.577 440.16C379.197 439.08 378.257 438.1 377.317 436.78C376.377 438.08 375.557 438.94 374.237 440.04C372.497 441.52 370.877 442.54 368.957 443.42C368.717 442.88 368.397 442.4 368.017 442.02C370.037 441.18 371.617 440.22 373.237 438.9C374.597 437.8 375.557 436.74 376.417 435.4ZM372.437 443.06V441.46C372.897 441.52 373.317 441.54 374.057 441.54H380.557C381.337 441.54 381.817 441.52 382.277 441.46V443.06C381.797 443 381.297 442.98 380.577 442.98H374.037C373.437 442.98 372.877 443 372.437 443.06ZM393.017 445.18V451.58C393.017 452.46 393.057 453.02 393.117 453.56H391.377C391.457 452.98 391.497 452.42 391.497 451.56V445.68C390.557 446.6 390.037 447.02 388.877 447.86C388.657 447.3 388.417 446.9 388.057 446.46C389.477 445.6 390.537 444.74 391.657 443.54C392.657 442.46 393.277 441.54 394.017 440.04H390.417C389.777 440.04 389.337 440.06 388.777 440.12V438.54C389.357 438.6 389.737 438.62 390.357 438.62H391.497V436.8C391.497 436.26 391.457 435.68 391.377 435.26H393.137C393.057 435.68 393.017 436.2 393.017 436.84V438.62H394.097C394.677 438.62 394.997 438.6 395.237 438.56L395.957 439.36C395.817 439.58 395.677 439.82 395.497 440.2C394.857 441.54 394.297 442.42 393.337 443.6C394.377 444.78 395.177 445.46 396.557 446.28C396.197 446.74 395.997 447.08 395.757 447.64C394.597 446.84 393.817 446.14 393.017 445.18ZM401.297 442.76V451.08H404.257C405.297 451.08 405.917 451.04 406.457 450.96V452.74C405.817 452.64 405.097 452.6 404.257 452.6H397.157C396.277 452.6 395.617 452.64 394.977 452.74V450.96C395.557 451.04 396.137 451.08 397.177 451.08H399.737V442.76H397.897C397.177 442.76 396.537 442.8 395.937 442.86V441.18C396.477 441.26 397.037 441.3 397.897 441.3H399.737V437.2C399.737 436.5 399.697 436.06 399.597 435.32H401.437C401.317 436.08 401.297 436.46 401.297 437.2V441.3H403.797C404.677 441.3 405.197 441.28 405.757 441.18V442.86C405.157 442.8 404.537 442.76 403.797 442.76H401.297ZM409.337 455.32L407.837 454.34C408.977 452.62 409.437 451.72 409.877 450.32C410.317 448.92 410.537 447.42 410.537 445.82C410.537 444.22 410.317 442.74 409.877 441.34C409.437 439.94 408.977 439.04 407.837 437.32L409.337 436.32C410.477 438.06 410.957 438.96 411.457 440.4C412.077 442.14 412.377 443.94 412.377 445.82C412.377 447.72 412.077 449.52 411.457 451.24C410.957 452.68 410.477 453.6 409.337 455.32Z" fill="white"/>
<path d="M293.4 473.136L295.848 473.16C295.728 473.784 295.656 474.432 295.584 476.136C295.488 477.888 295.344 483.696 295.344 485.304C295.344 487.488 295.512 488.4 296.016 489.192C296.64 490.104 297.864 490.608 299.52 490.608C302.208 490.608 304.416 489.12 305.688 486.432C306.264 485.256 306.552 484.272 306.864 482.592C307.656 483.288 307.992 483.504 308.904 483.96C307.968 486.888 307.272 488.352 306.192 489.6C304.464 491.592 302.16 492.6 299.376 492.6C297.72 492.6 296.28 492.216 295.368 491.568C294.552 490.968 293.904 490.032 293.592 489C293.376 488.28 293.256 487.104 293.256 485.832C293.256 484.368 293.28 483.624 293.448 476.088C293.472 475.392 293.472 474.84 293.472 474.48C293.472 473.952 293.448 473.664 293.4 473.136ZM317.136 476.52L317.304 474.48C318.864 474.864 321 475.056 323.736 475.056C326.76 475.056 328.68 474.912 330.048 474.576L330.168 476.496C328.68 477.12 326.448 478.488 324.024 480.24L322.56 479.064C324.12 478.032 324.552 477.768 325.512 477.216C325.776 477.072 325.824 477.048 326.136 476.88L326.592 476.64C325.176 476.832 324.336 476.904 323.016 476.904C321.432 476.904 319.392 476.784 317.952 476.592C317.52 476.544 317.448 476.544 317.136 476.52ZM331.44 488.736L331.656 491.088C331.32 491.112 331.224 491.136 330.792 491.208C328.512 491.568 326.376 491.76 324.336 491.76C321.912 491.76 319.872 491.472 318.648 490.992C316.776 490.248 315.816 489 315.816 487.272C315.816 485.64 316.704 484.152 318.672 482.472L320.136 483.576C318.6 484.848 317.88 485.928 317.88 487.032C317.88 488.064 318.552 488.808 319.848 489.24C320.712 489.504 322.296 489.672 324.192 489.672C327.144 489.672 330.048 489.288 331.44 488.736ZM330.792 478.224L332.136 477.504C333.264 478.824 333.792 479.568 334.656 481.152L333.264 481.944C332.568 480.552 331.848 479.472 330.792 478.224ZM328.008 479.52L329.4 478.8C330.528 480.144 331.08 480.96 331.92 482.52L330.504 483.312C329.76 481.824 328.992 480.624 328.008 479.52ZM343.392 473.04L345.624 472.632C345.72 474.288 346.56 478.032 347.376 480.456C348.84 479.856 348.84 479.856 353.064 478.416C354.12 478.032 354.216 478.008 354.648 477.768L355.464 479.928C353.664 480.312 350.712 481.248 348.024 482.28C346.152 483 344.616 483.864 343.584 484.752C342.792 485.472 342.336 486.384 342.336 487.32C342.336 488.568 343.104 489.384 344.64 489.792C345.456 490.008 347.016 490.152 348.648 490.152C351.408 490.152 354.168 489.816 355.704 489.288L355.92 491.664C355.416 491.664 355.416 491.664 354.096 491.808C351.6 492.072 350.376 492.144 348.624 492.144C345.528 492.144 343.632 491.808 342.192 490.992C340.896 490.248 340.176 488.904 340.176 487.272C340.176 485.808 340.944 484.344 342.312 483.216C343.224 482.448 343.992 481.968 345.48 481.224C344.832 479.28 344.352 477.432 343.776 474.576C343.56 473.544 343.536 473.424 343.392 473.04ZM373.752 478.824H378.816C380.256 478.824 380.904 478.8 381.816 478.656V480.864C380.976 480.768 380.136 480.744 378.84 480.744H373.656C373.488 484.008 373.032 485.856 371.904 487.656C370.632 489.744 368.832 491.28 365.904 492.792C365.376 491.856 365.112 491.544 364.392 490.944C367.248 489.768 369.168 488.184 370.32 486.072C371.064 484.656 371.328 483.552 371.52 480.744H365.184C363.888 480.744 363.096 480.768 362.208 480.864V478.656C363.168 478.776 363.816 478.824 365.208 478.824H371.616C371.64 477.912 371.64 477.432 371.64 476.784V475.152C371.64 474.168 371.616 473.616 371.52 473.016H373.92C373.8 473.712 373.8 473.736 373.776 475.128V476.784C373.752 478.512 373.752 478.512 373.752 478.824ZM390.864 475.992V481.128C393.168 480.72 395.856 479.856 398.376 478.704C400.272 477.84 401.304 477.24 402.072 476.544L403.512 478.488C403.08 478.656 403.032 478.704 402.456 479.016C400.272 480.192 397.848 481.2 395.496 481.944C393.816 482.472 393.072 482.64 390.864 483.072V486.864C390.864 488.496 390.96 489 391.32 489.384C391.8 489.888 393.264 490.128 395.832 490.128C397.368 490.128 399.624 489.96 401.4 489.72C402.384 489.6 402.864 489.504 403.824 489.24L403.968 491.52C403.656 491.52 403.656 491.52 402.912 491.616C400.392 491.904 397.512 492.072 395.304 492.072C392.328 492.072 390.744 491.784 389.856 491.064C389.256 490.584 388.944 489.864 388.824 488.736C388.776 488.352 388.752 487.872 388.752 486.768V475.968C388.752 474.84 388.728 474.288 388.632 473.616H391.008C390.912 474.336 390.864 474.912 390.864 475.992ZM404.088 471.648L405.432 470.928C406.56 472.248 407.088 472.992 407.952 474.576L406.56 475.368C405.864 473.976 405.144 472.896 404.088 471.648ZM401.304 472.944L402.696 472.224C403.824 473.568 404.376 474.384 405.216 475.944L403.8 476.736C403.056 475.248 402.288 474.048 401.304 472.944Z" fill="white"/>
<rect x="464" width="232" height="232" rx="116" fill="#014FD7"/>
<path d="M552.808 109.088L554.104 110.552C553.912 110.624 553.84 110.648 553.576 110.744C552.328 111.248 551.272 111.584 549.952 111.896C550.144 114.008 550.24 114.704 550.552 116.168C551.776 115.52 552.736 114.848 553.792 113.888L554.92 115.232C553.072 116.576 552.112 117.176 550.984 117.776C551.992 121.208 553.072 123.056 555.136 125.048C554.488 125.696 554.392 125.84 553.792 126.728C551.896 124.616 550.84 122.744 549.856 119.84C549.088 117.488 548.752 115.88 548.32 112.232C547.504 112.4 547.24 112.448 546.304 112.568V124.04C546.304 125.192 546.352 125.96 546.448 126.656H544.384C544.48 125.912 544.528 125.072 544.528 124.016V112.76C543.784 112.832 543.736 112.832 541.912 112.952C541.744 119.912 540.952 123.56 538.984 126.728C538.504 126.128 538.168 125.792 537.472 125.384C538.456 123.992 539.032 122.504 539.488 120.248C540.016 117.632 540.208 115.04 540.208 110.48C540.208 109.088 540.184 108.272 540.112 107.288C540.4 107.312 540.568 107.312 540.712 107.312C542.632 107.312 546.28 106.76 548.824 106.088C550.144 105.752 551.176 105.344 551.968 104.864L553.48 106.4C553.072 106.544 553.072 106.544 552.4 106.784C549.448 107.888 546.136 108.56 541.936 108.872V111.392C545.656 111.2 547.768 110.888 550.168 110.192C551.416 109.832 552.184 109.496 552.808 109.088ZM533.992 106.64L535.168 105.32C536.704 106.376 537.784 107.264 538.936 108.44L537.808 109.88C536.368 108.344 535.648 107.744 533.992 106.64ZM533.104 112.616L534.136 111.248C535.792 112.232 536.656 112.832 538.192 114.152L537.136 115.712C535.408 114.104 534.832 113.672 533.104 112.616ZM536.32 117.848L537.808 118.976C537.112 121.208 536.536 122.768 535.84 124.184C535.72 124.424 535.432 125 534.664 126.464L533.056 125C534.04 124.04 535.264 121.352 536.32 117.848ZM569.872 110.168H566.152C565.336 110.168 564.808 110.192 564.304 110.24C564.352 109.784 564.376 109.424 564.376 108.68V107.72C564.376 107.096 564.352 106.712 564.28 106.184C564.76 106.256 565.288 106.28 566.152 106.28H569.872C569.848 105.584 569.824 105.32 569.728 104.864H571.624C571.528 105.344 571.504 105.632 571.48 106.28H575.44C576.304 106.28 576.808 106.256 577.312 106.184C577.24 106.64 577.216 107.12 577.216 107.72V108.68C577.216 109.304 577.24 109.784 577.312 110.24C576.808 110.192 576.064 110.168 575.44 110.168H571.48V111.368H576.64C577.648 111.368 578.104 111.344 578.752 111.248V112.904C578.032 112.808 577.6 112.784 576.64 112.784H564.64C563.608 112.784 563.104 112.808 562.528 112.904V111.248C563.08 111.344 563.584 111.368 564.64 111.368H569.872V110.168ZM569.872 107.552H566.032V108.92H569.872V107.552ZM571.48 107.552V108.92H575.536V107.552H571.48ZM575.8 123.056H566.464C565.888 123.056 565.336 123.08 564.88 123.128C564.928 122.672 564.952 122.216 564.952 121.688V115.232C564.952 114.656 564.928 114.176 564.88 113.84C565.24 113.888 565.696 113.912 566.44 113.912H575.008C575.8 113.912 576.184 113.888 576.568 113.84C576.52 114.152 576.496 114.536 576.496 115.136V116.552C576.496 117.176 576.52 117.584 576.568 117.896C576.184 117.848 575.68 117.824 575.032 117.824H566.632V118.928H575.824C576.544 118.928 577.024 118.904 577.384 118.856C577.336 119.168 577.312 119.576 577.312 120.176V121.808C577.312 122.384 577.336 122.792 577.384 123.128C577 123.08 576.448 123.056 575.8 123.056ZM566.632 115.232V116.504H574.792V115.232H566.632ZM566.632 121.712H575.584V120.272H566.632V121.712ZM557.536 106.568L558.856 105.368C560.68 107.072 561.4 107.84 562.792 109.64L561.352 110.96C559.984 109.04 559.144 108.056 557.536 106.568ZM557.224 116.264V114.392C557.824 114.488 558.232 114.512 559.096 114.512H560.512C561.184 114.512 561.784 114.464 562.36 114.392C562.264 115.136 562.24 115.76 562.24 116.96V121.88C562.624 122.648 562.912 123.032 563.464 123.392C564.808 124.28 566.224 124.568 569.416 124.568C574.192 124.568 576.976 124.424 579.376 124.088C578.992 125.048 578.896 125.36 578.776 126.08C576.232 126.176 573.856 126.224 570.88 126.224C566.464 126.224 565.192 126.08 563.776 125.408C562.816 124.976 562 124.28 561.304 123.272C560.296 124.28 559.624 124.856 558.568 125.624C558.16 125.936 557.944 126.104 557.632 126.416L556.72 124.496C557.704 124.088 559.048 123.104 560.464 121.76V116.144H558.952C558.208 116.144 557.824 116.168 557.224 116.264ZM586.864 116.816V124.496C586.864 125.552 586.912 126.224 586.984 126.872H584.896C584.992 126.176 585.04 125.504 585.04 124.472V117.416C583.912 118.52 583.288 119.024 581.896 120.032C581.632 119.36 581.344 118.88 580.912 118.352C582.616 117.32 583.888 116.288 585.232 114.848C586.432 113.552 587.176 112.448 588.064 110.648H583.744C582.976 110.648 582.448 110.672 581.776 110.744V108.848C582.472 108.92 582.928 108.944 583.672 108.944H585.04V106.76C585.04 106.112 584.992 105.416 584.896 104.912H587.008C586.912 105.416 586.864 106.04 586.864 106.808V108.944H588.16C588.856 108.944 589.24 108.92 589.528 108.872L590.392 109.832C590.224 110.096 590.056 110.384 589.84 110.84C589.072 112.448 588.4 113.504 587.248 114.92C588.496 116.336 589.456 117.152 591.112 118.136C590.68 118.688 590.44 119.096 590.152 119.768C588.76 118.808 587.824 117.968 586.864 116.816ZM596.8 113.912V123.896H600.352C601.6 123.896 602.344 123.848 602.992 123.752V125.888C602.224 125.768 601.36 125.72 600.352 125.72H591.832C590.776 125.72 589.984 125.768 589.216 125.888V123.752C589.912 123.848 590.608 123.896 591.856 123.896H594.928V113.912H592.72C591.856 113.912 591.088 113.96 590.368 114.032V112.016C591.016 112.112 591.688 112.16 592.72 112.16H594.928V107.24C594.928 106.4 594.88 105.872 594.76 104.984H596.968C596.824 105.896 596.8 106.352 596.8 107.24V112.16H599.8C600.856 112.16 601.48 112.136 602.152 112.016V114.032C601.432 113.96 600.688 113.912 599.8 113.912H596.8ZM611.992 122.768H609.928C608.68 122.768 608.008 122.792 607.216 122.864C607.288 122.312 607.288 122.312 607.312 120.344V114.608C607.312 113.36 607.288 112.664 607.216 112.016C607.96 112.088 608.728 112.112 609.928 112.112H622.168C623.344 112.112 624.064 112.088 624.856 112.016C624.784 112.592 624.76 113.312 624.76 114.608V120.344L624.784 121.664V122.096C624.784 122.264 624.808 122.456 624.856 122.864C624.088 122.792 623.392 122.768 622.168 122.768H619.936C621.808 124.04 624.16 124.928 627.112 125.456C626.56 126.032 626.224 126.488 625.96 127.088C622.288 126.128 620.896 125.504 618.472 123.824L619.768 122.768H612.088L613.528 123.896C612.184 124.808 611.296 125.288 609.808 125.912C608.92 126.272 608.368 126.44 606.112 127.064C605.752 126.32 605.536 126.008 604.936 125.384C607.792 124.976 610.408 123.992 611.992 122.768ZM609.088 113.6V115.184H622.984V113.6H609.088ZM609.088 116.6V118.208H622.984V116.6H609.088ZM609.088 119.624V121.304H622.984V119.624H609.088ZM623.872 107.456V109.088C623.872 109.808 623.896 110.288 623.968 110.816C623.2 110.768 622.408 110.744 621.304 110.744H610.792C609.664 110.744 608.896 110.768 608.128 110.816C608.2 110.216 608.224 109.76 608.224 109.088V107.456C608.224 106.76 608.2 106.376 608.128 105.704C608.872 105.8 609.52 105.824 610.84 105.824H621.256C622.552 105.824 623.2 105.8 623.968 105.704C623.896 106.304 623.872 106.712 623.872 107.456ZM622.024 107.312H610.048V109.28H622.024V107.312Z" fill="white"/>
<rect width="232" height="232" rx="116" fill="#014FD7"/>
<path d="M85.36 105.34L83.86 106.32C82.72 104.6 82.24 103.68 81.74 102.24C81.12 100.52 80.82 98.7 80.82 96.82C80.82 94.94 81.12 93.14 81.74 91.4C82.24 89.96 82.72 89.06 83.86 87.32L85.36 88.32C84.22 90.04 83.76 90.94 83.32 92.34C82.88 93.74 82.66 95.24 82.66 96.82C82.66 98.4 82.88 99.92 83.32 101.32C83.76 102.72 84.22 103.62 85.36 105.34ZM103.242 89.74L104.322 90.96C104.162 91.02 104.102 91.04 103.882 91.12C102.842 91.54 101.962 91.82 100.862 92.08C101.022 93.84 101.102 94.42 101.362 95.64C102.382 95.1 103.182 94.54 104.062 93.74L105.002 94.86C103.462 95.98 102.662 96.48 101.722 96.98C102.562 99.84 103.462 101.38 105.182 103.04C104.642 103.58 104.562 103.7 104.062 104.44C102.482 102.68 101.602 101.12 100.782 98.7C100.142 96.74 99.8623 95.4 99.5023 92.36C98.8223 92.5 98.6023 92.54 97.8223 92.64V102.2C97.8223 103.16 97.8623 103.8 97.9423 104.38H96.2223C96.3023 103.76 96.3423 103.06 96.3423 102.18V92.8C95.7223 92.86 95.6823 92.86 94.1623 92.96C94.0223 98.76 93.3623 101.8 91.7223 104.44C91.3223 103.94 91.0423 103.66 90.4623 103.32C91.2823 102.16 91.7623 100.92 92.1423 99.04C92.5823 96.86 92.7423 94.7 92.7423 90.9C92.7423 89.74 92.7223 89.06 92.6623 88.24C92.9023 88.26 93.0423 88.26 93.1623 88.26C94.7623 88.26 97.8023 87.8 99.9223 87.24C101.022 86.96 101.882 86.62 102.542 86.22L103.802 87.5C103.462 87.62 103.462 87.62 102.902 87.82C100.442 88.74 97.6823 89.3 94.1823 89.56V91.66C97.2823 91.5 99.0423 91.24 101.042 90.66C102.082 90.36 102.722 90.08 103.242 89.74ZM87.5623 87.7L88.5423 86.6C89.8223 87.48 90.7223 88.22 91.6823 89.2L90.7423 90.4C89.5423 89.12 88.9423 88.62 87.5623 87.7ZM86.8223 92.68L87.6823 91.54C89.0623 92.36 89.7823 92.86 91.0623 93.96L90.1823 95.26C88.7423 93.92 88.2623 93.56 86.8223 92.68ZM89.5023 97.04L90.7423 97.98C90.1623 99.84 89.6823 101.14 89.1023 102.32C89.0023 102.52 88.7623 103 88.1223 104.22L86.7823 103C87.6023 102.2 88.6223 99.96 89.5023 97.04ZM117.462 90.64H114.362C113.682 90.64 113.242 90.66 112.822 90.7C112.862 90.32 112.882 90.02 112.882 89.4V88.6C112.882 88.08 112.862 87.76 112.802 87.32C113.202 87.38 113.642 87.4 114.362 87.4H117.462C117.442 86.82 117.422 86.6 117.342 86.22H118.922C118.842 86.62 118.822 86.86 118.802 87.4H122.102C122.822 87.4 123.242 87.38 123.662 87.32C123.602 87.7 123.582 88.1 123.582 88.6V89.4C123.582 89.92 123.602 90.32 123.662 90.7C123.242 90.66 122.622 90.64 122.102 90.64H118.802V91.64H123.102C123.942 91.64 124.322 91.62 124.862 91.54V92.92C124.262 92.84 123.902 92.82 123.102 92.82H113.102C112.242 92.82 111.822 92.84 111.342 92.92V91.54C111.802 91.62 112.222 91.64 113.102 91.64H117.462V90.64ZM117.462 88.46H114.262V89.6H117.462V88.46ZM118.802 88.46V89.6H122.182V88.46H118.802ZM122.402 101.38H114.622C114.142 101.38 113.682 101.4 113.302 101.44C113.342 101.06 113.362 100.68 113.362 100.24V94.86C113.362 94.38 113.342 93.98 113.302 93.7C113.602 93.74 113.982 93.76 114.602 93.76H121.742C122.402 93.76 122.722 93.74 123.042 93.7C123.002 93.96 122.982 94.28 122.982 94.78V95.96C122.982 96.48 123.002 96.82 123.042 97.08C122.722 97.04 122.302 97.02 121.762 97.02H114.762V97.94H122.422C123.022 97.94 123.422 97.92 123.722 97.88C123.682 98.14 123.662 98.48 123.662 98.98V100.34C123.662 100.82 123.682 101.16 123.722 101.44C123.402 101.4 122.942 101.38 122.402 101.38ZM114.762 94.86V95.92H121.562V94.86H114.762ZM114.762 100.26H122.222V99.06H114.762V100.26ZM107.182 87.64L108.282 86.64C109.802 88.06 110.402 88.7 111.562 90.2L110.362 91.3C109.222 89.7 108.522 88.88 107.182 87.64ZM106.922 95.72V94.16C107.422 94.24 107.762 94.26 108.482 94.26H109.662C110.222 94.26 110.722 94.22 111.202 94.16C111.122 94.78 111.102 95.3 111.102 96.3V100.4C111.422 101.04 111.662 101.36 112.122 101.66C113.242 102.4 114.422 102.64 117.082 102.64C121.062 102.64 123.382 102.52 125.382 102.24C125.062 103.04 124.982 103.3 124.882 103.9C122.762 103.98 120.782 104.02 118.302 104.02C114.622 104.02 113.562 103.9 112.382 103.34C111.582 102.98 110.902 102.4 110.322 101.56C109.482 102.4 108.922 102.88 108.042 103.52C107.702 103.78 107.522 103.92 107.262 104.18L106.502 102.58C107.322 102.24 108.442 101.42 109.622 100.3V95.62H108.362C107.742 95.62 107.422 95.64 106.922 95.72ZM135.142 91.08H130.942C130.282 92.14 129.702 92.88 128.782 93.84C128.302 93.32 128.062 93.12 127.542 92.8C128.882 91.54 129.382 90.9 130.142 89.44C130.662 88.4 130.942 87.58 131.102 86.68L132.762 87.1C132.602 87.44 132.562 87.54 132.382 88.04C132.082 88.8 131.982 89.06 131.702 89.66H135.142V88.24C135.142 87.5 135.122 87.06 135.022 86.4H136.802C136.722 86.98 136.682 87.48 136.682 88.24V89.66H141.322C142.182 89.66 142.762 89.62 143.302 89.54V91.2C142.742 91.12 142.162 91.08 141.322 91.08H136.682V94.42H142.722C143.662 94.42 144.282 94.38 144.842 94.3V95.98C144.222 95.9 143.622 95.86 142.722 95.86H138.642V102.24C138.642 102.74 138.902 102.82 140.442 102.82C142.142 102.82 142.602 102.7 142.842 102.16C143.082 101.62 143.162 100.84 143.162 99.3C143.682 99.58 144.042 99.72 144.722 99.9C144.582 101.7 144.402 102.62 144.062 103.2C143.562 104.08 142.802 104.28 140.122 104.28C137.702 104.28 137.102 103.98 137.102 102.82V95.86H134.322C134.102 99.1 133.542 100.66 132.042 102.12C130.902 103.22 129.842 103.86 127.742 104.72C127.482 104.2 127.382 104.02 126.782 103.26C128.742 102.64 130.002 101.96 131.082 100.88C131.862 100.1 132.362 99.02 132.582 97.56C132.662 97.14 132.682 96.76 132.742 95.86H129.262C128.382 95.86 127.762 95.9 127.162 95.98V94.3C127.722 94.38 128.342 94.42 129.262 94.42H135.142V91.08ZM147.942 106.32L146.442 105.34C147.582 103.62 148.042 102.72 148.482 101.32C148.922 99.92 149.142 98.42 149.142 96.82C149.142 95.22 148.922 93.74 148.482 92.34C148.042 90.94 147.582 90.04 146.442 88.32L147.942 87.32C149.082 89.06 149.562 89.96 150.062 91.4C150.682 93.14 150.982 94.94 150.982 96.82C150.982 98.72 150.682 100.52 150.062 102.24C149.562 103.68 149.082 104.6 147.942 106.32Z" fill="white"/>
<path d="M79.04 128.984H72.08C71.048 128.984 70.328 129.032 69.608 129.128V127.184C70.28 127.28 71.024 127.328 72.152 127.328H79.04V125.624C79.04 124.448 78.992 123.752 78.896 123.032H80.984C80.888 123.8 80.84 124.472 80.84 125.624V127.328H87.824C88.928 127.328 89.672 127.28 90.368 127.184V129.128C89.72 129.032 88.952 128.984 87.824 128.984H80.912C81.416 130.904 82.208 132.68 83.264 134.336C85.112 132.824 86.48 131.312 87.272 129.968L88.88 131.192C88.688 131.408 88.688 131.408 87.44 132.728C86.648 133.616 85.592 134.552 84.224 135.704C85.04 136.76 85.688 137.48 86.624 138.368C87.968 139.616 88.928 140.264 90.752 141.248C90.224 141.8 89.84 142.28 89.456 142.976C87.08 141.464 85.28 139.832 83.696 137.768C82.256 135.848 81.512 134.48 80.72 132.296C80.72 132.632 80.744 132.92 80.744 133.088C80.768 133.328 80.792 134.336 80.84 136.112V142.616C80.84 144.128 80.264 144.56 78.224 144.56C77.336 144.56 76.52 144.512 75.272 144.416C75.2 143.696 75.104 143.264 74.816 142.544C76.016 142.736 77.048 142.832 77.96 142.832C78.848 142.832 79.04 142.712 79.04 142.136V128.984ZM82.712 124.28L83.96 123.176C85.688 124.256 86.096 124.592 87.512 125.936L86.192 127.112C84.872 125.72 84.32 125.264 82.712 124.28ZM71.768 131.192L73.208 130.088C74.648 131.576 75.416 132.536 76.544 134.24L75.008 135.44C73.952 133.64 73.088 132.488 71.768 131.192ZM77.888 135.608L78.464 137.36C76.184 139.016 75.32 139.544 71.888 141.44C71.36 141.752 71.072 141.92 70.664 142.184L69.728 140.216C70.832 139.88 71.768 139.472 73.304 138.608C75.248 137.528 76.304 136.856 77.888 135.608ZM102.848 123.296H105.104C105.032 123.68 104.96 124.784 104.96 125.48C104.96 127.016 105.248 129.632 105.56 130.904C106.064 132.944 107.408 135.704 108.872 137.624C109.76 138.8 111.056 140.12 112.304 141.128C113.024 141.704 113.6 142.088 114.92 142.856C114.224 143.48 113.96 143.84 113.48 144.68C110.576 142.688 108.896 141.08 107.192 138.68C105.728 136.592 104.792 134.432 104.048 131.336C103.616 133.52 103.208 134.768 102.344 136.544C101.48 138.368 100.4 139.832 98.84 141.392C97.496 142.712 96.584 143.432 94.592 144.68C94.16 143.912 93.824 143.504 93.152 142.952C95.96 141.416 97.376 140.288 98.96 138.248C101.696 134.768 102.944 130.712 102.944 125.312C102.944 124.352 102.92 123.92 102.848 123.296ZM129.536 136.376V142.184H135.944C137.216 142.184 138.008 142.136 138.776 142.016V144.128C137.984 144.008 137.168 143.96 135.944 143.96H120.176C118.928 143.96 118.136 144.008 117.344 144.128V142.016C118.016 142.136 118.832 142.184 120.056 142.184H121.592V136.16C121.592 135.056 121.544 134.288 121.448 133.496H123.632C123.512 134.24 123.464 134.984 123.464 136.16V142.184H127.64V132.008C127.64 130.856 127.592 130.16 127.496 129.368H129.704C129.584 130.136 129.536 130.784 129.536 131.96V134.6H133.688C134.84 134.6 135.584 134.552 136.184 134.456V136.52C135.512 136.424 134.792 136.376 133.688 136.376H129.536ZM127.04 123.248H128.984C130.064 124.976 131.264 126.272 133.208 127.808C135.176 129.368 137.12 130.52 139.376 131.456C138.824 132.152 138.656 132.44 138.296 133.304C136.232 132.32 133.904 130.832 132.104 129.344C130.352 127.88 129.344 126.776 128.072 125.024C126.8 126.8 126.008 127.712 124.448 129.128C122.48 130.928 120.488 132.32 118.112 133.544C117.776 132.776 117.608 132.512 117.008 131.792C119.192 130.784 121.304 129.416 123.2 127.76C124.928 126.248 126.032 124.952 127.04 123.248ZM151.016 132.32H144.776C143.648 132.32 142.952 132.344 142.256 132.44V130.712C142.928 130.808 143.576 130.832 144.776 130.832H148.088C147.728 129.848 147.416 129.176 146.936 128.36H144.032C142.88 128.36 142.016 128.408 141.296 128.48V126.704C141.992 126.8 142.736 126.848 143.984 126.848H145.376C144.944 126.056 144.392 125.336 143.504 124.4L145.16 123.68C146.192 124.952 146.528 125.504 147.224 126.848H149.048V125.048C149.048 124.256 149 123.608 148.904 123.08H150.848C150.776 123.536 150.752 124.088 150.752 125V126.848H153.032V125C153.032 124.16 153.008 123.536 152.936 123.08H154.88C154.784 123.56 154.736 124.256 154.736 125.048V126.848H156.8C157.76 125.528 158.24 124.688 158.672 123.56L160.424 124.28C159.752 125.384 159.32 126.056 158.696 126.848H159.944C161.192 126.848 161.912 126.8 162.608 126.704V128.48C161.912 128.408 161.024 128.36 159.872 128.36H157.16C156.752 129.272 156.416 130.04 155.96 130.832H159.2C160.424 130.832 161.048 130.808 161.744 130.712V132.44C161.048 132.344 160.352 132.32 159.2 132.32H152.72V133.88H157.808C158.96 133.88 159.704 133.856 160.352 133.76V135.44C159.68 135.344 158.96 135.32 157.808 135.32H152.72V136.976H159.872C161.24 136.976 161.984 136.928 162.632 136.832V138.632C161.768 138.536 160.976 138.488 159.896 138.488H154.04C155.936 140.264 159.272 141.704 163.16 142.4C162.656 143.024 162.44 143.384 162.104 144.152C157.52 142.856 155.264 141.632 152.648 139.088C152.696 140.048 152.72 140.528 152.72 141.032V142.52C152.72 143.552 152.768 144.296 152.864 144.992H150.896C150.992 144.248 151.04 143.504 151.04 142.496V141.032C151.04 140.504 151.064 139.976 151.112 139.112C149.72 140.504 148.856 141.152 147.368 142.016C145.88 142.856 144.464 143.456 142.256 144.152C141.896 143.408 141.656 143.072 141.128 142.472C144.896 141.656 147.488 140.456 149.72 138.488H144.248C143.168 138.488 142.328 138.536 141.488 138.632V136.832C142.184 136.928 142.928 136.976 144.224 136.976H151.016V135.32H146.216C145.088 135.32 144.344 135.344 143.696 135.44V133.76C144.392 133.856 145.112 133.88 146.216 133.88H151.016V132.32ZM149.888 130.832H154.112C154.592 129.968 154.88 129.272 155.216 128.36H148.88C149.36 129.392 149.552 129.824 149.888 130.832Z" fill="white"/>
<path d="M313.386 76.64V72.986C313.386 72.248 313.35 71.78 313.278 71.258H314.934C314.844 71.798 314.826 72.23 314.826 73.004V76.64H318.246C319.038 76.64 319.65 76.604 320.226 76.514V78.098C319.596 78.008 318.912 77.972 318.246 77.972H314.826V85.19H317.742C318.516 85.19 319.092 85.154 319.686 85.064V86.594C319.128 86.504 318.462 86.468 317.724 86.468H310.866C310.128 86.468 309.444 86.504 308.886 86.594V85.064C309.48 85.154 310.074 85.19 310.848 85.19H313.386V77.972H310.452C309.822 77.972 309.102 78.008 308.49 78.098V76.514C309.048 76.604 309.696 76.64 310.47 76.64H313.386ZM306.132 85.172V79.61C306.132 78.872 306.15 78.35 306.186 77.486C305.556 78.548 305.196 79.07 304.314 80.06C304.152 79.718 304.062 79.52 303.954 79.376C303.666 78.872 303.666 78.872 303.558 78.71C304.782 77.432 305.736 76.064 306.546 74.426C307.194 73.094 307.644 71.816 307.788 70.88L309.282 71.348C309.102 71.744 309.102 71.744 308.67 72.932C308.382 73.742 308.076 74.408 307.536 75.488V85.208C307.536 85.982 307.572 86.684 307.626 87.314H306.024C306.096 86.666 306.132 86.09 306.132 85.172ZM329.226 80.978V79.88H324.942C324.24 79.88 323.772 79.898 323.25 79.952V78.692C323.682 78.764 324.132 78.782 324.978 78.782H329.226V77.774H325.392C324.798 77.774 324.33 77.792 323.916 77.846C323.97 77.432 323.988 77.108 323.988 76.622V75.722C323.988 75.236 323.97 74.93 323.916 74.48C324.348 74.534 324.78 74.552 325.41 74.552H329.226V73.526H324.042C323.196 73.526 322.548 73.562 321.99 73.634V72.284C322.476 72.356 323.034 72.392 324.096 72.392H329.226C329.226 71.636 329.208 71.33 329.118 70.862H330.63C330.522 71.312 330.504 71.582 330.504 72.392H335.886C336.948 72.392 337.506 72.356 337.992 72.284V73.634C337.398 73.562 336.804 73.526 335.958 73.526H330.504V74.552H334.644C335.274 74.552 335.688 74.534 336.12 74.48C336.066 74.93 336.048 75.2 336.048 75.722V76.622C336.048 77.144 336.066 77.396 336.12 77.846C335.706 77.792 335.256 77.774 334.68 77.774H330.504V78.782H334.464C335.508 78.782 335.976 78.764 336.444 78.71C336.408 79.106 336.39 79.412 336.39 80.276V80.978C337.326 80.978 337.83 80.942 338.208 80.87V82.166C337.776 82.094 337.38 82.076 336.39 82.076V83.246C336.39 84.146 336.408 84.614 336.498 85.082H335.094V84.362H330.504V85.712C330.504 87.044 330.108 87.332 328.236 87.332C327.858 87.332 327.318 87.314 326.526 87.26C326.472 86.738 326.4 86.486 326.148 85.946C327.12 86.072 327.732 86.126 328.434 86.126C329.064 86.126 329.226 86.036 329.226 85.658V84.362H324.87C324.06 84.362 323.682 84.38 323.106 84.452V83.174C323.628 83.228 323.934 83.246 324.834 83.246H329.226V82.076H323.844C322.854 82.076 322.368 82.094 321.882 82.166V80.87C322.332 80.96 322.818 80.978 323.826 80.978H329.226ZM330.504 80.978H335.094V79.88H330.504V80.978ZM330.504 82.076V83.246H335.094V82.076H330.504ZM329.226 75.596H325.302V76.748H329.226V75.596ZM330.504 75.596V76.748H334.734V75.596H330.504ZM342.888 83.642H342.906C343.086 82.634 343.374 81.77 343.95 80.348L345.03 80.852C344.13 82.76 343.518 84.83 343.518 85.928C343.518 86 343.518 86.126 343.536 86.27L341.97 86.378C341.934 86.09 341.916 85.982 341.862 85.622C341.52 83.642 341.394 82.31 341.394 80.492C341.394 77.972 341.61 76.028 342.186 73.364C342.366 72.464 342.402 72.284 342.438 71.834L344.148 72.068C343.824 72.914 343.5 74.246 343.248 75.65C342.978 77.234 342.834 79.106 342.834 81.158C342.834 81.518 342.852 82.382 342.87 82.868C342.87 83.264 342.888 83.336 342.888 83.642ZM346.29 75.416L346.326 73.904C347.154 74.102 347.982 74.174 349.368 74.174C351.474 74.174 353.202 73.994 354.3 73.688L354.39 75.218C354.336 75.218 353.922 75.272 353.148 75.38C352.05 75.524 350.646 75.614 349.314 75.614C348.396 75.614 347.82 75.578 346.902 75.488C346.848 75.488 346.848 75.488 346.578 75.452C346.47 75.434 346.434 75.434 346.29 75.416ZM347.586 78.782L348.81 79.394C347.874 80.42 347.46 81.248 347.46 82.04C347.46 83.264 348.576 83.876 350.754 83.876C352.374 83.876 353.922 83.642 354.948 83.246L355.11 84.884C354.876 84.92 354.84 84.92 354.462 84.992C353.166 85.226 351.96 85.334 350.754 85.334C348.63 85.334 347.28 84.884 346.524 83.912C346.182 83.462 345.984 82.832 345.984 82.184C345.984 81.122 346.47 80.078 347.586 78.782ZM364.92 75.11H368.772C369.798 73.58 370.284 72.626 370.806 71.132L372.174 71.618C371.472 73.094 370.878 74.156 370.194 75.11H372.102C372.84 75.11 373.326 75.092 373.848 75.02V76.424C373.272 76.37 372.732 76.334 372.066 76.334H368.862V79.628H371.508C372.192 79.628 372.714 79.592 373.182 79.538V80.924C372.66 80.87 372.138 80.834 371.49 80.834H368.862V85.046C369.816 85.244 370.932 85.334 372.3 85.334C372.804 85.334 373.308 85.316 374.352 85.28C374.118 85.874 374.028 86.162 373.938 86.756C373.506 86.774 373.164 86.774 372.948 86.774C371.166 86.774 369.6 86.63 368.646 86.36C366.738 85.82 365.622 85.01 364.614 83.426C364.128 84.92 363.606 86.018 362.85 87.116C362.382 86.612 362.22 86.486 361.716 86.18C362.652 84.866 363.21 83.678 363.606 82.094C363.912 80.906 364.092 79.574 364.092 78.548C364.092 78.314 364.092 78.26 364.092 78.08L365.55 78.278C365.514 78.458 365.46 78.872 365.406 79.376C365.298 80.348 365.19 81.032 365.01 81.86C365.658 83.174 366.468 84.056 367.494 84.56V76.334H364.992C364.308 76.334 363.678 76.37 363.21 76.424V75.02C363.714 75.092 364.2 75.11 364.92 75.11ZM361.608 70.934L362.796 71.78C362.76 71.816 362.76 71.816 361.662 73.076C360.924 73.922 359.682 74.966 358.548 75.722C358.332 75.272 358.116 74.966 357.738 74.606C359.52 73.526 360.978 72.158 361.608 70.934ZM364.326 71.744L365.478 71.132C366.36 72.284 366.72 72.842 367.458 74.282L366.198 74.93C365.622 73.58 365.1 72.68 364.326 71.744ZM359.844 85.28V81.536C359.844 80.744 359.844 80.51 359.898 79.43C359.358 80.114 358.89 80.6 358.224 81.14C358.062 80.654 357.846 80.222 357.54 79.844C359.304 78.584 360.978 76.604 361.608 75.002L362.832 75.776C362.688 75.956 362.634 76.046 362.436 76.352C361.95 77.108 361.896 77.198 361.194 78.098V85.262C361.194 86.216 361.212 86.792 361.284 87.368H359.736C359.808 86.81 359.844 86.144 359.844 85.28ZM383.226 80.978V79.88H378.942C378.24 79.88 377.772 79.898 377.25 79.952V78.692C377.682 78.764 378.132 78.782 378.978 78.782H383.226V77.774H379.392C378.798 77.774 378.33 77.792 377.916 77.846C377.97 77.432 377.988 77.108 377.988 76.622V75.722C377.988 75.236 377.97 74.93 377.916 74.48C378.348 74.534 378.78 74.552 379.41 74.552H383.226V73.526H378.042C377.196 73.526 376.548 73.562 375.99 73.634V72.284C376.476 72.356 377.034 72.392 378.096 72.392H383.226C383.226 71.636 383.208 71.33 383.118 70.862H384.63C384.522 71.312 384.504 71.582 384.504 72.392H389.886C390.948 72.392 391.506 72.356 391.992 72.284V73.634C391.398 73.562 390.804 73.526 389.958 73.526H384.504V74.552H388.644C389.274 74.552 389.688 74.534 390.12 74.48C390.066 74.93 390.048 75.2 390.048 75.722V76.622C390.048 77.144 390.066 77.396 390.12 77.846C389.706 77.792 389.256 77.774 388.68 77.774H384.504V78.782H388.464C389.508 78.782 389.976 78.764 390.444 78.71C390.408 79.106 390.39 79.412 390.39 80.276V80.978C391.326 80.978 391.83 80.942 392.208 80.87V82.166C391.776 82.094 391.38 82.076 390.39 82.076V83.246C390.39 84.146 390.408 84.614 390.498 85.082H389.094V84.362H384.504V85.712C384.504 87.044 384.108 87.332 382.236 87.332C381.858 87.332 381.318 87.314 380.526 87.26C380.472 86.738 380.4 86.486 380.148 85.946C381.12 86.072 381.732 86.126 382.434 86.126C383.064 86.126 383.226 86.036 383.226 85.658V84.362H378.87C378.06 84.362 377.682 84.38 377.106 84.452V83.174C377.628 83.228 377.934 83.246 378.834 83.246H383.226V82.076H377.844C376.854 82.076 376.368 82.094 375.882 82.166V80.87C376.332 80.96 376.818 80.978 377.826 80.978H383.226ZM384.504 80.978H389.094V79.88H384.504V80.978ZM384.504 82.076V83.246H389.094V82.076H384.504ZM383.226 75.596H379.302V76.748H383.226V75.596ZM384.504 75.596V76.748H388.734V75.596H384.504Z" fill="#797979"/>
<path d="M235.939 104.939C235.354 105.525 235.354 106.475 235.939 107.061L245.485 116.607C246.071 117.192 247.021 117.192 247.607 116.607C248.192 116.021 248.192 115.071 247.607 114.485L239.121 106L247.607 97.5147C248.192 96.9289 248.192 95.9792 247.607 95.3934C247.021 94.8076 246.071 94.8076 245.485 95.3934L235.939 104.939ZM237 107.5H459V104.5H237V107.5Z" fill="#E68A00"/>
<path d="M460.061 131.061C460.646 130.475 460.646 129.525 460.061 128.939L450.515 119.393C449.929 118.808 448.979 118.808 448.393 119.393C447.808 119.979 447.808 120.929 448.393 121.515L456.879 130L448.393 138.485C447.808 139.071 447.808 140.021 448.393 140.607C448.979 141.192 449.929 141.192 450.515 140.607L460.061 131.061ZM237 131.5H459V128.5H237V131.5Z" fill="#14BB61"/>
<path d="M313.386 149.64V145.986C313.386 145.248 313.35 144.78 313.278 144.258H314.934C314.844 144.798 314.826 145.23 314.826 146.004V149.64H318.246C319.038 149.64 319.65 149.604 320.226 149.514V151.098C319.596 151.008 318.912 150.972 318.246 150.972H314.826V158.19H317.742C318.516 158.19 319.092 158.154 319.686 158.064V159.594C319.128 159.504 318.462 159.468 317.724 159.468H310.866C310.128 159.468 309.444 159.504 308.886 159.594V158.064C309.48 158.154 310.074 158.19 310.848 158.19H313.386V150.972H310.452C309.822 150.972 309.102 151.008 308.49 151.098V149.514C309.048 149.604 309.696 149.64 310.47 149.64H313.386ZM306.132 158.172V152.61C306.132 151.872 306.15 151.35 306.186 150.486C305.556 151.548 305.196 152.07 304.314 153.06C304.152 152.718 304.062 152.52 303.954 152.376C303.666 151.872 303.666 151.872 303.558 151.71C304.782 150.432 305.736 149.064 306.546 147.426C307.194 146.094 307.644 144.816 307.788 143.88L309.282 144.348C309.102 144.744 309.102 144.744 308.67 145.932C308.382 146.742 308.076 147.408 307.536 148.488V158.208C307.536 158.982 307.572 159.684 307.626 160.314H306.024C306.096 159.666 306.132 159.09 306.132 158.172ZM329.226 153.978V152.88H324.942C324.24 152.88 323.772 152.898 323.25 152.952V151.692C323.682 151.764 324.132 151.782 324.978 151.782H329.226V150.774H325.392C324.798 150.774 324.33 150.792 323.916 150.846C323.97 150.432 323.988 150.108 323.988 149.622V148.722C323.988 148.236 323.97 147.93 323.916 147.48C324.348 147.534 324.78 147.552 325.41 147.552H329.226V146.526H324.042C323.196 146.526 322.548 146.562 321.99 146.634V145.284C322.476 145.356 323.034 145.392 324.096 145.392H329.226C329.226 144.636 329.208 144.33 329.118 143.862H330.63C330.522 144.312 330.504 144.582 330.504 145.392H335.886C336.948 145.392 337.506 145.356 337.992 145.284V146.634C337.398 146.562 336.804 146.526 335.958 146.526H330.504V147.552H334.644C335.274 147.552 335.688 147.534 336.12 147.48C336.066 147.93 336.048 148.2 336.048 148.722V149.622C336.048 150.144 336.066 150.396 336.12 150.846C335.706 150.792 335.256 150.774 334.68 150.774H330.504V151.782H334.464C335.508 151.782 335.976 151.764 336.444 151.71C336.408 152.106 336.39 152.412 336.39 153.276V153.978C337.326 153.978 337.83 153.942 338.208 153.87V155.166C337.776 155.094 337.38 155.076 336.39 155.076V156.246C336.39 157.146 336.408 157.614 336.498 158.082H335.094V157.362H330.504V158.712C330.504 160.044 330.108 160.332 328.236 160.332C327.858 160.332 327.318 160.314 326.526 160.26C326.472 159.738 326.4 159.486 326.148 158.946C327.12 159.072 327.732 159.126 328.434 159.126C329.064 159.126 329.226 159.036 329.226 158.658V157.362H324.87C324.06 157.362 323.682 157.38 323.106 157.452V156.174C323.628 156.228 323.934 156.246 324.834 156.246H329.226V155.076H323.844C322.854 155.076 322.368 155.094 321.882 155.166V153.87C322.332 153.96 322.818 153.978 323.826 153.978H329.226ZM330.504 153.978H335.094V152.88H330.504V153.978ZM330.504 155.076V156.246H335.094V155.076H330.504ZM329.226 148.596H325.302V149.748H329.226V148.596ZM330.504 148.596V149.748H334.734V148.596H330.504ZM347.586 157.812C349.152 157.56 350.016 157.308 350.898 156.84C352.698 155.886 353.742 154.122 353.742 152.034C353.742 150.072 352.788 148.488 351.078 147.66C350.448 147.354 349.944 147.228 349.062 147.174C348.756 149.82 348.108 152.466 347.262 154.374C346.236 156.732 345.156 157.812 343.806 157.812C341.988 157.812 340.656 155.886 340.656 153.258C340.656 151.386 341.34 149.586 342.582 148.218C344.04 146.616 346.056 145.788 348.504 145.788C352.59 145.788 355.308 148.308 355.308 152.106C355.308 154.896 353.886 157.128 351.366 158.334C350.502 158.748 349.746 158.982 348.36 159.27C348.126 158.55 348 158.316 347.586 157.812ZM347.514 147.21C346.47 147.3 345.732 147.534 344.94 148.056C343.194 149.154 342.132 151.134 342.132 153.276C342.132 154.914 342.852 156.21 343.788 156.21C344.49 156.21 345.174 155.382 345.912 153.69C346.632 152.016 347.28 149.442 347.514 147.21ZM360.582 147.498V145.824C360.582 145.104 360.546 144.528 360.456 143.988H362.058C361.986 144.51 361.95 145.086 361.95 145.788V147.498H362.526C363.066 147.498 363.498 147.48 363.966 147.408V148.812C363.444 148.74 363.03 148.722 362.508 148.722H361.95V152.16C362.58 151.962 362.922 151.854 363.984 151.458L364.002 152.7C363.192 153.042 362.976 153.114 361.95 153.474V158.838C361.95 159.918 361.482 160.206 359.826 160.206C359.34 160.206 359.07 160.188 358.476 160.152C358.44 159.54 358.368 159.27 358.188 158.766C358.89 158.874 359.43 158.928 359.988 158.928C360.456 158.928 360.582 158.82 360.582 158.442V153.924C359.952 154.122 359.898 154.14 359.16 154.338C358.872 154.41 358.512 154.536 358.242 154.644L357.936 153.15C358.584 153.096 359.016 152.988 360.582 152.556V148.722H359.538C359.034 148.722 358.584 148.74 358.098 148.812V147.39C358.548 147.462 358.98 147.498 359.538 147.498H360.582ZM366.072 145.734V146.328C369.006 145.896 371.382 145.212 372.372 144.528L373.434 145.716C371.04 146.598 368.808 147.138 366.072 147.48V148.614C366.072 149.316 366.36 149.388 369.366 149.388C372.462 149.388 372.516 149.334 372.66 147.138C373.128 147.39 373.524 147.534 373.974 147.642C373.812 149.19 373.578 149.802 373.02 150.162C372.462 150.522 371.634 150.612 368.7 150.612C365.388 150.612 364.722 150.342 364.722 148.992V145.806C364.722 145.014 364.686 144.564 364.614 144.042H366.162C366.09 144.492 366.072 144.978 366.072 145.734ZM364.758 158.586V153.366C364.758 152.718 364.74 152.286 364.686 151.926C365.136 151.98 365.532 151.998 366.288 151.998H371.436C372.228 151.998 372.588 151.98 373.038 151.926C372.984 152.286 372.966 152.718 372.966 153.384V158.55C372.966 159.522 372.984 159.9 373.056 160.35H371.634V159.414H366.09V160.368H364.668C364.74 159.882 364.758 159.486 364.758 158.586ZM366.09 153.186V155.022H371.634V153.186H366.09ZM366.09 156.21V158.226H371.634V156.21H366.09ZM383.406 150.54H378.24C377.394 150.54 376.836 150.576 376.278 150.648V149.082C376.854 149.172 377.322 149.19 378.258 149.19H389.85C390.696 149.19 391.272 149.154 391.812 149.082V150.648C391.218 150.576 390.696 150.54 389.85 150.54H384.918V158.37C384.918 159.702 384.54 159.99 382.758 159.99C382.002 159.99 381.156 159.954 380.454 159.9C380.382 159.27 380.31 158.982 380.094 158.442C380.994 158.586 381.804 158.658 382.506 158.658C383.298 158.658 383.406 158.604 383.406 158.208V150.54ZM390.012 144.978V146.544C389.418 146.472 388.806 146.436 388.05 146.436H379.878C379.194 146.436 378.528 146.472 377.934 146.544V144.978C378.492 145.05 379.068 145.086 379.896 145.086H388.05C388.824 145.086 389.454 145.05 390.012 144.978ZM379.608 151.962L381.012 152.484C380.112 155.058 378.852 157.128 377.196 158.766C376.71 158.28 376.476 158.1 375.954 157.794C377.574 156.444 378.996 154.176 379.608 151.962ZM387.204 152.484L388.482 151.944C389.274 153.744 389.832 154.716 390.822 155.976C391.326 156.624 391.668 156.984 392.316 157.596C391.884 157.92 391.596 158.19 391.128 158.712C389.31 156.696 388.464 155.346 387.204 152.484Z" fill="#797979"/>
<path d="M193.606 305.066L194.578 306.164C194.434 306.218 194.38 306.236 194.182 306.308C193.246 306.686 192.454 306.938 191.464 307.172C191.608 308.756 191.68 309.278 191.914 310.376C192.832 309.89 193.552 309.386 194.344 308.666L195.19 309.674C193.804 310.682 193.084 311.132 192.238 311.582C192.994 314.156 193.804 315.542 195.352 317.036C194.866 317.522 194.794 317.63 194.344 318.296C192.922 316.712 192.13 315.308 191.392 313.13C190.816 311.366 190.564 310.16 190.24 307.424C189.628 307.55 189.43 307.586 188.728 307.676V316.28C188.728 317.144 188.764 317.72 188.836 318.242H187.288C187.36 317.684 187.396 317.054 187.396 316.262V307.82C186.838 307.874 186.802 307.874 185.434 307.964C185.308 313.184 184.714 315.92 183.238 318.296C182.878 317.846 182.626 317.594 182.104 317.288C182.842 316.244 183.274 315.128 183.616 313.436C184.012 311.474 184.156 309.53 184.156 306.11C184.156 305.066 184.138 304.454 184.084 303.716C184.3 303.734 184.426 303.734 184.534 303.734C185.974 303.734 188.71 303.32 190.618 302.816C191.608 302.564 192.382 302.258 192.976 301.898L194.11 303.05C193.804 303.158 193.804 303.158 193.3 303.338C191.086 304.166 188.602 304.67 185.452 304.904V306.794C188.242 306.65 189.826 306.416 191.626 305.894C192.562 305.624 193.138 305.372 193.606 305.066ZM179.494 303.23L180.376 302.24C181.528 303.032 182.338 303.698 183.202 304.58L182.356 305.66C181.276 304.508 180.736 304.058 179.494 303.23ZM178.828 307.712L179.602 306.686C180.844 307.424 181.492 307.874 182.644 308.864L181.852 310.034C180.556 308.828 180.124 308.504 178.828 307.712ZM181.24 311.636L182.356 312.482C181.834 314.156 181.402 315.326 180.88 316.388C180.79 316.568 180.574 317 179.998 318.098L178.792 317C179.53 316.28 180.448 314.264 181.24 311.636ZM188.404 325.876H185.614C185.002 325.876 184.606 325.894 184.228 325.93C184.264 325.588 184.282 325.318 184.282 324.76V324.04C184.282 323.572 184.264 323.284 184.21 322.888C184.57 322.942 184.966 322.96 185.614 322.96H188.404C188.386 322.438 188.368 322.24 188.296 321.898H189.718C189.646 322.258 189.628 322.474 189.61 322.96H192.58C193.228 322.96 193.606 322.942 193.984 322.888C193.93 323.23 193.912 323.59 193.912 324.04V324.76C193.912 325.228 193.93 325.588 193.984 325.93C193.606 325.894 193.048 325.876 192.58 325.876H189.61V326.776H193.48C194.236 326.776 194.578 326.758 195.064 326.686V327.928C194.524 327.856 194.2 327.838 193.48 327.838H184.48C183.706 327.838 183.328 327.856 182.896 327.928V326.686C183.31 326.758 183.688 326.776 184.48 326.776H188.404V325.876ZM188.404 323.914H185.524V324.94H188.404V323.914ZM189.61 323.914V324.94H192.652V323.914H189.61ZM192.85 335.542H185.848C185.416 335.542 185.002 335.56 184.66 335.596C184.696 335.254 184.714 334.912 184.714 334.516V329.674C184.714 329.242 184.696 328.882 184.66 328.63C184.93 328.666 185.272 328.684 185.83 328.684H192.256C192.85 328.684 193.138 328.666 193.426 328.63C193.39 328.864 193.372 329.152 193.372 329.602V330.664C193.372 331.132 193.39 331.438 193.426 331.672C193.138 331.636 192.76 331.618 192.274 331.618H185.974V332.446H192.868C193.408 332.446 193.768 332.428 194.038 332.392C194.002 332.626 193.984 332.932 193.984 333.382V334.606C193.984 335.038 194.002 335.344 194.038 335.596C193.75 335.56 193.336 335.542 192.85 335.542ZM185.974 329.674V330.628H192.094V329.674H185.974ZM185.974 334.534H192.688V333.454H185.974V334.534ZM179.152 323.176L180.142 322.276C181.51 323.554 182.05 324.13 183.094 325.48L182.014 326.47C180.988 325.03 180.358 324.292 179.152 323.176ZM178.918 330.448V329.044C179.368 329.116 179.674 329.134 180.322 329.134H181.384C181.888 329.134 182.338 329.098 182.77 329.044C182.698 329.602 182.68 330.07 182.68 330.97V334.66C182.968 335.236 183.184 335.524 183.598 335.794C184.606 336.46 185.668 336.676 188.062 336.676C191.644 336.676 193.732 336.568 195.532 336.316C195.244 337.036 195.172 337.27 195.082 337.81C193.174 337.882 191.392 337.918 189.16 337.918C185.848 337.918 184.894 337.81 183.832 337.306C183.112 336.982 182.5 336.46 181.978 335.704C181.222 336.46 180.718 336.892 179.926 337.468C179.62 337.702 179.458 337.828 179.224 338.062L178.54 336.622C179.278 336.316 180.286 335.578 181.348 334.57V330.358H180.214C179.656 330.358 179.368 330.376 178.918 330.448ZM192.76 353.58H188.17C189.232 355.272 191.698 356.442 195.172 356.91C194.812 357.414 194.686 357.684 194.47 358.296C192.418 357.9 190.726 357.288 189.448 356.46C188.386 355.794 187.648 355.038 186.928 353.904C186.262 355.164 185.344 356.118 184.084 356.838C182.95 357.522 181.636 357.936 179.602 358.278C179.386 357.684 179.296 357.522 178.9 356.946C181.33 356.658 182.608 356.28 183.886 355.452C184.642 354.966 185.164 354.408 185.632 353.58H181.33C180.286 353.58 179.71 353.598 179.188 353.67V352.266C179.71 352.338 180.34 352.374 181.33 352.374H186.118C186.226 351.924 186.28 351.564 186.28 351.258C186.28 351.15 186.262 351.06 186.244 350.916L187.81 350.97C187.72 351.24 187.72 351.24 187.648 351.654C187.63 351.798 187.594 351.96 187.486 352.374H192.724C193.732 352.374 194.362 352.338 194.83 352.266V353.67C194.308 353.616 193.714 353.58 192.76 353.58ZM182.572 344.976H180.754C180.178 344.976 179.836 344.994 179.35 345.048V343.734C179.782 343.806 180.178 343.824 180.754 343.824H182.554L182.536 343.428C182.536 343.032 182.482 342.51 182.428 342.114L183.886 342.096C183.832 342.366 183.814 342.654 183.814 343.05C183.814 343.122 183.814 343.248 183.814 343.428L183.832 343.824H185.452C185.956 343.824 186.352 343.806 186.82 343.752V345.048C186.316 344.994 185.974 344.976 185.47 344.976H183.85L183.886 346.452H185.128C185.74 346.452 186.028 346.434 186.442 346.38V347.64C185.974 347.586 185.722 347.568 185.11 347.568H183.922L183.958 349.188C184.912 349.044 185.326 348.972 186.406 348.738V349.638C188.422 348.432 189.142 346.992 189.214 344.058H188.746C188.098 344.058 187.54 344.094 187.144 344.148V342.762C187.594 342.834 188.296 342.87 189.07 342.87H193.012C193.84 342.87 194.308 342.852 194.704 342.816C194.65 343.194 194.632 343.428 194.614 343.878C194.542 346.002 194.326 348.234 194.128 349.17C193.984 349.836 193.714 350.25 193.282 350.484C193.048 350.592 192.49 350.682 191.86 350.682C191.482 350.682 190.744 350.628 190.204 350.574C190.15 349.98 190.078 349.674 189.844 349.134C190.672 349.314 191.428 349.422 191.95 349.422C192.598 349.422 192.814 349.188 192.958 348.234C193.174 346.974 193.192 346.56 193.264 344.058H190.582C190.474 345.93 190.24 346.938 189.7 348.054C189.106 349.242 188.242 350.124 186.856 350.952C186.406 350.34 186.262 350.178 185.992 349.962C184.138 350.376 182.482 350.646 179.98 350.916C179.746 350.934 179.548 350.97 179.206 351.006L179.008 349.638C179.17 349.656 179.35 349.674 179.44 349.674C180.07 349.674 180.808 349.602 182.68 349.368L182.644 347.568H181.132C180.52 347.568 180.196 347.586 179.746 347.64V346.38C180.178 346.434 180.466 346.452 181.168 346.452H182.608L182.572 344.976ZM179.062 371.114L178.864 369.746C179.116 369.782 179.26 369.8 179.548 369.8C179.71 369.8 179.854 369.8 180.394 369.782C181.006 369.044 181.204 368.81 181.672 368.162C180.754 367.028 180.358 366.614 179.026 365.426L179.8 364.418L180.502 365.12C181.384 363.77 182.014 362.582 182.194 361.916L183.49 362.474C183.346 362.636 183.274 362.762 183.076 363.14C182.608 364.022 181.924 365.12 181.33 365.948C181.726 366.344 181.906 366.542 182.41 367.136C183.67 365.3 184.192 364.436 184.444 363.806L185.668 364.526C185.506 364.742 185.38 364.904 185.128 365.282C183.904 367.136 182.77 368.702 181.888 369.71C183.274 369.62 183.58 369.584 184.534 369.476C184.318 368.954 184.228 368.756 183.886 368.108L184.858 367.712C185.47 368.81 185.902 369.782 186.406 371.168L185.308 371.636C185.146 371.06 185.074 370.88 184.966 370.538C184.768 370.556 184.624 370.574 184.516 370.592C184.12 370.628 184.12 370.628 183.382 370.718V376.568C183.382 377.36 183.418 377.864 183.49 378.422H181.996C182.068 377.918 182.104 377.342 182.104 376.55V370.844C180.862 370.952 180.862 370.952 180.178 371.006C179.422 371.06 179.404 371.06 179.062 371.114ZM193.3 366.182H188.35C187.792 367.28 187.288 368.09 186.55 368.99C186.208 368.594 185.92 368.36 185.47 368.09C186.298 367.172 186.964 366.11 187.522 364.85C188.044 363.644 188.296 362.852 188.422 362.078L189.88 362.402C189.718 362.762 189.718 362.762 189.466 363.5C189.286 364.04 189.16 364.346 188.944 364.886H193.282C194.02 364.886 194.362 364.868 194.74 364.814C194.686 365.372 194.686 365.372 194.65 367.694C194.632 370.61 194.29 374.264 193.894 375.938C193.462 377.702 192.994 378.062 191.068 378.062C190.6 378.062 190.06 378.026 189.286 377.972C189.214 377.396 189.124 377.036 188.926 376.496C189.88 376.658 190.618 376.73 191.302 376.73C192.148 376.73 192.346 376.514 192.598 375.362C193.012 373.436 193.282 370.016 193.3 366.182ZM179.944 371.906L181.114 372.122C180.826 374.75 180.628 375.704 180.016 377.288L178.846 376.73C179.458 375.326 179.692 374.264 179.944 371.906ZM184.282 372.104L185.344 371.798C185.794 373.328 186.082 374.588 186.352 376.172L185.146 376.514C184.948 374.912 184.678 373.49 184.282 372.104ZM191.194 372.788L189.97 373.472C189.16 371.402 188.728 370.592 187.612 368.99L188.728 368.342C189.88 369.998 190.384 370.898 191.194 372.788Z" fill="#797979"/>
<path d="M492.808 315.29V316.568H496.336C497.11 316.568 497.434 316.55 497.83 316.478V317.792C497.344 317.702 496.93 317.684 496.282 317.684H487.786V318.458H486.418C486.49 317.954 486.508 317.486 486.508 316.694V313.382C486.508 313.04 486.508 312.932 486.562 312.032C486.166 312.554 485.788 312.968 485.302 313.418C485.158 313.04 485.014 312.806 484.744 312.482C484.438 314.84 483.898 316.406 482.764 318.242C482.386 317.81 482.098 317.576 481.612 317.27C483.322 314.732 483.682 312.896 483.682 306.56C483.682 305.858 483.664 305.264 483.61 304.832C484.042 304.886 484.6 304.904 485.59 304.904H495.166C495.976 304.904 496.3 304.886 496.93 304.832C496.894 305.174 496.876 305.48 496.876 305.912V307.532C496.876 307.928 496.894 308.234 496.93 308.522C496.516 308.486 496.174 308.468 495.238 308.468H484.996C484.942 310.304 484.906 311.006 484.78 312.158C486.184 311.114 487.012 310.052 487.66 308.486L488.902 308.9C488.56 309.476 488.506 309.548 488.29 309.836H491.566C491.944 309.368 492.196 308.918 492.376 308.468L493.618 308.882C493.276 309.35 493.132 309.566 492.898 309.836H496.048C496.858 309.836 497.182 309.818 497.614 309.746V310.952C497.218 310.898 496.786 310.88 496.12 310.88H492.808V312.068H495.652C496.48 312.068 496.75 312.05 497.11 311.996V313.148C496.732 313.094 496.462 313.076 495.652 313.076H492.808V314.282H495.652C496.498 314.282 496.732 314.264 497.11 314.21V315.362C496.75 315.308 496.444 315.29 495.652 315.29H492.808ZM491.566 315.29H487.786V316.568H491.566V315.29ZM491.566 314.282V313.076H487.786V314.282H491.566ZM491.566 312.068V310.88H487.786V312.068H491.566ZM485.014 307.406H495.58V306.02H485.032V306.578C485.032 307.028 485.032 307.046 485.014 307.406ZM498.01 302.438V303.788C497.38 303.734 496.93 303.716 495.976 303.716H484.492C483.646 303.716 483.034 303.734 482.476 303.788V302.438C483.07 302.51 483.61 302.546 484.492 302.546H495.976C496.894 302.546 497.416 302.51 498.01 302.438ZM490.792 332.482V335.758C490.792 336.73 490.81 337.306 490.882 337.774H489.37C489.442 337.252 489.46 336.748 489.46 335.776V332.482H484.726C484.474 335.056 484.024 336.46 482.836 338.332C482.35 337.864 482.17 337.738 481.594 337.378C483.25 335.146 483.556 333.22 483.556 324.85C483.556 323.896 483.538 323.356 483.484 322.708C484.024 322.762 484.546 322.78 485.482 322.78H495.274C496.21 322.78 496.696 322.762 497.236 322.708C497.182 323.248 497.164 323.68 497.164 324.544V336.55C497.164 337.792 496.732 338.08 494.824 338.08C494.248 338.08 493.42 338.044 492.718 337.99C492.664 337.504 492.592 337.18 492.394 336.622C493.384 336.748 494.23 336.82 494.842 336.82C495.67 336.82 495.814 336.73 495.814 336.298V332.482H490.792ZM490.792 326.992H495.814V324.076H490.792V326.992ZM489.46 326.992V324.076H484.924V326.146L484.906 326.992H489.46ZM490.792 328.252V331.204H495.814V328.252H490.792ZM489.46 328.252H484.888C484.87 328.756 484.87 329.17 484.87 329.422C484.852 330.394 484.852 330.394 484.816 331.204H489.46V328.252ZM495.76 353.58H491.17C492.232 355.272 494.698 356.442 498.172 356.91C497.812 357.414 497.686 357.684 497.47 358.296C495.418 357.9 493.726 357.288 492.448 356.46C491.386 355.794 490.648 355.038 489.928 353.904C489.262 355.164 488.344 356.118 487.084 356.838C485.95 357.522 484.636 357.936 482.602 358.278C482.386 357.684 482.296 357.522 481.9 356.946C484.33 356.658 485.608 356.28 486.886 355.452C487.642 354.966 488.164 354.408 488.632 353.58H484.33C483.286 353.58 482.71 353.598 482.188 353.67V352.266C482.71 352.338 483.34 352.374 484.33 352.374H489.118C489.226 351.924 489.28 351.564 489.28 351.258C489.28 351.15 489.262 351.06 489.244 350.916L490.81 350.97C490.72 351.24 490.72 351.24 490.648 351.654C490.63 351.798 490.594 351.96 490.486 352.374H495.724C496.732 352.374 497.362 352.338 497.83 352.266V353.67C497.308 353.616 496.714 353.58 495.76 353.58ZM485.572 344.976H483.754C483.178 344.976 482.836 344.994 482.35 345.048V343.734C482.782 343.806 483.178 343.824 483.754 343.824H485.554L485.536 343.428C485.536 343.032 485.482 342.51 485.428 342.114L486.886 342.096C486.832 342.366 486.814 342.654 486.814 343.05C486.814 343.122 486.814 343.248 486.814 343.428L486.832 343.824H488.452C488.956 343.824 489.352 343.806 489.82 343.752V345.048C489.316 344.994 488.974 344.976 488.47 344.976H486.85L486.886 346.452H488.128C488.74 346.452 489.028 346.434 489.442 346.38V347.64C488.974 347.586 488.722 347.568 488.11 347.568H486.922L486.958 349.188C487.912 349.044 488.326 348.972 489.406 348.738V349.638C491.422 348.432 492.142 346.992 492.214 344.058H491.746C491.098 344.058 490.54 344.094 490.144 344.148V342.762C490.594 342.834 491.296 342.87 492.07 342.87H496.012C496.84 342.87 497.308 342.852 497.704 342.816C497.65 343.194 497.632 343.428 497.614 343.878C497.542 346.002 497.326 348.234 497.128 349.17C496.984 349.836 496.714 350.25 496.282 350.484C496.048 350.592 495.49 350.682 494.86 350.682C494.482 350.682 493.744 350.628 493.204 350.574C493.15 349.98 493.078 349.674 492.844 349.134C493.672 349.314 494.428 349.422 494.95 349.422C495.598 349.422 495.814 349.188 495.958 348.234C496.174 346.974 496.192 346.56 496.264 344.058H493.582C493.474 345.93 493.24 346.938 492.7 348.054C492.106 349.242 491.242 350.124 489.856 350.952C489.406 350.34 489.262 350.178 488.992 349.962C487.138 350.376 485.482 350.646 482.98 350.916C482.746 350.934 482.548 350.97 482.206 351.006L482.008 349.638C482.17 349.656 482.35 349.674 482.44 349.674C483.07 349.674 483.808 349.602 485.68 349.368L485.644 347.568H484.132C483.52 347.568 483.196 347.586 482.746 347.64V346.38C483.178 346.434 483.466 346.452 484.168 346.452H485.608L485.572 344.976ZM482.062 371.114L481.864 369.746C482.116 369.782 482.26 369.8 482.548 369.8C482.71 369.8 482.854 369.8 483.394 369.782C484.006 369.044 484.204 368.81 484.672 368.162C483.754 367.028 483.358 366.614 482.026 365.426L482.8 364.418L483.502 365.12C484.384 363.77 485.014 362.582 485.194 361.916L486.49 362.474C486.346 362.636 486.274 362.762 486.076 363.14C485.608 364.022 484.924 365.12 484.33 365.948C484.726 366.344 484.906 366.542 485.41 367.136C486.67 365.3 487.192 364.436 487.444 363.806L488.668 364.526C488.506 364.742 488.38 364.904 488.128 365.282C486.904 367.136 485.77 368.702 484.888 369.71C486.274 369.62 486.58 369.584 487.534 369.476C487.318 368.954 487.228 368.756 486.886 368.108L487.858 367.712C488.47 368.81 488.902 369.782 489.406 371.168L488.308 371.636C488.146 371.06 488.074 370.88 487.966 370.538C487.768 370.556 487.624 370.574 487.516 370.592C487.12 370.628 487.12 370.628 486.382 370.718V376.568C486.382 377.36 486.418 377.864 486.49 378.422H484.996C485.068 377.918 485.104 377.342 485.104 376.55V370.844C483.862 370.952 483.862 370.952 483.178 371.006C482.422 371.06 482.404 371.06 482.062 371.114ZM496.3 366.182H491.35C490.792 367.28 490.288 368.09 489.55 368.99C489.208 368.594 488.92 368.36 488.47 368.09C489.298 367.172 489.964 366.11 490.522 364.85C491.044 363.644 491.296 362.852 491.422 362.078L492.88 362.402C492.718 362.762 492.718 362.762 492.466 363.5C492.286 364.04 492.16 364.346 491.944 364.886H496.282C497.02 364.886 497.362 364.868 497.74 364.814C497.686 365.372 497.686 365.372 497.65 367.694C497.632 370.61 497.29 374.264 496.894 375.938C496.462 377.702 495.994 378.062 494.068 378.062C493.6 378.062 493.06 378.026 492.286 377.972C492.214 377.396 492.124 377.036 491.926 376.496C492.88 376.658 493.618 376.73 494.302 376.73C495.148 376.73 495.346 376.514 495.598 375.362C496.012 373.436 496.282 370.016 496.3 366.182ZM482.944 371.906L484.114 372.122C483.826 374.75 483.628 375.704 483.016 377.288L481.846 376.73C482.458 375.326 482.692 374.264 482.944 371.906ZM487.282 372.104L488.344 371.798C488.794 373.328 489.082 374.588 489.352 376.172L488.146 376.514C487.948 374.912 487.678 373.49 487.282 372.104ZM494.194 372.788L492.97 373.472C492.16 371.402 491.728 370.592 490.612 368.99L491.728 368.342C492.88 369.998 493.384 370.898 494.194 372.788Z" fill="#797979"/>
<path d="M262.285 375.205C263.108 375.306 263.856 374.721 263.957 373.898L265.598 360.498C265.698 359.676 265.113 358.928 264.291 358.827C263.469 358.727 262.72 359.312 262.62 360.134L261.161 372.045L249.25 370.586C248.428 370.486 247.68 371.071 247.579 371.893C247.478 372.715 248.063 373.463 248.886 373.564L262.285 375.205ZM263.649 372.792L157.533 237.06L155.169 238.908L261.286 374.64L263.649 372.792Z" fill="#14BB61"/>
<path d="M183.638 215.745C182.815 215.644 182.067 216.229 181.966 217.051L180.326 230.451C180.225 231.274 180.81 232.022 181.632 232.123C182.454 232.223 183.203 231.638 183.303 230.816L184.762 218.905L196.673 220.364C197.495 220.464 198.243 219.879 198.344 219.057C198.445 218.235 197.86 217.486 197.038 217.386L183.638 215.745ZM290.754 352.042L184.637 216.31L182.274 218.158L288.391 353.89L290.754 352.042Z" fill="#FA2204"/>
<path d="M391.496 343.758C391.595 344.581 392.342 345.167 393.165 345.068L406.567 343.449C407.39 343.35 407.976 342.603 407.877 341.78C407.777 340.958 407.03 340.372 406.208 340.471L394.294 341.909L392.856 329.996C392.757 329.173 392.009 328.587 391.187 328.686C390.364 328.786 389.778 329.533 389.877 330.355L391.496 343.758ZM394.165 344.504L500.511 208.952L498.151 207.1L391.805 342.652L394.165 344.504Z" fill="#E68A00"/>
<path d="M527.462 229.188C527.362 228.365 526.615 227.779 525.793 227.878L512.39 229.497C511.567 229.596 510.981 230.343 511.081 231.166C511.18 231.988 511.927 232.574 512.749 232.475L524.663 231.037L526.101 242.95C526.201 243.773 526.948 244.359 527.77 244.259C528.593 244.16 529.179 243.413 529.08 242.59L527.462 229.188ZM420.806 365.846L527.153 230.293L524.792 228.442L418.446 363.994L420.806 365.846Z" fill="#FA2204"/>
</svg>
