<svg width="696" height="581" viewBox="0 0 696 581" fill="none" xmlns="http://www.w3.org/2000/svg">
<rect x="232" y="349" width="232" height="232" rx="116" fill="#8B8EC5"/>
<path d="M287.36 454.34L285.86 455.32C284.72 453.6 284.24 452.68 283.74 451.24C283.12 449.52 282.82 447.7 282.82 445.82C282.82 443.94 283.12 442.14 283.74 440.4C284.24 438.96 284.72 438.06 285.86 436.32L287.36 437.32C286.22 439.04 285.76 439.94 285.32 441.34C284.88 442.74 284.66 444.24 284.66 445.82C284.66 447.4 284.88 448.92 285.32 450.32C285.76 451.72 286.22 452.62 287.36 454.34ZM292.422 436.5H294.402C294.342 436.94 294.322 437.56 294.322 438.38V443.28C294.322 444.3 294.342 444.78 294.402 445.3H292.422C292.502 444.72 292.522 444.2 292.522 443.28V438.4C292.522 437.46 292.502 437.02 292.422 436.5ZM301.342 436.52H303.322C303.242 437.04 303.222 437.4 303.222 438.48V440.74C303.222 443.9 303.062 445.66 302.702 446.84C302.142 448.74 300.862 450.24 298.882 451.36C297.902 451.9 296.922 452.28 295.162 452.8C294.902 452.1 294.762 451.86 294.162 451.14C296.242 450.7 297.302 450.3 298.442 449.52C300.382 448.22 301.102 446.92 301.342 444.2C301.402 443.34 301.422 442.9 301.422 440.64V438.5C301.422 437.28 301.402 437 301.342 436.52ZM325.517 450.82L324.097 452.38C322.557 450.44 320.137 448.1 317.797 446.28C316.477 447.78 315.437 448.74 313.997 449.8C312.617 450.8 311.577 451.44 310.097 452.18C309.717 451.46 309.537 451.2 308.937 450.6C311.517 449.52 313.537 448.16 315.557 446.12C317.437 444.24 319.057 441.86 319.997 439.56C320.057 439.42 320.057 439.4 320.117 439.3C320.137 439.24 320.157 439.22 320.177 439.14C319.937 439.16 319.937 439.16 313.377 439.26C312.297 439.28 311.797 439.32 311.077 439.42L311.017 437.52C311.637 437.62 312.037 437.64 312.917 437.64C312.997 437.64 313.177 437.64 313.357 437.64L320.277 437.56C321.097 437.54 321.317 437.52 321.697 437.38L322.677 438.38C322.457 438.64 322.297 438.9 322.097 439.38C321.077 441.68 320.177 443.22 318.877 444.94C321.397 446.82 323.217 448.44 325.517 450.82ZM339.377 440.22H336.697C336.317 441.18 336.037 441.72 335.457 442.66C335.017 442.24 334.837 442.1 334.277 441.76C335.157 440.54 335.797 439.04 336.217 437.3C336.317 436.84 336.357 436.52 336.377 436.18L337.877 436.54C337.797 436.74 337.797 436.74 337.537 437.7C337.417 438.14 337.337 438.4 337.197 438.86H339.377V437.1C339.377 436.28 339.337 435.8 339.257 435.3H340.917C340.837 435.78 340.797 436.26 340.797 437.1V438.86H343.557C344.477 438.86 345.037 438.82 345.537 438.74V440.32C345.037 440.26 344.417 440.22 343.537 440.22H340.797V443.32H344.177C345.037 443.32 345.597 443.28 346.197 443.2V444.8C345.557 444.74 344.957 444.7 344.177 444.7H341.297C342.617 447.04 344.237 448.72 346.697 450.24C346.197 450.78 345.977 451.08 345.657 451.68C343.477 450.06 341.917 448.24 340.717 445.9C340.797 447.2 340.797 447.46 340.797 448.12V451.42C340.797 452.38 340.837 453 340.917 453.58H339.257C339.337 452.96 339.377 452.32 339.377 451.4V448.2C339.377 447.46 339.417 446.64 339.477 445.88C338.177 448.42 336.617 450.2 334.317 451.74C333.957 451.12 333.737 450.82 333.337 450.42C335.617 449.12 337.417 447.24 338.777 444.7H336.857C336.017 444.7 335.357 444.74 334.797 444.82V443.2C335.377 443.28 335.977 443.32 336.857 443.32H339.377V440.22ZM333.297 440.54H332.717C333.217 441.96 333.757 442.96 334.697 444.18C334.337 444.66 334.177 444.92 333.937 445.46C333.337 444.54 333.017 443.82 332.537 442.4C332.577 443.26 332.617 444.28 332.637 445.52V451.18C332.637 452.28 332.677 452.94 332.757 453.54H331.077C331.157 452.92 331.197 452.26 331.197 451.18V445.9C331.197 444.84 331.217 444.16 331.317 442.8C330.717 445.22 329.997 446.84 328.797 448.58C328.537 447.92 328.357 447.58 327.997 447.1C329.257 445.6 330.357 443.16 330.997 440.54H329.937C329.357 440.54 328.877 440.56 328.557 440.62V439.12C328.897 439.18 329.297 439.2 329.937 439.2H331.197V437.34C331.197 436.22 331.157 435.72 331.097 435.26H332.737C332.657 435.78 332.637 436.34 332.637 437.32V439.2H333.277C333.817 439.2 334.117 439.18 334.477 439.12V440.6C334.097 440.56 333.717 440.54 333.297 440.54ZM360.557 439.1H364.197C365.077 439.1 365.637 439.06 366.137 438.98V440.64C365.537 440.56 364.877 440.52 363.997 440.52H360.617C360.717 442.78 360.897 444.18 361.317 446.1C361.697 447.82 362.417 449.62 363.117 450.54C363.477 451 363.957 451.4 364.157 451.4C364.517 451.4 364.837 450.34 365.137 448.16C365.677 448.64 365.917 448.8 366.537 449.06C366.197 450.8 365.917 451.7 365.497 452.36C365.157 452.92 364.697 453.2 364.197 453.2C363.457 453.2 362.537 452.5 361.717 451.34C360.757 449.92 359.917 447.56 359.477 444.92C359.257 443.64 359.137 442.3 359.057 440.52H350.797C349.997 440.52 349.357 440.56 348.657 440.64V438.98C349.217 439.06 349.897 439.1 350.797 439.1H358.997C358.957 437.84 358.957 437.84 358.937 436.72C358.937 436.32 358.937 436.32 358.837 435.62H360.617C360.557 436 360.497 436.8 360.497 437.44C360.497 437.74 360.517 438.14 360.557 439.1ZM353.037 444.78H351.297C350.557 444.78 349.937 444.82 349.437 444.88V443.32C349.917 443.4 350.477 443.42 351.317 443.42H356.417C357.257 443.42 357.797 443.4 358.277 443.32V444.88C357.757 444.82 357.177 444.78 356.437 444.78H354.577V449.94C355.937 449.66 356.717 449.48 358.957 448.88V450.34C356.757 450.92 355.157 451.28 352.817 451.74C352.657 451.78 351.577 451.98 349.597 452.36C349.337 452.4 349.277 452.42 349.077 452.46L348.757 450.8C349.657 450.8 350.357 450.7 353.037 450.22V444.78ZM364.877 437.92L363.697 438.78C362.937 437.82 362.397 437.28 361.357 436.48L362.497 435.72C363.617 436.6 364.077 437.02 364.877 437.92ZM374.697 446.72H371.197C370.197 446.72 369.497 446.76 368.897 446.84V445.14C369.537 445.22 370.217 445.26 371.197 445.26H383.537C384.557 445.26 385.217 445.22 385.837 445.14V446.84C385.237 446.76 384.537 446.72 383.537 446.72H376.457C375.577 448.7 375.037 449.72 374.077 451.22C375.917 451.12 378.877 450.84 381.437 450.52C380.437 449.42 380.057 449.02 379.137 448.14L380.417 447.42C382.597 449.54 383.817 450.92 385.197 452.7L383.857 453.66C383.157 452.66 382.917 452.3 382.477 451.76C379.117 452.2 375.597 452.58 372.597 452.8C370.557 452.96 369.957 453.02 369.457 453.12L369.197 451.36C369.577 451.4 369.937 451.42 370.237 451.42C370.517 451.42 370.517 451.42 372.257 451.32C373.337 449.64 373.977 448.4 374.697 446.72ZM376.417 435.4H378.117C379.077 436.84 379.917 437.74 381.457 438.9C383.197 440.24 385.057 441.28 386.877 441.96C386.437 442.56 386.197 442.98 385.997 443.52C384.117 442.64 382.177 441.46 380.577 440.16C379.197 439.08 378.257 438.1 377.317 436.78C376.377 438.08 375.557 438.94 374.237 440.04C372.497 441.52 370.877 442.54 368.957 443.42C368.717 442.88 368.397 442.4 368.017 442.02C370.037 441.18 371.617 440.22 373.237 438.9C374.597 437.8 375.557 436.74 376.417 435.4ZM372.437 443.06V441.46C372.897 441.52 373.317 441.54 374.057 441.54H380.557C381.337 441.54 381.817 441.52 382.277 441.46V443.06C381.797 443 381.297 442.98 380.577 442.98H374.037C373.437 442.98 372.877 443 372.437 443.06ZM393.017 445.18V451.58C393.017 452.46 393.057 453.02 393.117 453.56H391.377C391.457 452.98 391.497 452.42 391.497 451.56V445.68C390.557 446.6 390.037 447.02 388.877 447.86C388.657 447.3 388.417 446.9 388.057 446.46C389.477 445.6 390.537 444.74 391.657 443.54C392.657 442.46 393.277 441.54 394.017 440.04H390.417C389.777 440.04 389.337 440.06 388.777 440.12V438.54C389.357 438.6 389.737 438.62 390.357 438.62H391.497V436.8C391.497 436.26 391.457 435.68 391.377 435.26H393.137C393.057 435.68 393.017 436.2 393.017 436.84V438.62H394.097C394.677 438.62 394.997 438.6 395.237 438.56L395.957 439.36C395.817 439.58 395.677 439.82 395.497 440.2C394.857 441.54 394.297 442.42 393.337 443.6C394.377 444.78 395.177 445.46 396.557 446.28C396.197 446.74 395.997 447.08 395.757 447.64C394.597 446.84 393.817 446.14 393.017 445.18ZM401.297 442.76V451.08H404.257C405.297 451.08 405.917 451.04 406.457 450.96V452.74C405.817 452.64 405.097 452.6 404.257 452.6H397.157C396.277 452.6 395.617 452.64 394.977 452.74V450.96C395.557 451.04 396.137 451.08 397.177 451.08H399.737V442.76H397.897C397.177 442.76 396.537 442.8 395.937 442.86V441.18C396.477 441.26 397.037 441.3 397.897 441.3H399.737V437.2C399.737 436.5 399.697 436.06 399.597 435.32H401.437C401.317 436.08 401.297 436.46 401.297 437.2V441.3H403.797C404.677 441.3 405.197 441.28 405.757 441.18V442.86C405.157 442.8 404.537 442.76 403.797 442.76H401.297ZM409.337 455.32L407.837 454.34C408.977 452.62 409.437 451.72 409.877 450.32C410.317 448.92 410.537 447.42 410.537 445.82C410.537 444.22 410.317 442.74 409.877 441.34C409.437 439.94 408.977 439.04 407.837 437.32L409.337 436.32C410.477 438.06 410.957 438.96 411.457 440.4C412.077 442.14 412.377 443.94 412.377 445.82C412.377 447.72 412.077 449.52 411.457 451.24C410.957 452.68 410.477 453.6 409.337 455.32Z" fill="white"/>
<path d="M293.4 473.136L295.848 473.16C295.728 473.784 295.656 474.432 295.584 476.136C295.488 477.888 295.344 483.696 295.344 485.304C295.344 487.488 295.512 488.4 296.016 489.192C296.64 490.104 297.864 490.608 299.52 490.608C302.208 490.608 304.416 489.12 305.688 486.432C306.264 485.256 306.552 484.272 306.864 482.592C307.656 483.288 307.992 483.504 308.904 483.96C307.968 486.888 307.272 488.352 306.192 489.6C304.464 491.592 302.16 492.6 299.376 492.6C297.72 492.6 296.28 492.216 295.368 491.568C294.552 490.968 293.904 490.032 293.592 489C293.376 488.28 293.256 487.104 293.256 485.832C293.256 484.368 293.28 483.624 293.448 476.088C293.472 475.392 293.472 474.84 293.472 474.48C293.472 473.952 293.448 473.664 293.4 473.136ZM317.136 476.52L317.304 474.48C318.864 474.864 321 475.056 323.736 475.056C326.76 475.056 328.68 474.912 330.048 474.576L330.168 476.496C328.68 477.12 326.448 478.488 324.024 480.24L322.56 479.064C324.12 478.032 324.552 477.768 325.512 477.216C325.776 477.072 325.824 477.048 326.136 476.88L326.592 476.64C325.176 476.832 324.336 476.904 323.016 476.904C321.432 476.904 319.392 476.784 317.952 476.592C317.52 476.544 317.448 476.544 317.136 476.52ZM331.44 488.736L331.656 491.088C331.32 491.112 331.224 491.136 330.792 491.208C328.512 491.568 326.376 491.76 324.336 491.76C321.912 491.76 319.872 491.472 318.648 490.992C316.776 490.248 315.816 489 315.816 487.272C315.816 485.64 316.704 484.152 318.672 482.472L320.136 483.576C318.6 484.848 317.88 485.928 317.88 487.032C317.88 488.064 318.552 488.808 319.848 489.24C320.712 489.504 322.296 489.672 324.192 489.672C327.144 489.672 330.048 489.288 331.44 488.736ZM330.792 478.224L332.136 477.504C333.264 478.824 333.792 479.568 334.656 481.152L333.264 481.944C332.568 480.552 331.848 479.472 330.792 478.224ZM328.008 479.52L329.4 478.8C330.528 480.144 331.08 480.96 331.92 482.52L330.504 483.312C329.76 481.824 328.992 480.624 328.008 479.52ZM343.392 473.04L345.624 472.632C345.72 474.288 346.56 478.032 347.376 480.456C348.84 479.856 348.84 479.856 353.064 478.416C354.12 478.032 354.216 478.008 354.648 477.768L355.464 479.928C353.664 480.312 350.712 481.248 348.024 482.28C346.152 483 344.616 483.864 343.584 484.752C342.792 485.472 342.336 486.384 342.336 487.32C342.336 488.568 343.104 489.384 344.64 489.792C345.456 490.008 347.016 490.152 348.648 490.152C351.408 490.152 354.168 489.816 355.704 489.288L355.92 491.664C355.416 491.664 355.416 491.664 354.096 491.808C351.6 492.072 350.376 492.144 348.624 492.144C345.528 492.144 343.632 491.808 342.192 490.992C340.896 490.248 340.176 488.904 340.176 487.272C340.176 485.808 340.944 484.344 342.312 483.216C343.224 482.448 343.992 481.968 345.48 481.224C344.832 479.28 344.352 477.432 343.776 474.576C343.56 473.544 343.536 473.424 343.392 473.04ZM373.752 478.824H378.816C380.256 478.824 380.904 478.8 381.816 478.656V480.864C380.976 480.768 380.136 480.744 378.84 480.744H373.656C373.488 484.008 373.032 485.856 371.904 487.656C370.632 489.744 368.832 491.28 365.904 492.792C365.376 491.856 365.112 491.544 364.392 490.944C367.248 489.768 369.168 488.184 370.32 486.072C371.064 484.656 371.328 483.552 371.52 480.744H365.184C363.888 480.744 363.096 480.768 362.208 480.864V478.656C363.168 478.776 363.816 478.824 365.208 478.824H371.616C371.64 477.912 371.64 477.432 371.64 476.784V475.152C371.64 474.168 371.616 473.616 371.52 473.016H373.92C373.8 473.712 373.8 473.736 373.776 475.128V476.784C373.752 478.512 373.752 478.512 373.752 478.824ZM390.864 475.992V481.128C393.168 480.72 395.856 479.856 398.376 478.704C400.272 477.84 401.304 477.24 402.072 476.544L403.512 478.488C403.08 478.656 403.032 478.704 402.456 479.016C400.272 480.192 397.848 481.2 395.496 481.944C393.816 482.472 393.072 482.64 390.864 483.072V486.864C390.864 488.496 390.96 489 391.32 489.384C391.8 489.888 393.264 490.128 395.832 490.128C397.368 490.128 399.624 489.96 401.4 489.72C402.384 489.6 402.864 489.504 403.824 489.24L403.968 491.52C403.656 491.52 403.656 491.52 402.912 491.616C400.392 491.904 397.512 492.072 395.304 492.072C392.328 492.072 390.744 491.784 389.856 491.064C389.256 490.584 388.944 489.864 388.824 488.736C388.776 488.352 388.752 487.872 388.752 486.768V475.968C388.752 474.84 388.728 474.288 388.632 473.616H391.008C390.912 474.336 390.864 474.912 390.864 475.992ZM404.088 471.648L405.432 470.928C406.56 472.248 407.088 472.992 407.952 474.576L406.56 475.368C405.864 473.976 405.144 472.896 404.088 471.648ZM401.304 472.944L402.696 472.224C403.824 473.568 404.376 474.384 405.216 475.944L403.8 476.736C403.056 475.248 402.288 474.048 401.304 472.944Z" fill="white"/>
<rect x="464" width="232" height="232" rx="116" fill="#014FD7"/>
<path d="M525.4 88.136L527.848 88.16C527.728 88.784 527.656 89.432 527.584 91.136C527.488 92.888 527.344 98.696 527.344 100.304C527.344 102.488 527.512 103.4 528.016 104.192C528.64 105.104 529.864 105.608 531.52 105.608C534.208 105.608 536.416 104.12 537.688 101.432C538.264 100.256 538.552 99.272 538.864 97.592C539.656 98.288 539.992 98.504 540.904 98.96C539.968 101.888 539.272 103.352 538.192 104.6C536.464 106.592 534.16 107.6 531.376 107.6C529.72 107.6 528.28 107.216 527.368 106.568C526.552 105.968 525.904 105.032 525.592 104C525.376 103.28 525.256 102.104 525.256 100.832C525.256 99.368 525.28 98.624 525.448 91.088C525.472 90.392 525.472 89.84 525.472 89.48C525.472 88.952 525.448 88.664 525.4 88.136ZM549.136 91.52L549.304 89.48C550.864 89.864 553 90.056 555.736 90.056C558.76 90.056 560.68 89.912 562.048 89.576L562.168 91.496C560.68 92.12 558.448 93.488 556.024 95.24L554.56 94.064C556.12 93.032 556.552 92.768 557.512 92.216C557.776 92.072 557.824 92.048 558.136 91.88L558.592 91.64C557.176 91.832 556.336 91.904 555.016 91.904C553.432 91.904 551.392 91.784 549.952 91.592C549.52 91.544 549.448 91.544 549.136 91.52ZM563.44 103.736L563.656 106.088C563.32 106.112 563.224 106.136 562.792 106.208C560.512 106.568 558.376 106.76 556.336 106.76C553.912 106.76 551.872 106.472 550.648 105.992C548.776 105.248 547.816 104 547.816 102.272C547.816 100.64 548.704 99.152 550.672 97.472L552.136 98.576C550.6 99.848 549.88 100.928 549.88 102.032C549.88 103.064 550.552 103.808 551.848 104.24C552.712 104.504 554.296 104.672 556.192 104.672C559.144 104.672 562.048 104.288 563.44 103.736ZM562.792 93.224L564.136 92.504C565.264 93.824 565.792 94.568 566.656 96.152L565.264 96.944C564.568 95.552 563.848 94.472 562.792 93.224ZM560.008 94.52L561.4 93.8C562.528 95.144 563.08 95.96 563.92 97.52L562.504 98.312C561.76 96.824 560.992 95.624 560.008 94.52ZM575.392 88.04L577.624 87.632C577.72 89.288 578.56 93.032 579.376 95.456C580.84 94.856 580.84 94.856 585.064 93.416C586.12 93.032 586.216 93.008 586.648 92.768L587.464 94.928C585.664 95.312 582.712 96.248 580.024 97.28C578.152 98 576.616 98.864 575.584 99.752C574.792 100.472 574.336 101.384 574.336 102.32C574.336 103.568 575.104 104.384 576.64 104.792C577.456 105.008 579.016 105.152 580.648 105.152C583.408 105.152 586.168 104.816 587.704 104.288L587.92 106.664C587.416 106.664 587.416 106.664 586.096 106.808C583.6 107.072 582.376 107.144 580.624 107.144C577.528 107.144 575.632 106.808 574.192 105.992C572.896 105.248 572.176 103.904 572.176 102.272C572.176 100.808 572.944 99.344 574.312 98.216C575.224 97.448 575.992 96.968 577.48 96.224C576.832 94.28 576.352 92.432 575.776 89.576C575.56 88.544 575.536 88.424 575.392 88.04ZM605.752 93.824H610.816C612.256 93.824 612.904 93.8 613.816 93.656V95.864C612.976 95.768 612.136 95.744 610.84 95.744H605.656C605.488 99.008 605.032 100.856 603.904 102.656C602.632 104.744 600.832 106.28 597.904 107.792C597.376 106.856 597.112 106.544 596.392 105.944C599.248 104.768 601.168 103.184 602.32 101.072C603.064 99.656 603.328 98.552 603.52 95.744H597.184C595.888 95.744 595.096 95.768 594.208 95.864V93.656C595.168 93.776 595.816 93.824 597.208 93.824H603.616C603.64 92.912 603.64 92.432 603.64 91.784V90.152C603.64 89.168 603.616 88.616 603.52 88.016H605.92C605.8 88.712 605.8 88.736 605.776 90.128V91.784C605.752 93.512 605.752 93.512 605.752 93.824ZM622.864 90.992V96.128C625.168 95.72 627.856 94.856 630.376 93.704C632.272 92.84 633.304 92.24 634.072 91.544L635.512 93.488C635.08 93.656 635.032 93.704 634.456 94.016C632.272 95.192 629.848 96.2 627.496 96.944C625.816 97.472 625.072 97.64 622.864 98.072V101.864C622.864 103.496 622.96 104 623.32 104.384C623.8 104.888 625.264 105.128 627.832 105.128C629.368 105.128 631.624 104.96 633.4 104.72C634.384 104.6 634.864 104.504 635.824 104.24L635.968 106.52C635.656 106.52 635.656 106.52 634.912 106.616C632.392 106.904 629.512 107.072 627.304 107.072C624.328 107.072 622.744 106.784 621.856 106.064C621.256 105.584 620.944 104.864 620.824 103.736C620.776 103.352 620.752 102.872 620.752 101.768V90.968C620.752 89.84 620.728 89.288 620.632 88.616H623.008C622.912 89.336 622.864 89.912 622.864 90.992ZM636.088 86.648L637.432 85.928C638.56 87.248 639.088 87.992 639.952 89.576L638.56 90.368C637.864 88.976 637.144 87.896 636.088 86.648ZM633.304 87.944L634.696 87.224C635.824 88.568 636.376 89.384 637.216 90.944L635.8 91.736C635.056 90.248 634.288 89.048 633.304 87.944ZM555.04 128.984H548.08C547.048 128.984 546.328 129.032 545.608 129.128V127.184C546.28 127.28 547.024 127.328 548.152 127.328H555.04V125.624C555.04 124.448 554.992 123.752 554.896 123.032H556.984C556.888 123.8 556.84 124.472 556.84 125.624V127.328H563.824C564.928 127.328 565.672 127.28 566.368 127.184V129.128C565.72 129.032 564.952 128.984 563.824 128.984H556.912C557.416 130.904 558.208 132.68 559.264 134.336C561.112 132.824 562.48 131.312 563.272 129.968L564.88 131.192C564.688 131.408 564.688 131.408 563.44 132.728C562.648 133.616 561.592 134.552 560.224 135.704C561.04 136.76 561.688 137.48 562.624 138.368C563.968 139.616 564.928 140.264 566.752 141.248C566.224 141.8 565.84 142.28 565.456 142.976C563.08 141.464 561.28 139.832 559.696 137.768C558.256 135.848 557.512 134.48 556.72 132.296C556.72 132.632 556.744 132.92 556.744 133.088C556.768 133.328 556.792 134.336 556.84 136.112V142.616C556.84 144.128 556.264 144.56 554.224 144.56C553.336 144.56 552.52 144.512 551.272 144.416C551.2 143.696 551.104 143.264 550.816 142.544C552.016 142.736 553.048 142.832 553.96 142.832C554.848 142.832 555.04 142.712 555.04 142.136V128.984ZM558.712 124.28L559.96 123.176C561.688 124.256 562.096 124.592 563.512 125.936L562.192 127.112C560.872 125.72 560.32 125.264 558.712 124.28ZM547.768 131.192L549.208 130.088C550.648 131.576 551.416 132.536 552.544 134.24L551.008 135.44C549.952 133.64 549.088 132.488 547.768 131.192ZM553.888 135.608L554.464 137.36C552.184 139.016 551.32 139.544 547.888 141.44C547.36 141.752 547.072 141.92 546.664 142.184L545.728 140.216C546.832 139.88 547.768 139.472 549.304 138.608C551.248 137.528 552.304 136.856 553.888 135.608ZM570.136 139.568V125.432C569.536 125.456 569.224 125.48 568.864 125.552V123.704C569.296 123.776 569.872 123.824 570.688 123.824H574.744C575.632 123.824 576.112 123.8 576.568 123.704V125.504C576.184 125.456 576.04 125.456 575.656 125.456V142.376C575.656 143.552 575.68 144.224 575.8 144.872H573.952C574.024 144.272 574.072 143.528 574.072 142.352V140.12C573.88 140.192 573.88 140.192 573.616 140.288C572.848 140.528 571.6 140.912 570.808 141.104C569.776 141.368 569.416 141.488 569.056 141.632L568.6 139.784C568.912 139.784 569.368 139.712 570.136 139.568ZM571.744 125.432V128.936H574.072V125.432H571.744ZM571.744 130.424V133.64H574.072V130.424H571.744ZM571.744 135.128V139.184C572.608 138.968 573.064 138.848 574.072 138.536V135.128H571.744ZM581.296 125.432H582.424C583.36 125.432 583.816 125.408 584.224 125.336V126.896C583.792 126.848 583.792 126.848 583.288 126.848C583.096 127.952 582.88 128.84 582.544 129.944H584.968C584.896 128.528 584.896 127.808 584.872 124.784C584.872 123.968 584.848 123.656 584.776 123.152H586.648C586.528 123.92 586.528 124.256 586.528 125.888C586.528 127.304 586.552 128.696 586.576 129.944H588.232C589.624 129.944 590.128 129.92 590.872 129.8V131.672C590.032 131.552 589.456 131.528 588.232 131.528H586.648C586.768 133.856 586.888 134.912 587.32 136.976C588.136 135.44 588.76 133.76 588.952 132.68L590.44 133.64C590.296 133.928 590.176 134.216 589.84 135.032C589.24 136.544 588.616 137.792 587.848 138.992C588.136 139.832 588.472 140.624 588.832 141.296C589.12 141.824 589.456 142.256 589.6 142.256C589.816 142.256 590.056 140.744 590.152 138.872C590.656 139.328 591.088 139.616 591.616 139.88C591.424 141.656 591.232 142.544 590.944 143.24C590.656 143.888 590.224 144.248 589.696 144.248C588.712 144.248 587.608 142.952 586.672 140.624C585.328 142.304 584.176 143.384 582.352 144.68C581.896 144.032 581.704 143.84 581.176 143.408C583.36 141.992 584.68 140.768 586.096 138.896C585.496 136.736 585.208 134.672 585.04 131.528H577.72C577.168 131.528 576.76 131.552 576.184 131.648V129.848C576.64 129.92 577.072 129.944 577.696 129.944H578.248C578.128 128.936 578.032 128.408 577.696 126.824C577.12 126.848 576.976 126.848 576.568 126.896V125.312C577.12 125.408 577.552 125.432 578.272 125.432H579.64V125.144C579.64 124.136 579.616 123.656 579.496 123.128H581.416C581.32 123.68 581.296 124.184 581.296 125.168V125.432ZM579.64 129.944H581.128C581.464 128.888 581.656 127.952 581.8 126.824H579.136C579.424 128.12 579.544 128.936 579.64 129.944ZM583.672 139.544V140.216C583.672 140.504 583.672 141.2 583.696 141.488C583.216 141.44 582.784 141.44 581.776 141.44H578.8V143.24H577.168C577.264 142.52 577.288 141.92 577.288 141.056V135.08C577.288 134.072 577.264 133.568 577.192 132.824C577.672 132.896 577.984 132.92 578.848 132.92H582.088C582.856 132.92 583.192 132.896 583.744 132.824C583.696 133.376 583.672 133.904 583.672 135.08V139.544ZM578.824 134.36V136.424H582.136V134.36H578.824ZM578.824 137.792V139.976H582.136V137.792H578.824ZM587.2 125.192L588.496 124.4C589.384 125.6 589.816 126.296 590.608 127.88L589.216 128.792C588.592 127.304 588.136 126.488 587.2 125.192ZM603.64 131.864H596.248C595.12 131.864 594.328 131.912 593.536 132.008V130.064C594.16 130.16 594.904 130.208 596.248 130.208H602.176V127.472H598.36C597.112 127.472 596.416 127.496 595.72 127.592V125.72C596.32 125.816 597.136 125.864 598.408 125.864H602.176V125.144C602.176 124.136 602.128 123.584 602.032 122.912H604.144C604.024 123.512 604 124.088 604 125.144V125.864H606.088C607.336 125.864 608.104 125.816 608.728 125.72V127.592C608.08 127.496 607.48 127.472 606.208 127.472H604V130.208H606.016C608.512 128.336 610.984 125.696 611.92 123.92L613.624 125.024C613.264 125.408 613.264 125.408 612.592 126.2C611.584 127.424 610.216 128.768 608.512 130.208H612.016C613.264 130.208 613.96 130.16 614.656 130.064V132.008C613.912 131.912 613 131.864 611.896 131.864H606.4C605.056 132.824 604.384 133.256 602.896 134.144C603.904 134.12 604.528 134.12 605.224 134.12H609.16C610.336 134.12 610.96 134.096 611.752 134.024C611.68 134.72 611.656 135.296 611.656 136.664V142.208C611.656 143.432 611.68 144.128 611.8 144.752H609.832V143.624H600.208V144.752H598.24C598.336 144.008 598.384 143.288 598.384 142.208V138.248C598.384 137.768 598.384 137.024 598.408 136.616C596.944 137.36 595.888 137.84 593.968 138.632C593.656 137.96 593.392 137.528 592.888 136.952C597.016 135.584 600.112 134.144 603.64 131.864ZM600.208 135.656V137.984H609.832V135.656H600.208ZM600.208 139.544V142.064H609.832V139.544H600.208Z" fill="white"/>
<rect width="232" height="232" rx="116" fill="#014FD7"/>
<path d="M79.04 110.984H72.08C71.048 110.984 70.328 111.032 69.608 111.128V109.184C70.28 109.28 71.024 109.328 72.152 109.328H79.04V107.624C79.04 106.448 78.992 105.752 78.896 105.032H80.984C80.888 105.8 80.84 106.472 80.84 107.624V109.328H87.824C88.928 109.328 89.672 109.28 90.368 109.184V111.128C89.72 111.032 88.952 110.984 87.824 110.984H80.912C81.416 112.904 82.208 114.68 83.264 116.336C85.112 114.824 86.48 113.312 87.272 111.968L88.88 113.192C88.688 113.408 88.688 113.408 87.44 114.728C86.648 115.616 85.592 116.552 84.224 117.704C85.04 118.76 85.688 119.48 86.624 120.368C87.968 121.616 88.928 122.264 90.752 123.248C90.224 123.8 89.84 124.28 89.456 124.976C87.08 123.464 85.28 121.832 83.696 119.768C82.256 117.848 81.512 116.48 80.72 114.296C80.72 114.632 80.744 114.92 80.744 115.088C80.768 115.328 80.792 116.336 80.84 118.112V124.616C80.84 126.128 80.264 126.56 78.224 126.56C77.336 126.56 76.52 126.512 75.272 126.416C75.2 125.696 75.104 125.264 74.816 124.544C76.016 124.736 77.048 124.832 77.96 124.832C78.848 124.832 79.04 124.712 79.04 124.136V110.984ZM82.712 106.28L83.96 105.176C85.688 106.256 86.096 106.592 87.512 107.936L86.192 109.112C84.872 107.72 84.32 107.264 82.712 106.28ZM71.768 113.192L73.208 112.088C74.648 113.576 75.416 114.536 76.544 116.24L75.008 117.44C73.952 115.64 73.088 114.488 71.768 113.192ZM77.888 117.608L78.464 119.36C76.184 121.016 75.32 121.544 71.888 123.44C71.36 123.752 71.072 123.92 70.664 124.184L69.728 122.216C70.832 121.88 71.768 121.472 73.304 120.608C75.248 119.528 76.304 118.856 77.888 117.608ZM102.848 105.296H105.104C105.032 105.68 104.96 106.784 104.96 107.48C104.96 109.016 105.248 111.632 105.56 112.904C106.064 114.944 107.408 117.704 108.872 119.624C109.76 120.8 111.056 122.12 112.304 123.128C113.024 123.704 113.6 124.088 114.92 124.856C114.224 125.48 113.96 125.84 113.48 126.68C110.576 124.688 108.896 123.08 107.192 120.68C105.728 118.592 104.792 116.432 104.048 113.336C103.616 115.52 103.208 116.768 102.344 118.544C101.48 120.368 100.4 121.832 98.84 123.392C97.496 124.712 96.584 125.432 94.592 126.68C94.16 125.912 93.824 125.504 93.152 124.952C95.96 123.416 97.376 122.288 98.96 120.248C101.696 116.768 102.944 112.712 102.944 107.312C102.944 106.352 102.92 105.92 102.848 105.296ZM129.536 118.376V124.184H135.944C137.216 124.184 138.008 124.136 138.776 124.016V126.128C137.984 126.008 137.168 125.96 135.944 125.96H120.176C118.928 125.96 118.136 126.008 117.344 126.128V124.016C118.016 124.136 118.832 124.184 120.056 124.184H121.592V118.16C121.592 117.056 121.544 116.288 121.448 115.496H123.632C123.512 116.24 123.464 116.984 123.464 118.16V124.184H127.64V114.008C127.64 112.856 127.592 112.16 127.496 111.368H129.704C129.584 112.136 129.536 112.784 129.536 113.96V116.6H133.688C134.84 116.6 135.584 116.552 136.184 116.456V118.52C135.512 118.424 134.792 118.376 133.688 118.376H129.536ZM127.04 105.248H128.984C130.064 106.976 131.264 108.272 133.208 109.808C135.176 111.368 137.12 112.52 139.376 113.456C138.824 114.152 138.656 114.44 138.296 115.304C136.232 114.32 133.904 112.832 132.104 111.344C130.352 109.88 129.344 108.776 128.072 107.024C126.8 108.8 126.008 109.712 124.448 111.128C122.48 112.928 120.488 114.32 118.112 115.544C117.776 114.776 117.608 114.512 117.008 113.792C119.192 112.784 121.304 111.416 123.2 109.76C124.928 108.248 126.032 106.952 127.04 105.248ZM151.016 114.32H144.776C143.648 114.32 142.952 114.344 142.256 114.44V112.712C142.928 112.808 143.576 112.832 144.776 112.832H148.088C147.728 111.848 147.416 111.176 146.936 110.36H144.032C142.88 110.36 142.016 110.408 141.296 110.48V108.704C141.992 108.8 142.736 108.848 143.984 108.848H145.376C144.944 108.056 144.392 107.336 143.504 106.4L145.16 105.68C146.192 106.952 146.528 107.504 147.224 108.848H149.048V107.048C149.048 106.256 149 105.608 148.904 105.08H150.848C150.776 105.536 150.752 106.088 150.752 107V108.848H153.032V107C153.032 106.16 153.008 105.536 152.936 105.08H154.88C154.784 105.56 154.736 106.256 154.736 107.048V108.848H156.8C157.76 107.528 158.24 106.688 158.672 105.56L160.424 106.28C159.752 107.384 159.32 108.056 158.696 108.848H159.944C161.192 108.848 161.912 108.8 162.608 108.704V110.48C161.912 110.408 161.024 110.36 159.872 110.36H157.16C156.752 111.272 156.416 112.04 155.96 112.832H159.2C160.424 112.832 161.048 112.808 161.744 112.712V114.44C161.048 114.344 160.352 114.32 159.2 114.32H152.72V115.88H157.808C158.96 115.88 159.704 115.856 160.352 115.76V117.44C159.68 117.344 158.96 117.32 157.808 117.32H152.72V118.976H159.872C161.24 118.976 161.984 118.928 162.632 118.832V120.632C161.768 120.536 160.976 120.488 159.896 120.488H154.04C155.936 122.264 159.272 123.704 163.16 124.4C162.656 125.024 162.44 125.384 162.104 126.152C157.52 124.856 155.264 123.632 152.648 121.088C152.696 122.048 152.72 122.528 152.72 123.032V124.52C152.72 125.552 152.768 126.296 152.864 126.992H150.896C150.992 126.248 151.04 125.504 151.04 124.496V123.032C151.04 122.504 151.064 121.976 151.112 121.112C149.72 122.504 148.856 123.152 147.368 124.016C145.88 124.856 144.464 125.456 142.256 126.152C141.896 125.408 141.656 125.072 141.128 124.472C144.896 123.656 147.488 122.456 149.72 120.488H144.248C143.168 120.488 142.328 120.536 141.488 120.632V118.832C142.184 118.928 142.928 118.976 144.224 118.976H151.016V117.32H146.216C145.088 117.32 144.344 117.344 143.696 117.44V115.76C144.392 115.856 145.112 115.88 146.216 115.88H151.016V114.32ZM149.888 112.832H154.112C154.592 111.968 154.88 111.272 155.216 110.36H148.88C149.36 111.392 149.552 111.824 149.888 112.832Z" fill="white"/>
<path d="M323.808 84.29V85.568H327.336C328.11 85.568 328.434 85.55 328.83 85.478V86.792C328.344 86.702 327.93 86.684 327.282 86.684H318.786V87.458H317.418C317.49 86.954 317.508 86.486 317.508 85.694V82.382C317.508 82.04 317.508 81.932 317.562 81.032C317.166 81.554 316.788 81.968 316.302 82.418C316.158 82.04 316.014 81.806 315.744 81.482C315.438 83.84 314.898 85.406 313.764 87.242C313.386 86.81 313.098 86.576 312.612 86.27C314.322 83.732 314.682 81.896 314.682 75.56C314.682 74.858 314.664 74.264 314.61 73.832C315.042 73.886 315.6 73.904 316.59 73.904H326.166C326.976 73.904 327.3 73.886 327.93 73.832C327.894 74.174 327.876 74.48 327.876 74.912V76.532C327.876 76.928 327.894 77.234 327.93 77.522C327.516 77.486 327.174 77.468 326.238 77.468H315.996C315.942 79.304 315.906 80.006 315.78 81.158C317.184 80.114 318.012 79.052 318.66 77.486L319.902 77.9C319.56 78.476 319.506 78.548 319.29 78.836H322.566C322.944 78.368 323.196 77.918 323.376 77.468L324.618 77.882C324.276 78.35 324.132 78.566 323.898 78.836H327.048C327.858 78.836 328.182 78.818 328.614 78.746V79.952C328.218 79.898 327.786 79.88 327.12 79.88H323.808V81.068H326.652C327.48 81.068 327.75 81.05 328.11 80.996V82.148C327.732 82.094 327.462 82.076 326.652 82.076H323.808V83.282H326.652C327.498 83.282 327.732 83.264 328.11 83.21V84.362C327.75 84.308 327.444 84.29 326.652 84.29H323.808ZM322.566 84.29H318.786V85.568H322.566V84.29ZM322.566 83.282V82.076H318.786V83.282H322.566ZM322.566 81.068V79.88H318.786V81.068H322.566ZM316.014 76.406H326.58V75.02H316.032V75.578C316.032 76.028 316.032 76.046 316.014 76.406ZM329.01 71.438V72.788C328.38 72.734 327.93 72.716 326.976 72.716H315.492C314.646 72.716 314.034 72.734 313.476 72.788V71.438C314.07 71.51 314.61 71.546 315.492 71.546H326.976C327.894 71.546 328.416 71.51 329.01 71.438ZM339.792 81.482V84.758C339.792 85.73 339.81 86.306 339.882 86.774H338.37C338.442 86.252 338.46 85.748 338.46 84.776V81.482H333.726C333.474 84.056 333.024 85.46 331.836 87.332C331.35 86.864 331.17 86.738 330.594 86.378C332.25 84.146 332.556 82.22 332.556 73.85C332.556 72.896 332.538 72.356 332.484 71.708C333.024 71.762 333.546 71.78 334.482 71.78H344.274C345.21 71.78 345.696 71.762 346.236 71.708C346.182 72.248 346.164 72.68 346.164 73.544V85.55C346.164 86.792 345.732 87.08 343.824 87.08C343.248 87.08 342.42 87.044 341.718 86.99C341.664 86.504 341.592 86.18 341.394 85.622C342.384 85.748 343.23 85.82 343.842 85.82C344.67 85.82 344.814 85.73 344.814 85.298V81.482H339.792ZM339.792 75.992H344.814V73.076H339.792V75.992ZM338.46 75.992V73.076H333.924V75.146L333.906 75.992H338.46ZM339.792 77.252V80.204H344.814V77.252H339.792ZM338.46 77.252H333.888C333.87 77.756 333.87 78.17 333.87 78.422C333.852 79.394 333.852 79.394 333.816 80.204H338.46V77.252ZM362.76 82.58H358.17C359.232 84.272 361.698 85.442 365.172 85.91C364.812 86.414 364.686 86.684 364.47 87.296C362.418 86.9 360.726 86.288 359.448 85.46C358.386 84.794 357.648 84.038 356.928 82.904C356.262 84.164 355.344 85.118 354.084 85.838C352.95 86.522 351.636 86.936 349.602 87.278C349.386 86.684 349.296 86.522 348.9 85.946C351.33 85.658 352.608 85.28 353.886 84.452C354.642 83.966 355.164 83.408 355.632 82.58H351.33C350.286 82.58 349.71 82.598 349.188 82.67V81.266C349.71 81.338 350.34 81.374 351.33 81.374H356.118C356.226 80.924 356.28 80.564 356.28 80.258C356.28 80.15 356.262 80.06 356.244 79.916L357.81 79.97C357.72 80.24 357.72 80.24 357.648 80.654C357.63 80.798 357.594 80.96 357.486 81.374H362.724C363.732 81.374 364.362 81.338 364.83 81.266V82.67C364.308 82.616 363.714 82.58 362.76 82.58ZM352.572 73.976H350.754C350.178 73.976 349.836 73.994 349.35 74.048V72.734C349.782 72.806 350.178 72.824 350.754 72.824H352.554L352.536 72.428C352.536 72.032 352.482 71.51 352.428 71.114L353.886 71.096C353.832 71.366 353.814 71.654 353.814 72.05C353.814 72.122 353.814 72.248 353.814 72.428L353.832 72.824H355.452C355.956 72.824 356.352 72.806 356.82 72.752V74.048C356.316 73.994 355.974 73.976 355.47 73.976H353.85L353.886 75.452H355.128C355.74 75.452 356.028 75.434 356.442 75.38V76.64C355.974 76.586 355.722 76.568 355.11 76.568H353.922L353.958 78.188C354.912 78.044 355.326 77.972 356.406 77.738V78.638C358.422 77.432 359.142 75.992 359.214 73.058H358.746C358.098 73.058 357.54 73.094 357.144 73.148V71.762C357.594 71.834 358.296 71.87 359.07 71.87H363.012C363.84 71.87 364.308 71.852 364.704 71.816C364.65 72.194 364.632 72.428 364.614 72.878C364.542 75.002 364.326 77.234 364.128 78.17C363.984 78.836 363.714 79.25 363.282 79.484C363.048 79.592 362.49 79.682 361.86 79.682C361.482 79.682 360.744 79.628 360.204 79.574C360.15 78.98 360.078 78.674 359.844 78.134C360.672 78.314 361.428 78.422 361.95 78.422C362.598 78.422 362.814 78.188 362.958 77.234C363.174 75.974 363.192 75.56 363.264 73.058H360.582C360.474 74.93 360.24 75.938 359.7 77.054C359.106 78.242 358.242 79.124 356.856 79.952C356.406 79.34 356.262 79.178 355.992 78.962C354.138 79.376 352.482 79.646 349.98 79.916C349.746 79.934 349.548 79.97 349.206 80.006L349.008 78.638C349.17 78.656 349.35 78.674 349.44 78.674C350.07 78.674 350.808 78.602 352.68 78.368L352.644 76.568H351.132C350.52 76.568 350.196 76.586 349.746 76.64V75.38C350.178 75.434 350.466 75.452 351.168 75.452H352.608L352.572 73.976ZM367.062 80.114L366.864 78.746C367.116 78.782 367.26 78.8 367.548 78.8C367.71 78.8 367.854 78.8 368.394 78.782C369.006 78.044 369.204 77.81 369.672 77.162C368.754 76.028 368.358 75.614 367.026 74.426L367.8 73.418L368.502 74.12C369.384 72.77 370.014 71.582 370.194 70.916L371.49 71.474C371.346 71.636 371.274 71.762 371.076 72.14C370.608 73.022 369.924 74.12 369.33 74.948C369.726 75.344 369.906 75.542 370.41 76.136C371.67 74.3 372.192 73.436 372.444 72.806L373.668 73.526C373.506 73.742 373.38 73.904 373.128 74.282C371.904 76.136 370.77 77.702 369.888 78.71C371.274 78.62 371.58 78.584 372.534 78.476C372.318 77.954 372.228 77.756 371.886 77.108L372.858 76.712C373.47 77.81 373.902 78.782 374.406 80.168L373.308 80.636C373.146 80.06 373.074 79.88 372.966 79.538C372.768 79.556 372.624 79.574 372.516 79.592C372.12 79.628 372.12 79.628 371.382 79.718V85.568C371.382 86.36 371.418 86.864 371.49 87.422H369.996C370.068 86.918 370.104 86.342 370.104 85.55V79.844C368.862 79.952 368.862 79.952 368.178 80.006C367.422 80.06 367.404 80.06 367.062 80.114ZM381.3 75.182H376.35C375.792 76.28 375.288 77.09 374.55 77.99C374.208 77.594 373.92 77.36 373.47 77.09C374.298 76.172 374.964 75.11 375.522 73.85C376.044 72.644 376.296 71.852 376.422 71.078L377.88 71.402C377.718 71.762 377.718 71.762 377.466 72.5C377.286 73.04 377.16 73.346 376.944 73.886H381.282C382.02 73.886 382.362 73.868 382.74 73.814C382.686 74.372 382.686 74.372 382.65 76.694C382.632 79.61 382.29 83.264 381.894 84.938C381.462 86.702 380.994 87.062 379.068 87.062C378.6 87.062 378.06 87.026 377.286 86.972C377.214 86.396 377.124 86.036 376.926 85.496C377.88 85.658 378.618 85.73 379.302 85.73C380.148 85.73 380.346 85.514 380.598 84.362C381.012 82.436 381.282 79.016 381.3 75.182ZM367.944 80.906L369.114 81.122C368.826 83.75 368.628 84.704 368.016 86.288L366.846 85.73C367.458 84.326 367.692 83.264 367.944 80.906ZM372.282 81.104L373.344 80.798C373.794 82.328 374.082 83.588 374.352 85.172L373.146 85.514C372.948 83.912 372.678 82.49 372.282 81.104ZM379.194 81.788L377.97 82.472C377.16 80.402 376.728 79.592 375.612 77.99L376.728 77.342C377.88 78.998 378.384 79.898 379.194 81.788Z" fill="#797979"/>
<path d="M235.939 104.939C235.354 105.525 235.354 106.475 235.939 107.061L245.485 116.607C246.071 117.192 247.021 117.192 247.607 116.607C248.192 116.021 248.192 115.071 247.607 114.485L239.121 106L247.607 97.5147C248.192 96.9289 248.192 95.9792 247.607 95.3934C247.021 94.8076 246.071 94.8076 245.485 95.3934L235.939 104.939ZM237 107.5H459V104.5H237V107.5Z" fill="#E68A00"/>
<path d="M235.939 128.939C235.354 129.525 235.354 130.475 235.939 131.061L245.485 140.607C246.071 141.192 247.021 141.192 247.607 140.607C248.192 140.021 248.192 139.071 247.607 138.485L239.121 130L247.607 121.515C248.192 120.929 248.192 119.979 247.607 119.393C247.021 118.808 246.071 118.808 245.485 119.393L235.939 128.939ZM237 131.5H459V128.5H237V131.5Z" fill="#14BB61"/>
<path d="M315.726 148.254H319.11C319.56 147.408 319.794 146.85 320.082 145.896H315.042C314.214 145.896 313.656 145.932 313.044 146.004V144.546C313.638 144.618 314.214 144.654 315.024 144.654H327.048C327.822 144.654 328.47 144.618 329.028 144.546V146.004C328.47 145.932 327.84 145.896 327.048 145.896H321.576C321.342 146.688 321 147.552 320.622 148.254H326.31C327.282 148.254 327.804 148.236 328.452 148.164C328.38 148.83 328.344 149.442 328.344 150.45V158.262C328.344 159.252 328.38 159.936 328.452 160.494H326.976V159.522H315.096V160.494H313.62C313.71 159.864 313.728 159.324 313.728 158.226V150.432C313.728 149.532 313.692 148.92 313.62 148.164C314.214 148.236 314.826 148.254 315.726 148.254ZM322.854 149.442H319.11V151.548H322.854V149.442ZM324.15 149.442V158.298H326.976V149.442H324.15ZM322.854 158.298V155.994H319.11V158.298H322.854ZM317.814 158.298V149.442H315.096V158.298H317.814ZM319.11 152.718V154.824H322.854V152.718H319.11ZM345.48 154.464H344.688C344.238 155.67 343.662 156.552 342.744 157.452C344.184 158.046 344.94 158.424 346.686 159.432L345.714 160.566C344.058 159.486 343.248 159.054 341.628 158.334C339.972 159.414 338.208 160.008 335.688 160.386C335.508 159.864 335.382 159.612 335.058 159.144C337.272 158.964 338.748 158.568 340.278 157.758C339.054 157.272 338.442 157.056 336.822 156.588C337.524 155.85 337.938 155.346 338.55 154.464H337.596C336.804 154.464 336.336 154.482 335.904 154.554V153.168C336.336 153.24 336.786 153.258 337.614 153.258H339.342C339.702 152.664 340.008 151.998 340.152 151.566L341.556 151.908C341.07 152.772 340.962 152.952 340.782 153.258H345.462C346.326 153.258 346.812 153.24 347.208 153.168V154.554C346.794 154.482 346.29 154.464 345.48 154.464ZM343.284 154.464H340.026C339.594 155.094 339.396 155.346 338.82 156.066C340.17 156.48 340.71 156.66 341.502 156.966C342.402 156.192 342.924 155.472 343.284 154.464ZM333.096 147.516V145.86C333.096 145.086 333.06 144.618 332.97 144.042H334.536C334.446 144.564 334.428 145.086 334.428 145.842V147.516H334.968C335.544 147.516 335.742 147.498 336.138 147.444V148.794C335.742 148.74 335.454 148.722 334.986 148.722H334.428V151.962C334.878 151.764 335.094 151.674 335.778 151.332L335.832 152.646C335.22 152.952 335.04 153.042 334.428 153.294V158.856C334.428 159.972 333.96 160.26 332.196 160.26C331.944 160.26 331.818 160.26 331.476 160.224C331.404 159.666 331.332 159.378 331.134 158.892C331.62 158.982 332.016 159.018 332.448 159.018C332.952 159.018 333.096 158.91 333.096 158.532V153.852C332.52 154.068 332.34 154.14 332.034 154.248C331.512 154.428 331.224 154.536 330.99 154.662L330.648 153.204C331.188 153.114 331.926 152.898 333.096 152.484V148.722H332.196C331.728 148.722 331.278 148.74 330.882 148.794V147.408C331.296 147.48 331.692 147.516 332.232 147.516H333.096ZM342.078 145.968H344.904C345.858 145.968 346.344 145.95 346.776 145.878V147.264C346.38 147.192 345.912 147.174 345.012 147.174H338.28C337.362 147.174 336.93 147.192 336.534 147.264V145.878C336.984 145.95 337.47 145.968 338.388 145.968H340.728V145.446C340.728 144.924 340.692 144.474 340.62 144.096H342.168C342.096 144.6 342.078 144.96 342.078 145.446V145.968ZM337.56 150.216H342.294C342.924 149.28 343.248 148.56 343.662 147.282L344.94 147.642C344.472 148.794 344.148 149.406 343.608 150.216H345.426C346.344 150.216 346.776 150.198 347.208 150.126V151.512C346.794 151.44 346.308 151.422 345.426 151.422H337.614C336.876 151.422 336.408 151.44 336.012 151.512V150.126C336.354 150.198 336.804 150.216 337.56 150.216ZM337.992 147.786L339.162 147.336C339.63 148.164 339.864 148.704 340.206 149.658L339 150.108C338.694 149.118 338.514 148.704 337.992 147.786ZM363.408 151.602L364.164 152.34C364.074 152.52 364.074 152.52 363.822 153.024C363.174 154.41 362.274 155.724 361.23 156.84C362.436 157.74 363.642 158.316 365.604 158.91C365.298 159.378 365.118 159.72 364.902 160.26C362.778 159.468 361.554 158.802 360.258 157.758C359.016 158.802 357.702 159.54 355.776 160.296C355.542 159.792 355.344 159.486 354.948 159.09C356.766 158.496 358.062 157.83 359.304 156.876C358.098 155.634 357.558 154.77 356.748 152.862C356.316 152.88 356.1 152.898 355.74 152.952V151.584C356.118 151.656 356.478 151.674 356.982 151.674H362.094C362.814 151.674 363.138 151.656 363.408 151.602ZM362.454 152.862H358.044C358.62 154.194 359.16 154.968 360.258 156.012C361.23 155.04 361.788 154.266 362.454 152.862ZM349.656 145.824V144.51C350.106 144.582 350.412 144.6 351.06 144.6H353.526C354.156 144.6 354.48 144.582 354.93 144.51V145.824C354.498 145.77 354.12 145.752 353.526 145.752H351.06C350.484 145.752 350.07 145.77 349.656 145.824ZM349.044 148.398V147.012C349.458 147.084 349.8 147.102 350.484 147.102H354.012C354.768 147.102 355.056 147.084 355.452 147.03V148.398C355.074 148.344 354.804 148.326 354.12 148.326H350.484C349.872 148.326 349.512 148.344 349.044 148.398ZM349.674 150.9V149.622C350.034 149.676 350.304 149.694 350.934 149.694H353.652C354.282 149.694 354.534 149.676 354.894 149.622V150.9C354.48 150.846 354.21 150.828 353.652 150.828H350.934C350.34 150.828 350.07 150.846 349.674 150.9ZM349.674 153.384V152.124C350.07 152.178 350.322 152.196 350.934 152.196H353.652C354.264 152.196 354.552 152.178 354.894 152.124V153.384C354.318 153.33 354.282 153.33 353.634 153.33H350.934C350.34 153.33 350.07 153.348 349.674 153.384ZM350.97 160.386H349.62C349.692 159.864 349.728 159.342 349.728 158.64V156.138C349.728 155.544 349.71 155.112 349.638 154.644C350.124 154.698 350.52 154.716 351.078 154.716H353.634C354.408 154.716 354.606 154.716 354.93 154.662C354.894 155.094 354.876 155.382 354.876 156.048V158.694C354.876 159.27 354.894 159.702 354.948 160.152H353.652V159.45H350.97V160.386ZM350.97 155.832V158.334H353.652V155.832H350.97ZM361.14 145.842H358.566C358.512 147.678 358.314 148.614 357.738 149.658C357.36 150.36 357 150.774 356.298 151.35C355.938 150.954 355.578 150.666 355.2 150.45C356.748 149.406 357.288 148.146 357.288 145.644C357.288 145.212 357.27 145.05 357.216 144.564C357.684 144.618 358.116 144.636 358.62 144.636H360.978C361.626 144.636 362.094 144.618 362.508 144.564C362.454 145.05 362.436 145.518 362.436 146.22V148.974C362.436 149.262 362.58 149.334 363.192 149.334C363.786 149.334 363.984 149.28 364.074 149.082C364.2 148.776 364.29 148.164 364.326 147.102C364.794 147.39 365.028 147.498 365.496 147.642C365.28 150.27 365.082 150.504 363.048 150.504C361.482 150.504 361.14 150.324 361.14 149.46V145.842ZM374.46 157.848V150.468H371.418C370.644 150.468 370.122 150.504 369.636 150.576V149.136C370.104 149.208 370.644 149.244 371.418 149.244H378.708C379.482 149.244 380.022 149.208 380.508 149.136V150.576C380.022 150.504 379.5 150.468 378.708 150.468H375.792V153.24H379.23C380.004 153.24 380.526 153.204 380.976 153.132V154.554C380.454 154.482 379.986 154.464 379.23 154.464H375.792V158.208C376.656 158.334 377.52 158.388 378.708 158.388C380.058 158.388 381.3 158.334 382.884 158.208C382.65 158.748 382.56 159.054 382.452 159.684C381.102 159.738 380.67 159.738 378.96 159.738C374.55 159.738 372.084 158.712 370.77 156.318C370.05 157.92 369.384 158.892 368.106 160.26C367.746 159.792 367.602 159.648 366.99 159.234C368.196 158.082 368.754 157.344 369.366 156.102C369.978 154.878 370.5 152.952 370.5 151.98C370.5 151.944 370.5 151.908 370.5 151.854L371.976 152.142C371.904 152.412 371.904 152.412 371.742 153.114C371.706 153.366 371.454 154.266 371.256 154.95C372.03 156.462 372.876 157.236 374.46 157.848ZM374.172 146.004V145.194C374.172 144.762 374.136 144.51 374.046 144.06H375.684C375.594 144.438 375.576 144.762 375.576 145.194V146.004H380.724C381.426 146.004 381.966 145.986 382.578 145.932C382.524 146.328 382.506 146.688 382.506 147.174V148.398C382.506 148.92 382.524 149.316 382.578 149.712H381.192V147.264H368.88V149.712H367.458C367.53 149.262 367.548 148.974 367.548 148.38V147.174C367.548 146.724 367.512 146.256 367.476 145.932C368.07 145.986 368.628 146.004 369.33 146.004H374.172Z" fill="#797979"/>
<path d="M262.285 375.205C263.108 375.306 263.856 374.721 263.957 373.898L265.598 360.498C265.698 359.676 265.113 358.928 264.291 358.827C263.469 358.727 262.72 359.312 262.62 360.134L261.161 372.045L249.25 370.586C248.428 370.486 247.68 371.071 247.579 371.893C247.478 372.715 248.063 373.463 248.886 373.564L262.285 375.205ZM263.649 372.792L157.533 237.06L155.169 238.908L261.286 374.64L263.649 372.792Z" fill="#14BB61"/>
<path d="M183.638 215.745C182.815 215.644 182.067 216.229 181.966 217.051L180.326 230.451C180.225 231.274 180.81 232.022 181.632 232.123C182.454 232.223 183.203 231.638 183.303 230.816L184.762 218.905L196.673 220.363C197.495 220.464 198.243 219.879 198.344 219.057C198.445 218.235 197.86 217.486 197.038 217.386L183.638 215.745ZM290.754 352.042L184.637 216.31L182.274 218.158L288.391 353.89L290.754 352.042Z" fill="#FA2204"/>
<path d="M500.82 207.846C500.721 207.023 499.974 206.437 499.151 206.536L485.749 208.155C484.926 208.254 484.34 209.001 484.439 209.824C484.539 210.646 485.286 211.232 486.108 211.133L498.022 209.695L499.46 221.608C499.56 222.431 500.307 223.017 501.129 222.918C501.952 222.818 502.538 222.071 502.439 221.249L500.82 207.846ZM394.165 344.504L500.511 208.952L498.151 207.1L391.805 342.652L394.165 344.504Z" fill="#E68A00"/>
<path d="M527.462 229.188C527.362 228.365 526.615 227.779 525.793 227.878L512.39 229.497C511.567 229.596 510.981 230.343 511.081 231.166C511.18 231.988 511.927 232.574 512.749 232.475L524.663 231.037L526.101 242.95C526.201 243.773 526.948 244.359 527.77 244.259C528.593 244.16 529.179 243.413 529.08 242.59L527.462 229.188ZM420.806 365.846L527.153 230.293L524.792 228.442L418.446 363.994L420.806 365.846Z" fill="#FA2204"/>
<path d="M170.813 300.852L171.844 302.193C171.582 302.326 170.893 302.788 170.479 303.106C169.565 303.807 168.141 305.174 167.527 305.94C166.543 307.172 165.516 309.232 165.043 310.98C164.749 312.046 164.556 313.42 164.526 314.622C164.512 315.314 164.547 315.832 164.693 316.968C164.004 316.839 163.67 316.846 162.951 316.945C162.809 314.307 162.998 312.573 163.647 310.463C164.22 308.639 165.077 307.095 166.579 305.238C165.083 305.979 164.154 306.306 162.703 306.604C161.223 306.923 159.859 306.95 158.218 306.734C156.819 306.538 155.974 306.324 154.322 305.71C154.581 305.102 154.671 304.716 154.692 304.064C156.888 305.032 158.206 305.359 160.143 305.369C163.463 305.407 166.446 304.297 169.658 301.83C170.229 301.391 170.475 301.179 170.813 300.852ZM181.095 321.597L179.582 319.627C179.078 318.971 178.698 318.536 178.37 318.197L179.484 317.342C179.756 317.814 180.037 318.211 180.553 318.882L182.395 321.28L183.522 320.414C184.179 319.909 184.657 319.497 185.07 319.089L186.024 320.331C185.494 320.647 184.959 321.013 184.345 321.485L183.228 322.365L183.71 322.993C184.16 323.578 184.474 323.928 184.827 324.269L183.685 325.146C183.457 324.731 183.167 324.295 182.74 323.739L182.257 323.11L174.524 329.118C173.522 329.91 173.052 329.772 171.989 328.387C171.627 327.916 171.312 327.477 170.84 326.773C171.221 326.412 171.483 326.074 171.759 325.636C172.229 326.455 172.537 326.944 172.987 327.53C173.392 328.058 173.562 328.131 173.848 327.912L178.648 324.203C179.333 323.677 179.333 323.677 180.433 322.923C178.99 323.259 177.871 323.369 176.395 323.368C174.754 323.358 173.332 323.133 171.288 322.57C171.47 322.067 171.548 321.667 171.567 321.13C174.734 322.239 177.781 322.395 181.095 321.597ZM177.294 316.618L176.68 315.819C175.882 317.203 175.518 318.414 175.418 320.057C174.921 320.03 174.543 320.07 174.001 320.192C174.219 318.821 174.47 318.084 175.203 316.704C174.344 317.477 173.71 318.01 172.61 318.854L168.87 321.726C168.199 322.242 167.764 322.621 167.38 323.007L166.426 321.765C166.87 321.515 167.377 321.171 168.048 320.656L171.531 317.98C172.345 317.355 173.295 316.671 174.141 316.089C171.897 316.95 170.026 317.321 168.038 317.304C168.377 316.681 168.478 316.399 168.601 315.85C170.921 315.975 172.937 315.585 175.693 314.534L174.98 313.606C174.608 313.121 174.283 312.757 173.941 312.43L175.083 311.553C175.286 311.965 175.513 312.29 175.984 312.904L176.784 313.946L178.198 312.86C178.754 312.433 179.132 312.097 179.488 311.733L180.442 312.975C179.973 313.222 179.677 313.427 179.034 313.92L177.607 315.016L178.265 315.873C178.583 316.287 178.827 316.576 179.169 316.903L178.056 317.758C177.835 317.383 177.59 317.004 177.294 316.618ZM181.405 329.212L182.355 328.232C182.466 328.465 182.565 328.594 182.828 328.936C182.981 329.136 183.003 329.165 183.226 329.425C184.058 329.444 184.277 329.435 184.947 329.42C185.417 327.697 185.547 327.098 185.731 325.595L187.009 325.544C186.925 326.085 186.894 326.222 186.833 326.586C188.484 326.431 189.698 326.179 190.436 325.84L190.765 327.243C190.481 327.257 190.481 327.257 189.09 327.486C188.368 327.609 187.559 327.709 186.602 327.763C186.459 328.463 186.355 328.86 186.228 329.344C187.925 329.22 189.223 329.018 189.947 328.779L190.122 330.189C190.007 330.186 189.215 330.249 187.773 330.381C186.903 330.459 185.175 330.515 184.113 330.491C184.847 331.358 185.218 331.753 185.899 332.433C186.214 331.897 186.333 331.668 186.674 330.93L187.601 331.398C186.944 332.788 186.591 333.422 185.767 334.713L184.728 334.218C185.011 333.818 185.107 333.677 185.298 333.394C185.141 333.219 185.141 333.219 184.825 332.895C184.686 332.775 184.562 332.643 184.191 332.247L179.523 335.833C178.88 336.326 178.517 336.651 178.147 337.026L177.226 335.826C177.698 335.555 178.119 335.276 178.747 334.794L183.316 331.285C182.922 330.861 182.732 330.644 182.419 330.295C181.726 329.511 181.635 329.422 181.405 329.212ZM193.119 332.584L192.286 331.5C191.837 330.914 191.392 330.394 191.071 330.095L192.199 329.229C192.471 329.701 192.826 330.222 193.276 330.808L196.685 335.247C197.124 335.818 197.489 336.264 197.726 336.514C197.529 336.642 197.404 336.715 196.768 337.158C195.111 338.34 193.76 339.151 192.864 339.521C191.94 339.914 191.48 339.699 190.471 338.386C190.285 338.143 190.058 337.818 189.706 337.271C190.138 336.917 190.379 336.641 190.637 336.148C190.969 336.847 191.292 337.415 191.599 337.815C191.928 338.243 192.123 338.32 192.514 338.179C193.285 337.882 194.275 337.28 195.861 336.153L193.953 333.669C191.491 335.31 189.448 335.517 186.768 334.421C186.997 333.951 187.083 333.59 187.108 333.002C188.495 333.685 189.534 333.886 190.598 333.704C191.467 333.536 192.216 333.21 193.119 332.584ZM181.191 330.262L181.725 331.372C179.814 332.636 178.561 333.28 176.947 333.839L176.59 332.547C178.091 332.166 179.244 331.598 181.191 330.262ZM183.497 333.62L184.372 334.287C183.603 335.354 182.764 336.271 181.414 337.557L180.459 336.816C181.97 335.473 182.657 334.742 183.497 333.62ZM181.831 339.961L181.017 340.586L180.151 339.458C180.583 339.194 181.091 338.85 181.633 338.433L184.917 335.911C185.473 335.484 185.834 335.184 186.2 334.835C186.41 335.196 186.604 335.478 187.02 336.02L190.134 340.075C190.573 340.646 190.795 340.906 191.079 341.187C190.675 341.429 190.322 341.678 189.708 342.15L186.367 344.715C185.754 345.187 185.365 345.508 184.98 345.894L184.103 344.752L184.988 344.072L181.831 339.961ZM186.013 336.748L182.816 339.204L185.973 343.316L189.171 340.86L186.013 336.748ZM203.694 343.664L204.692 344.963C204.076 346.525 203.814 347.839 203.736 349.805C203.68 351.595 203.845 353.376 204.278 355.063C203.677 355.048 203.274 355.085 202.638 355.233C202.297 353.429 202.2 351.529 202.318 349.555C202.428 347.837 202.663 346.725 203.235 345.106C201.476 345.208 200.568 345.179 198.945 344.928C197.045 344.64 195.293 344.102 193.476 343.273C193.751 342.744 193.894 342.339 193.984 341.748C196.994 343.362 200.548 344.06 203.694 343.664ZM197.197 345.045L198.217 346.373C197.784 346.637 197.477 346.828 196.863 347.299C194.899 348.762 193.46 349.458 191.943 349.67C190.452 349.885 189.048 349.624 187.239 348.835C187.484 348.238 187.562 347.837 187.569 347.196C189.058 347.982 190.034 348.277 191.178 348.26C192.618 348.244 194.09 347.59 195.961 346.154C196.46 345.77 196.795 345.467 197.197 345.045ZM200.651 349.542L201.67 350.869C201.155 351.174 200.72 351.464 200.106 351.935L195.252 355.663C194.681 356.101 194.246 356.481 193.773 356.958L192.742 355.616C193.339 355.271 193.818 354.948 194.375 354.521L199.229 350.793C199.771 350.376 200.249 349.964 200.651 349.542ZM143.682 317.172L143.797 317.084C144.31 316.69 144.631 316.398 144.887 316.111L145.819 317.324C145.433 317.53 145.05 317.801 144.608 318.141L144.494 318.229L148.221 323.082L148.336 322.995C148.85 322.6 149.199 322.286 149.426 322.021L150.369 323.248C150.011 323.433 149.59 323.711 149.147 324.051L149.033 324.139L149.965 325.352C150.447 325.98 150.838 326.429 151.191 326.771L150.106 327.604C149.787 327.1 149.464 326.621 149.037 326.065L148.105 324.851L143.694 328.239L144.812 329.695C145.262 330.281 145.663 330.744 146.049 331.128L144.978 331.951C144.717 331.493 144.406 331.028 143.935 330.415L142.422 328.445C142.256 330.002 142.602 331.665 143.501 333.721C142.961 333.727 142.591 333.807 142.031 333.965C141.561 332.555 141.349 331.629 141.248 330.344L140.277 331.09C140.024 330.672 139.808 330.361 139.359 329.776L137.879 327.848L136.465 328.934L139.382 332.731C139.919 333.431 140.229 333.805 140.629 334.179L139.516 335.034C139.211 334.519 138.889 334.04 138.396 333.398L132.146 325.261C131.653 324.618 131.24 324.141 130.833 323.728L131.932 322.883C132.152 323.259 132.474 323.738 133.055 324.494L135.676 327.906L137.089 326.821L135.817 325.165C135.39 324.608 135.123 324.291 134.795 323.952L135.766 323.207C134.584 322.821 133.741 322.402 132.439 321.563C132.792 321.019 132.869 320.824 133.039 320.217C134.663 321.534 136.368 322.336 137.817 322.449L136.348 320.536C135.887 319.936 135.508 319.501 135.144 319.146L136.214 318.323C136.453 318.753 136.775 319.231 137.247 319.845L138.343 321.273L142.754 317.885L141.998 316.9C141.57 316.343 141.191 315.908 140.797 315.484L141.882 314.651C142.121 315.08 142.443 315.559 142.926 316.187L143.682 317.172ZM139.155 322.329L142.882 327.183L143.796 326.481L140.068 321.627L139.155 322.329ZM140.925 320.97L144.653 325.823L145.538 325.143L141.81 320.29L140.925 320.97ZM142.666 319.632L146.394 324.486L147.294 323.795L143.566 318.941L142.666 319.632ZM141.424 327.145L138.782 323.705C137.719 323.681 136.976 323.571 135.878 323.234C136.069 323.542 136.34 323.924 136.745 324.452L138.017 326.108L138.117 326.031C138.602 325.658 138.866 325.411 139.147 325.127L140.046 326.297C139.688 326.481 139.406 326.675 138.906 327.059L138.806 327.136L140.287 329.063C140.714 329.62 140.948 329.894 141.217 330.186C141.15 329.035 141.195 328.207 141.424 327.145ZM154.224 335.449L151.637 332.08C151.198 331.509 150.786 331.031 150.323 330.547L151.565 329.593C151.91 330.19 152.2 330.626 152.693 331.268L155.697 335.18L156.853 334.292C157.353 333.908 157.674 333.616 158.09 333.183L159.077 334.468C158.619 334.729 158.183 335.018 157.712 335.38L156.541 336.279L159.71 340.405C160.247 341.104 160.659 341.582 161.071 341.97L159.829 342.924C159.425 342.28 159.114 341.816 158.654 341.216L155.869 337.59C155.058 339.461 154.617 340.866 154.345 342.551C154.043 344.462 154.019 346.115 154.305 347.847C153.628 347.822 153.304 347.844 152.632 347.974C152.508 346.276 152.578 344.861 152.833 343.212C153.018 342.094 153.29 341 153.698 339.847C154.002 339.001 154.188 338.563 154.731 337.556C153.978 338.202 153.401 338.691 152.972 339.02L150.003 341.301L151.165 342.814C151.703 343.513 151.947 343.802 152.289 344.129L151.104 345.039C150.844 344.582 150.565 344.16 150.094 343.546L148.975 342.09L147.719 343.055C147.048 343.57 146.542 344.004 146.126 344.438L145.128 343.139C145.671 342.812 146.218 342.46 146.889 341.945L148.131 340.991L147.122 339.677C146.64 339.049 146.304 338.672 145.94 338.316L147.125 337.406C147.342 337.806 147.558 338.117 148.117 338.845L149.159 340.201L152.128 337.921C152.628 337.537 153.181 337.135 153.942 336.618C151.849 337.114 150.165 337.227 147.917 337.047C146.266 336.908 145.014 336.667 143.536 336.19C143.821 335.586 143.894 335.326 143.994 334.659C145.654 335.313 147.303 335.658 149.317 335.768C151.205 335.861 152.46 335.782 154.224 335.449ZM163.975 359.848L161.18 356.207C160.485 358.08 161.059 360.749 162.804 363.789C162.185 363.81 161.894 363.875 161.277 364.076C160.341 362.208 159.796 360.493 159.674 358.975C159.555 357.727 159.705 356.681 160.166 355.42C158.761 355.659 157.445 355.512 156.107 354.951C154.874 354.469 153.745 353.679 152.235 352.274C152.574 351.741 152.648 351.571 152.864 350.906C154.572 352.658 155.65 353.441 157.086 353.95C157.931 354.254 158.692 354.328 159.634 354.195L157.013 350.783C156.377 349.955 156.012 349.509 155.637 349.139L156.751 348.284C157.012 348.741 157.367 349.263 157.97 350.048L160.886 353.845C161.309 353.657 161.627 353.48 161.87 353.294C161.956 353.228 162.016 353.159 162.119 353.057L163.03 354.332C162.761 354.425 162.761 354.425 162.389 354.62C162.264 354.694 162.114 354.764 161.719 354.93L164.91 359.084C165.524 359.884 165.936 360.362 166.278 360.689L165.165 361.544C164.89 361.097 164.557 360.604 163.975 359.848ZM164.594 346.527L163.486 345.085C163.135 344.628 162.913 344.368 162.574 344.015L163.616 343.215C163.822 343.602 164.049 343.927 164.4 344.383L165.496 345.811L165.799 345.555C166.113 345.314 166.494 344.953 166.776 344.669L167.678 345.815C167.431 345.936 167.192 346.098 166.878 346.339C166.82 346.383 166.72 346.459 166.578 346.569L166.275 346.824L167.261 348.109C167.568 348.509 167.824 348.812 168.152 349.15L167.124 349.94C166.86 349.507 166.666 349.225 166.359 348.825L165.372 347.54L164.223 348.468L164.98 349.453C165.353 349.938 165.542 350.156 165.837 350.451L164.838 351.219C164.596 350.815 164.457 350.604 164.084 350.119L163.36 349.176L162.097 350.192C162.793 350.861 163.102 351.145 163.945 351.859L163.231 352.407C165.416 353.272 166.997 352.965 169.367 351.235L169.082 350.864C168.688 350.35 168.319 349.93 168.035 349.649L169.134 348.804C169.351 349.205 169.75 349.784 170.222 350.398L172.623 353.524C173.127 354.181 173.427 354.541 173.696 354.833C173.364 355.02 173.167 355.149 172.799 355.408C171.071 356.645 169.169 357.833 168.306 358.246C167.69 358.538 167.198 358.576 166.749 358.376C166.521 358.256 166.109 357.868 165.726 357.369C165.495 357.069 165.089 356.451 164.803 355.99C165.241 355.585 165.44 355.341 165.725 354.827C166.087 355.593 166.462 356.259 166.78 356.673C167.174 357.186 167.492 357.215 168.336 356.748C169.467 356.152 169.806 355.914 171.834 354.447L170.201 352.32C168.65 353.375 167.708 353.803 166.494 354.055C165.19 354.307 163.964 354.159 162.463 353.565C162.675 352.835 162.716 352.622 162.722 352.276C161.265 351.058 160.042 349.909 158.304 348.089C158.147 347.915 157.998 347.78 157.761 347.53L158.725 346.54C158.81 346.679 158.905 346.833 158.96 346.905C159.344 347.404 159.85 347.946 161.176 349.288L162.582 348.163L161.661 346.964C161.288 346.478 161.076 346.232 160.759 345.908L161.759 345.141C161.979 345.516 162.14 345.756 162.568 346.312L163.445 347.454L164.594 346.527ZM168.552 361.757L169.516 360.767C169.641 360.989 169.714 361.114 169.89 361.342C169.988 361.471 170.076 361.585 170.419 362.002C171.377 362.038 171.684 362.053 172.483 362.029C172.823 360.61 172.91 360.044 173.041 358.264L174.312 358.264L174.182 359.248C175.79 359.126 177.116 358.902 177.754 358.639L178.101 360.006C177.885 359.991 177.741 360.011 177.321 360.084C176.336 360.25 175.049 360.376 174.03 360.409C173.957 360.965 173.91 361.228 173.746 361.99C175.969 361.871 176.973 361.758 177.626 361.574L177.8 362.984C177.53 362.987 177.325 362.986 176.872 363.016C174.656 363.174 172.723 363.229 171.386 363.143C172.302 364.188 172.517 364.409 173.184 365.099C173.466 364.61 173.568 364.418 173.874 363.752L174.78 364.282C174.282 365.436 173.774 366.371 172.982 367.615L171.942 367.029C172.3 366.55 172.399 366.383 172.605 366.089C172.47 365.943 172.368 365.84 172.288 365.765C172.018 365.473 172.018 365.473 171.497 364.942L166.857 368.506C166.229 368.988 165.852 369.324 165.453 369.721L164.543 368.536C164.986 368.286 165.465 367.964 166.093 367.481L170.619 364.005C169.776 363.086 169.776 363.086 169.317 362.577C168.814 362.01 168.803 361.996 168.552 361.757ZM181.136 370.045L178.121 366.119C176.91 366.346 175.96 366.439 174.797 366.402C174.903 365.89 174.913 365.519 174.853 364.998C176.085 365.095 177.333 364.976 178.673 364.651C179.947 364.331 180.729 364.048 181.419 363.677L182.05 365.03C181.666 365.121 181.666 365.121 180.927 365.371C180.389 365.557 180.07 365.643 179.51 365.801L182.153 369.242C182.602 369.827 182.825 370.087 183.098 370.354C182.622 370.651 182.622 370.651 180.759 372.037C178.435 373.799 175.329 375.753 173.76 376.459C172.098 377.191 171.527 377.039 170.354 375.511C170.069 375.14 169.769 374.69 169.34 374.043C169.753 373.635 169.984 373.345 170.292 372.859C170.744 373.714 171.137 374.343 171.553 374.886C172.068 375.556 172.36 375.582 173.428 375.08C175.207 374.235 178.084 372.366 181.136 370.045ZM168.461 362.939L169.002 363.999C166.742 365.371 165.865 365.795 164.236 366.275L163.966 365.007C165.452 364.637 166.437 364.176 168.461 362.939ZM170.946 366.5L171.836 367.156C170.896 368.445 170.072 369.441 168.981 370.62L167.975 369.872C169.125 368.739 170.088 367.659 170.946 366.5ZM174.614 372.399L173.326 371.845C174.474 369.941 174.853 369.105 175.444 367.245L176.638 367.735C176.026 369.657 175.619 370.605 174.614 372.399Z" fill="#797979"/>
<path d="M464.487 378.516L463.079 377.452C463.556 377.001 463.841 376.652 464.503 375.776L468.453 370.548C469.125 369.658 469.361 369.317 469.654 368.749L471.062 369.812C470.624 370.271 470.339 370.62 469.699 371.467L465.728 376.724C465.044 377.628 464.82 377.955 464.487 378.516ZM470.27 385.163L468.849 384.089C469.322 383.612 469.643 383.246 470.349 382.312L476.294 374.442C477.021 373.48 477.311 373.067 477.615 372.484L479.037 373.559C478.611 374.003 478.206 374.51 477.555 375.371L471.587 383.271C470.936 384.133 470.604 384.603 470.27 385.163ZM477.204 368.818L475.782 367.744C476.187 367.328 476.617 366.818 477.365 365.827L483.463 357.756C484.331 356.607 484.534 356.309 484.841 355.752L486.263 356.826C485.794 357.328 485.465 357.734 484.716 358.725L478.64 366.768C477.783 367.902 477.526 368.272 477.204 368.818ZM487.157 341.876L487.356 340.717C488.67 340.65 489.408 340.688 490.721 340.891L490.555 342.096C489.328 341.869 488.263 341.786 487.157 341.876ZM487.64 339.624L487.817 338.494C489.117 338.416 489.801 338.436 491.139 338.635L490.984 339.826C489.836 339.614 488.865 339.556 487.64 339.624ZM499.821 347.359L500.171 349.225C497.928 349.268 494.935 349.736 492.359 350.43C492.734 352.202 492.845 353.459 492.825 355.068C492.809 356.612 492.69 357.696 492.418 359.16C491.695 359.042 491.425 359.041 490.669 359.147C491.293 356.708 491.398 354.509 491.043 351.962C490.698 349.581 489.882 347.138 488.741 345.215L488.522 344.847L484.92 349.795C484.348 350.582 484.105 350.963 483.787 351.534L482.404 350.557C482.798 350.155 483.029 349.879 483.745 348.931L487.268 344.148C487.713 343.559 487.804 343.379 487.909 343.03L489.501 342.924C489.554 343.213 489.665 343.454 489.904 343.883C490.835 345.579 491.467 347.071 491.997 348.938C494.714 348.148 496.85 347.709 499.821 347.359ZM495.091 334.898L498.164 337.22C498.962 335.656 499.66 333.657 500.11 331.628C500.45 330.103 500.557 329.214 500.488 328.44L502.291 328.471C502.208 328.792 502.2 328.831 502.127 329.317C501.843 331.155 501.365 333.073 500.747 334.816C500.289 336.05 500.067 336.582 499.313 338.088L501.338 339.617C501.353 339.628 501.396 339.661 501.428 339.708C501.471 339.74 501.529 339.784 501.586 339.827C502.548 340.554 502.908 340.735 503.311 340.679C503.815 340.609 504.621 339.841 505.782 338.304C506.476 337.385 507.385 335.974 508.058 334.813C508.428 334.145 508.602 333.825 508.878 333.131L510.293 334.065C510.166 334.262 510.166 334.262 509.887 334.751C508.921 336.389 507.719 338.189 506.721 339.51C505.376 341.291 504.487 342.109 503.655 342.315C503.096 342.457 502.524 342.318 501.795 341.88C501.544 341.735 501.231 341.521 500.585 341.033L494.122 336.151C493.447 335.641 493.105 335.406 492.66 335.159L493.734 333.737C494.111 334.135 494.444 334.409 495.091 334.898ZM511.188 311.528L512.499 311.435C512.592 311.731 512.616 311.817 512.831 312.25C514.05 314.728 514.37 317.022 513.878 319.583C513.23 319.545 512.989 319.566 512.254 319.733C512.612 318.424 512.694 317.628 512.586 316.487C512.471 315.385 512.193 314.408 511.707 313.409L505.675 321.395C505.024 322.256 504.756 322.641 504.412 323.216L503.105 322.228C503.557 321.78 503.9 321.385 504.562 320.509L510.334 312.868C511.007 311.978 511.072 311.891 511.188 311.528ZM508.938 319.912L509.99 318.519C510.216 318.757 510.216 318.757 510.995 319.368C513.379 321.259 514.48 322.7 514.991 324.62C515.421 326.321 515.351 327.937 514.716 330.21C513.961 330.045 513.691 330.045 512.956 330.121C513.49 328.697 513.666 327.748 513.631 326.57C513.549 324.14 512.558 322.556 509.771 320.451C509.369 320.147 509.269 320.072 508.938 319.912ZM514.609 306.104L515.683 304.682C515.967 304.964 516.401 305.315 516.99 305.759L520.509 308.418C521.241 308.971 521.597 309.217 522.003 309.456L520.929 310.878C520.555 310.506 520.193 310.209 519.532 309.71L516.028 307.063C515.353 306.553 515.026 306.329 514.609 306.104ZM519.462 299.709L520.537 298.287C520.867 298.627 521.114 298.836 521.89 299.422L523.513 300.648C525.782 302.363 526.959 303.432 527.611 304.331C528.672 305.764 529.055 307.497 528.785 309.526C528.641 310.523 528.382 311.433 527.801 312.979C527.157 312.786 526.909 312.756 526.066 312.796C526.879 311.064 527.167 310.086 527.225 308.844C527.344 306.746 526.801 305.523 524.978 303.875C524.393 303.366 524.087 303.113 522.465 301.887L520.928 300.726C520.052 300.064 519.84 299.926 519.462 299.709ZM526.386 294.247L526.064 292.672C528.288 291.848 529.65 291.479 531.462 291.201L531.877 292.89C529.915 293.1 528.113 293.543 526.386 294.247ZM535.928 301.116L534.209 300.405C535.034 299.223 535.891 297.163 536.311 295.383C537.163 291.717 536.512 288.248 534.314 284.738C535.12 284.715 535.398 284.677 536.108 284.423C537.775 287.532 538.432 290.127 538.285 293.039C538.184 295.263 537.6 297.349 536.371 300.052C536.124 300.588 536.066 300.724 535.928 301.116ZM541.406 270.063L541.605 268.905C542.919 268.837 543.657 268.876 544.97 269.079L544.804 270.284C543.577 270.056 542.512 269.974 541.406 270.063ZM541.889 267.811L542.066 266.682C543.366 266.603 544.05 266.624 545.389 266.823L545.233 268.014C544.086 267.801 543.114 267.744 541.889 267.811ZM543.231 271.171L545.093 270.976C545.161 271.185 545.15 271.2 545.498 271.665C546.913 273.614 548.049 276.052 548.538 278.361C549.048 280.822 548.989 283.259 548.346 286.111C547.637 286.004 547.356 286.018 546.661 286.192C547.408 283.35 547.488 281.065 546.911 278.485C546.46 276.453 545.488 274.365 544.084 272.492L540.608 277.243C541.364 279.258 541.724 281.289 541.742 283.446C541.072 283.436 540.809 283.486 540.128 283.761C540.265 281.428 539.891 279.476 538.866 277.1C538.348 275.874 537.926 275.149 537.477 274.697L538.871 273.539C538.946 273.799 538.949 273.824 539.192 274.279C539.664 275.177 539.807 275.465 539.964 275.854C540.022 275.718 540.022 275.718 540.323 275.29L542.837 271.843C543.097 271.498 543.159 271.387 543.231 271.171Z" fill="#797979"/>
<path d="M228.764 211.86L230.175 210.801C230.477 211.384 230.733 211.755 231.392 212.633L235.324 217.874C235.994 218.767 236.256 219.087 236.721 219.526L235.31 220.585C234.989 220.038 234.734 219.667 234.096 218.818L230.143 213.548C229.462 212.641 229.21 212.335 228.764 211.86ZM220.776 215.58L222.201 214.51C222.529 215.097 222.792 215.508 223.494 216.443L229.414 224.334C230.138 225.298 230.454 225.691 230.93 226.144L229.504 227.214C229.195 226.681 228.82 226.152 228.172 225.288L222.231 217.369C221.582 216.505 221.222 216.055 220.776 215.58ZM234.566 226.762L235.992 225.693C236.28 226.197 236.651 226.751 237.396 227.745L243.467 235.836C244.331 236.988 244.562 237.266 245.012 237.715L243.587 238.785C243.234 238.195 242.935 237.766 242.189 236.773L236.14 228.71C235.287 227.572 235.002 227.223 234.566 226.762ZM257.706 243.778L258.765 244.289C258.466 245.57 258.225 246.269 257.667 247.475L256.555 246.982C257.113 245.866 257.487 244.865 257.706 243.778ZM259.737 244.865L260.774 245.347C260.49 246.618 260.281 247.269 259.72 248.501L258.618 248.022C259.14 246.978 259.464 246.06 259.737 244.865ZM248.935 254.432L247.045 254.252C247.624 252.085 248.002 249.079 248.048 246.411C246.241 246.282 245.002 246.041 243.461 245.577C241.982 245.134 240.974 244.72 239.642 244.054C239.955 243.392 240.03 243.133 240.138 242.377C242.309 243.651 244.394 244.36 246.939 244.723C249.322 245.05 251.896 244.942 254.06 244.376L254.474 244.268L250.714 239.437C250.117 238.671 249.818 238.332 249.357 237.868L250.678 236.809C250.955 237.299 251.157 237.598 251.87 238.548L255.492 243.256C255.935 243.846 256.083 243.983 256.389 244.181L256.051 245.74C255.759 245.711 255.496 245.751 255.018 245.863C253.131 246.288 251.522 246.482 249.582 246.476C249.589 249.305 249.42 251.48 248.935 254.432ZM262.219 253.331L259.138 255.643C260.419 256.842 262.148 258.065 263.973 259.059C265.345 259.807 266.169 260.156 266.932 260.304L266.404 262.028C266.119 261.859 266.083 261.841 265.637 261.636C263.948 260.855 262.238 259.865 260.733 258.789C259.674 258.008 259.224 257.648 257.986 256.507L255.956 258.03C255.941 258.041 255.898 258.074 255.844 258.092C255.801 258.124 255.743 258.167 255.686 258.211C254.721 258.934 254.447 259.23 254.39 259.633C254.318 260.137 254.833 261.123 255.989 262.664C256.68 263.585 257.786 264.849 258.715 265.817C259.255 266.357 259.514 266.612 260.104 267.069L258.816 268.171C258.661 267.995 258.661 267.995 258.268 267.592C256.961 266.21 255.564 264.557 254.571 263.233C253.231 261.447 252.691 260.367 252.723 259.511C252.741 258.935 253.032 258.423 253.655 257.844C253.864 257.642 254.156 257.401 254.803 256.915L261.283 252.054C261.959 251.546 262.28 251.283 262.64 250.923L263.709 252.348C263.223 252.6 262.867 252.845 262.219 253.331ZM280.226 275.263L279.953 276.548C279.643 276.556 279.553 276.556 279.078 276.642C276.36 277.129 274.067 276.801 271.741 275.621C271.957 275.009 272.004 274.771 272.047 274.019C273.206 274.724 273.948 275.023 275.075 275.235C276.165 275.429 277.181 275.433 278.275 275.242L272.269 267.236C271.621 266.373 271.325 266.009 270.868 265.52L272.178 264.536C272.484 265.094 272.769 265.534 273.428 266.412L279.175 274.072C279.845 274.964 279.909 275.051 280.226 275.263ZM272.791 270.782L273.839 272.179C273.548 272.33 273.548 272.33 272.745 272.91C270.268 274.678 268.58 275.337 266.593 275.298C264.84 275.241 263.306 274.726 261.297 273.488C261.664 272.808 261.74 272.548 261.869 271.821C263.09 272.728 263.954 273.16 265.095 273.451C267.453 274.045 269.249 273.53 272.043 271.434C272.446 271.132 272.547 271.056 272.791 270.782ZM284.493 280.05L285.562 281.476C285.213 281.67 284.756 281.991 284.166 282.434L280.638 285.08C279.904 285.631 279.569 285.905 279.227 286.229L278.158 284.803C278.619 284.548 279.004 284.281 279.666 283.784L283.179 281.149C283.856 280.641 284.162 280.389 284.493 280.05ZM289.297 286.483L290.366 287.908C289.948 288.131 289.678 288.311 288.901 288.895L287.274 290.115C284.999 291.822 283.646 292.658 282.602 293.036C280.931 293.659 279.16 293.548 277.284 292.727C276.366 292.313 275.563 291.813 274.238 290.827C274.602 290.262 274.699 290.031 274.893 289.21C276.334 290.47 277.194 291.017 278.371 291.417C280.355 292.111 281.68 291.927 283.768 290.631C284.419 290.21 284.747 289.986 286.374 288.766L287.914 287.61C288.793 286.951 288.983 286.785 289.297 286.483ZM292.632 294.647L294.234 294.773C294.41 297.138 294.389 298.549 294.155 300.367L292.416 300.299C292.758 298.355 292.83 296.501 292.632 294.647ZM283.392 301.917L284.551 300.462C285.458 301.582 287.201 302.975 288.795 303.871C292.083 305.703 295.596 306.037 299.578 304.895C299.376 305.676 299.337 305.953 299.384 306.706C295.935 307.448 293.26 307.362 290.502 306.416C288.393 305.703 286.549 304.566 284.292 302.637C283.845 302.252 283.73 302.158 283.392 301.917ZM311.719 315.768L312.777 316.28C312.479 317.561 312.238 318.26 311.68 319.466L310.567 318.973C311.125 317.857 311.499 316.856 311.719 315.768ZM313.749 316.855L314.786 317.338C314.502 318.608 314.293 319.26 313.732 320.491L312.63 320.013C313.152 318.969 313.476 318.051 313.749 316.855ZM310.149 317.216L309.822 319.059C309.603 319.066 309.592 319.052 309.048 319.257C306.784 320.079 304.127 320.497 301.773 320.328C299.267 320.137 296.941 319.407 294.378 318C294.677 317.348 294.741 317.075 294.766 316.358C297.29 317.863 299.465 318.571 302.104 318.729C304.181 318.859 306.456 318.502 308.645 317.67L305.04 313.016C302.895 313.185 300.843 312.97 298.765 312.39C298.96 311.749 298.985 311.483 298.909 310.752C301.112 311.53 303.092 311.709 305.659 311.381C306.98 311.223 307.794 311.017 308.352 310.711L309.079 312.371C308.809 312.371 308.784 312.367 308.28 312.475C307.287 312.68 306.97 312.738 306.552 312.781C306.667 312.875 306.667 312.875 306.995 313.282L309.613 316.651C309.872 316.996 309.962 317.086 310.149 317.216Z" fill="#797979"/>
<path d="M401.723 296.479L405.188 299.12L408.101 295.298C408.68 294.539 409.011 294.045 409.289 293.533L410.549 294.493C410.117 294.911 409.717 295.376 409.161 296.106L401.991 305.51C401.423 306.255 401.092 306.749 400.803 307.276L399.543 306.315C399.921 305.969 400.32 305.504 400.877 304.774L401.575 303.858L397.982 301.119C397.324 300.617 396.844 300.296 396.328 299.993L397.321 298.691C397.71 299.101 398.132 299.468 398.834 300.002L402.426 302.742L404.325 300.251L398.256 295.624C397.569 295.1 397.132 294.812 396.616 294.509L397.62 293.192C398.024 293.613 398.388 293.936 399.09 294.471L400.664 295.671L402.552 293.195C403.076 292.508 403.386 292.042 403.601 291.641L404.832 292.579C404.469 292.937 404.113 293.344 403.611 294.003L401.723 296.479ZM392.759 291.998L393.642 290.839C395.164 290.98 396.483 290.854 398.283 290.393C400.108 289.929 401.679 289.293 403.263 288.373C403.428 289.019 403.523 289.25 403.875 289.857C402.349 290.641 400.403 291.353 398.697 291.75C397.027 292.129 395.91 292.228 394.287 292.19C394.768 293.757 394.952 294.644 395.087 296.218C395.266 298.21 395.19 300.031 394.84 302.005C394.229 301.856 393.995 301.836 393.293 301.867C393.685 300.106 393.829 298.224 393.703 296.34C393.587 294.622 393.316 293.374 392.759 291.998ZM409.072 281.823L406.234 285.545C405.721 286.218 405.419 286.644 405.16 287.103L404.129 286.317C404.492 285.96 404.801 285.584 405.347 284.868L406.853 282.893C406.102 282.66 405.56 282.541 404.855 282.456L403.534 284.188C403.01 284.875 402.646 285.412 402.362 285.875L401.302 285.067C401.676 284.696 402.043 284.274 402.61 283.529L403.243 282.699C402.575 282.597 401.894 282.598 400.932 282.702L401.256 281.387C402.484 281.35 402.966 281.401 404.084 281.597L404.913 280.509L403.84 279.69C403.367 279.33 402.959 279.064 402.6 278.881L403.484 277.722C403.723 277.972 404.042 278.238 404.586 278.652L405.688 279.493L406.725 278.133L405.623 277.292C405.122 276.91 404.738 276.641 404.434 276.477L405.318 275.317C405.56 275.593 405.954 275.938 406.426 276.298L407.5 277.116L408.438 275.885C408.087 274.713 407.805 274.044 407.328 273.274L408.554 272.556C408.907 273.459 409.112 274.022 409.3 274.755L409.868 274.01C410.435 273.266 410.734 272.815 410.993 272.356L412.052 273.163C411.693 273.546 411.261 274.054 410.737 274.741L409.504 276.358C409.862 277.016 410.167 277.566 410.432 278.198L411.906 276.266C412.462 275.536 412.732 275.152 412.991 274.694L414.021 275.479C413.648 275.851 413.317 276.255 412.793 276.942L409.847 280.807L410.777 281.516L413.091 278.482C413.614 277.795 413.938 277.34 414.176 276.91L415.178 277.674C414.815 278.031 414.473 278.449 413.949 279.137L411.636 282.171L412.624 282.924L415.876 278.659C416.498 277.843 416.807 277.377 417.045 276.947L418.118 277.765C417.668 278.237 417.279 278.688 416.788 279.332L414.126 282.824C416.047 282.501 418.423 281.166 420.606 279.164C420.749 279.748 420.865 280.041 421.171 280.59C418.313 282.735 416.557 283.524 413.85 283.928C414.445 284.335 414.742 284.539 415.043 284.769L415.93 285.445C416.546 285.914 417.011 286.224 417.47 286.483L416.575 287.657C416.175 287.262 415.753 286.895 415.152 286.436L414.279 285.771C413.964 285.53 413.66 285.276 413.166 284.855C413.364 286.318 413.357 287.128 413.196 288.408C413.02 289.678 412.734 290.795 412.145 292.428C411.538 292.305 411.228 292.295 410.63 292.337C411.857 289.719 412.32 287.627 412.161 285.401L409.673 288.665C409.182 289.309 408.828 289.832 408.504 290.376L407.43 289.558C407.804 289.186 408.171 288.764 408.76 287.992L411.849 283.941L410.861 283.188L408.678 286.05C408.165 286.723 407.841 287.178 407.604 287.608L406.602 286.844C406.976 286.473 407.317 286.054 407.819 285.396L410.002 282.533L409.072 281.823ZM407.671 281.82L409.592 279.3C409.295 278.621 409.011 278.133 408.62 277.518L405.739 281.297C406.572 281.48 406.917 281.562 407.671 281.82ZM417.305 274.497L416.112 273.836C416.307 273.669 416.406 273.54 416.668 273.196C416.82 272.996 416.842 272.967 417.035 272.684C416.836 271.876 416.77 271.667 416.58 271.025C414.795 271.021 414.182 271.053 412.683 271.268L412.3 270.048C412.844 269.987 412.985 269.981 413.352 269.944C412.771 268.392 412.21 267.286 411.69 266.662L412.959 265.978C413.047 266.248 413.047 266.248 413.631 267.531C413.939 268.196 414.246 268.951 414.548 269.86C415.261 269.815 415.672 269.811 416.172 269.808C415.609 268.202 415.075 267.002 414.655 266.365L415.97 265.829C415.998 265.94 416.265 266.688 416.769 268.045C417.073 268.865 417.578 270.518 417.833 271.549C418.477 270.615 418.762 270.153 419.24 269.318C418.64 269.154 418.388 269.098 417.587 268.963L417.796 267.945C419.31 268.217 420.014 268.391 421.476 268.849L421.269 269.982C420.809 269.812 420.648 269.757 420.324 269.647C420.197 269.844 420.197 269.844 419.967 270.234C419.887 270.399 419.792 270.553 419.507 271.015L424.188 274.584C424.832 275.075 425.241 275.341 425.699 275.6L424.783 276.803C424.397 276.418 424.018 276.084 423.388 275.604L418.807 272.111C418.501 272.602 418.341 272.842 418.086 273.236C417.51 274.11 417.448 274.221 417.305 274.497ZM417.499 262.309L416.669 263.397C416.222 263.984 415.836 264.549 415.631 264.937L414.5 264.074C414.885 263.689 415.296 263.21 415.743 262.623L419.137 258.171C419.574 257.598 419.908 257.129 420.087 256.836C420.262 256.992 420.366 257.093 420.96 257.591C422.533 258.882 423.67 259.974 424.261 260.742C424.881 261.532 424.795 262.032 423.791 263.349C423.605 263.592 423.351 263.896 422.915 264.378C422.46 264.054 422.13 263.893 421.588 263.774C422.175 263.271 422.639 262.81 422.945 262.409C423.272 261.98 423.296 261.771 423.057 261.431C422.569 260.765 421.729 259.966 420.227 258.73L418.328 261.221C420.556 263.168 421.289 265.086 420.932 267.959C420.418 267.862 420.047 267.873 419.473 268.002C419.77 266.485 419.692 265.429 419.239 264.45C418.849 263.655 418.339 263.018 417.499 262.309ZM418.375 274.43L419.307 273.624C421.026 275.139 421.976 276.179 422.937 277.591L421.783 278.273C421.023 276.924 420.174 275.96 418.375 274.43ZM421.013 271.326L421.428 270.307C422.659 270.77 423.764 271.341 425.358 272.307L424.892 273.423C423.202 272.315 422.316 271.844 421.013 271.326ZM427.569 271.277L428.385 271.899L427.523 273.03C427.155 272.681 426.69 272.282 426.146 271.867L422.854 269.357C422.296 268.931 421.913 268.662 421.479 268.399C421.773 268.103 421.995 267.842 422.409 267.298L425.509 263.232C425.945 262.66 426.138 262.377 426.336 262.029C426.675 262.356 427.008 262.632 427.623 263.102L430.973 265.655C431.588 266.125 432 266.416 432.473 266.686L431.6 267.831L430.712 267.154L427.569 271.277ZM423.375 268.079L426.582 270.524L429.725 266.401L426.518 263.957L423.375 268.079ZM425.429 249.206L426.422 247.903C428.091 248.089 429.427 247.999 431.346 247.56C433.088 247.146 434.763 246.522 436.279 245.662C436.422 246.247 436.563 246.626 436.871 247.201C435.22 248.001 433.411 248.592 431.475 248.994C429.787 249.337 428.653 249.4 426.94 249.272C427.499 250.943 427.709 251.827 427.89 253.459C428.109 255.369 428.048 257.201 427.723 259.171C427.14 259.044 426.712 259.012 426.118 259.079C426.889 255.752 426.633 252.139 425.429 249.206ZM428.46 255.116L429.475 253.785C429.843 254.133 430.108 254.38 430.723 254.849C432.648 256.362 433.697 257.569 434.298 258.978C434.895 260.362 435.01 261.785 434.721 263.737C434.081 263.657 433.674 263.686 433.053 263.846C433.423 262.204 433.452 261.185 433.137 260.085C432.745 258.699 431.729 257.449 429.853 256.02C429.352 255.638 428.973 255.394 428.46 255.116ZM431.898 250.607L432.913 249.276C433.342 249.693 433.735 250.038 434.35 250.507L439.217 254.218C439.79 254.654 440.27 254.975 440.854 255.307L439.828 256.653C439.339 256.167 438.902 255.789 438.344 255.363L433.477 251.653C432.933 251.238 432.41 250.885 431.898 250.607Z" fill="#797979"/>
</svg>
