<svg width="92" height="83" viewBox="0 0 92 83" fill="none" xmlns="http://www.w3.org/2000/svg">
<rect x="44.4667" y="14.3112" width="3.06667" height="6.64444" fill="#0175C1"/>
<rect x="67.9778" y="65.5226" width="3.06667" height="6.64444" transform="rotate(-60 67.9778 65.5226)" fill="#014DC8"/>
<rect x="11.3425" y="56.6377" width="2.35381" height="9.56666" transform="rotate(-105 11.3425 56.6377)" fill="#0179C5"/>
<path d="M69.1333 47.7889C69.1333 60.424 58.8906 70.6667 46.2556 70.6667C33.6205 70.6667 23.3778 60.424 23.3778 47.7889C23.3778 35.1539 33.6205 24.9111 46.2556 24.9111C58.8906 24.9111 69.1333 35.1539 69.1333 47.7889Z" stroke="url(#paint0_linear_538_772)" stroke-width="12"/>
<circle cx="81.5222" cy="71.8111" r="10.4778" fill="url(#paint1_radial_538_772)"/>
<circle cx="46.2556" cy="7.92222" r="7.92222" fill="url(#paint2_linear_538_772)"/>
<circle cx="6.13333" cy="56.7333" r="6.13333" fill="url(#paint3_radial_538_772)"/>
<defs>
<linearGradient id="paint0_linear_538_772" x1="28.8899" y1="22.6184" x2="61.67" y2="71.0082" gradientUnits="userSpaceOnUse">
<stop stop-color="#009DE8"/>
<stop offset="1" stop-color="#003281"/>
</linearGradient>
<radialGradient id="paint1_radial_538_772" cx="0" cy="0" r="1" gradientUnits="userSpaceOnUse" gradientTransform="translate(77.1778 70.2778) rotate(43.8983) scale(18.7968)">
<stop stop-color="#0059E7"/>
<stop offset="1" stop-color="#003281"/>
</radialGradient>
<linearGradient id="paint2_linear_538_772" x1="39.8667" y1="8.17778" x2="57.7556" y2="8.17778" gradientUnits="userSpaceOnUse">
<stop stop-color="#009DE8"/>
<stop offset="1" stop-color="#003281"/>
</linearGradient>
<radialGradient id="paint3_radial_538_772" cx="0" cy="0" r="1" gradientUnits="userSpaceOnUse" gradientTransform="translate(3.59024 55.8357) rotate(43.8983) scale(11.003)">
<stop stop-color="#0196E1"/>
<stop offset="1" stop-color="#0174C1"/>
</radialGradient>
</defs>
</svg>
