<svg width="94" height="111" viewBox="0 0 94 111" fill="none" xmlns="http://www.w3.org/2000/svg">
<path d="M4.37206 105.128C3.4014 105.128 2.60673 104.915 1.98806 104.488C1.38006 104.061 1.03873 103.453 0.964063 102.664H1.70006C1.7534 103.229 2.0094 103.677 2.46806 104.008C2.9374 104.339 3.57206 104.504 4.37206 104.504C5.0334 104.504 5.55606 104.339 5.94006 104.008C6.33473 103.667 6.53206 103.251 6.53206 102.76C6.53206 102.419 6.4254 102.141 6.21206 101.928C6.0094 101.704 5.7534 101.533 5.44406 101.416C5.13473 101.299 4.7134 101.171 4.18006 101.032C3.54006 100.861 3.02273 100.696 2.62806 100.536C2.2334 100.365 1.8974 100.115 1.62006 99.784C1.34273 99.4533 1.20406 99.0107 1.20406 98.456C1.20406 98.0507 1.32673 97.6773 1.57206 97.336C1.8174 96.984 2.15873 96.7067 2.59606 96.504C3.0334 96.3013 3.5294 96.2 4.08406 96.2C4.99073 96.2 5.7214 96.4293 6.27606 96.888C6.8414 97.336 7.1454 97.96 7.18806 98.76H6.46806C6.43606 98.184 6.21206 97.7147 5.79606 97.352C5.38006 96.9893 4.80406 96.808 4.06806 96.808C3.4494 96.808 2.9374 96.968 2.53206 97.288C2.12673 97.608 1.92406 97.9973 1.92406 98.456C1.92406 98.8613 2.03606 99.192 2.26006 99.448C2.49473 99.6933 2.7774 99.8853 3.10806 100.024C3.4494 100.152 3.8974 100.291 4.45206 100.44C5.06006 100.6 5.5454 100.76 5.90806 100.92C6.2814 101.069 6.59606 101.293 6.85206 101.592C7.10806 101.88 7.23606 102.269 7.23606 102.76C7.23606 103.208 7.1134 103.613 6.86806 103.976C6.62273 104.339 6.2814 104.621 5.84406 104.824C5.40673 105.027 4.91606 105.128 4.37206 105.128ZM13.3652 96.136C14.3892 96.136 15.2265 96.456 15.8772 97.096C16.5279 97.7253 16.8532 98.664 16.8532 99.912V105H16.1492V99.96C16.1492 98.9253 15.8879 98.136 15.3652 97.592C14.8425 97.0373 14.1332 96.76 13.2372 96.76C12.2985 96.76 11.5465 97.0587 10.9812 97.656C10.4265 98.2533 10.1492 99.1387 10.1492 100.312V105H9.42919V93.16H10.1492V98.152C10.3945 97.5013 10.8052 97.0053 11.3812 96.664C11.9572 96.312 12.6185 96.136 13.3652 96.136ZM19.7659 94.376C19.5953 94.376 19.4513 94.3227 19.3339 94.216C19.2166 94.0987 19.1579 93.944 19.1579 93.752C19.1579 93.5707 19.2166 93.4213 19.3339 93.304C19.4513 93.1867 19.5953 93.128 19.7659 93.128C19.9366 93.128 20.0806 93.1867 20.1979 93.304C20.3153 93.4213 20.3739 93.5707 20.3739 93.752C20.3739 93.944 20.3153 94.0987 20.1979 94.216C20.0806 94.3227 19.9366 94.376 19.7659 94.376ZM20.1179 96.312V105H19.3979V96.312H20.1179ZM26.5013 96.2C27.4186 96.2 28.1973 96.424 28.8373 96.872C29.4773 97.3093 29.9253 97.8747 30.1813 98.568V96.312H30.9013V105.272C30.9013 106.072 30.7253 106.771 30.3733 107.368C30.0213 107.976 29.5466 108.44 28.9493 108.76C28.352 109.091 27.6853 109.256 26.9493 109.256C25.8613 109.256 24.96 108.995 24.2453 108.472C23.5306 107.949 23.0613 107.245 22.8373 106.36H23.5573C23.7706 107.053 24.1706 107.603 24.7573 108.008C25.344 108.424 26.0746 108.632 26.9493 108.632C27.5573 108.632 28.1066 108.493 28.5973 108.216C29.088 107.949 29.472 107.56 29.7493 107.048C30.0373 106.547 30.1813 105.955 30.1813 105.272V102.728C29.9253 103.421 29.472 103.997 28.8213 104.456C28.1813 104.904 27.408 105.128 26.5013 105.128C25.6906 105.128 24.9653 104.947 24.3253 104.584C23.696 104.211 23.2 103.688 22.8373 103.016C22.4853 102.333 22.3093 101.544 22.3093 100.648C22.3093 99.752 22.4853 98.968 22.8373 98.296C23.2 97.624 23.696 97.1067 24.3253 96.744C24.9653 96.3813 25.6906 96.2 26.5013 96.2ZM30.1813 100.648C30.1813 99.8907 30.0213 99.224 29.7013 98.648C29.392 98.0613 28.9653 97.6133 28.4213 97.304C27.8773 96.984 27.2693 96.824 26.5973 96.824C25.8933 96.824 25.2746 96.9787 24.7413 97.288C24.208 97.5867 23.792 98.024 23.4933 98.6C23.1946 99.176 23.0453 99.8587 23.0453 100.648C23.0453 101.437 23.1946 102.12 23.4933 102.696C23.792 103.272 24.208 103.715 24.7413 104.024C25.2853 104.333 25.904 104.488 26.5973 104.488C27.2693 104.488 27.8773 104.333 28.4213 104.024C28.976 103.704 29.408 103.256 29.7173 102.68C30.0266 102.093 30.1813 101.416 30.1813 100.648ZM37.3469 105.128C36.5363 105.128 35.8056 104.947 35.1549 104.584C34.5043 104.221 33.9923 103.704 33.6189 103.032C33.2563 102.349 33.0749 101.555 33.0749 100.648C33.0749 99.752 33.2616 98.968 33.6349 98.296C34.0083 97.6133 34.5203 97.096 35.1709 96.744C35.8323 96.3813 36.5683 96.2 37.3789 96.2C38.1896 96.2 38.9203 96.3813 39.5709 96.744C40.2216 97.096 40.7283 97.608 41.0909 98.28C41.4643 98.952 41.6509 99.7413 41.6509 100.648C41.6509 101.555 41.4643 102.349 41.0909 103.032C40.7176 103.704 40.2003 104.221 39.5389 104.584C38.8883 104.947 38.1576 105.128 37.3469 105.128ZM37.3469 104.488C37.9763 104.488 38.5629 104.349 39.1069 104.072C39.6616 103.784 40.1043 103.352 40.4349 102.776C40.7656 102.2 40.9309 101.491 40.9309 100.648C40.9309 99.816 40.7656 99.112 40.4349 98.536C40.1043 97.96 39.6669 97.5333 39.1229 97.256C38.5789 96.968 37.9923 96.824 37.3629 96.824C36.7336 96.824 36.1469 96.968 35.6029 97.256C35.0696 97.5333 34.6376 97.96 34.3069 98.536C33.9763 99.112 33.8109 99.816 33.8109 100.648C33.8109 101.491 33.9709 102.2 34.2909 102.776C34.6216 103.352 35.0536 103.784 35.5869 104.072C36.1309 104.349 36.7176 104.488 37.3469 104.488ZM44.9074 96.936V102.68C44.9074 103.32 45.0248 103.763 45.2594 104.008C45.4941 104.243 45.9101 104.36 46.5074 104.36H47.4834V105H46.3954C45.6381 105 45.0781 104.824 44.7154 104.472C44.3634 104.109 44.1874 103.512 44.1874 102.68V96.936H42.8754V96.312H44.1874V94.104H44.9074V96.312H47.4834V96.936H44.9074ZM53.2063 105.128C52.3956 105.128 51.665 104.947 51.0143 104.584C50.3636 104.221 49.8516 103.704 49.4783 103.032C49.1156 102.349 48.9343 101.555 48.9343 100.648C48.9343 99.752 49.121 98.968 49.4943 98.296C49.8676 97.6133 50.3796 97.096 51.0303 96.744C51.6916 96.3813 52.4276 96.2 53.2383 96.2C54.049 96.2 54.7796 96.3813 55.4303 96.744C56.081 97.096 56.5876 97.608 56.9503 98.28C57.3236 98.952 57.5103 99.7413 57.5103 100.648C57.5103 101.555 57.3236 102.349 56.9503 103.032C56.577 103.704 56.0596 104.221 55.3983 104.584C54.7476 104.947 54.017 105.128 53.2063 105.128ZM53.2063 104.488C53.8356 104.488 54.4223 104.349 54.9663 104.072C55.521 103.784 55.9636 103.352 56.2943 102.776C56.625 102.2 56.7903 101.491 56.7903 100.648C56.7903 99.816 56.625 99.112 56.2943 98.536C55.9636 97.96 55.5263 97.5333 54.9823 97.256C54.4383 96.968 53.8516 96.824 53.2223 96.824C52.593 96.824 52.0063 96.968 51.4623 97.256C50.929 97.5333 50.497 97.96 50.1663 98.536C49.8356 99.112 49.6703 99.816 49.6703 100.648C49.6703 101.491 49.8303 102.2 50.1503 102.776C50.481 103.352 50.913 103.784 51.4463 104.072C51.9903 104.349 52.577 104.488 53.2063 104.488ZM64.3988 96.008C65.4548 96.008 66.3081 96.344 66.9588 97.016C67.6095 97.6773 67.9348 98.6053 67.9348 99.8V105H65.6948V100.104C65.6948 99.4 65.5188 98.8613 65.1668 98.488C64.8148 98.104 64.3348 97.912 63.7268 97.912C63.1081 97.912 62.6175 98.104 62.2548 98.488C61.9028 98.8613 61.7268 99.4 61.7268 100.104V105H59.4868V96.136H61.7268V97.24C62.0255 96.856 62.4041 96.5573 62.8628 96.344C63.3321 96.12 63.8441 96.008 64.3988 96.008ZM69.4889 100.536C69.4889 99.64 69.6649 98.8453 70.0169 98.152C70.3796 97.4587 70.8649 96.9253 71.4729 96.552C72.0916 96.1787 72.7796 95.992 73.5369 95.992C74.1983 95.992 74.7743 96.1253 75.2649 96.392C75.7663 96.6587 76.1663 96.9947 76.4649 97.4V96.136H78.7209V105H76.4649V103.704C76.1769 104.12 75.7769 104.467 75.2649 104.744C74.7636 105.011 74.1823 105.144 73.5209 105.144C72.7743 105.144 72.0916 104.952 71.4729 104.568C70.8649 104.184 70.3796 103.645 70.0169 102.952C69.6649 102.248 69.4889 101.443 69.4889 100.536ZM76.4649 100.568C76.4649 100.024 76.3583 99.56 76.1449 99.176C75.9316 98.7813 75.6436 98.4827 75.2809 98.28C74.9183 98.0667 74.5289 97.96 74.1129 97.96C73.6969 97.96 73.3129 98.0613 72.9609 98.264C72.6089 98.4667 72.3209 98.7653 72.0969 99.16C71.8836 99.544 71.7769 100.003 71.7769 100.536C71.7769 101.069 71.8836 101.539 72.0969 101.944C72.3209 102.339 72.6089 102.643 72.9609 102.856C73.3236 103.069 73.7076 103.176 74.1129 103.176C74.5289 103.176 74.9183 103.075 75.2809 102.872C75.6436 102.659 75.9316 102.36 76.1449 101.976C76.3583 101.581 76.4649 101.112 76.4649 100.568ZM84.6047 102.936L86.8447 96.136H89.2287L85.9487 105H83.2287L79.9647 96.136H82.3647L84.6047 102.936ZM91.6228 95.08C91.2281 95.08 90.8975 94.9573 90.6308 94.712C90.3748 94.456 90.2468 94.1413 90.2468 93.768C90.2468 93.3947 90.3748 93.0853 90.6308 92.84C90.8975 92.584 91.2281 92.456 91.6228 92.456C92.0175 92.456 92.3428 92.584 92.5988 92.84C92.8655 93.0853 92.9988 93.3947 92.9988 93.768C92.9988 94.1413 92.8655 94.456 92.5988 94.712C92.3428 94.9573 92.0175 95.08 91.6228 95.08ZM92.7268 96.136V105H90.4868V96.136H92.7268Z" fill="#0059E7"/>
<path d="M60.6685 31.4565C62.1231 47.1666 49.8727 57.2763 43.5692 60.3674C63.3887 74.7319 80.2261 43.2754 76.9531 30.911L60.6685 31.4565Z" fill="#FFC32A"/>
<circle cx="68.8435" cy="31.8201" r="8.18233" fill="#FFC32A"/>
<circle cx="63.7523" cy="14.3644" r="7.81867" fill="#FFC32A"/>
<path d="M33.9978 28.7291C31.2703 51.8214 49.6908 61.4584 59.5702 63.0949C26.6591 74.732 12.4764 42.0026 20.1133 25.8198L33.9978 28.7291Z" fill="#0059E7"/>
<circle cx="27.0228" cy="27.4562" r="7.09135" fill="#0059E7"/>
<circle cx="34.296" cy="8.54599" r="8.54599" fill="#0059E7"/>
</svg>
