<svg width="25" height="25" viewBox="0 0 25 25" fill="none" xmlns="http://www.w3.org/2000/svg">
<path d="M12.5 14.2094C11.375 14.2094 10.4 13.3094 10.4 12.1094C10.4 10.9844 11.3 10.0094 12.5 10.0094C13.625 10.0094 14.6 10.9094 14.6 12.1094C14.6 13.2344 13.625 14.2094 12.5 14.2094Z" fill="#014FD7"/>
<path fill-rule="evenodd" clip-rule="evenodd" d="M15.05 7.00937H9.95C9.35 7.08437 9.05 7.15937 8.825 7.23437C8.525 7.30937 8.3 7.45937 8.075 7.68437C7.89696 7.86241 7.81284 8.04045 7.71116 8.25565C7.68437 8.31237 7.65628 8.37182 7.625 8.43437C7.6134 8.46918 7.6 8.50578 7.58564 8.54501C7.50718 8.75937 7.4 9.05219 7.4 9.55937V14.6594C7.475 15.2594 7.55 15.5594 7.625 15.7844C7.7 16.0844 7.85 16.3094 8.075 16.5344C8.25304 16.7124 8.43108 16.7965 8.64628 16.8982C8.70304 16.925 8.76239 16.9531 8.825 16.9844C8.85981 16.996 8.89641 17.0094 8.93564 17.0237C9.15 17.1022 9.44282 17.2094 9.95 17.2094H15.05C15.65 17.1344 15.95 17.0594 16.175 16.9844C16.475 16.9094 16.7 16.7594 16.925 16.5344C17.103 16.3563 17.1872 16.1783 17.2888 15.9631C17.3156 15.9063 17.3437 15.847 17.375 15.7844C17.3866 15.7496 17.4 15.713 17.4144 15.6737C17.4928 15.4594 17.6 15.1666 17.6 14.6594V9.55937C17.525 8.95937 17.45 8.65937 17.375 8.43437C17.3 8.13437 17.15 7.90937 16.925 7.68437C16.747 7.50633 16.5689 7.42221 16.3537 7.32054C16.297 7.29376 16.2375 7.26563 16.175 7.23437C16.1402 7.22277 16.1036 7.20937 16.0644 7.19501C15.85 7.11655 15.5572 7.00937 15.05 7.00937ZM12.5 8.88437C10.7 8.88437 9.275 10.3094 9.275 12.1094C9.275 13.9094 10.7 15.3344 12.5 15.3344C14.3 15.3344 15.725 13.9094 15.725 12.1094C15.725 10.3094 14.3 8.88437 12.5 8.88437ZM16.55 8.80937C16.55 9.22359 16.2142 9.55937 15.8 9.55937C15.3858 9.55937 15.05 9.22359 15.05 8.80937C15.05 8.39516 15.3858 8.05937 15.8 8.05937C16.2142 8.05937 16.55 8.39516 16.55 8.80937Z" fill="#014FD7"/>
<path fill-rule="evenodd" clip-rule="evenodd" d="M0.5 3.85938C0.5 1.78831 2.17893 0.109375 4.25 0.109375H20.75C22.8211 0.109375 24.5 1.78831 24.5 3.85938V20.3594C24.5 22.4304 22.8211 24.1094 20.75 24.1094H4.25C2.17893 24.1094 0.5 22.4304 0.5 20.3594V3.85938ZM9.95 5.88437H15.05C15.725 5.95937 16.175 6.03437 16.55 6.18437C17 6.40937 17.3 6.55937 17.675 6.93437C18.05 7.30937 18.275 7.68437 18.425 8.05937C18.575 8.43437 18.725 8.88437 18.725 9.55937V14.6594C18.65 15.3344 18.575 15.7844 18.425 16.1594C18.2 16.6094 18.05 16.9094 17.675 17.2844C17.3 17.6594 16.925 17.8844 16.55 18.0344C16.175 18.1844 15.725 18.3344 15.05 18.3344H9.95C9.275 18.2594 8.825 18.1844 8.45 18.0344C8 17.8094 7.7 17.6594 7.325 17.2844C6.95 16.9094 6.725 16.5344 6.575 16.1594C6.425 15.7844 6.275 15.3344 6.275 14.6594V9.55937C6.35 8.88437 6.425 8.43437 6.575 8.05937C6.8 7.60937 6.95 7.30937 7.325 6.93437C7.7 6.55937 8.075 6.33437 8.45 6.18437C8.825 6.03437 9.275 5.88437 9.95 5.88437Z" fill="#014FD7"/>
</svg>
