<svg width="60" height="60" viewBox="0 0 60 60" fill="none" xmlns="http://www.w3.org/2000/svg">
<g filter="url(#filter0_d_1566_4673)">
<path d="M38.2927 20.157C39.2249 30.2238 31.3749 36.702 27.3358 38.6828C40.0358 47.8874 50.825 27.7304 48.7277 19.8075L38.2927 20.157Z" fill="#FFC32A"/>
<circle cx="43.5312" cy="20.39" r="5.24314" fill="#FFC32A"/>
<circle cx="40.2688" cy="9.20463" r="5.01011" fill="#FFC32A"/>
<path d="M21.2025 18.4092C19.4548 33.2065 31.2584 39.3818 37.589 40.4304C16.5 47.8873 7.41186 26.9147 12.3054 16.545L21.2025 18.4092Z" fill="#0458EA"/>
<circle cx="16.733" cy="17.5936" r="4.54405" fill="#0458EA"/>
<circle cx="21.3935" cy="5.47616" r="5.47616" fill="#0458EA"/>
</g>
<path d="M3.35754 57.08C2.75087 57.08 2.25421 56.9467 1.86754 56.68C1.48754 56.4133 1.27421 56.0333 1.22754 55.54H1.68754C1.72087 55.8933 1.88087 56.1733 2.16754 56.38C2.46087 56.5867 2.85754 56.69 3.35754 56.69C3.77087 56.69 4.09754 56.5867 4.33754 56.38C4.58421 56.1667 4.70754 55.9067 4.70754 55.6C4.70754 55.3867 4.64087 55.2133 4.50754 55.08C4.38087 54.94 4.22087 54.8333 4.02754 54.76C3.83421 54.6867 3.57087 54.6067 3.23754 54.52C2.83754 54.4133 2.51421 54.31 2.26754 54.21C2.02087 54.1033 1.81087 53.9467 1.63754 53.74C1.46421 53.5333 1.37754 53.2567 1.37754 52.91C1.37754 52.6567 1.45421 52.4233 1.60754 52.21C1.76087 51.99 1.97421 51.8167 2.24754 51.69C2.52087 51.5633 2.83087 51.5 3.17754 51.5C3.74421 51.5 4.20087 51.6433 4.54754 51.93C4.90087 52.21 5.09087 52.6 5.11754 53.1H4.66754C4.64754 52.74 4.50754 52.4467 4.24754 52.22C3.98754 51.9933 3.62754 51.88 3.16754 51.88C2.78087 51.88 2.46087 51.98 2.20754 52.18C1.95421 52.38 1.82754 52.6233 1.82754 52.91C1.82754 53.1633 1.89754 53.37 2.03754 53.53C2.18421 53.6833 2.36087 53.8033 2.56754 53.89C2.78087 53.97 3.06087 54.0567 3.40754 54.15C3.78754 54.25 4.09087 54.35 4.31754 54.45C4.55087 54.5433 4.74754 54.6833 4.90754 54.87C5.06754 55.05 5.14754 55.2933 5.14754 55.6C5.14754 55.88 5.07087 56.1333 4.91754 56.36C4.76421 56.5867 4.55087 56.7633 4.27754 56.89C4.00421 57.0167 3.69754 57.08 3.35754 57.08ZM8.97824 51.46C9.61824 51.46 10.1416 51.66 10.5482 52.06C10.9549 52.4533 11.1582 53.04 11.1582 53.82V57H10.7182V53.85C10.7182 53.2033 10.5549 52.71 10.2282 52.37C9.90158 52.0233 9.45824 51.85 8.89824 51.85C8.31158 51.85 7.84158 52.0367 7.48824 52.41C7.14158 52.7833 6.96824 53.3367 6.96824 54.07V57H6.51824V49.6H6.96824V52.72C7.12158 52.3133 7.37824 52.0033 7.73824 51.79C8.09824 51.57 8.51158 51.46 8.97824 51.46ZM12.9787 50.36C12.872 50.36 12.782 50.3267 12.7087 50.26C12.6354 50.1867 12.5987 50.09 12.5987 49.97C12.5987 49.8567 12.6354 49.7633 12.7087 49.69C12.782 49.6167 12.872 49.58 12.9787 49.58C13.0854 49.58 13.1754 49.6167 13.2487 49.69C13.322 49.7633 13.3587 49.8567 13.3587 49.97C13.3587 50.09 13.322 50.1867 13.2487 50.26C13.1754 50.3267 13.0854 50.36 12.9787 50.36ZM13.1987 51.57V57H12.7487V51.57H13.1987ZM17.1883 51.5C17.7617 51.5 18.2483 51.64 18.6483 51.92C19.0483 52.1933 19.3283 52.5467 19.4883 52.98V51.57H19.9383V57.17C19.9383 57.67 19.8283 58.1067 19.6083 58.48C19.3883 58.86 19.0917 59.15 18.7183 59.35C18.345 59.5567 17.9283 59.66 17.4683 59.66C16.7883 59.66 16.225 59.4967 15.7783 59.17C15.3317 58.8433 15.0383 58.4033 14.8983 57.85H15.3483C15.4817 58.2833 15.7317 58.6267 16.0983 58.88C16.465 59.14 16.9217 59.27 17.4683 59.27C17.8483 59.27 18.1917 59.1833 18.4983 59.01C18.805 58.8433 19.045 58.6 19.2183 58.28C19.3983 57.9667 19.4883 57.5967 19.4883 57.17V55.58C19.3283 56.0133 19.045 56.3733 18.6383 56.66C18.2383 56.94 17.755 57.08 17.1883 57.08C16.6817 57.08 16.2283 56.9667 15.8283 56.74C15.435 56.5067 15.125 56.18 14.8983 55.76C14.6783 55.3333 14.5683 54.84 14.5683 54.28C14.5683 53.72 14.6783 53.23 14.8983 52.81C15.125 52.39 15.435 52.0667 15.8283 51.84C16.2283 51.6133 16.6817 51.5 17.1883 51.5ZM19.4883 54.28C19.4883 53.8067 19.3883 53.39 19.1883 53.03C18.995 52.6633 18.7283 52.3833 18.3883 52.19C18.0483 51.99 17.6683 51.89 17.2483 51.89C16.8083 51.89 16.4217 51.9867 16.0883 52.18C15.755 52.3667 15.495 52.64 15.3083 53C15.1217 53.36 15.0283 53.7867 15.0283 54.28C15.0283 54.7733 15.1217 55.2 15.3083 55.56C15.495 55.92 15.755 56.1967 16.0883 56.39C16.4283 56.5833 16.815 56.68 17.2483 56.68C17.6683 56.68 18.0483 56.5833 18.3883 56.39C18.735 56.19 19.005 55.91 19.1983 55.55C19.3917 55.1833 19.4883 54.76 19.4883 54.28ZM23.9668 57.08C23.4602 57.08 23.0035 56.9667 22.5968 56.74C22.1902 56.5133 21.8702 56.19 21.6368 55.77C21.4102 55.3433 21.2968 54.8467 21.2968 54.28C21.2968 53.72 21.4135 53.23 21.6468 52.81C21.8802 52.3833 22.2002 52.06 22.6068 51.84C23.0202 51.6133 23.4802 51.5 23.9868 51.5C24.4935 51.5 24.9502 51.6133 25.3568 51.84C25.7635 52.06 26.0802 52.38 26.3068 52.8C26.5402 53.22 26.6568 53.7133 26.6568 54.28C26.6568 54.8467 26.5402 55.3433 26.3068 55.77C26.0735 56.19 25.7502 56.5133 25.3368 56.74C24.9302 56.9667 24.4735 57.08 23.9668 57.08ZM23.9668 56.68C24.3602 56.68 24.7268 56.5933 25.0668 56.42C25.4135 56.24 25.6902 55.97 25.8968 55.61C26.1035 55.25 26.2068 54.8067 26.2068 54.28C26.2068 53.76 26.1035 53.32 25.8968 52.96C25.6902 52.6 25.4168 52.3333 25.0768 52.16C24.7368 51.98 24.3702 51.89 23.9768 51.89C23.5835 51.89 23.2168 51.98 22.8768 52.16C22.5435 52.3333 22.2735 52.6 22.0668 52.96C21.8602 53.32 21.7568 53.76 21.7568 54.28C21.7568 54.8067 21.8568 55.25 22.0568 55.61C22.2635 55.97 22.5335 56.24 22.8668 56.42C23.2068 56.5933 23.5735 56.68 23.9668 56.68ZM28.6921 51.96V55.55C28.6921 55.95 28.7655 56.2267 28.9121 56.38C29.0588 56.5267 29.3188 56.6 29.6921 56.6H30.3021V57H29.6221C29.1488 57 28.7988 56.89 28.5721 56.67C28.3521 56.4433 28.2421 56.07 28.2421 55.55V51.96H27.4221V51.57H28.2421V50.19H28.6921V51.57H30.3021V51.96H28.6921ZM33.8789 57.08C33.3723 57.08 32.9156 56.9667 32.5089 56.74C32.1023 56.5133 31.7823 56.19 31.5489 55.77C31.3223 55.3433 31.2089 54.8467 31.2089 54.28C31.2089 53.72 31.3256 53.23 31.5589 52.81C31.7923 52.3833 32.1123 52.06 32.5189 51.84C32.9323 51.6133 33.3923 51.5 33.8989 51.5C34.4056 51.5 34.8623 51.6133 35.2689 51.84C35.6756 52.06 35.9923 52.38 36.2189 52.8C36.4523 53.22 36.5689 53.7133 36.5689 54.28C36.5689 54.8467 36.4523 55.3433 36.2189 55.77C35.9856 56.19 35.6623 56.5133 35.2489 56.74C34.8423 56.9667 34.3856 57.08 33.8789 57.08ZM33.8789 56.68C34.2723 56.68 34.6389 56.5933 34.9789 56.42C35.3256 56.24 35.6023 55.97 35.8089 55.61C36.0156 55.25 36.1189 54.8067 36.1189 54.28C36.1189 53.76 36.0156 53.32 35.8089 52.96C35.6023 52.6 35.3289 52.3333 34.9889 52.16C34.6489 51.98 34.2823 51.89 33.8889 51.89C33.4956 51.89 33.1289 51.98 32.7889 52.16C32.4556 52.3333 32.1856 52.6 31.9789 52.96C31.7723 53.32 31.6689 53.76 31.6689 54.28C31.6689 54.8067 31.7689 55.25 31.9689 55.61C32.1756 55.97 32.4456 56.24 32.7789 56.42C33.1189 56.5933 33.4856 56.68 33.8789 56.68ZM40.8743 51.38C41.5343 51.38 42.0676 51.59 42.4743 52.01C42.8809 52.4233 43.0843 53.0033 43.0843 53.75V57H41.6843V53.94C41.6843 53.5 41.5743 53.1633 41.3543 52.93C41.1343 52.69 40.8343 52.57 40.4543 52.57C40.0676 52.57 39.7609 52.69 39.5343 52.93C39.3143 53.1633 39.2043 53.5 39.2043 53.94V57H37.8043V51.46H39.2043V52.15C39.3909 51.91 39.6276 51.7233 39.9143 51.59C40.2076 51.45 40.5276 51.38 40.8743 51.38ZM44.0556 54.21C44.0556 53.65 44.1656 53.1533 44.3856 52.72C44.6123 52.2867 44.9156 51.9533 45.2956 51.72C45.6823 51.4867 46.1123 51.37 46.5856 51.37C46.9989 51.37 47.3589 51.4533 47.6656 51.62C47.9789 51.7867 48.2289 51.9967 48.4156 52.25V51.46H49.8256V57H48.4156V56.19C48.2356 56.45 47.9856 56.6667 47.6656 56.84C47.3523 57.0067 46.9889 57.09 46.5756 57.09C46.1089 57.09 45.6823 56.97 45.2956 56.73C44.9156 56.49 44.6123 56.1533 44.3856 55.72C44.1656 55.28 44.0556 54.7767 44.0556 54.21ZM48.4156 54.23C48.4156 53.89 48.3489 53.6 48.2156 53.36C48.0823 53.1133 47.9023 52.9267 47.6756 52.8C47.4489 52.6667 47.2056 52.6 46.9456 52.6C46.6856 52.6 46.4456 52.6633 46.2256 52.79C46.0056 52.9167 45.8256 53.1033 45.6856 53.35C45.5523 53.59 45.4856 53.8767 45.4856 54.21C45.4856 54.5433 45.5523 54.8367 45.6856 55.09C45.8256 55.3367 46.0056 55.5267 46.2256 55.66C46.4523 55.7933 46.6923 55.86 46.9456 55.86C47.2056 55.86 47.4489 55.7967 47.6756 55.67C47.9023 55.5367 48.0823 55.35 48.2156 55.11C48.3489 54.8633 48.4156 54.57 48.4156 54.23ZM53.5029 55.71L54.9029 51.46H56.3929L54.3429 57H52.6429L50.6029 51.46H52.1029L53.5029 55.71ZM57.8893 50.8C57.6426 50.8 57.4359 50.7233 57.2693 50.57C57.1093 50.41 57.0293 50.2133 57.0293 49.98C57.0293 49.7467 57.1093 49.5533 57.2693 49.4C57.4359 49.24 57.6426 49.16 57.8893 49.16C58.1359 49.16 58.3393 49.24 58.4993 49.4C58.6659 49.5533 58.7493 49.7467 58.7493 49.98C58.7493 50.2133 58.6659 50.41 58.4993 50.57C58.3393 50.7233 58.1359 50.8 57.8893 50.8ZM58.5793 51.46V57H57.1793V51.46H58.5793Z" fill="white"/>
<defs>
<filter id="filter0_d_1566_4673" x="7.01007" y="0" width="45.9799" height="50" filterUnits="userSpaceOnUse" color-interpolation-filters="sRGB">
<feFlood flood-opacity="0" result="BackgroundImageFix"/>
<feColorMatrix in="SourceAlpha" type="matrix" values="0 0 0 0 0 0 0 0 0 0 0 0 0 0 0 0 0 0 127 0" result="hardAlpha"/>
<feOffset dy="4"/>
<feGaussianBlur stdDeviation="2"/>
<feComposite in2="hardAlpha" operator="out"/>
<feColorMatrix type="matrix" values="0 0 0 0 0 0 0 0 0 0 0 0 0 0 0 0 0 0 0.25 0"/>
<feBlend mode="normal" in2="BackgroundImageFix" result="effect1_dropShadow_1566_4673"/>
<feBlend mode="normal" in="SourceGraphic" in2="effect1_dropShadow_1566_4673" result="shape"/>
</filter>
</defs>
</svg>
