<svg width="232" height="56" viewBox="0 0 232 56" fill="none" xmlns="http://www.w3.org/2000/svg">
<ellipse cx="48" cy="28" rx="48" ry="27.9273" fill="#0059E7"/>
<ellipse cx="47.8699" cy="28.1241" rx="33.8211" ry="23.3348" fill="#FFC32A"/>
<path d="M40.1379 31.113C39.8465 31.9272 39.4927 33.084 39.0764 34.5834C38.6601 36.0828 38.3375 37.3488 38.1086 38.3815C36.9431 38.3418 35.4706 38.307 33.691 38.2772C31.9115 38.2474 30.3974 38.2325 29.1486 38.2325C27.8998 38.2325 26.2556 38.2524 24.2159 38.2921C22.1762 38.3318 20.584 38.3616 19.4393 38.3815C19.3977 38.3815 19.3561 38.3318 19.3145 38.2325C19.2728 38.1332 19.252 38.0141 19.252 37.8751C19.252 37.7361 19.3145 37.5722 19.4393 37.3836C19.5642 37.1949 19.6683 37.0906 19.7515 37.0708C20.9795 36.9318 21.76 36.6835 22.093 36.326C22.426 35.9686 22.6862 35.3827 22.8735 34.5685L26.1203 21.4911C26.1827 21.2925 26.2296 21.1137 26.2608 20.9549C26.292 20.796 26.3076 20.6371 26.3076 20.4782C26.3076 20.0413 26.2088 19.7186 26.011 19.5101C25.8133 19.3016 25.1525 19.1278 24.0286 18.9888C23.9662 18.9689 23.9245 18.8945 23.9037 18.7654C23.8829 18.6363 23.8725 18.542 23.8725 18.4824C23.8725 18.3434 23.9297 18.1746 24.0442 17.976C24.1587 17.7774 24.2575 17.6781 24.3408 17.6781C25.3398 17.6781 26.3492 17.7029 27.3691 17.7525C28.3889 17.8022 29.3047 17.827 30.1164 17.827C30.9073 17.827 31.8179 17.8022 32.8481 17.7525C33.8784 17.7029 34.841 17.6781 35.7359 17.6781C35.7775 17.6781 35.8192 17.7079 35.8608 17.7674C35.9024 17.827 35.9232 17.9263 35.9232 18.0653C35.9232 18.2043 35.8608 18.393 35.7359 18.6313C35.611 18.8696 35.507 18.9888 35.4237 18.9888C34.2166 19.1079 33.4517 19.3413 33.1291 19.6888C32.8065 20.0364 32.5307 20.6371 32.3018 21.4911L29.1486 34.0919C29.107 34.2507 29.0497 34.5039 28.9769 34.8515C28.904 35.199 28.8676 35.4423 28.8676 35.5813C28.8676 36.0381 29.0029 36.3509 29.2735 36.5197C29.544 36.6885 29.8875 36.7729 30.3037 36.7729H31.1466C32.6868 36.7729 34.1697 36.1721 35.5954 34.9706C37.0211 33.7691 38.0774 32.3343 38.7642 30.6661C38.7642 30.6463 38.8423 30.6314 38.9984 30.6214C39.1545 30.6115 39.2845 30.6065 39.3886 30.6065C39.5759 30.6065 39.758 30.6711 39.9349 30.8002C40.1119 30.9293 40.1795 31.0335 40.1379 31.113Z" fill="#0059E7"/>
<path d="M58.4452 18.0653C58.4452 18.2043 58.3827 18.393 58.2579 18.6313C58.133 18.8696 58.0289 18.9888 57.9457 18.9888C56.7385 19.1079 55.9736 19.3413 55.651 19.6888C55.3284 20.0364 55.0527 20.6371 54.8237 21.4911L51.5769 34.5685C51.5353 34.7274 51.4988 34.9111 51.4676 35.1196C51.4364 35.3281 51.4208 35.482 51.4208 35.5813C51.4208 35.9984 51.5145 36.3211 51.7018 36.5495C51.8891 36.7778 52.5551 36.9516 53.6998 37.0708C53.7414 37.0708 53.7779 37.1403 53.8091 37.2793C53.8403 37.4183 53.8559 37.5176 53.8559 37.5772C53.8559 37.7162 53.7935 37.885 53.6686 38.0836C53.5437 38.2822 53.4397 38.3815 53.3564 38.3815C52.3574 38.3815 51.3479 38.3567 50.3281 38.307C49.3083 38.2574 48.3925 38.2325 47.5808 38.2325C46.7691 38.2325 45.8637 38.2574 44.8647 38.307C43.8657 38.3567 42.8979 38.3815 41.9613 38.3815C41.9197 38.3815 41.8832 38.3318 41.852 38.2325C41.8208 38.1332 41.8052 38.0141 41.8052 37.8751C41.8052 37.7559 41.8624 37.597 41.9769 37.3985C42.0914 37.1999 42.2006 37.0906 42.3047 37.0708C43.5327 36.9318 44.3079 36.6835 44.6306 36.326C44.9532 35.9686 45.2081 35.3827 45.3954 34.5685L48.6735 21.4911C48.7151 21.3123 48.7515 21.1386 48.7827 20.9698C48.814 20.801 48.8296 20.6371 48.8296 20.4782C48.8296 20.0413 48.7307 19.7186 48.533 19.5101C48.3353 19.3016 47.6745 19.1278 46.5505 18.9888C46.5089 18.9689 46.4725 18.8945 46.4413 18.7654C46.4101 18.6363 46.3945 18.542 46.3945 18.4824C46.3945 18.3434 46.4517 18.1746 46.5662 17.976C46.6806 17.7774 46.7795 17.6781 46.8627 17.6781C47.8618 17.6781 48.8712 17.7029 49.891 17.7525C50.9109 17.8022 51.8266 17.827 52.6384 17.827C53.4501 17.827 54.3658 17.8022 55.3857 17.7525C56.4055 17.7029 57.3629 17.6781 58.2579 17.6781C58.2995 17.6781 58.3411 17.7079 58.3827 17.7674C58.4244 17.827 58.4452 17.9263 58.4452 18.0653Z" fill="#0059E7"/>
<path d="M76.5001 18.2143C76.3127 19.2271 76.1566 20.2101 76.0318 21.1634C75.9069 22.1166 75.7924 23.0699 75.6884 24.0231C75.6675 24.0827 75.5635 24.1373 75.3762 24.187C75.1888 24.2366 75.0432 24.2615 74.9391 24.2615C74.7934 24.2615 74.6477 24.2416 74.502 24.2019C74.3563 24.1622 74.2835 24.1026 74.2835 24.0231C74.3251 22.5536 73.9817 21.2875 73.2532 20.225C72.5248 19.1626 71.6923 18.6313 70.7557 18.6313C69.9648 18.6313 69.304 18.8746 68.7732 19.3612C68.2425 19.8477 67.9771 20.5577 67.9771 21.4911C67.9771 22.4046 68.3778 23.2337 69.1791 23.9785C69.9804 24.7232 70.7557 25.4232 71.5049 26.0786C72.3791 26.8333 73.1856 27.712 73.9244 28.7149C74.6633 29.7178 75.0327 30.964 75.0327 32.4535C75.0327 34.1217 74.2575 35.6061 72.7069 36.9069C71.1563 38.2077 68.9658 38.8581 66.1352 38.8581C64.6991 38.8581 63.4919 38.6397 62.5137 38.2028C61.5355 37.7659 60.4324 37.4382 59.2045 37.2197C59.371 36.3062 59.5635 35.2636 59.782 34.0919C60.0005 32.9202 60.1618 31.8775 60.2659 30.964C60.2659 30.9044 60.37 30.8498 60.5781 30.8002C60.7862 30.7505 60.9423 30.7257 61.0464 30.7257C61.1921 30.7257 61.3274 30.7456 61.4523 30.7853C61.5771 30.825 61.6396 30.8846 61.6396 30.964C61.7228 32.9499 62.2119 34.5238 63.1069 35.6856C64.0019 36.8474 65.0529 37.4282 66.2601 37.4282C67.3007 37.4282 68.1072 37.1601 68.6796 36.6239C69.2519 36.0877 69.5381 35.2934 69.5381 34.2408C69.5381 33.3471 69.1531 32.513 68.383 31.7385C67.6129 30.964 66.8012 30.1895 65.9479 29.415C65.0321 28.5809 64.1996 27.6872 63.4503 26.734C62.701 25.7807 62.3264 24.6487 62.3264 23.338C62.3264 21.8287 62.9716 20.4286 64.262 19.1377C65.5524 17.8469 67.5713 17.2014 70.3186 17.2014C71.5049 17.2014 72.6236 17.3504 73.6747 17.6483C74.7258 17.9462 75.6675 18.1348 76.5001 18.2143Z" fill="#0059E7"/>
<path d="M104.464 10.916L104.384 10.204C104.56 10.228 104.624 10.228 104.864 10.228C104.88 10.228 104.928 10.228 104.976 10.228C105.152 10.004 105.224 9.9 105.432 9.612C105.112 9.14 104.848 8.828 104.384 8.348L104.744 7.812C104.896 7.98 104.92 8.004 105.048 8.14C105.344 7.668 105.616 7.076 105.696 6.74L106.368 7.044C106.296 7.14 106.28 7.172 106.168 7.388C105.92 7.884 105.768 8.14 105.456 8.604C105.616 8.804 105.696 8.908 105.808 9.06C106.216 8.436 106.432 8.036 106.568 7.66L107.216 7.996C107.136 8.1 107.104 8.148 106.992 8.34C106.544 9.06 106.032 9.804 105.704 10.212C106.072 10.196 106.304 10.18 106.72 10.14C106.648 9.972 106.6 9.868 106.432 9.54L106.88 9.332C107.144 9.796 107.32 10.22 107.512 10.844L106.992 11.052C106.952 10.876 106.936 10.812 106.904 10.692C106.808 10.708 106.808 10.708 106.632 10.732C106.528 10.74 106.496 10.74 106.256 10.764V13.348C106.256 13.7 106.272 13.956 106.304 14.164L105.56 14.172C105.592 13.924 105.608 13.668 105.608 13.348V10.82C105.336 10.844 105.192 10.852 104.952 10.868C104.656 10.884 104.6 10.892 104.464 10.916ZM111.448 10.444L110.84 10.836C110.672 10.484 110.608 10.364 110.496 10.172C109.84 10.276 109.672 10.292 107.936 10.46C107.72 10.476 107.648 10.484 107.504 10.516L107.4 9.804C107.504 9.812 107.56 9.812 107.648 9.812C107.736 9.812 107.768 9.812 107.976 9.804C108.392 9.164 108.752 8.428 108.896 7.916L109.576 8.148C109.48 8.34 109.44 8.412 109.336 8.628C108.992 9.3 108.912 9.452 108.712 9.764C109.344 9.724 109.776 9.684 110.176 9.628C110.008 9.364 109.92 9.244 109.656 8.908L110.192 8.612C110.728 9.292 110.968 9.636 111.448 10.444ZM104.744 11.22L105.328 11.316C105.272 12.356 105.168 12.972 104.944 13.692L104.368 13.436C104.608 12.748 104.696 12.244 104.744 11.22ZM106.456 11.3L106.96 11.156C107.12 11.748 107.184 12.084 107.24 12.652L106.704 12.828C106.656 12.172 106.6 11.86 106.456 11.3ZM108.344 6.844L109 7.148C108.96 7.22 108.944 7.236 108.896 7.332C108.68 7.716 108.392 8.156 108.192 8.412C107.976 8.684 107.792 8.852 107.408 9.156C107.248 8.908 107.144 8.788 106.912 8.62C107.384 8.332 107.736 7.972 108.032 7.484C108.2 7.204 108.28 7.06 108.344 6.844ZM109.552 7.156L110.152 6.812C110.552 7.516 111.104 8.052 111.792 8.42C111.624 8.604 111.52 8.772 111.384 9.044C110.704 8.612 110.232 8.14 109.688 7.348C109.624 7.244 109.6 7.22 109.552 7.156ZM108.296 11.412H109.016C108.992 11.588 108.984 11.772 108.984 11.964V13.188C108.984 13.292 108.992 13.316 109.032 13.34C109.08 13.372 109.208 13.388 109.376 13.388C109.976 13.388 109.984 13.38 110.008 12.412C110.216 12.54 110.384 12.596 110.616 12.628C110.52 13.908 110.424 14.004 109.272 14.004C108.872 14.004 108.624 13.964 108.488 13.876C108.384 13.804 108.336 13.684 108.336 13.46V12.036C108.336 11.804 108.32 11.62 108.296 11.412ZM107.576 13.7L106.968 13.348C107.304 12.692 107.432 12.244 107.488 11.468L108.104 11.612C107.992 12.516 107.864 12.996 107.576 13.7ZM110.352 11.516L110.928 11.26C111.312 11.988 111.496 12.428 111.744 13.228L111.096 13.548C110.88 12.66 110.696 12.156 110.352 11.516ZM108.392 10.812L108.864 10.42C109.376 10.74 109.744 11.02 110.088 11.348L109.616 11.836C109.208 11.364 108.952 11.156 108.392 10.812ZM114.08 9.924V9.3C113.52 9.668 113.208 9.844 112.64 10.108C112.552 9.86 112.448 9.692 112.224 9.436C112.976 9.132 113.688 8.708 114.32 8.188C114.88 7.724 115.232 7.348 115.56 6.828H116.376C116.72 7.356 117.072 7.724 117.704 8.22C118.36 8.732 119.032 9.108 119.808 9.404C119.624 9.66 119.536 9.836 119.424 10.132C118.84 9.86 118.52 9.676 117.944 9.284V9.924C117.752 9.9 117.536 9.892 117.24 9.892H114.736C114.504 9.892 114.28 9.9 114.08 9.924ZM114.752 9.204H117.24C117.488 9.204 117.624 9.196 117.792 9.188C116.96 8.588 116.496 8.148 115.984 7.46C115.456 8.204 115.024 8.628 114.24 9.188C114.408 9.196 114.536 9.204 114.752 9.204ZM114.168 14.068H113.368C113.4 13.828 113.416 13.588 113.416 13.26V11.428C113.416 11.116 113.4 10.892 113.376 10.66C113.544 10.684 113.736 10.692 114.04 10.692H117.928C118.232 10.692 118.424 10.684 118.6 10.66C118.568 10.884 118.56 11.1 118.56 11.428V13.26C118.56 13.604 118.568 13.82 118.608 14.068H117.808V13.644H114.168V14.068ZM114.168 11.34V12.996H117.808V11.34H114.168ZM123.552 6.908H124.424C124.4 7.036 124.376 7.42 124.376 7.684C124.376 8.292 124.472 9.076 124.592 9.54C124.792 10.268 125.264 11.164 125.776 11.78C126.056 12.124 126.48 12.532 126.88 12.844C127.096 13.02 127.28 13.132 127.672 13.356C127.416 13.612 127.304 13.764 127.136 14.092C126.176 13.428 125.64 12.916 125.072 12.14C124.584 11.468 124.272 10.78 124.016 9.804C123.864 10.492 123.72 10.892 123.424 11.484C123.12 12.084 122.768 12.548 122.224 13.068C121.784 13.492 121.496 13.708 120.888 14.084C120.72 13.78 120.6 13.62 120.344 13.404C121.232 12.924 121.68 12.572 122.2 11.94C123.16 10.764 123.584 9.42 123.584 7.58C123.584 7.268 123.576 7.116 123.552 6.908ZM133.624 8.972H132.64C132.264 8.972 132.016 8.98 131.8 9.012V8.284C132.04 8.316 132.272 8.324 132.648 8.324H133.896V7.748C133.896 7.38 133.88 7.124 133.84 6.828H134.664C134.632 7.108 134.624 7.396 134.624 7.748V8.324H134.928C135.272 8.324 135.488 8.308 135.696 8.276V9.02C135.488 8.988 135.248 8.972 134.928 8.972H134.632L134.656 13.228C134.656 13.604 134.576 13.796 134.376 13.908C134.24 13.972 134.016 14.004 133.608 14.004C133.32 14.004 133.056 13.988 132.76 13.964C132.728 13.708 132.68 13.476 132.584 13.236C132.992 13.3 133.216 13.316 133.488 13.316C133.864 13.316 133.928 13.284 133.928 13.116L133.904 9.804C133.712 10.22 133.448 10.652 133.096 11.1C132.64 11.7 132.176 12.156 131.48 12.684C131.328 12.444 131.208 12.308 130.984 12.1C132.224 11.26 133.088 10.244 133.624 8.972ZM130.96 8.956H130.536C130.8 9.58 131.12 10.012 131.656 10.476C131.496 10.676 131.4 10.836 131.28 11.1C130.896 10.7 130.744 10.468 130.44 9.852C130.488 10.356 130.496 10.644 130.496 11.276V13.26C130.496 13.636 130.512 13.916 130.544 14.156H129.752C129.784 13.916 129.8 13.636 129.8 13.26V11.46C129.8 11.244 129.808 11.092 129.808 10.996C129.808 10.652 129.808 10.636 129.848 10.1C129.552 11.06 129.192 11.788 128.696 12.42C128.544 12.036 128.48 11.924 128.296 11.684C128.936 10.916 129.36 10.1 129.712 8.956H129.24C128.952 8.956 128.744 8.972 128.528 9.004V8.26C128.744 8.3 128.912 8.308 129.264 8.308H129.8V7.564C129.8 7.26 129.784 7.028 129.752 6.796H130.544C130.512 7.012 130.496 7.204 130.496 7.564V8.308H130.96C131.192 8.308 131.368 8.3 131.568 8.268V8.996C131.368 8.972 131.176 8.956 130.96 8.956ZM138.88 8.708H141.104V7.988C141.104 7.468 141.104 7.364 141.072 7.172H141.936C141.912 7.364 141.912 7.412 141.904 7.708C141.904 8.02 141.904 8.028 141.904 8.708H142.48C143.008 8.708 143.184 8.7 143.48 8.652V9.484C143.208 9.452 142.984 9.444 142.496 9.444H141.896C141.872 10.524 141.872 10.524 141.84 10.828C141.728 11.82 141.384 12.5 140.696 13.076C140.28 13.428 139.904 13.636 139.192 13.884C139.064 13.596 138.976 13.476 138.688 13.18C139.408 12.964 139.816 12.764 140.216 12.412C140.76 11.932 140.992 11.404 141.064 10.46C141.08 10.244 141.088 9.964 141.096 9.444H138.88V10.388C138.88 10.804 138.896 11.156 138.92 11.356H138.024C138.048 11.1 138.064 10.788 138.064 10.412V9.444H137.496C137.024 9.444 136.84 9.452 136.512 9.484V8.652C136.84 8.7 137 8.708 137.512 8.708H138.064V7.972C138.064 7.692 138.048 7.332 138.024 7.164H138.928C138.896 7.396 138.88 7.676 138.88 7.964V8.708ZM144.624 10.9V9.964C144.92 10.004 145.264 10.02 145.856 10.02H150.184C150.872 10.02 151.064 10.012 151.376 9.972V10.9C151.024 10.868 150.768 10.86 150.176 10.86H145.864C145.192 10.86 144.952 10.868 144.624 10.9ZM154.352 8.292V9.804C155.2 9.636 156 9.38 156.824 8.996C157.392 8.74 157.72 8.548 157.96 8.332L158.504 9.092L158.144 9.268C157.464 9.628 156.68 9.948 155.912 10.188C155.296 10.38 155.296 10.38 154.344 10.572V11.796C154.344 12.3 154.376 12.476 154.496 12.596C154.648 12.748 155.12 12.82 155.944 12.82C156.48 12.82 157.232 12.772 157.816 12.692C158.144 12.644 158.304 12.612 158.648 12.524L158.696 13.412L158.352 13.444C157.472 13.548 156.632 13.604 155.808 13.604C154.768 13.604 154.216 13.508 153.912 13.26C153.696 13.1 153.584 12.852 153.544 12.468C153.528 12.332 153.52 12.18 153.52 11.78V8.276C153.52 7.844 153.504 7.612 153.472 7.364H154.408C154.36 7.66 154.352 7.868 154.352 8.292ZM157.728 7.18L158.224 6.932C158.6 7.356 158.776 7.612 159.056 8.132L158.56 8.404C158.296 7.908 158.072 7.572 157.728 7.18ZM158.68 6.724L159.16 6.476C159.544 6.9 159.712 7.14 159.984 7.644L159.496 7.924C159.248 7.46 159.024 7.124 158.68 6.724ZM167.368 13.004L166.704 13.74C166.072 12.94 165.192 12.1 164.208 11.316C163.28 12.364 162.408 13.036 161.152 13.66C160.976 13.316 160.896 13.212 160.608 12.916C161.224 12.676 161.608 12.46 162.216 12.028C163.448 11.14 164.44 9.916 164.976 8.628C165 8.556 165 8.556 165.024 8.508C165.04 8.476 165.04 8.476 165.056 8.436C164.96 8.444 164.912 8.444 164.808 8.444L162.488 8.484C161.992 8.492 161.84 8.5 161.464 8.548L161.44 7.676C161.712 7.708 161.912 7.724 162.264 7.724C162.296 7.724 162.384 7.724 162.48 7.724L165.144 7.684C165.528 7.684 165.6 7.668 165.776 7.604L166.224 8.076C166.128 8.18 166.064 8.292 165.984 8.484C165.6 9.372 165.192 10.076 164.704 10.692C165.712 11.42 166.352 11.98 167.368 13.004Z" fill="#0059E7"/>
<path d="M123.136 27.876H119.136C118.56 29.316 118.176 30.084 117.248 31.588C116.448 30.788 116.224 30.628 115.04 29.86C116.352 28.1 117.376 25.7 118.048 22.82C118.208 22.084 118.272 21.636 118.304 21.028L121.056 21.732C120.96 21.988 120.96 21.988 120.512 23.684C120.32 24.356 120.224 24.676 120.064 25.252H123.136V22.692C123.136 21.38 123.072 20.548 122.944 19.748H126.08C125.952 20.516 125.888 21.348 125.888 22.692V25.252H130.016C131.552 25.252 132.48 25.188 133.312 25.06V28.036C132.48 27.94 131.392 27.876 130.016 27.876H125.888V32.388H131.008C132.416 32.388 133.312 32.324 134.336 32.196V35.236C133.28 35.14 132.288 35.076 131.008 35.076H126.816C128.736 38.5 131.232 41.06 135.168 43.556C134.304 44.548 133.824 45.188 133.28 46.276C130.176 44.004 127.712 41.156 125.76 37.572C125.824 38.756 125.888 39.876 125.888 40.868V45.604C125.888 47.14 125.92 48.228 126.08 49.188H122.944C123.072 48.164 123.136 47.076 123.136 45.572V41.028C123.136 40.1 123.168 38.948 123.232 37.636C121.088 41.508 118.784 44.1 115.36 46.404C114.688 45.22 114.176 44.516 113.6 43.908C117.152 41.892 119.968 38.98 122.08 35.076H119.36C118.016 35.076 116.928 35.14 116 35.268V34.148C115.456 34.82 115.04 35.652 114.656 36.58C113.76 35.204 113.28 34.148 112.512 31.972C112.512 32.452 112.544 32.804 112.544 33.06C112.576 33.476 112.608 34.692 112.672 36.708V45.284C112.672 46.98 112.704 48.164 112.864 49.124H109.76C109.888 48.1 109.952 46.98 109.952 45.284V37.476C109.952 35.876 109.984 35.044 110.144 32.868C109.216 36.388 108.16 38.82 106.432 41.412C106.016 40.164 105.664 39.428 105.056 38.532C106.912 36.228 108.608 32.452 109.632 28.388H108.128C107.136 28.388 106.464 28.42 105.952 28.516V25.7C106.528 25.796 107.072 25.828 108.128 25.828H109.92V23.012C109.92 21.284 109.888 20.516 109.76 19.716H112.832C112.704 20.516 112.672 21.476 112.672 22.98V25.828H113.664C114.528 25.828 114.976 25.796 115.552 25.7V28.484C114.976 28.42 114.4 28.388 113.728 28.388H112.768C113.568 30.532 114.464 32.132 116 34.084V32.196C116.992 32.324 117.92 32.388 119.36 32.388H123.136V27.876ZM157.44 25.54H163.104C164.576 25.54 165.44 25.476 166.208 25.348V28.388C165.28 28.26 164.128 28.196 162.656 28.196H157.536C157.728 33.22 158.528 37.636 159.808 40.708C160.512 42.468 161.248 43.684 162.016 44.452C162.4 44.804 162.752 45.028 162.88 45.028C163.392 45.028 163.84 43.396 164.288 40.004C165.216 40.804 165.76 41.124 166.88 41.572C166.08 46.372 164.896 48.516 163.008 48.516C161.792 48.516 160.256 47.364 158.912 45.476C156.416 41.956 154.976 36.164 154.624 28.196H141.568C140.224 28.196 139.2 28.26 138.016 28.388V25.348C138.976 25.476 140.096 25.54 141.568 25.54H154.528C154.432 22.308 154.4 22.02 154.4 21.828C154.4 21.54 154.336 20.964 154.24 20.164H157.536C157.472 20.548 157.376 22.18 157.376 22.66C157.376 23.108 157.408 24.676 157.44 25.54ZM144.8 35.14H142.304C141.152 35.14 140.064 35.204 139.232 35.3V32.42C140.032 32.516 140.96 32.58 142.368 32.58H150.336C151.712 32.58 152.608 32.548 153.408 32.42V35.3C152.544 35.204 151.552 35.14 150.368 35.14H147.744V42.948C149.312 42.692 150.368 42.436 154.528 41.38V44.1C149.504 45.38 145.376 46.244 139.68 47.236C139.232 47.3 139.072 47.332 138.688 47.428L138.144 44.324C139.52 44.324 141.184 44.132 144.8 43.492V35.14ZM164.224 23.876L161.984 25.316C161.024 23.94 160 22.852 158.496 21.572L160.672 20.26C162.4 21.796 162.912 22.308 164.224 23.876ZM176.096 32.356V29.796C174.208 31.076 172.864 31.844 170.72 32.804C170.272 31.716 169.76 30.916 169.056 30.116C175.008 27.684 179.552 24.196 182.336 19.876H185.504C187.104 22.18 188.448 23.556 190.88 25.348C193.664 27.396 196.448 28.932 199.36 29.988C198.624 31.012 198.144 31.972 197.792 32.964C195.712 32.004 194.336 31.268 192.064 29.764V32.356C191.232 32.26 190.432 32.228 189.248 32.228H178.72C177.824 32.228 176.864 32.26 176.096 32.356ZM178.752 29.476H189.248C190.176 29.476 190.816 29.444 191.488 29.412C188.064 27.076 186.048 25.22 184 22.468C182.112 25.06 180 27.044 176.672 29.412C177.376 29.476 177.792 29.476 178.752 29.476ZM179.456 38.148H174.176C172.544 38.148 171.488 38.212 170.464 38.34V35.204C171.488 35.332 172.64 35.396 174.176 35.396H194.016C195.616 35.396 196.736 35.332 197.728 35.204V38.34C196.672 38.212 195.616 38.148 194.016 38.148H182.816C181.6 40.9 180.576 42.82 179.2 44.932C186.688 44.356 186.688 44.356 190.304 43.94C188.96 42.436 188.32 41.764 186.816 40.292L189.28 38.98C192.992 42.692 194.816 44.74 196.8 47.46L194.272 49.22C193.248 47.652 192.864 47.14 192.224 46.276C186.912 46.98 180.832 47.588 176.064 47.94C173.472 48.132 172.224 48.26 171.424 48.42L170.944 45.156C171.648 45.188 172.288 45.22 172.736 45.22C172.992 45.22 173.472 45.188 174.208 45.156C174.496 45.156 174.496 45.156 175.776 45.092C177.344 42.692 178.432 40.612 179.456 38.148ZM209.28 36.068V45.86C209.28 47.364 209.312 48.196 209.44 49.092H206.208C206.336 48.132 206.4 47.268 206.4 45.828V36.964C205.024 38.276 204.256 38.916 202.464 40.164C202.144 39.204 201.6 38.212 201.024 37.476C203.36 36.068 204.96 34.788 206.72 32.868C208.256 31.204 209.216 29.796 210.304 27.62H204.8C203.68 27.62 203.008 27.652 202.144 27.748V24.772C203.008 24.868 203.648 24.9 204.672 24.9H206.4V22.084C206.4 21.252 206.336 20.356 206.208 19.652H209.472C209.344 20.356 209.28 21.124 209.28 22.148V24.9H210.816C211.808 24.9 212.256 24.868 212.672 24.804L213.984 26.244C213.696 26.66 213.536 27.012 213.28 27.524C212.224 29.764 211.36 31.204 209.92 33.06C211.52 34.852 212.8 35.908 215.04 37.252C214.4 38.116 213.984 38.82 213.568 39.844C211.744 38.628 210.624 37.636 209.28 36.068ZM222.688 31.812V44.74H227.008C228.64 44.74 229.664 44.676 230.592 44.548V47.876C229.536 47.716 228.352 47.652 227.008 47.652H215.872C214.496 47.652 213.376 47.716 212.32 47.876V44.548C213.312 44.676 214.304 44.74 215.904 44.74H219.744V31.812H217.056C215.904 31.812 214.88 31.876 213.888 31.972V28.836C214.752 28.964 215.648 29.028 217.056 29.028H219.744V22.884C219.744 21.668 219.68 20.9 219.52 19.716H222.912C222.72 20.932 222.688 21.604 222.688 22.884V29.028H226.4C227.84 29.028 228.672 28.964 229.536 28.836V31.972C228.544 31.876 227.552 31.812 226.4 31.812H222.688Z" fill="#014FD7"/>
</svg>
