<svg width="74" height="82" viewBox="0 0 74 82" fill="none" xmlns="http://www.w3.org/2000/svg">
<path d="M37 82C57.4345 82 74 71.184 74 57.8417C74 44.4995 57.4345 33.6835 37 33.6835C16.5655 33.6835 0 44.4995 0 57.8417C0 71.184 16.5655 82 37 82Z" fill="#EB0202"/>
<path d="M49.7014 0L32.8582 35.3519H35.1814L49.7014 38.6532V0Z" fill="#EB0202"/>
<path d="M5.59856 55.236V53.928L9.55856 48.6H11.5986L7.72256 53.928L6.77456 53.652H13.3866V55.236H5.59856ZM10.1226 57V55.236L10.1826 53.652V52.08H12.0186V57H10.1226ZM13.872 55.236V53.928L17.832 48.6H19.872L15.996 53.928L15.048 53.652H21.66V55.236H13.872ZM18.396 57V55.236L18.456 53.652V52.08H20.292V57H18.396ZM24.7494 46.764L26.2134 47.136C25.5774 48.924 24.5214 50.652 23.4534 51.732C23.1774 51.48 22.5654 51 22.2174 50.796C23.2974 49.86 24.2334 48.324 24.7494 46.764ZM25.0014 48.132H32.6334V49.524H24.3054L25.0014 48.132ZM24.1494 50.964H32.3574V52.308H25.6014V54.828H24.1494V50.964ZM22.2534 54.12H33.2934V55.512H22.2534V54.12ZM27.6774 48.852H29.1654V58.08H27.6774V48.852ZM37.9734 48.876L39.2934 48.24C40.0734 49.116 40.8414 50.292 41.1894 51.132L39.7854 51.888C39.4734 51.048 38.7054 49.788 37.9734 48.876ZM34.0734 55.188C35.3094 54.768 37.2174 54 38.9694 53.268L39.3054 54.684C37.7094 55.404 35.9334 56.148 34.5774 56.724L34.0734 55.188ZM41.1054 54.108L42.2214 53.1C43.3134 54.24 44.8494 55.836 45.5334 56.88L44.3094 58.068C43.6734 57 42.2094 55.332 41.1054 54.108ZM42.7374 47.496L44.3334 47.64C43.7694 53.076 42.3174 56.328 38.3814 58.104C38.1774 57.78 37.5774 57.132 37.2294 56.82C41.0574 55.38 42.2934 52.452 42.7374 47.496ZM35.4414 47.544L36.9534 47.484L37.2174 55.284L35.7174 55.344L35.4414 47.544ZM51.4254 50.412H56.4174V51.864H51.4254V50.412ZM46.2894 56.04H57.2574V57.492H46.2894V56.04ZM50.6094 46.956H52.1574V56.844H50.6094V46.956ZM64.8654 48.78C64.6974 50.004 64.4574 51.408 64.0374 52.824C63.3174 55.248 62.2854 56.736 60.9774 56.736C59.6334 56.736 58.5294 55.26 58.5294 53.232C58.5294 50.472 60.9414 48.096 64.0494 48.096C67.0134 48.096 68.8974 50.16 68.8974 52.788C68.8974 55.308 67.3494 57.096 64.3254 57.564L63.4134 56.148C63.8814 56.088 64.2174 56.028 64.5414 55.956C66.0654 55.584 67.2654 54.492 67.2654 52.728C67.2654 50.844 66.0894 49.5 64.0134 49.5C61.4694 49.5 60.0774 51.576 60.0774 53.088C60.0774 54.3 60.5574 54.888 61.0134 54.888C61.5294 54.888 61.9854 54.12 62.4894 52.5C62.8374 51.372 63.1014 49.992 63.2214 48.732L64.8654 48.78ZM30.564 62.364H35.7V63.6H30.564V62.364ZM31.008 68.808H36.612V70.08H31.008V68.808ZM30.276 71.484H37.116V72.756H30.276V71.484ZM35.28 62.364H35.556L35.82 62.316L36.78 62.736C35.832 65.58 33.672 67.164 30.972 68.016C30.804 67.656 30.456 67.104 30.18 66.816C32.568 66.204 34.572 64.728 35.28 62.592V62.364ZM32.424 63.444C33.252 65.088 35.004 66.288 37.284 66.78C36.984 67.056 36.6 67.596 36.408 67.944C33.984 67.296 32.22 65.904 31.164 63.852L32.424 63.444ZM33.048 67.38H34.464V72.3H33.048V67.38ZM27.66 61.824L28.908 62.292C28.416 63.204 27.864 64.272 27.396 64.944L26.436 64.524C26.868 63.816 27.384 62.664 27.66 61.824ZM29.04 63.24L30.204 63.768C29.34 65.148 28.164 66.816 27.252 67.86L26.424 67.392C27.312 66.3 28.416 64.536 29.04 63.24ZM25.812 64.668L26.496 63.684C27.132 64.236 27.876 64.992 28.188 65.544L27.444 66.66C27.156 66.084 26.424 65.244 25.812 64.668ZM28.68 66.108L29.628 65.712C30.096 66.516 30.552 67.572 30.696 68.268L29.676 68.724C29.544 68.028 29.136 66.936 28.68 66.108ZM25.8 67.104C26.904 67.068 28.524 67.008 30.108 66.936L30.096 68.076C28.62 68.184 27.084 68.28 25.92 68.364L25.8 67.104ZM28.944 69.096L29.952 68.772C30.252 69.456 30.564 70.356 30.696 70.956L29.64 71.328C29.52 70.728 29.208 69.804 28.944 69.096ZM26.316 68.868L27.504 69.072C27.384 70.224 27.12 71.424 26.772 72.192C26.52 72.036 25.98 71.784 25.68 71.664C26.028 70.956 26.22 69.888 26.316 68.868ZM27.66 67.74H28.92V73.092H27.66V67.74ZM44.484 67.56V68.676H47.544V67.56H44.484ZM43.308 66.528H48.78V69.708H43.308V66.528ZM45.924 63.072C45.372 64.032 44.328 65.22 43.2 65.916C43.056 65.568 42.768 65.064 42.54 64.764C43.656 64.128 44.748 62.844 45.252 61.812H46.5C47.208 62.928 48.264 64.032 49.332 64.536C49.08 64.872 48.78 65.388 48.6 65.784C47.58 65.16 46.512 64.032 45.924 63.072ZM45.36 65.268H46.632V67.608C46.632 69.54 46.272 71.724 43.416 73.104C43.236 72.804 42.828 72.336 42.54 72.096C45.06 70.944 45.36 69.156 45.36 67.596V65.268ZM46.752 69.084C47.172 70.344 48.048 71.424 49.272 71.94C48.972 72.192 48.552 72.72 48.36 73.068C47.016 72.36 46.152 70.992 45.66 69.36L46.752 69.084ZM44.136 64.776H47.832V65.88H44.136V64.776ZM39.108 64.08H42.624V65.16H39.108V64.08ZM39.108 65.892H42.624V66.984H39.108V65.892ZM38.436 67.716H42.54V68.832H38.436V67.716ZM40.428 62.928H41.568V68.34H40.428V62.928ZM40.836 69.384L41.388 69.192C41.64 69.672 41.868 70.308 41.964 70.716L41.364 70.944C41.292 70.512 41.064 69.864 40.836 69.384ZM40.056 69.54L40.668 69.432C40.86 70.056 41.028 70.848 41.064 71.364L40.416 71.508C40.392 70.98 40.236 70.164 40.056 69.54ZM39.228 69.612L39.84 69.54C39.96 70.248 40.008 71.172 39.972 71.76L39.324 71.844C39.36 71.232 39.324 70.332 39.228 69.612ZM38.34 69.36L39.132 69.504C39.072 70.62 38.94 71.736 38.448 72.408L37.728 72.012C38.148 71.4 38.292 70.38 38.34 69.36ZM38.436 62.256H42.864V63.42H39.612V68.484H38.436V62.256ZM41.916 67.716H43.104C43.104 67.716 43.104 68.04 43.092 68.196C42.972 71.112 42.852 72.24 42.564 72.612C42.36 72.876 42.144 72.984 41.856 73.02C41.604 73.068 41.208 73.08 40.788 73.068C40.764 72.72 40.656 72.252 40.488 71.952C40.812 71.988 41.076 71.988 41.22 71.988C41.364 71.988 41.448 71.952 41.544 71.844C41.712 71.604 41.82 70.644 41.916 67.92V67.716Z" fill="white"/>
</svg>
