<svg width="96" height="56" viewBox="0 0 96 56" fill="none" xmlns="http://www.w3.org/2000/svg">
<ellipse cx="48" cy="27.9273" rx="48" ry="27.9273" fill="#0059E7"/>
<ellipse cx="47.87" cy="28.0514" rx="33.8211" ry="23.3348" fill="#FFC32A"/>
<path d="M40.1379 31.0402C39.8465 31.8545 39.4927 33.0113 39.0765 34.5107C38.6602 36.01 38.3376 37.2761 38.1087 38.3088C36.9431 38.2691 35.4706 38.2343 33.6911 38.2045C31.9116 38.1747 30.3974 38.1598 29.1487 38.1598C27.8999 38.1598 26.2557 38.1797 24.216 38.2194C22.1763 38.2591 20.5841 38.2889 19.4394 38.3088C19.3978 38.3088 19.3561 38.2591 19.3145 38.1598C19.2729 38.0605 19.2521 37.9414 19.2521 37.8024C19.2521 37.6633 19.3145 37.4995 19.4394 37.3108C19.5643 37.1222 19.6683 37.0179 19.7516 36.998C20.9796 36.859 21.76 36.6108 22.0931 36.2533C22.4261 35.8959 22.6862 35.31 22.8735 34.4958L26.1204 21.4184C26.1828 21.2198 26.2296 21.041 26.2609 20.8821C26.2921 20.7233 26.3077 20.5644 26.3077 20.4055C26.3077 19.9686 26.2088 19.6459 26.0111 19.4374C25.8134 19.2289 25.1526 19.0551 24.0287 18.9161C23.9662 18.8962 23.9246 18.8217 23.9038 18.6927C23.883 18.5636 23.8726 18.4692 23.8726 18.4097C23.8726 18.2706 23.9298 18.1018 24.0443 17.9032C24.1587 17.7046 24.2576 17.6053 24.3409 17.6053C25.3399 17.6053 26.3493 17.6302 27.3691 17.6798C28.389 17.7295 29.3048 17.7543 30.1165 17.7543C30.9074 17.7543 31.8179 17.7295 32.8482 17.6798C33.8784 17.6302 34.841 17.6053 35.736 17.6053C35.7776 17.6053 35.8192 17.6351 35.8609 17.6947C35.9025 17.7543 35.9233 17.8536 35.9233 17.9926C35.9233 18.1316 35.8609 18.3203 35.736 18.5586C35.6111 18.7969 35.507 18.9161 35.4238 18.9161C34.2166 19.0352 33.4517 19.2686 33.1291 19.6161C32.8065 19.9637 32.5308 20.5644 32.3018 21.4184L29.1487 34.0191C29.107 34.178 29.0498 34.4312 28.977 34.7788C28.9041 35.1263 28.8677 35.3696 28.8677 35.5086C28.8677 35.9654 29.003 36.2781 29.2735 36.4469C29.5441 36.6158 29.8875 36.7002 30.3038 36.7002H31.1467C32.6869 36.7002 34.1698 36.0994 35.5955 34.8979C37.0212 33.6964 38.0774 32.2616 38.7643 30.5934C38.7643 30.5735 38.8423 30.5586 38.9984 30.5487C39.1545 30.5388 39.2846 30.5338 39.3887 30.5338C39.576 30.5338 39.7581 30.5984 39.935 30.7274C40.1119 30.8565 40.1796 30.9608 40.1379 31.0402Z" fill="#0059E7"/>
<path d="M58.4452 17.9926C58.4452 18.1316 58.3828 18.3203 58.2579 18.5586C58.133 18.7969 58.029 18.9161 57.9457 18.9161C56.7386 19.0352 55.9737 19.2686 55.6511 19.6161C55.3285 19.9637 55.0527 20.5644 54.8238 21.4184L51.577 34.4958C51.5353 34.6546 51.4989 34.8383 51.4677 35.0469C51.4365 35.2554 51.4209 35.4093 51.4209 35.5086C51.4209 35.9256 51.5145 36.2484 51.7018 36.4767C51.8891 36.7051 52.5552 36.8789 53.6999 36.998C53.7415 36.998 53.7779 37.0676 53.8091 37.2066C53.8404 37.3456 53.856 37.4449 53.856 37.5045C53.856 37.6435 53.7935 37.8123 53.6687 38.0109C53.5438 38.2095 53.4397 38.3088 53.3565 38.3088C52.3574 38.3088 51.348 38.2839 50.3282 38.2343C49.3083 38.1846 48.3926 38.1598 47.5809 38.1598C46.7691 38.1598 45.8638 38.1846 44.8648 38.2343C43.8657 38.2839 42.8979 38.3088 41.9613 38.3088C41.9197 38.3088 41.8833 38.2591 41.8521 38.1598C41.8209 38.0605 41.8052 37.9414 41.8052 37.8024C41.8052 37.6832 41.8625 37.5243 41.977 37.3257C42.0914 37.1271 42.2007 37.0179 42.3048 36.998C43.5327 36.859 44.308 36.6108 44.6306 36.2533C44.9532 35.8959 45.2082 35.31 45.3955 34.4958L48.6735 21.4184C48.7152 21.2396 48.7516 21.0658 48.7828 20.897C48.814 20.7282 48.8296 20.5644 48.8296 20.4055C48.8296 19.9686 48.7308 19.6459 48.5331 19.4374C48.3353 19.2289 47.6745 19.0551 46.5506 18.9161C46.509 18.8962 46.4726 18.8217 46.4413 18.6927C46.4101 18.5636 46.3945 18.4692 46.3945 18.4097C46.3945 18.2706 46.4517 18.1018 46.5662 17.9032C46.6807 17.7046 46.7796 17.6053 46.8628 17.6053C47.8618 17.6053 48.8713 17.6302 49.8911 17.6798C50.9109 17.7295 51.8267 17.7543 52.6384 17.7543C53.4501 17.7543 54.3659 17.7295 55.3857 17.6798C56.4056 17.6302 57.363 17.6053 58.2579 17.6053C58.2996 17.6053 58.3412 17.6351 58.3828 17.6947C58.4244 17.7543 58.4452 17.8536 58.4452 17.9926Z" fill="#0059E7"/>
<path d="M76.5001 18.1416C76.3128 19.1544 76.1567 20.1374 76.0318 21.0907C75.907 22.0439 75.7925 22.9972 75.6884 23.9504C75.6676 24.01 75.5635 24.0646 75.3762 24.1143C75.1889 24.1639 75.0432 24.1887 74.9391 24.1887C74.7935 24.1887 74.6478 24.1689 74.5021 24.1292C74.3564 24.0894 74.2835 24.0299 74.2835 23.9504C74.3252 22.4808 73.9817 21.2148 73.2533 20.1523C72.5248 19.0898 71.6923 18.5586 70.7557 18.5586C69.9648 18.5586 69.304 18.8019 68.7733 19.2884C68.2426 19.775 67.9772 20.485 67.9772 21.4184C67.9772 22.3319 68.3778 23.161 69.1791 23.9057C69.9804 24.6505 70.7557 25.3505 71.505 26.0059C72.3791 26.7605 73.1856 27.6393 73.9245 28.6422C74.6634 29.6451 75.0328 30.8913 75.0328 32.3807C75.0328 34.0489 74.2575 35.5334 72.707 36.8342C71.1564 38.135 68.9658 38.7854 66.1352 38.7854C64.6991 38.7854 63.492 38.5669 62.5138 38.13C61.5356 37.6931 60.4325 37.3654 59.2045 37.147C59.371 36.2335 59.5635 35.1908 59.7821 34.0191C60.0006 32.8474 60.1619 31.8048 60.266 30.8913C60.266 30.8317 60.37 30.7771 60.5782 30.7274C60.7863 30.6778 60.9424 30.653 61.0465 30.653C61.1922 30.653 61.3274 30.6728 61.4523 30.7126C61.5772 30.7523 61.6396 30.8118 61.6396 30.8913C61.7229 32.8772 62.212 34.4511 63.107 35.6129C64.0019 36.7746 65.053 37.3555 66.2601 37.3555C67.3008 37.3555 68.1073 37.0874 68.6796 36.5512C69.252 36.015 69.5382 35.2206 69.5382 34.1681C69.5382 33.2744 69.1531 32.4403 68.383 31.6658C67.613 30.8913 66.8013 30.1168 65.9479 29.3423C65.0322 28.5082 64.1996 27.6145 63.4504 26.6612C62.7011 25.708 62.3265 24.576 62.3265 23.2653C62.3265 21.756 62.9717 20.3559 64.2621 19.065C65.5525 17.7742 67.5713 17.1287 70.3187 17.1287C71.505 17.1287 72.6237 17.2777 73.6748 17.5756C74.7258 17.8734 75.6676 18.0621 76.5001 18.1416Z" fill="#0059E7"/>
</svg>
