<svg width="241" height="231" viewBox="0 0 241 231" fill="none" xmlns="http://www.w3.org/2000/svg">
<line x1="184" y1="207.5" x2="234" y2="207.5" stroke="#FFC32A" stroke-width="5"/>
<path d="M83.5458 200.8C83.0391 199.867 82.3058 199.16 81.3458 198.68C80.4124 198.173 79.3058 197.92 78.0258 197.92C75.8124 197.92 74.0391 198.653 72.7058 200.12C71.3724 201.56 70.7058 203.493 70.7058 205.92C70.7058 208.507 71.3991 210.533 72.7858 212C74.1991 213.44 76.1324 214.16 78.5858 214.16C80.2658 214.16 81.6791 213.733 82.8258 212.88C83.9991 212.027 84.8524 210.8 85.3858 209.2H76.7058V204.16H91.5858V210.52C91.0791 212.227 90.2124 213.813 88.9858 215.28C87.7858 216.747 86.2524 217.933 84.3858 218.84C82.5191 219.747 80.4124 220.2 78.0658 220.2C75.2924 220.2 72.8124 219.6 70.6258 218.4C68.4658 217.173 66.7724 215.48 65.5458 213.32C64.3458 211.16 63.7458 208.693 63.7458 205.92C63.7458 203.147 64.3458 200.68 65.5458 198.52C66.7724 196.333 68.4658 194.64 70.6258 193.44C72.7858 192.213 75.2524 191.6 78.0258 191.6C81.3858 191.6 84.2124 192.413 86.5058 194.04C88.8258 195.667 90.3591 197.92 91.1058 200.8H83.5458ZM99.4145 201.4C100.215 200.173 101.215 199.213 102.415 198.52C103.615 197.8 104.948 197.44 106.415 197.44V204.68H104.535C102.828 204.68 101.548 205.053 100.695 205.8C99.8412 206.52 99.4145 207.8 99.4145 209.64V220H92.5745V197.68H99.4145V201.4ZM117.044 220.32C114.857 220.32 112.884 219.853 111.124 218.92C109.391 217.987 108.017 216.653 107.004 214.92C106.017 213.187 105.524 211.16 105.524 208.84C105.524 206.547 106.031 204.533 107.044 202.8C108.057 201.04 109.444 199.693 111.204 198.76C112.964 197.827 114.937 197.36 117.124 197.36C119.311 197.36 121.284 197.827 123.044 198.76C124.804 199.693 126.191 201.04 127.204 202.8C128.217 204.533 128.724 206.547 128.724 208.84C128.724 211.133 128.204 213.16 127.164 214.92C126.151 216.653 124.751 217.987 122.964 218.92C121.204 219.853 119.231 220.32 117.044 220.32ZM117.044 214.4C118.351 214.4 119.457 213.92 120.364 212.96C121.297 212 121.764 210.627 121.764 208.84C121.764 207.053 121.311 205.68 120.404 204.72C119.524 203.76 118.431 203.28 117.124 203.28C115.791 203.28 114.684 203.76 113.804 204.72C112.924 205.653 112.484 207.027 112.484 208.84C112.484 210.627 112.911 212 113.764 212.96C114.644 213.92 115.737 214.4 117.044 214.4ZM151.593 197.68V220H144.753V216.96C144.059 217.947 143.113 218.747 141.913 219.36C140.739 219.947 139.433 220.24 137.993 220.24C136.286 220.24 134.779 219.867 133.473 219.12C132.166 218.347 131.153 217.24 130.433 215.8C129.713 214.36 129.353 212.667 129.353 210.72V197.68H136.153V209.8C136.153 211.293 136.539 212.453 137.313 213.28C138.086 214.107 139.126 214.52 140.433 214.52C141.766 214.52 142.819 214.107 143.593 213.28C144.366 212.453 144.753 211.293 144.753 209.8V197.68H151.593ZM160.546 200.84C161.212 199.8 162.132 198.96 163.306 198.32C164.479 197.68 165.852 197.36 167.426 197.36C169.266 197.36 170.932 197.827 172.426 198.76C173.919 199.693 175.092 201.027 175.946 202.76C176.826 204.493 177.266 206.507 177.266 208.8C177.266 211.093 176.826 213.12 175.946 214.88C175.092 216.613 173.919 217.96 172.426 218.92C170.932 219.853 169.266 220.32 167.426 220.32C165.879 220.32 164.506 220 163.306 219.36C162.132 218.72 161.212 217.893 160.546 216.88V230.64H153.706V197.68H160.546V200.84ZM170.306 208.8C170.306 207.093 169.826 205.76 168.866 204.8C167.932 203.813 166.772 203.32 165.386 203.32C164.026 203.32 162.866 203.813 161.906 204.8C160.972 205.787 160.506 207.133 160.506 208.84C160.506 210.547 160.972 211.893 161.906 212.88C162.866 213.867 164.026 214.36 165.386 214.36C166.746 214.36 167.906 213.867 168.866 212.88C169.826 211.867 170.306 210.507 170.306 208.8Z" fill="#FFC32A"/>
<line x1="3" y1="207.5" x2="53" y2="207.5" stroke="#FFC32A" stroke-width="5"/>
<path d="M11.3205 172.596C9.64047 172.596 8.1338 172.316 6.80047 171.756C5.46714 171.169 4.4138 170.369 3.64047 169.356C2.86714 168.316 2.44047 167.129 2.36047 165.796H6.12047C6.22714 166.889 6.7338 167.783 7.64047 168.476C8.5738 169.169 9.78714 169.516 11.2805 169.516C12.6671 169.516 13.7605 169.209 14.5605 168.596C15.3605 167.983 15.7605 167.209 15.7605 166.276C15.7605 165.316 15.3338 164.609 14.4805 164.156C13.6271 163.676 12.3071 163.209 10.5205 162.756C8.8938 162.329 7.56047 161.903 6.52047 161.476C5.50714 161.023 4.62714 160.369 3.88047 159.516C3.16047 158.636 2.80047 157.489 2.80047 156.076C2.80047 154.956 3.1338 153.929 3.80047 152.996C4.46714 152.063 5.4138 151.329 6.64047 150.796C7.86714 150.236 9.26714 149.956 10.8405 149.956C13.2671 149.956 15.2271 150.569 16.7205 151.796C18.2138 153.023 19.0138 154.703 19.1205 156.836H15.4805C15.4005 155.689 14.9338 154.769 14.0805 154.076C13.2538 153.383 12.1338 153.036 10.7205 153.036C9.4138 153.036 8.3738 153.316 7.60047 153.876C6.82714 154.436 6.44047 155.169 6.44047 156.076C6.44047 156.796 6.66714 157.396 7.12047 157.876C7.60047 158.329 8.18714 158.703 8.88047 158.996C9.60047 159.263 10.5871 159.569 11.8405 159.916C13.4138 160.343 14.6938 160.769 15.6805 161.196C16.6671 161.596 17.5071 162.209 18.2005 163.036C18.9205 163.863 19.2938 164.943 19.3205 166.276C19.3205 167.476 18.9871 168.556 18.3205 169.516C17.6538 170.476 16.7071 171.236 15.4805 171.796C14.2805 172.329 12.8938 172.596 11.3205 172.596ZM35.3389 149.916C36.9922 149.916 38.4856 150.276 39.8189 150.996C41.1522 151.689 42.1922 152.743 42.9389 154.156C43.7122 155.569 44.0989 157.289 44.0989 159.316V172.236H40.4989V159.836C40.4989 157.649 39.9522 155.983 38.8589 154.836C37.7656 153.663 36.2722 153.076 34.3789 153.076C32.4589 153.076 30.9256 153.676 29.7789 154.876C28.6589 156.076 28.0989 157.823 28.0989 160.116V172.236H24.4589V142.636H28.0989V153.436C28.8189 152.316 29.8056 151.449 31.0589 150.836C32.3389 150.223 33.7656 149.916 35.3389 149.916ZM51.9248 146.756C51.2315 146.756 50.6448 146.516 50.1648 146.036C49.6848 145.556 49.4448 144.969 49.4448 144.276C49.4448 143.583 49.6848 142.996 50.1648 142.516C50.6448 142.036 51.2315 141.796 51.9248 141.796C52.5915 141.796 53.1515 142.036 53.6048 142.516C54.0848 142.996 54.3248 143.583 54.3248 144.276C54.3248 144.969 54.0848 145.556 53.6048 146.036C53.1515 146.516 52.5915 146.756 51.9248 146.756ZM53.6848 150.316V172.236H50.0448V150.316H53.6848ZM68.9286 149.956C70.8219 149.956 72.4753 150.369 73.8886 151.196C75.3286 152.023 76.3953 153.063 77.0886 154.316V150.316H80.7686V172.716C80.7686 174.716 80.3419 176.489 79.4886 178.036C78.6353 179.609 77.4086 180.836 75.8086 181.716C74.2353 182.596 72.3953 183.036 70.2886 183.036C67.4086 183.036 65.0086 182.356 63.0886 180.996C61.1686 179.636 60.0353 177.783 59.6886 175.436H63.2886C63.6886 176.769 64.5153 177.836 65.7686 178.636C67.0219 179.463 68.5286 179.876 70.2886 179.876C72.2886 179.876 73.9153 179.249 75.1686 177.996C76.4486 176.743 77.0886 174.983 77.0886 172.716V168.116C76.3686 169.396 75.3019 170.463 73.8886 171.316C72.4753 172.169 70.8219 172.596 68.9286 172.596C66.9819 172.596 65.2086 172.116 63.6086 171.156C62.0353 170.196 60.7953 168.849 59.8886 167.116C58.9819 165.383 58.5286 163.409 58.5286 161.196C58.5286 158.956 58.9819 156.996 59.8886 155.316C60.7953 153.609 62.0353 152.289 63.6086 151.356C65.2086 150.423 66.9819 149.956 68.9286 149.956ZM77.0886 161.236C77.0886 159.583 76.7553 158.143 76.0886 156.916C75.4219 155.689 74.5153 154.756 73.3686 154.116C72.2486 153.449 71.0086 153.116 69.6486 153.116C68.2886 153.116 67.0486 153.436 65.9286 154.076C64.8086 154.716 63.9153 155.649 63.2486 156.876C62.5819 158.103 62.2486 159.543 62.2486 161.196C62.2486 162.876 62.5819 164.343 63.2486 165.596C63.9153 166.823 64.8086 167.769 65.9286 168.436C67.0486 169.076 68.2886 169.396 69.6486 169.396C71.0086 169.396 72.2486 169.076 73.3686 168.436C74.5153 167.769 75.4219 166.823 76.0886 165.596C76.7553 164.343 77.0886 162.889 77.0886 161.236ZM96.4798 172.596C94.4265 172.596 92.5598 172.129 90.8798 171.196C89.2265 170.263 87.9198 168.943 86.9598 167.236C86.0265 165.503 85.5598 163.503 85.5598 161.236C85.5598 158.996 86.0398 157.023 86.9998 155.316C87.9865 153.583 89.3198 152.263 90.9998 151.356C92.6798 150.423 94.5598 149.956 96.6398 149.956C98.7198 149.956 100.6 150.423 102.28 151.356C103.96 152.263 105.28 153.569 106.24 155.276C107.227 156.983 107.72 158.969 107.72 161.236C107.72 163.503 107.213 165.503 106.2 167.236C105.213 168.943 103.867 170.263 102.16 171.196C100.453 172.129 98.5598 172.596 96.4798 172.596ZM96.4798 169.396C97.7865 169.396 99.0132 169.089 100.16 168.476C101.307 167.863 102.227 166.943 102.92 165.716C103.64 164.489 104 162.996 104 161.236C104 159.476 103.653 157.983 102.96 156.756C102.267 155.529 101.36 154.623 100.24 154.036C99.1198 153.423 97.9065 153.116 96.5998 153.116C95.2665 153.116 94.0398 153.423 92.9198 154.036C91.8265 154.623 90.9465 155.529 90.2798 156.756C89.6132 157.983 89.2798 159.476 89.2798 161.236C89.2798 163.023 89.5998 164.529 90.2398 165.756C90.9065 166.983 91.7865 167.903 92.8798 168.516C93.9732 169.103 95.1732 169.396 96.4798 169.396ZM116.946 153.316V166.236C116.946 167.303 117.172 168.063 117.626 168.516C118.079 168.943 118.866 169.156 119.986 169.156H122.666V172.236H119.386C117.359 172.236 115.839 171.769 114.826 170.836C113.812 169.903 113.306 168.369 113.306 166.236V153.316H110.466V150.316H113.306V144.796H116.946V150.316H122.666V153.316H116.946ZM136.636 172.596C134.583 172.596 132.716 172.129 131.036 171.196C129.383 170.263 128.076 168.943 127.116 167.236C126.183 165.503 125.716 163.503 125.716 161.236C125.716 158.996 126.196 157.023 127.156 155.316C128.143 153.583 129.476 152.263 131.156 151.356C132.836 150.423 134.716 149.956 136.796 149.956C138.876 149.956 140.756 150.423 142.436 151.356C144.116 152.263 145.436 153.569 146.396 155.276C147.383 156.983 147.876 158.969 147.876 161.236C147.876 163.503 147.369 165.503 146.356 167.236C145.369 168.943 144.023 170.263 142.316 171.196C140.609 172.129 138.716 172.596 136.636 172.596ZM136.636 169.396C137.943 169.396 139.169 169.089 140.316 168.476C141.463 167.863 142.383 166.943 143.076 165.716C143.796 164.489 144.156 162.996 144.156 161.236C144.156 159.476 143.809 157.983 143.116 156.756C142.423 155.529 141.516 154.623 140.396 154.036C139.276 153.423 138.063 153.116 136.756 153.116C135.423 153.116 134.196 153.423 133.076 154.036C131.983 154.623 131.103 155.529 130.436 156.756C129.769 157.983 129.436 159.476 129.436 161.236C129.436 163.023 129.756 164.529 130.396 165.756C131.063 166.983 131.943 167.903 133.036 168.516C134.129 169.103 135.329 169.396 136.636 169.396ZM165.662 149.676C168.275 149.676 170.355 150.529 171.902 152.236C173.475 153.916 174.262 156.236 174.262 159.196V172.236H167.462V160.116C167.462 158.623 167.075 157.463 166.302 156.636C165.529 155.809 164.489 155.396 163.182 155.396C161.875 155.396 160.835 155.809 160.062 156.636C159.289 157.463 158.902 158.623 158.902 160.116V172.236H152.062V149.916H158.902V152.876C159.595 151.889 160.529 151.116 161.702 150.556C162.875 149.969 164.195 149.676 165.662 149.676ZM177.655 161.036C177.655 158.743 178.082 156.729 178.935 154.996C179.815 153.263 181.002 151.929 182.495 150.996C183.988 150.063 185.655 149.596 187.495 149.596C189.068 149.596 190.442 149.916 191.615 150.556C192.815 151.196 193.735 152.036 194.375 153.076V149.916H201.215V172.236H194.375V169.076C193.708 170.116 192.775 170.956 191.575 171.596C190.402 172.236 189.028 172.556 187.455 172.556C185.642 172.556 183.988 172.089 182.495 171.156C181.002 170.196 179.815 168.849 178.935 167.116C178.082 165.356 177.655 163.329 177.655 161.036ZM194.375 161.076C194.375 159.369 193.895 158.023 192.935 157.036C192.002 156.049 190.855 155.556 189.495 155.556C188.135 155.556 186.975 156.049 186.015 157.036C185.082 157.996 184.615 159.329 184.615 161.036C184.615 162.743 185.082 164.103 186.015 165.116C186.975 166.103 188.135 166.596 189.495 166.596C190.855 166.596 192.002 166.103 192.935 165.116C193.895 164.129 194.375 162.783 194.375 161.076ZM216.204 165.836L221.044 149.916H228.324L220.404 172.236H211.964L204.044 149.916H211.364L216.204 165.836ZM234.643 147.596C233.443 147.596 232.456 147.249 231.683 146.556C230.936 145.836 230.563 144.956 230.563 143.916C230.563 142.849 230.936 141.969 231.683 141.276C232.456 140.556 233.443 140.196 234.643 140.196C235.816 140.196 236.776 140.556 237.523 141.276C238.296 141.969 238.683 142.849 238.683 143.916C238.683 144.956 238.296 145.836 237.523 146.556C236.776 147.249 235.816 147.596 234.643 147.596ZM238.043 149.916V172.236H231.203V149.916H238.043Z" fill="#0059E7"/>
<path d="M146.075 62.5036C149.118 93.7193 123.489 113.807 110.302 119.949C151.766 148.491 186.991 85.9876 180.144 61.4197L146.075 62.5036Z" fill="#FFC32A"/>
<ellipse cx="163.178" cy="63.2262" rx="17.1182" ry="16.2582" fill="#FFC32A"/>
<ellipse cx="152.526" cy="28.5421" rx="16.3574" ry="15.5356" fill="#FFC32A"/>
<path d="M90.277 57.0842C84.5709 102.968 123.108 122.117 143.777 125.369C74.9238 148.491 45.2523 83.4586 61.2292 51.3036L90.277 57.0842Z" fill="#0059E7"/>
<ellipse cx="75.6846" cy="54.5552" rx="14.8358" ry="14.0904" fill="#0059E7"/>
<ellipse cx="90.9008" cy="16.9808" rx="17.879" ry="16.9808" fill="#0059E7"/>
</svg>
