<svg width="185" height="77" viewBox="0 0 185 77" fill="none" xmlns="http://www.w3.org/2000/svg">
<rect width="185" height="77" fill="white"/>
<path d="M60.24 50.8C62.0533 50.8 62.96 49.9733 62.96 48.32C62.96 47.8667 62.64 47.4267 62 47C61.36 46.5467 60.5867 46.1067 59.68 45.68C58.7733 45.2267 57.8667 44.72 56.96 44.16C56.0533 43.6 55.28 42.8667 54.64 41.96C54 41.0267 53.68 39.9867 53.68 38.84C53.68 37.3467 54.24 36.1733 55.36 35.32C56.5067 34.44 57.8667 34 59.44 34C60.3467 34 61.28 34.2 62.24 34.6C63.2 35 63.7467 35.2 63.88 35.2C64.2 35.2 64.36 34.9333 64.36 34.4H65.28L65.68 40.24H64.8C64.5333 39.12 63.84 38.0267 62.72 36.96C61.6267 35.8933 60.5733 35.36 59.56 35.36C57.6667 35.36 56.72 36.0533 56.72 37.44C56.72 37.92 57.24 38.48 58.28 39.12C59.32 39.7333 60.4533 40.3333 61.68 40.92C62.9067 41.5067 64.04 42.3467 65.08 43.44C66.12 44.5333 66.64 45.7333 66.64 47.04C66.64 48.6933 66.0133 50 64.76 50.96C63.5067 51.92 61.8933 52.4 59.92 52.4C58.96 52.4 57.9867 52.2 57 51.8C56.0133 51.4 55.4667 51.2 55.36 51.2C55.04 51.2 54.88 51.4667 54.88 52H53.92L53.52 45.88H54.4C54.6667 46.9467 55.4667 48.04 56.8 49.16C58.16 50.2533 59.3067 50.8 60.24 50.8ZM74.3784 42.08C74.3784 45.2267 74.7918 47.5333 75.6184 49C76.4718 50.4667 77.7651 51.2 79.4984 51.2C80.6984 51.2 81.6184 50.5733 82.2584 49.32C82.8984 48.04 83.2184 46.36 83.2184 44.28C83.2184 41.0267 82.8318 38.7067 82.0584 37.32C81.3118 35.9333 79.9651 35.24 78.0184 35.24C76.8718 35.24 75.9784 35.9067 75.3384 37.24C74.6984 38.5733 74.3784 40.1867 74.3784 42.08ZM78.9784 52.4C75.9651 52.4 73.5651 51.52 71.7784 49.76C70.0184 48 69.1384 45.7067 69.1384 42.88C69.1384 40.3467 69.9384 38.24 71.5384 36.56C73.1651 34.8533 75.5518 34 78.6984 34C81.8718 34 84.2851 34.84 85.9384 36.52C87.6184 38.2 88.4584 40.48 88.4584 43.36C88.4584 45.92 87.6584 48.0667 86.0584 49.8C84.4584 51.5333 82.0984 52.4 78.9784 52.4ZM90.6553 52V51.16C92.0953 51.16 92.9353 50.8933 93.1753 50.36V36.8C91.7353 36.6933 90.8953 36.64 90.6553 36.64V35.72C91.162 35.72 92.3886 35.44 94.3353 34.88C96.282 34.2933 97.562 34 98.1753 34V35.68C99.5086 34.56 100.975 34 102.575 34C105.135 34 107.122 34.48 108.535 35.44C109.949 36.3733 110.655 37.7867 110.655 39.68V50.36C110.895 50.8933 111.735 51.16 113.175 51.16V52H103.135V51.16C104.575 51.16 105.415 50.8933 105.655 50.36V39.4C105.655 38.2 105.375 37.2267 104.815 36.48C104.282 35.7333 103.455 35.36 102.335 35.36C100.682 35.36 99.2953 35.8933 98.1753 36.96V50.36C98.4153 50.8933 99.2553 51.16 100.695 51.16V52H90.6553ZM121.5 34.4V35.24C120.727 35.24 120.167 35.2933 119.82 35.4L124.58 47.12L129.14 35.68C128.767 35.3867 128.02 35.24 126.9 35.24V34.4H133.46V35.24C132.02 35.24 131.207 35.4533 131.02 35.88L122.94 56.08C122.06 58.2667 120.66 59.36 118.74 59.36C116.794 59.36 115.82 58.72 115.82 57.44C115.82 56.96 115.967 56.5733 116.26 56.28C116.58 55.9867 117.02 55.84 117.58 55.84C118.007 55.84 118.38 56.04 118.7 56.44C119.02 56.84 119.38 57.04 119.78 57.04C120.34 57.04 120.714 56.8 120.9 56.32L121.94 53.76L114.86 36.04C114.62 35.5067 113.78 35.24 112.34 35.24V34.4H121.5Z" fill="#1470C2"/>
</svg>
