<svg width="25" height="25" viewBox="0 0 25 25" fill="none" xmlns="http://www.w3.org/2000/svg">
<path d="M15.4248 17.365H17.0508L9.56615 6.88918H7.9401L15.4248 17.365Z" fill="#014FD7"/>
<path fill-rule="evenodd" clip-rule="evenodd" d="M4.25 0.109375C2.17894 0.109375 0.5 1.78831 0.5 3.85938V20.3594C0.5 22.4304 2.17894 24.1094 4.25 24.1094H20.75C22.8211 24.1094 24.5 22.4304 24.5 20.3594V3.85938C24.5 1.78831 22.8211 0.109375 20.75 0.109375H4.25ZM18.1089 6.10938L13.6414 11.1906L18.5 18.1094H14.9267L11.6549 13.4502L7.55867 18.1094H6.5L11.1849 12.781L6.5 6.10938H10.0733L13.1714 10.5213L17.0503 6.10938H18.1089Z" fill="#014FD7"/>
</svg>
