<svg width="296" height="56" viewBox="0 0 296 56" fill="none" xmlns="http://www.w3.org/2000/svg">
<ellipse cx="48" cy="27.9273" rx="48" ry="27.9273" fill="#0059E7"/>
<ellipse cx="47.87" cy="28.0514" rx="33.8211" ry="23.3348" fill="#FFC32A"/>
<path d="M40.1379 31.0402C39.8465 31.8545 39.4927 33.0113 39.0765 34.5107C38.6602 36.01 38.3376 37.2761 38.1087 38.3088C36.9431 38.2691 35.4706 38.2343 33.6911 38.2045C31.9116 38.1747 30.3974 38.1598 29.1487 38.1598C27.8999 38.1598 26.2557 38.1797 24.216 38.2194C22.1763 38.2591 20.5841 38.2889 19.4394 38.3088C19.3978 38.3088 19.3561 38.2591 19.3145 38.1598C19.2729 38.0605 19.2521 37.9414 19.2521 37.8024C19.2521 37.6633 19.3145 37.4995 19.4394 37.3108C19.5643 37.1222 19.6683 37.0179 19.7516 36.998C20.9796 36.859 21.76 36.6108 22.0931 36.2533C22.4261 35.8959 22.6862 35.31 22.8735 34.4958L26.1204 21.4184C26.1828 21.2198 26.2296 21.041 26.2609 20.8821C26.2921 20.7233 26.3077 20.5644 26.3077 20.4055C26.3077 19.9686 26.2088 19.6459 26.0111 19.4374C25.8134 19.2289 25.1526 19.0551 24.0287 18.9161C23.9662 18.8962 23.9246 18.8217 23.9038 18.6927C23.883 18.5636 23.8726 18.4692 23.8726 18.4097C23.8726 18.2706 23.9298 18.1018 24.0443 17.9032C24.1587 17.7046 24.2576 17.6053 24.3409 17.6053C25.3399 17.6053 26.3493 17.6302 27.3691 17.6798C28.389 17.7295 29.3048 17.7543 30.1165 17.7543C30.9074 17.7543 31.8179 17.7295 32.8482 17.6798C33.8784 17.6302 34.841 17.6053 35.736 17.6053C35.7776 17.6053 35.8192 17.6351 35.8609 17.6947C35.9025 17.7543 35.9233 17.8536 35.9233 17.9926C35.9233 18.1316 35.8609 18.3203 35.736 18.5586C35.6111 18.7969 35.507 18.9161 35.4238 18.9161C34.2166 19.0352 33.4517 19.2686 33.1291 19.6161C32.8065 19.9637 32.5308 20.5644 32.3018 21.4184L29.1487 34.0191C29.107 34.178 29.0498 34.4312 28.977 34.7788C28.9041 35.1263 28.8677 35.3696 28.8677 35.5086C28.8677 35.9654 29.003 36.2781 29.2735 36.4469C29.5441 36.6158 29.8875 36.7002 30.3038 36.7002H31.1467C32.6869 36.7002 34.1698 36.0994 35.5955 34.8979C37.0212 33.6964 38.0774 32.2616 38.7643 30.5934C38.7643 30.5735 38.8423 30.5586 38.9984 30.5487C39.1545 30.5388 39.2846 30.5338 39.3887 30.5338C39.576 30.5338 39.7581 30.5984 39.935 30.7274C40.1119 30.8565 40.1796 30.9608 40.1379 31.0402Z" fill="#0059E7"/>
<path d="M58.4452 17.9926C58.4452 18.1316 58.3828 18.3203 58.2579 18.5586C58.1331 18.7969 58.029 18.9161 57.9457 18.9161C56.7386 19.0352 55.9737 19.2686 55.6511 19.6161C55.3285 19.9637 55.0527 20.5644 54.8238 21.4184L51.577 34.4958C51.5353 34.6546 51.4989 34.8383 51.4677 35.0469C51.4365 35.2554 51.4209 35.4093 51.4209 35.5086C51.4209 35.9256 51.5145 36.2484 51.7018 36.4767C51.8891 36.7051 52.5552 36.8789 53.6999 36.998C53.7415 36.998 53.7779 37.0676 53.8091 37.2066C53.8404 37.3456 53.856 37.4449 53.856 37.5045C53.856 37.6435 53.7935 37.8123 53.6687 38.0109C53.5438 38.2095 53.4397 38.3088 53.3565 38.3088C52.3574 38.3088 51.348 38.2839 50.3282 38.2343C49.3083 38.1846 48.3926 38.1598 47.5809 38.1598C46.7691 38.1598 45.8638 38.1846 44.8648 38.2343C43.8657 38.2839 42.8979 38.3088 41.9613 38.3088C41.9197 38.3088 41.8833 38.2591 41.8521 38.1598C41.8209 38.0605 41.8052 37.9414 41.8052 37.8024C41.8052 37.6832 41.8625 37.5243 41.977 37.3257C42.0914 37.1271 42.2007 37.0179 42.3048 36.998C43.5327 36.859 44.308 36.6108 44.6306 36.2533C44.9532 35.8959 45.2082 35.31 45.3955 34.4958L48.6735 21.4184C48.7152 21.2396 48.7516 21.0658 48.7828 20.897C48.814 20.7282 48.8296 20.5644 48.8296 20.4055C48.8296 19.9686 48.7308 19.6459 48.5331 19.4374C48.3353 19.2289 47.6745 19.0551 46.5506 18.9161C46.509 18.8962 46.4726 18.8217 46.4413 18.6927C46.4101 18.5636 46.3945 18.4692 46.3945 18.4097C46.3945 18.2706 46.4518 18.1018 46.5662 17.9032C46.6807 17.7046 46.7796 17.6053 46.8628 17.6053C47.8618 17.6053 48.8713 17.6302 49.8911 17.6798C50.9109 17.7295 51.8267 17.7543 52.6384 17.7543C53.4501 17.7543 54.3659 17.7295 55.3857 17.6798C56.4056 17.6302 57.363 17.6053 58.2579 17.6053C58.2996 17.6053 58.3412 17.6351 58.3828 17.6947C58.4244 17.7543 58.4452 17.8536 58.4452 17.9926Z" fill="#0059E7"/>
<path d="M76.5001 18.1416C76.3128 19.1544 76.1567 20.1374 76.0318 21.0907C75.907 22.0439 75.7925 22.9972 75.6884 23.9504C75.6676 24.01 75.5635 24.0646 75.3762 24.1143C75.1889 24.1639 75.0432 24.1887 74.9391 24.1887C74.7935 24.1887 74.6478 24.1689 74.5021 24.1292C74.3564 24.0894 74.2835 24.0299 74.2835 23.9504C74.3252 22.4808 73.9817 21.2148 73.2533 20.1523C72.5248 19.0898 71.6923 18.5586 70.7557 18.5586C69.9648 18.5586 69.304 18.8019 68.7733 19.2884C68.2426 19.775 67.9772 20.485 67.9772 21.4184C67.9772 22.3319 68.3778 23.161 69.1791 23.9057C69.9804 24.6505 70.7557 25.3505 71.505 26.0059C72.3791 26.7605 73.1857 27.6393 73.9245 28.6422C74.6634 29.6451 75.0328 30.8913 75.0328 32.3807C75.0328 34.0489 74.2575 35.5334 72.707 36.8342C71.1564 38.135 68.9658 38.7854 66.1352 38.7854C64.6991 38.7854 63.492 38.5669 62.5138 38.13C61.5356 37.6931 60.4325 37.3654 59.2045 37.147C59.371 36.2335 59.5635 35.1908 59.7821 34.0191C60.0006 32.8474 60.1619 31.8048 60.266 30.8913C60.266 30.8317 60.37 30.7771 60.5782 30.7274C60.7863 30.6778 60.9424 30.653 61.0465 30.653C61.1922 30.653 61.3274 30.6728 61.4523 30.7126C61.5772 30.7523 61.6396 30.8118 61.6396 30.8913C61.7229 32.8772 62.212 34.4511 63.107 35.6129C64.0019 36.7746 65.053 37.3555 66.2601 37.3555C67.3008 37.3555 68.1073 37.0874 68.6796 36.5512C69.252 36.015 69.5382 35.2206 69.5382 34.1681C69.5382 33.2744 69.1531 32.4403 68.383 31.6658C67.613 30.8913 66.8013 30.1168 65.9479 29.3423C65.0322 28.5082 64.1996 27.6145 63.4504 26.6612C62.7011 25.708 62.3265 24.576 62.3265 23.2653C62.3265 21.756 62.9717 20.3559 64.2621 19.065C65.5525 17.7742 67.5713 17.1287 70.3187 17.1287C71.505 17.1287 72.6237 17.2777 73.6748 17.5756C74.7258 17.8734 75.6676 18.0621 76.5001 18.1416Z" fill="#0059E7"/>
<path d="M110.912 14.9993H114.656C114.56 15.7673 114.56 15.7673 114.496 18.4233V25.4313C114.496 27.2233 114.528 28.3113 114.656 29.3033H110.912C111.04 28.0233 111.072 27.2873 111.072 25.4313V18.4233C111.072 16.7593 111.04 15.9593 110.912 14.9993ZM125.248 15.0633H128.992C128.864 16.0873 128.832 16.5353 128.832 18.5833V22.0393C128.832 27.0953 128.576 29.8473 128 31.7993C127.104 34.8713 125.024 37.3033 121.792 39.1273C120.192 40.0233 118.624 40.6313 115.744 41.4953C115.232 40.1513 114.944 39.6713 113.824 38.2953C117.024 37.6553 118.528 37.1433 120.192 36.1193C122.976 34.4873 124.448 32.5033 124.992 29.6873C125.28 28.2153 125.44 26.0713 125.44 23.0313L125.408 21.8473V18.6153C125.408 16.2153 125.376 15.9273 125.248 15.0633ZM164.503 37.9433L161.847 40.8873C159.319 37.6873 155.799 34.3273 151.863 31.1913C148.151 35.3833 144.663 38.0713 139.639 40.5673C138.935 39.1913 138.615 38.7753 137.463 37.5913C139.927 36.6313 141.463 35.7673 143.895 34.0393C148.823 30.4873 152.791 25.5913 154.935 20.4393C155.031 20.1513 155.031 20.1513 155.127 19.9593C155.191 19.8313 155.191 19.8313 155.255 19.6713C154.871 19.7033 154.679 19.7033 154.263 19.7033L144.983 19.8633C142.999 19.8953 142.391 19.9273 140.887 20.1193L140.791 16.6313C141.879 16.7593 142.679 16.8233 144.087 16.8233C144.215 16.8233 144.567 16.8233 144.951 16.8233L155.607 16.6633C157.143 16.6633 157.431 16.5993 158.135 16.3433L159.927 18.2313C159.543 18.6473 159.287 19.0953 158.967 19.8633C157.431 23.4153 155.799 26.2313 153.847 28.6953C157.879 31.6073 160.439 33.8473 164.503 37.9433ZM186.167 21.3033H182.167C181.591 22.7433 181.207 23.5113 180.279 25.0153C179.479 24.2153 179.255 24.0553 178.071 23.2873C179.383 21.5273 180.407 19.1273 181.079 16.2473C181.239 15.5113 181.303 15.0633 181.335 14.4553L184.087 15.1593C183.991 15.4153 183.991 15.4153 183.543 17.1113C183.351 17.7833 183.255 18.1033 183.095 18.6793H186.167V16.1193C186.167 14.8073 186.103 13.9753 185.975 13.1753H189.111C188.983 13.9433 188.919 14.7753 188.919 16.1193V18.6793H193.047C194.583 18.6793 195.511 18.6153 196.343 18.4873V21.4633C195.511 21.3673 194.423 21.3033 193.047 21.3033H188.919V25.8153H194.039C195.447 25.8153 196.343 25.7513 197.367 25.6233V28.6633C196.311 28.5673 195.319 28.5033 194.039 28.5033H189.847C191.767 31.9273 194.263 34.4873 198.199 36.9833C197.335 37.9753 196.855 38.6153 196.311 39.7033C193.207 37.4313 190.743 34.5833 188.791 30.9993C188.855 32.1833 188.919 33.3033 188.919 34.2953V39.0313C188.919 40.5673 188.951 41.6553 189.111 42.6153H185.975C186.103 41.5913 186.167 40.5033 186.167 38.9993V34.4553C186.167 33.5273 186.199 32.3753 186.263 31.0633C184.119 34.9353 181.815 37.5273 178.391 39.8313C177.719 38.6473 177.207 37.9433 176.631 37.3353C180.183 35.3193 182.999 32.4073 185.111 28.5033H182.391C181.047 28.5033 179.959 28.5673 179.031 28.6953V27.5753C178.487 28.2473 178.071 29.0793 177.687 30.0073C176.791 28.6313 176.311 27.5753 175.543 25.3993C175.543 25.8793 175.575 26.2313 175.575 26.4873C175.607 26.9033 175.639 28.1193 175.703 30.1353V38.7113C175.703 40.4073 175.735 41.5913 175.895 42.5513H172.791C172.919 41.5273 172.983 40.4073 172.983 38.7113V30.9033C172.983 29.3033 173.015 28.4713 173.175 26.2953C172.247 29.8153 171.191 32.2473 169.463 34.8393C169.047 33.5913 168.695 32.8553 168.087 31.9593C169.943 29.6553 171.639 25.8793 172.663 21.8153H171.159C170.167 21.8153 169.495 21.8473 168.983 21.9433V19.1273C169.559 19.2233 170.103 19.2553 171.159 19.2553H172.951V16.4393C172.951 14.7113 172.919 13.9433 172.791 13.1433H175.863C175.735 13.9433 175.703 14.9033 175.703 16.4073V19.2553H176.695C177.559 19.2553 178.007 19.2233 178.583 19.1273V21.9113C178.007 21.8473 177.431 21.8153 176.759 21.8153H175.799C176.599 23.9593 177.495 25.5593 179.031 27.5113V25.6233C180.023 25.7513 180.951 25.8153 182.391 25.8153H186.167V21.3033ZM220.471 18.9673H226.135C227.607 18.9673 228.471 18.9033 229.239 18.7753V21.8153C228.311 21.6873 227.159 21.6233 225.687 21.6233H220.567C220.759 26.6473 221.559 31.0633 222.839 34.1353C223.543 35.8953 224.279 37.1113 225.047 37.8793C225.431 38.2313 225.783 38.4553 225.911 38.4553C226.423 38.4553 226.871 36.8233 227.319 33.4313C228.247 34.2313 228.791 34.5513 229.911 34.9993C229.111 39.7993 227.927 41.9433 226.039 41.9433C224.823 41.9433 223.287 40.7913 221.943 38.9033C219.447 35.3833 218.007 29.5913 217.655 21.6233H204.599C203.255 21.6233 202.231 21.6873 201.047 21.8153V18.7753C202.007 18.9033 203.127 18.9673 204.599 18.9673H217.559C217.463 15.7353 217.431 15.4473 217.431 15.2553C217.431 14.9673 217.367 14.3913 217.271 13.5913H220.567C220.503 13.9753 220.407 15.6073 220.407 16.0873C220.407 16.5353 220.439 18.1033 220.471 18.9673ZM207.831 28.5673H205.335C204.183 28.5673 203.095 28.6313 202.263 28.7273V25.8473C203.063 25.9433 203.991 26.0073 205.399 26.0073H213.367C214.743 26.0073 215.639 25.9753 216.439 25.8473V28.7273C215.575 28.6313 214.583 28.5673 213.399 28.5673H210.775V36.3753C212.343 36.1193 213.399 35.8633 217.559 34.8073V37.5273C212.535 38.8073 208.407 39.6713 202.711 40.6633C202.263 40.7273 202.103 40.7593 201.719 40.8553L201.175 37.7513C202.551 37.7513 204.215 37.5593 207.831 36.9193V28.5673ZM227.255 17.3033L225.015 18.7433C224.055 17.3673 223.031 16.2793 221.527 14.9993L223.703 13.6873C225.431 15.2233 225.943 15.7353 227.255 17.3033ZM239.127 25.7833V23.2233C237.239 24.5033 235.895 25.2713 233.751 26.2313C233.303 25.1433 232.791 24.3433 232.087 23.5433C238.039 21.1113 242.583 17.6233 245.367 13.3033H248.535C250.135 15.6073 251.479 16.9833 253.911 18.7753C256.695 20.8233 259.479 22.3593 262.391 23.4153C261.655 24.4393 261.175 25.3993 260.823 26.3913C258.743 25.4313 257.367 24.6953 255.095 23.1913V25.7833C254.263 25.6873 253.463 25.6553 252.279 25.6553H241.751C240.855 25.6553 239.895 25.6873 239.127 25.7833ZM241.783 22.9033H252.279C253.207 22.9033 253.847 22.8713 254.519 22.8393C251.095 20.5033 249.079 18.6473 247.031 15.8953C245.143 18.4873 243.031 20.4713 239.703 22.8393C240.407 22.9033 240.823 22.9033 241.783 22.9033ZM242.487 31.5753H237.207C235.575 31.5753 234.519 31.6393 233.495 31.7673V28.6313C234.519 28.7593 235.671 28.8233 237.207 28.8233H257.047C258.647 28.8233 259.767 28.7593 260.759 28.6313V31.7673C259.703 31.6393 258.647 31.5753 257.047 31.5753H245.847C244.631 34.3273 243.607 36.2473 242.231 38.3593C249.719 37.7833 249.719 37.7833 253.335 37.3673C251.991 35.8633 251.351 35.1913 249.847 33.7193L252.311 32.4073C256.023 36.1193 257.847 38.1673 259.831 40.8873L257.303 42.6473C256.279 41.0793 255.895 40.5673 255.255 39.7033C249.943 40.4073 243.863 41.0153 239.095 41.3673C236.503 41.5593 235.255 41.6873 234.455 41.8473L233.975 38.5833C234.679 38.6153 235.319 38.6473 235.767 38.6473C236.023 38.6473 236.503 38.6153 237.239 38.5833C237.527 38.5833 237.527 38.5833 238.807 38.5193C240.375 36.1193 241.463 34.0393 242.487 31.5753ZM272.311 29.4953V39.2873C272.311 40.7913 272.343 41.6233 272.471 42.5193H269.239C269.367 41.5593 269.431 40.6953 269.431 39.2553V30.3913C268.055 31.7033 267.287 32.3433 265.495 33.5913C265.175 32.6313 264.631 31.6393 264.055 30.9033C266.391 29.4953 267.991 28.2153 269.751 26.2953C271.287 24.6313 272.247 23.2233 273.335 21.0473H267.831C266.711 21.0473 266.039 21.0793 265.175 21.1753V18.1993C266.039 18.2953 266.679 18.3273 267.703 18.3273H269.431V15.5113C269.431 14.6793 269.367 13.7833 269.239 13.0793H272.503C272.375 13.7833 272.311 14.5513 272.311 15.5753V18.3273H273.847C274.839 18.3273 275.287 18.2953 275.703 18.2313L277.015 19.6713C276.727 20.0873 276.567 20.4393 276.311 20.9513C275.255 23.1913 274.391 24.6313 272.951 26.4873C274.551 28.2793 275.831 29.3353 278.071 30.6793C277.431 31.5433 277.015 32.2473 276.599 33.2713C274.775 32.0553 273.655 31.0633 272.311 29.4953ZM285.719 25.2393V38.1673H290.039C291.671 38.1673 292.695 38.1033 293.623 37.9753V41.3033C292.567 41.1433 291.383 41.0793 290.039 41.0793H278.903C277.527 41.0793 276.407 41.1433 275.351 41.3033V37.9753C276.343 38.1033 277.335 38.1673 278.935 38.1673H282.775V25.2393H280.087C278.935 25.2393 277.911 25.3033 276.919 25.3993V22.2633C277.783 22.3913 278.679 22.4553 280.087 22.4553H282.775V16.3113C282.775 15.0953 282.711 14.3273 282.551 13.1433H285.943C285.751 14.3593 285.719 15.0313 285.719 16.3113V22.4553H289.431C290.871 22.4553 291.703 22.3913 292.567 22.2633V25.3993C291.575 25.3033 290.583 25.2393 289.431 25.2393H285.719Z" fill="#014FD7"/>
</svg>
