<svg width="183" height="32" viewBox="0 0 183 32" fill="none" xmlns="http://www.w3.org/2000/svg">
<ellipse cx="27.5" cy="16" rx="27.5" ry="16" fill="#0059E7"/>
<ellipse cx="27.4255" cy="16.0712" rx="19.3767" ry="13.3689" fill="#FFC32A"/>
<path d="M22.9956 17.7835C22.8287 18.25 22.626 18.9127 22.3875 19.7718C22.149 20.6308 21.9642 21.3561 21.833 21.9478C21.1653 21.925 20.3217 21.9051 19.3021 21.888C18.2826 21.871 17.4152 21.8624 16.6997 21.8624C15.9843 21.8624 15.0423 21.8738 13.8737 21.8966C12.7051 21.9193 11.7929 21.9364 11.1371 21.9478C11.1133 21.9478 11.0894 21.9193 11.0656 21.8624C11.0417 21.8055 11.0298 21.7373 11.0298 21.6576C11.0298 21.578 11.0656 21.4841 11.1371 21.376C11.2086 21.2679 11.2683 21.2082 11.316 21.1968C12.0195 21.1172 12.4666 20.975 12.6574 20.7702C12.8482 20.5654 12.9973 20.2297 13.1046 19.7632L14.9647 12.271C15.0005 12.1572 15.0273 12.0548 15.0452 11.9638C15.0631 11.8727 15.0721 11.7817 15.0721 11.6907C15.0721 11.4404 15.0154 11.2555 14.9021 11.136C14.7889 11.0166 14.4103 10.917 13.7664 10.8374C13.7306 10.826 13.7068 10.7833 13.6948 10.7094C13.6829 10.6354 13.6769 10.5814 13.6769 10.5472C13.6769 10.4676 13.7097 10.3709 13.7753 10.2571C13.8409 10.1433 13.8975 10.0864 13.9452 10.0864C14.5176 10.0864 15.0959 10.1006 15.6802 10.1291C16.2645 10.1575 16.7891 10.1718 17.2542 10.1718C17.7073 10.1718 18.229 10.1575 18.8192 10.1291C19.4095 10.1006 19.961 10.0864 20.4737 10.0864C20.4975 10.0864 20.5214 10.1035 20.5452 10.1376C20.5691 10.1718 20.581 10.2286 20.581 10.3083C20.581 10.3879 20.5452 10.496 20.4737 10.6326C20.4021 10.7691 20.3425 10.8374 20.2948 10.8374C19.6032 10.9056 19.165 11.0393 18.9802 11.2384C18.7954 11.4375 18.6374 11.7817 18.5062 12.271L16.6997 19.4902C16.6759 19.5812 16.6431 19.7262 16.6013 19.9254C16.5596 20.1245 16.5387 20.2638 16.5387 20.3435C16.5387 20.6052 16.6162 20.7844 16.7712 20.8811C16.9263 20.9778 17.123 21.0262 17.3615 21.0262H17.8444C18.7268 21.0262 19.5764 20.682 20.3932 19.9936C21.21 19.3053 21.8152 18.4832 22.2086 17.5275C22.2086 17.5161 22.2534 17.5076 22.3428 17.5019C22.4322 17.4962 22.5068 17.4934 22.5664 17.4934C22.6737 17.4934 22.778 17.5303 22.8794 17.6043C22.9807 17.6782 23.0195 17.738 22.9956 17.7835Z" fill="#0059E7"/>
<path d="M33.4842 10.3083C33.4842 10.3879 33.4484 10.496 33.3769 10.6326C33.3053 10.7691 33.2457 10.8374 33.198 10.8374C32.5064 10.9056 32.0682 11.0393 31.8834 11.2384C31.6986 11.4375 31.5406 11.7817 31.4094 12.271L29.5492 19.7632C29.5254 19.8542 29.5045 19.9595 29.4866 20.079C29.4688 20.1984 29.4598 20.2866 29.4598 20.3435C29.4598 20.5824 29.5135 20.7673 29.6208 20.8982C29.7281 21.029 30.1097 21.1286 30.7655 21.1968C30.7894 21.1968 30.8102 21.2366 30.8281 21.3163C30.846 21.3959 30.8549 21.4528 30.8549 21.487C30.8549 21.5666 30.8192 21.6633 30.7476 21.7771C30.6761 21.8909 30.6165 21.9478 30.5688 21.9478C29.9964 21.9478 29.4181 21.9335 28.8338 21.9051C28.2495 21.8766 27.7249 21.8624 27.2598 21.8624C26.7948 21.8624 26.2761 21.8766 25.7037 21.9051C25.1314 21.9335 24.5769 21.9478 24.0403 21.9478C24.0165 21.9478 23.9956 21.9193 23.9777 21.8624C23.9598 21.8055 23.9509 21.7373 23.9509 21.6576C23.9509 21.5894 23.9837 21.4983 24.0492 21.3846C24.1148 21.2708 24.1774 21.2082 24.2371 21.1968C24.9406 21.1172 25.3847 20.975 25.5696 20.7702C25.7544 20.5654 25.9005 20.2297 26.0078 19.7632L27.8858 12.271C27.9097 12.1686 27.9305 12.069 27.9484 11.9723C27.9663 11.8756 27.9753 11.7817 27.9753 11.6907C27.9753 11.4404 27.9186 11.2555 27.8053 11.136C27.6921 11.0166 27.3135 10.917 26.6696 10.8374C26.6457 10.826 26.6249 10.7833 26.607 10.7094C26.5891 10.6354 26.5801 10.5814 26.5801 10.5472C26.5801 10.4676 26.6129 10.3709 26.6785 10.2571C26.7441 10.1433 26.8007 10.0864 26.8484 10.0864C27.4208 10.0864 27.9991 10.1006 28.5834 10.1291C29.1677 10.1575 29.6923 10.1718 30.1574 10.1718C30.6224 10.1718 31.1471 10.1575 31.7314 10.1291C32.3156 10.1006 32.8642 10.0864 33.3769 10.0864C33.4007 10.0864 33.4246 10.1035 33.4484 10.1376C33.4723 10.1718 33.4842 10.2286 33.4842 10.3083Z" fill="#0059E7"/>
<path d="M43.8281 10.3936C43.7208 10.9739 43.6314 11.5371 43.5599 12.0832C43.4883 12.6294 43.4227 13.1755 43.3631 13.7216C43.3512 13.7558 43.2916 13.787 43.1842 13.8155C43.0769 13.8439 42.9935 13.8582 42.9338 13.8582C42.8504 13.8582 42.7669 13.8468 42.6834 13.824C42.6 13.8013 42.5582 13.7671 42.5582 13.7216C42.5821 12.8797 42.3853 12.1543 41.968 11.5456C41.5506 10.9369 41.0737 10.6326 40.5371 10.6326C40.084 10.6326 39.7054 10.7719 39.4013 11.0507C39.0972 11.3294 38.9452 11.7362 38.9452 12.271C38.9452 12.7943 39.1748 13.2694 39.6338 13.696C40.0929 14.1227 40.5371 14.5238 40.9664 14.8992C41.4672 15.3316 41.9292 15.835 42.3525 16.4096C42.7758 16.9842 42.9875 17.6982 42.9875 18.5515C42.9875 19.5072 42.5433 20.3577 41.655 21.103C40.7666 21.8482 39.5116 22.2208 37.8899 22.2208C37.0672 22.2208 36.3756 22.0957 35.8151 21.8454C35.2547 21.595 34.6227 21.4073 33.9192 21.2822C34.0146 20.7588 34.1249 20.1614 34.2501 19.4902C34.3753 18.8189 34.4677 18.2215 34.5273 17.6982C34.5273 17.664 34.587 17.6327 34.7062 17.6043C34.8254 17.5758 34.9149 17.5616 34.9745 17.5616C35.058 17.5616 35.1355 17.573 35.207 17.5958C35.2786 17.6185 35.3143 17.6526 35.3143 17.6982C35.362 18.8359 35.6422 19.7376 36.155 20.4032C36.6677 21.0688 37.2699 21.4016 37.9615 21.4016C38.5577 21.4016 39.0197 21.248 39.3477 20.9408C39.6756 20.6336 39.8395 20.1785 39.8395 19.5755C39.8395 19.0635 39.6189 18.5856 39.1777 18.1419C38.7365 17.6982 38.2715 17.2544 37.7826 16.8107C37.258 16.3328 36.781 15.8208 36.3517 15.2747C35.9225 14.7286 35.7078 14.08 35.7078 13.3291C35.7078 12.4644 36.0775 11.6622 36.8168 10.9227C37.5561 10.1831 38.7127 9.81335 40.2867 9.81335C40.9664 9.81335 41.6073 9.89869 42.2094 10.0694C42.8116 10.24 43.3512 10.3481 43.8281 10.3936Z" fill="#0059E7"/>
<path d="M67.32 8.42H69.66C69.6 8.9 69.6 8.9 69.56 10.56V14.94C69.56 16.06 69.58 16.74 69.66 17.36H67.32C67.4 16.56 67.42 16.1 67.42 14.94V10.56C67.42 9.52 67.4 9.02 67.32 8.42ZM76.28 8.46H78.62C78.54 9.1 78.52 9.38 78.52 10.66V12.82C78.52 15.98 78.36 17.7 78 18.92C77.44 20.84 76.14 22.36 74.12 23.5C73.12 24.06 72.14 24.44 70.34 24.98C70.02 24.14 69.84 23.84 69.14 22.98C71.14 22.58 72.08 22.26 73.12 21.62C74.86 20.6 75.78 19.36 76.12 17.6C76.3 16.68 76.4 15.34 76.4 13.44L76.38 12.7V10.68C76.38 9.18 76.36 9 76.28 8.46ZM100.815 22.76L99.1545 24.6C97.5745 22.6 95.3745 20.5 92.9145 18.54C90.5945 21.16 88.4145 22.84 85.2745 24.4C84.8345 23.54 84.6345 23.28 83.9145 22.54C85.4545 21.94 86.4145 21.4 87.9345 20.32C91.0145 18.1 93.4945 15.04 94.8345 11.82C94.8945 11.64 94.8945 11.64 94.9545 11.52C94.9945 11.44 94.9945 11.44 95.0345 11.34C94.7945 11.36 94.6745 11.36 94.4145 11.36L88.6145 11.46C87.3745 11.48 86.9945 11.5 86.0545 11.62L85.9945 9.44C86.6745 9.52 87.1745 9.56 88.0545 9.56C88.1345 9.56 88.3545 9.56 88.5945 9.56L95.2545 9.46C96.2145 9.46 96.3945 9.42 96.8345 9.26L97.9545 10.44C97.7145 10.7 97.5545 10.98 97.3545 11.46C96.3945 13.68 95.3745 15.44 94.1545 16.98C96.6745 18.8 98.2745 20.2 100.815 22.76ZM114.355 12.36H111.855C111.495 13.26 111.255 13.74 110.675 14.68C110.175 14.18 110.035 14.08 109.295 13.6C110.115 12.5 110.755 11 111.175 9.2C111.275 8.74 111.315 8.46 111.335 8.08L113.055 8.52C112.995 8.68 112.995 8.68 112.715 9.74C112.595 10.16 112.535 10.36 112.435 10.72H114.355V9.12C114.355 8.3 114.315 7.78 114.235 7.28H116.195C116.115 7.76 116.075 8.28 116.075 9.12V10.72H118.655C119.615 10.72 120.195 10.68 120.715 10.6V12.46C120.195 12.4 119.515 12.36 118.655 12.36H116.075V15.18H119.275C120.155 15.18 120.715 15.14 121.355 15.06V16.96C120.695 16.9 120.075 16.86 119.275 16.86H116.655C117.855 19 119.415 20.6 121.875 22.16C121.335 22.78 121.035 23.18 120.695 23.86C118.755 22.44 117.215 20.66 115.995 18.42C116.035 19.16 116.075 19.86 116.075 20.48V23.44C116.075 24.4 116.095 25.08 116.195 25.68H114.235C114.315 25.04 114.355 24.36 114.355 23.42V20.58C114.355 20 114.375 19.28 114.415 18.46C113.075 20.88 111.635 22.5 109.495 23.94C109.075 23.2 108.755 22.76 108.395 22.38C110.615 21.12 112.375 19.3 113.695 16.86H111.995C111.155 16.86 110.475 16.9 109.895 16.98V16.28C109.555 16.7 109.295 17.22 109.055 17.8C108.495 16.94 108.195 16.28 107.715 14.92C107.715 15.22 107.735 15.44 107.735 15.6C107.755 15.86 107.775 16.62 107.815 17.88V23.24C107.815 24.3 107.835 25.04 107.935 25.64H105.995C106.075 25 106.115 24.3 106.115 23.24V18.36C106.115 17.36 106.135 16.84 106.235 15.48C105.655 17.68 104.995 19.2 103.915 20.82C103.655 20.04 103.435 19.58 103.055 19.02C104.215 17.58 105.275 15.22 105.915 12.68H104.975C104.355 12.68 103.935 12.7 103.615 12.76V11C103.975 11.06 104.315 11.08 104.975 11.08H106.095V9.32C106.095 8.24 106.075 7.76 105.995 7.26H107.915C107.835 7.76 107.815 8.36 107.815 9.3V11.08H108.435C108.975 11.08 109.255 11.06 109.615 11V12.74C109.255 12.7 108.895 12.68 108.475 12.68H107.875C108.375 14.02 108.935 15.02 109.895 16.24V15.06C110.515 15.14 111.095 15.18 111.995 15.18H114.355V12.36ZM135.795 10.9H139.335C140.255 10.9 140.795 10.86 141.275 10.78V12.68C140.695 12.6 139.975 12.56 139.055 12.56H135.855C135.975 15.7 136.475 18.46 137.275 20.38C137.715 21.48 138.175 22.24 138.655 22.72C138.895 22.94 139.115 23.08 139.195 23.08C139.515 23.08 139.795 22.06 140.075 19.94C140.655 20.44 140.995 20.64 141.695 20.92C141.195 23.92 140.455 25.26 139.275 25.26C138.515 25.26 137.555 24.54 136.715 23.36C135.155 21.16 134.255 17.54 134.035 12.56H125.875C125.035 12.56 124.395 12.6 123.655 12.68V10.78C124.255 10.86 124.955 10.9 125.875 10.9H133.975C133.915 8.88 133.895 8.7 133.895 8.58C133.895 8.4 133.855 8.04 133.795 7.54H135.855C135.815 7.78 135.755 8.8 135.755 9.1C135.755 9.38 135.775 10.36 135.795 10.9ZM127.895 16.9H126.335C125.615 16.9 124.935 16.94 124.415 17V15.2C124.915 15.26 125.495 15.3 126.375 15.3H131.355C132.215 15.3 132.775 15.28 133.275 15.2V17C132.735 16.94 132.115 16.9 131.375 16.9H129.735V21.78C130.715 21.62 131.375 21.46 133.975 20.8V22.5C130.835 23.3 128.255 23.84 124.695 24.46C124.415 24.5 124.315 24.52 124.075 24.58L123.735 22.64C124.595 22.64 125.635 22.52 127.895 22.12V16.9ZM140.035 9.86L138.635 10.76C138.035 9.9 137.395 9.22 136.455 8.42L137.815 7.6C138.895 8.56 139.215 8.88 140.035 9.86ZM147.455 15.16V13.56C146.275 14.36 145.435 14.84 144.095 15.44C143.815 14.76 143.495 14.26 143.055 13.76C146.775 12.24 149.615 10.06 151.355 7.36H153.335C154.335 8.8 155.175 9.66 156.695 10.78C158.435 12.06 160.175 13.02 161.995 13.68C161.535 14.32 161.235 14.92 161.015 15.54C159.715 14.94 158.855 14.48 157.435 13.54V15.16C156.915 15.1 156.415 15.08 155.675 15.08H149.095C148.535 15.08 147.935 15.1 147.455 15.16ZM149.115 13.36H155.675C156.255 13.36 156.655 13.34 157.075 13.32C154.935 11.86 153.675 10.7 152.395 8.98C151.215 10.6 149.895 11.84 147.815 13.32C148.255 13.36 148.515 13.36 149.115 13.36ZM149.555 18.78H146.255C145.235 18.78 144.575 18.82 143.935 18.9V16.94C144.575 17.02 145.295 17.06 146.255 17.06H158.655C159.655 17.06 160.355 17.02 160.975 16.94V18.9C160.315 18.82 159.655 18.78 158.655 18.78H151.655C150.895 20.5 150.255 21.7 149.395 23.02C154.075 22.66 154.075 22.66 156.335 22.4C155.495 21.46 155.095 21.04 154.155 20.12L155.695 19.3C158.015 21.62 159.155 22.9 160.395 24.6L158.815 25.7C158.175 24.72 157.935 24.4 157.535 23.86C154.215 24.3 150.415 24.68 147.435 24.9C145.815 25.02 145.035 25.1 144.535 25.2L144.235 23.16C144.675 23.18 145.075 23.2 145.355 23.2C145.515 23.2 145.815 23.18 146.275 23.16C146.455 23.16 146.455 23.16 147.255 23.12C148.235 21.62 148.915 20.32 149.555 18.78ZM168.195 17.48V23.6C168.195 24.54 168.215 25.06 168.295 25.62H166.275C166.355 25.02 166.395 24.48 166.395 23.58V18.04C165.535 18.86 165.055 19.26 163.935 20.04C163.735 19.44 163.395 18.82 163.035 18.36C164.495 17.48 165.495 16.68 166.595 15.48C167.555 14.44 168.155 13.56 168.835 12.2H165.395C164.695 12.2 164.275 12.22 163.735 12.28V10.42C164.275 10.48 164.675 10.5 165.315 10.5H166.395V8.74C166.395 8.22 166.355 7.66 166.275 7.22H168.315C168.235 7.66 168.195 8.14 168.195 8.78V10.5H169.155C169.775 10.5 170.055 10.48 170.315 10.44L171.135 11.34C170.955 11.6 170.855 11.82 170.695 12.14C170.035 13.54 169.495 14.44 168.595 15.6C169.595 16.72 170.395 17.38 171.795 18.22C171.395 18.76 171.135 19.2 170.875 19.84C169.735 19.08 169.035 18.46 168.195 17.48ZM176.575 14.82V22.9H179.275C180.295 22.9 180.935 22.86 181.515 22.78V24.86C180.855 24.76 180.115 24.72 179.275 24.72H172.315C171.455 24.72 170.755 24.76 170.095 24.86V22.78C170.715 22.86 171.335 22.9 172.335 22.9H174.735V14.82H173.055C172.335 14.82 171.695 14.86 171.075 14.92V12.96C171.615 13.04 172.175 13.08 173.055 13.08H174.735V9.24C174.735 8.48 174.695 8 174.595 7.26H176.715C176.595 8.02 176.575 8.44 176.575 9.24V13.08H178.895C179.795 13.08 180.315 13.04 180.855 12.96V14.92C180.235 14.86 179.615 14.82 178.895 14.82H176.575Z" fill="#014FD7"/>
</svg>
