<svg width="25" height="25" viewBox="0 0 25 25" fill="none" xmlns="http://www.w3.org/2000/svg">
<path fill-rule="evenodd" clip-rule="evenodd" d="M0.5 3.85938C0.5 1.78831 2.17893 0.109375 4.25 0.109375H20.75C22.8211 0.109375 24.5 1.78831 24.5 3.85938V20.3594C24.5 22.4304 22.8211 24.1094 20.75 24.1094H4.25C2.17893 24.1094 0.5 22.4304 0.5 20.3594V3.85938ZM12.5 6.10938C15.8 6.10938 18.5 8.80938 18.5 12.1094C18.5 15.1094 16.325 17.6594 13.325 18.1094V13.8344H14.75L15.05 12.1094H13.4V10.9844C13.4 10.5344 13.625 10.0844 14.375 10.0844H15.125V8.58438C15.125 8.58438 14.45 8.43438 13.775 8.43438C12.425 8.43438 11.525 9.25937 11.525 10.7594V12.1094H10.025V13.8344H11.525V18.0344C8.675 17.5844 6.5 15.1094 6.5 12.1094C6.5 8.80938 9.2 6.10938 12.5 6.10938Z" fill="#014FD7"/>
</svg>
