<svg width="696" height="581" viewBox="0 0 696 581" fill="none" xmlns="http://www.w3.org/2000/svg">
<rect x="232" y="349" width="232" height="232" rx="116" fill="#8B8EC5"/>
<path d="M287.36 422.34L285.86 423.32C284.72 421.6 284.24 420.68 283.74 419.24C283.12 417.52 282.82 415.7 282.82 413.82C282.82 411.94 283.12 410.14 283.74 408.4C284.24 406.96 284.72 406.06 285.86 404.32L287.36 405.32C286.22 407.04 285.76 407.94 285.32 409.34C284.88 410.74 284.66 412.24 284.66 413.82C284.66 415.4 284.88 416.92 285.32 418.32C285.76 419.72 286.22 420.62 287.36 422.34ZM292.422 404.5H294.402C294.342 404.94 294.322 405.56 294.322 406.38V411.28C294.322 412.3 294.342 412.78 294.402 413.3H292.422C292.502 412.72 292.522 412.2 292.522 411.28V406.4C292.522 405.46 292.502 405.02 292.422 404.5ZM301.342 404.52H303.322C303.242 405.04 303.222 405.4 303.222 406.48V408.74C303.222 411.9 303.062 413.66 302.702 414.84C302.142 416.74 300.862 418.24 298.882 419.36C297.902 419.9 296.922 420.28 295.162 420.8C294.902 420.1 294.762 419.86 294.162 419.14C296.242 418.7 297.302 418.3 298.442 417.52C300.382 416.22 301.102 414.92 301.342 412.2C301.402 411.34 301.422 410.9 301.422 408.64V406.5C301.422 405.28 301.402 405 301.342 404.52ZM325.517 418.82L324.097 420.38C322.557 418.44 320.137 416.1 317.797 414.28C316.477 415.78 315.437 416.74 313.997 417.8C312.617 418.8 311.577 419.44 310.097 420.18C309.717 419.46 309.537 419.2 308.937 418.6C311.517 417.52 313.537 416.16 315.557 414.12C317.437 412.24 319.057 409.86 319.997 407.56C320.057 407.42 320.057 407.4 320.117 407.3C320.137 407.24 320.157 407.22 320.177 407.14C319.937 407.16 319.937 407.16 313.377 407.26C312.297 407.28 311.797 407.32 311.077 407.42L311.017 405.52C311.637 405.62 312.037 405.64 312.917 405.64C312.997 405.64 313.177 405.64 313.357 405.64L320.277 405.56C321.097 405.54 321.317 405.52 321.697 405.38L322.677 406.38C322.457 406.64 322.297 406.9 322.097 407.38C321.077 409.68 320.177 411.22 318.877 412.94C321.397 414.82 323.217 416.44 325.517 418.82ZM339.377 408.22H336.697C336.317 409.18 336.037 409.72 335.457 410.66C335.017 410.24 334.837 410.1 334.277 409.76C335.157 408.54 335.797 407.04 336.217 405.3C336.317 404.84 336.357 404.52 336.377 404.18L337.877 404.54C337.797 404.74 337.797 404.74 337.537 405.7C337.417 406.14 337.337 406.4 337.197 406.86H339.377V405.1C339.377 404.28 339.337 403.8 339.257 403.3H340.917C340.837 403.78 340.797 404.26 340.797 405.1V406.86H343.557C344.477 406.86 345.037 406.82 345.537 406.74V408.32C345.037 408.26 344.417 408.22 343.537 408.22H340.797V411.32H344.177C345.037 411.32 345.597 411.28 346.197 411.2V412.8C345.557 412.74 344.957 412.7 344.177 412.7H341.297C342.617 415.04 344.237 416.72 346.697 418.24C346.197 418.78 345.977 419.08 345.657 419.68C343.477 418.06 341.917 416.24 340.717 413.9C340.797 415.2 340.797 415.46 340.797 416.12V419.42C340.797 420.38 340.837 421 340.917 421.58H339.257C339.337 420.96 339.377 420.32 339.377 419.4V416.2C339.377 415.46 339.417 414.64 339.477 413.88C338.177 416.42 336.617 418.2 334.317 419.74C333.957 419.12 333.737 418.82 333.337 418.42C335.617 417.12 337.417 415.24 338.777 412.7H336.857C336.017 412.7 335.357 412.74 334.797 412.82V411.2C335.377 411.28 335.977 411.32 336.857 411.32H339.377V408.22ZM333.297 408.54H332.717C333.217 409.96 333.757 410.96 334.697 412.18C334.337 412.66 334.177 412.92 333.937 413.46C333.337 412.54 333.017 411.82 332.537 410.4C332.577 411.26 332.617 412.28 332.637 413.52V419.18C332.637 420.28 332.677 420.94 332.757 421.54H331.077C331.157 420.92 331.197 420.26 331.197 419.18V413.9C331.197 412.84 331.217 412.16 331.317 410.8C330.717 413.22 329.997 414.84 328.797 416.58C328.537 415.92 328.357 415.58 327.997 415.1C329.257 413.6 330.357 411.16 330.997 408.54H329.937C329.357 408.54 328.877 408.56 328.557 408.62V407.12C328.897 407.18 329.297 407.2 329.937 407.2H331.197V405.34C331.197 404.22 331.157 403.72 331.097 403.26H332.737C332.657 403.78 332.637 404.34 332.637 405.32V407.2H333.277C333.817 407.2 334.117 407.18 334.477 407.12V408.6C334.097 408.56 333.717 408.54 333.297 408.54ZM360.557 407.1H364.197C365.077 407.1 365.637 407.06 366.137 406.98V408.64C365.537 408.56 364.877 408.52 363.997 408.52H360.617C360.717 410.78 360.897 412.18 361.317 414.1C361.697 415.82 362.417 417.62 363.117 418.54C363.477 419 363.957 419.4 364.157 419.4C364.517 419.4 364.837 418.34 365.137 416.16C365.677 416.64 365.917 416.8 366.537 417.06C366.197 418.8 365.917 419.7 365.497 420.36C365.157 420.92 364.697 421.2 364.197 421.2C363.457 421.2 362.537 420.5 361.717 419.34C360.757 417.92 359.917 415.56 359.477 412.92C359.257 411.64 359.137 410.3 359.057 408.52H350.797C349.997 408.52 349.357 408.56 348.657 408.64V406.98C349.217 407.06 349.897 407.1 350.797 407.1H358.997C358.957 405.84 358.957 405.84 358.937 404.72C358.937 404.32 358.937 404.32 358.837 403.62H360.617C360.557 404 360.497 404.8 360.497 405.44C360.497 405.74 360.517 406.14 360.557 407.1ZM353.037 412.78H351.297C350.557 412.78 349.937 412.82 349.437 412.88V411.32C349.917 411.4 350.477 411.42 351.317 411.42H356.417C357.257 411.42 357.797 411.4 358.277 411.32V412.88C357.757 412.82 357.177 412.78 356.437 412.78H354.577V417.94C355.937 417.66 356.717 417.48 358.957 416.88V418.34C356.757 418.92 355.157 419.28 352.817 419.74C352.657 419.78 351.577 419.98 349.597 420.36C349.337 420.4 349.277 420.42 349.077 420.46L348.757 418.8C349.657 418.8 350.357 418.7 353.037 418.22V412.78ZM364.877 405.92L363.697 406.78C362.937 405.82 362.397 405.28 361.357 404.48L362.497 403.72C363.617 404.6 364.077 405.02 364.877 405.92ZM374.697 414.72H371.197C370.197 414.72 369.497 414.76 368.897 414.84V413.14C369.537 413.22 370.217 413.26 371.197 413.26H383.537C384.557 413.26 385.217 413.22 385.837 413.14V414.84C385.237 414.76 384.537 414.72 383.537 414.72H376.457C375.577 416.7 375.037 417.72 374.077 419.22C375.917 419.12 378.877 418.84 381.437 418.52C380.437 417.42 380.057 417.02 379.137 416.14L380.417 415.42C382.597 417.54 383.817 418.92 385.197 420.7L383.857 421.66C383.157 420.66 382.917 420.3 382.477 419.76C379.117 420.2 375.597 420.58 372.597 420.8C370.557 420.96 369.957 421.02 369.457 421.12L369.197 419.36C369.577 419.4 369.937 419.42 370.237 419.42C370.517 419.42 370.517 419.42 372.257 419.32C373.337 417.64 373.977 416.4 374.697 414.72ZM376.417 403.4H378.117C379.077 404.84 379.917 405.74 381.457 406.9C383.197 408.24 385.057 409.28 386.877 409.96C386.437 410.56 386.197 410.98 385.997 411.52C384.117 410.64 382.177 409.46 380.577 408.16C379.197 407.08 378.257 406.1 377.317 404.78C376.377 406.08 375.557 406.94 374.237 408.04C372.497 409.52 370.877 410.54 368.957 411.42C368.717 410.88 368.397 410.4 368.017 410.02C370.037 409.18 371.617 408.22 373.237 406.9C374.597 405.8 375.557 404.74 376.417 403.4ZM372.437 411.06V409.46C372.897 409.52 373.317 409.54 374.057 409.54H380.557C381.337 409.54 381.817 409.52 382.277 409.46V411.06C381.797 411 381.297 410.98 380.577 410.98H374.037C373.437 410.98 372.877 411 372.437 411.06ZM393.017 413.18V419.58C393.017 420.46 393.057 421.02 393.117 421.56H391.377C391.457 420.98 391.497 420.42 391.497 419.56V413.68C390.557 414.6 390.037 415.02 388.877 415.86C388.657 415.3 388.417 414.9 388.057 414.46C389.477 413.6 390.537 412.74 391.657 411.54C392.657 410.46 393.277 409.54 394.017 408.04H390.417C389.777 408.04 389.337 408.06 388.777 408.12V406.54C389.357 406.6 389.737 406.62 390.357 406.62H391.497V404.8C391.497 404.26 391.457 403.68 391.377 403.26H393.137C393.057 403.68 393.017 404.2 393.017 404.84V406.62H394.097C394.677 406.62 394.997 406.6 395.237 406.56L395.957 407.36C395.817 407.58 395.677 407.82 395.497 408.2C394.857 409.54 394.297 410.42 393.337 411.6C394.377 412.78 395.177 413.46 396.557 414.28C396.197 414.74 395.997 415.08 395.757 415.64C394.597 414.84 393.817 414.14 393.017 413.18ZM401.297 410.76V419.08H404.257C405.297 419.08 405.917 419.04 406.457 418.96V420.74C405.817 420.64 405.097 420.6 404.257 420.6H397.157C396.277 420.6 395.617 420.64 394.977 420.74V418.96C395.557 419.04 396.137 419.08 397.177 419.08H399.737V410.76H397.897C397.177 410.76 396.537 410.8 395.937 410.86V409.18C396.477 409.26 397.037 409.3 397.897 409.3H399.737V405.2C399.737 404.5 399.697 404.06 399.597 403.32H401.437C401.317 404.08 401.297 404.46 401.297 405.2V409.3H403.797C404.677 409.3 405.197 409.28 405.757 409.18V410.86C405.157 410.8 404.537 410.76 403.797 410.76H401.297ZM409.337 423.32L407.837 422.34C408.977 420.62 409.437 419.72 409.877 418.32C410.317 416.92 410.537 415.42 410.537 413.82C410.537 412.22 410.317 410.74 409.877 409.34C409.437 407.94 408.977 407.04 407.837 405.32L409.337 404.32C410.477 406.06 410.957 406.96 411.457 408.4C412.077 410.14 412.377 411.94 412.377 413.82C412.377 415.72 412.077 417.52 411.457 419.24C410.957 420.68 410.477 421.6 409.337 423.32Z" fill="white"/>
<path d="M293.4 441.136L295.848 441.16C295.728 441.784 295.656 442.432 295.584 444.136C295.488 445.888 295.344 451.696 295.344 453.304C295.344 455.488 295.512 456.4 296.016 457.192C296.64 458.104 297.864 458.608 299.52 458.608C302.208 458.608 304.416 457.12 305.688 454.432C306.264 453.256 306.552 452.272 306.864 450.592C307.656 451.288 307.992 451.504 308.904 451.96C307.968 454.888 307.272 456.352 306.192 457.6C304.464 459.592 302.16 460.6 299.376 460.6C297.72 460.6 296.28 460.216 295.368 459.568C294.552 458.968 293.904 458.032 293.592 457C293.376 456.28 293.256 455.104 293.256 453.832C293.256 452.368 293.28 451.624 293.448 444.088C293.472 443.392 293.472 442.84 293.472 442.48C293.472 441.952 293.448 441.664 293.4 441.136ZM317.136 444.52L317.304 442.48C318.864 442.864 321 443.056 323.736 443.056C326.76 443.056 328.68 442.912 330.048 442.576L330.168 444.496C328.68 445.12 326.448 446.488 324.024 448.24L322.56 447.064C324.12 446.032 324.552 445.768 325.512 445.216C325.776 445.072 325.824 445.048 326.136 444.88L326.592 444.64C325.176 444.832 324.336 444.904 323.016 444.904C321.432 444.904 319.392 444.784 317.952 444.592C317.52 444.544 317.448 444.544 317.136 444.52ZM331.44 456.736L331.656 459.088C331.32 459.112 331.224 459.136 330.792 459.208C328.512 459.568 326.376 459.76 324.336 459.76C321.912 459.76 319.872 459.472 318.648 458.992C316.776 458.248 315.816 457 315.816 455.272C315.816 453.64 316.704 452.152 318.672 450.472L320.136 451.576C318.6 452.848 317.88 453.928 317.88 455.032C317.88 456.064 318.552 456.808 319.848 457.24C320.712 457.504 322.296 457.672 324.192 457.672C327.144 457.672 330.048 457.288 331.44 456.736ZM330.792 446.224L332.136 445.504C333.264 446.824 333.792 447.568 334.656 449.152L333.264 449.944C332.568 448.552 331.848 447.472 330.792 446.224ZM328.008 447.52L329.4 446.8C330.528 448.144 331.08 448.96 331.92 450.52L330.504 451.312C329.76 449.824 328.992 448.624 328.008 447.52ZM343.392 441.04L345.624 440.632C345.72 442.288 346.56 446.032 347.376 448.456C348.84 447.856 348.84 447.856 353.064 446.416C354.12 446.032 354.216 446.008 354.648 445.768L355.464 447.928C353.664 448.312 350.712 449.248 348.024 450.28C346.152 451 344.616 451.864 343.584 452.752C342.792 453.472 342.336 454.384 342.336 455.32C342.336 456.568 343.104 457.384 344.64 457.792C345.456 458.008 347.016 458.152 348.648 458.152C351.408 458.152 354.168 457.816 355.704 457.288L355.92 459.664C355.416 459.664 355.416 459.664 354.096 459.808C351.6 460.072 350.376 460.144 348.624 460.144C345.528 460.144 343.632 459.808 342.192 458.992C340.896 458.248 340.176 456.904 340.176 455.272C340.176 453.808 340.944 452.344 342.312 451.216C343.224 450.448 343.992 449.968 345.48 449.224C344.832 447.28 344.352 445.432 343.776 442.576C343.56 441.544 343.536 441.424 343.392 441.04ZM373.752 446.824H378.816C380.256 446.824 380.904 446.8 381.816 446.656V448.864C380.976 448.768 380.136 448.744 378.84 448.744H373.656C373.488 452.008 373.032 453.856 371.904 455.656C370.632 457.744 368.832 459.28 365.904 460.792C365.376 459.856 365.112 459.544 364.392 458.944C367.248 457.768 369.168 456.184 370.32 454.072C371.064 452.656 371.328 451.552 371.52 448.744H365.184C363.888 448.744 363.096 448.768 362.208 448.864V446.656C363.168 446.776 363.816 446.824 365.208 446.824H371.616C371.64 445.912 371.64 445.432 371.64 444.784V443.152C371.64 442.168 371.616 441.616 371.52 441.016H373.92C373.8 441.712 373.8 441.736 373.776 443.128V444.784C373.752 446.512 373.752 446.512 373.752 446.824ZM390.864 443.992V449.128C393.168 448.72 395.856 447.856 398.376 446.704C400.272 445.84 401.304 445.24 402.072 444.544L403.512 446.488C403.08 446.656 403.032 446.704 402.456 447.016C400.272 448.192 397.848 449.2 395.496 449.944C393.816 450.472 393.072 450.64 390.864 451.072V454.864C390.864 456.496 390.96 457 391.32 457.384C391.8 457.888 393.264 458.128 395.832 458.128C397.368 458.128 399.624 457.96 401.4 457.72C402.384 457.6 402.864 457.504 403.824 457.24L403.968 459.52C403.656 459.52 403.656 459.52 402.912 459.616C400.392 459.904 397.512 460.072 395.304 460.072C392.328 460.072 390.744 459.784 389.856 459.064C389.256 458.584 388.944 457.864 388.824 456.736C388.776 456.352 388.752 455.872 388.752 454.768V443.968C388.752 442.84 388.728 442.288 388.632 441.616H391.008C390.912 442.336 390.864 442.912 390.864 443.992ZM404.088 439.648L405.432 438.928C406.56 440.248 407.088 440.992 407.952 442.576L406.56 443.368C405.864 441.976 405.144 440.896 404.088 439.648ZM401.304 440.944L402.696 440.224C403.824 441.568 404.376 442.384 405.216 443.944L403.8 444.736C403.056 443.248 402.288 442.048 401.304 440.944Z" fill="white"/>
<g filter="url(#filter0_d_1199_17197)">
<path d="M356.292 495.157C357.224 505.224 349.374 511.702 345.335 513.683C358.035 522.887 368.824 502.73 366.727 494.807L356.292 495.157Z" fill="#FFC32A"/>
<circle cx="361.53" cy="495.39" r="5.24314" fill="#FFC32A"/>
<circle cx="358.268" cy="484.205" r="5.01011" fill="#FFC32A"/>
<path d="M339.202 493.409C337.454 508.207 349.258 514.382 355.589 515.43C334.5 522.887 325.412 501.915 330.305 491.545L339.202 493.409Z" fill="#0458EA"/>
<circle cx="334.733" cy="492.594" r="4.54405" fill="#0458EA"/>
<circle cx="339.393" cy="480.476" r="5.47616" fill="#0458EA"/>
</g>
<path d="M321.358 532.08C320.751 532.08 320.254 531.947 319.868 531.68C319.488 531.413 319.274 531.033 319.228 530.54H319.688C319.721 530.893 319.881 531.173 320.168 531.38C320.461 531.587 320.858 531.69 321.358 531.69C321.771 531.69 322.098 531.587 322.338 531.38C322.584 531.167 322.708 530.907 322.708 530.6C322.708 530.387 322.641 530.213 322.508 530.08C322.381 529.94 322.221 529.833 322.028 529.76C321.834 529.687 321.571 529.607 321.238 529.52C320.838 529.413 320.514 529.31 320.268 529.21C320.021 529.103 319.811 528.947 319.638 528.74C319.464 528.533 319.378 528.257 319.378 527.91C319.378 527.657 319.454 527.423 319.608 527.21C319.761 526.99 319.974 526.817 320.248 526.69C320.521 526.563 320.831 526.5 321.178 526.5C321.744 526.5 322.201 526.643 322.548 526.93C322.901 527.21 323.091 527.6 323.118 528.1H322.668C322.648 527.74 322.508 527.447 322.248 527.22C321.988 526.993 321.628 526.88 321.168 526.88C320.781 526.88 320.461 526.98 320.208 527.18C319.954 527.38 319.828 527.623 319.828 527.91C319.828 528.163 319.898 528.37 320.038 528.53C320.184 528.683 320.361 528.803 320.568 528.89C320.781 528.97 321.061 529.057 321.408 529.15C321.788 529.25 322.091 529.35 322.318 529.45C322.551 529.543 322.748 529.683 322.908 529.87C323.068 530.05 323.148 530.293 323.148 530.6C323.148 530.88 323.071 531.133 322.918 531.36C322.764 531.587 322.551 531.763 322.278 531.89C322.004 532.017 321.698 532.08 321.358 532.08ZM326.978 526.46C327.618 526.46 328.142 526.66 328.548 527.06C328.955 527.453 329.158 528.04 329.158 528.82V532H328.718V528.85C328.718 528.203 328.555 527.71 328.228 527.37C327.902 527.023 327.458 526.85 326.898 526.85C326.312 526.85 325.842 527.037 325.488 527.41C325.142 527.783 324.968 528.337 324.968 529.07V532H324.518V524.6H324.968V527.72C325.122 527.313 325.378 527.003 325.738 526.79C326.098 526.57 326.512 526.46 326.978 526.46ZM330.979 525.36C330.872 525.36 330.782 525.327 330.709 525.26C330.635 525.187 330.599 525.09 330.599 524.97C330.599 524.857 330.635 524.763 330.709 524.69C330.782 524.617 330.872 524.58 330.979 524.58C331.085 524.58 331.175 524.617 331.249 524.69C331.322 524.763 331.359 524.857 331.359 524.97C331.359 525.09 331.322 525.187 331.249 525.26C331.175 525.327 331.085 525.36 330.979 525.36ZM331.199 526.57V532H330.749V526.57H331.199ZM335.188 526.5C335.762 526.5 336.248 526.64 336.648 526.92C337.048 527.193 337.328 527.547 337.488 527.98V526.57H337.938V532.17C337.938 532.67 337.828 533.107 337.608 533.48C337.388 533.86 337.092 534.15 336.718 534.35C336.345 534.557 335.928 534.66 335.468 534.66C334.788 534.66 334.225 534.497 333.778 534.17C333.332 533.843 333.038 533.403 332.898 532.85H333.348C333.482 533.283 333.732 533.627 334.098 533.88C334.465 534.14 334.922 534.27 335.468 534.27C335.848 534.27 336.192 534.183 336.498 534.01C336.805 533.843 337.045 533.6 337.218 533.28C337.398 532.967 337.488 532.597 337.488 532.17V530.58C337.328 531.013 337.045 531.373 336.638 531.66C336.238 531.94 335.755 532.08 335.188 532.08C334.682 532.08 334.228 531.967 333.828 531.74C333.435 531.507 333.125 531.18 332.898 530.76C332.678 530.333 332.568 529.84 332.568 529.28C332.568 528.72 332.678 528.23 332.898 527.81C333.125 527.39 333.435 527.067 333.828 526.84C334.228 526.613 334.682 526.5 335.188 526.5ZM337.488 529.28C337.488 528.807 337.388 528.39 337.188 528.03C336.995 527.663 336.728 527.383 336.388 527.19C336.048 526.99 335.668 526.89 335.248 526.89C334.808 526.89 334.422 526.987 334.088 527.18C333.755 527.367 333.495 527.64 333.308 528C333.122 528.36 333.028 528.787 333.028 529.28C333.028 529.773 333.122 530.2 333.308 530.56C333.495 530.92 333.755 531.197 334.088 531.39C334.428 531.583 334.815 531.68 335.248 531.68C335.668 531.68 336.048 531.583 336.388 531.39C336.735 531.19 337.005 530.91 337.198 530.55C337.392 530.183 337.488 529.76 337.488 529.28ZM341.967 532.08C341.46 532.08 341.004 531.967 340.597 531.74C340.19 531.513 339.87 531.19 339.637 530.77C339.41 530.343 339.297 529.847 339.297 529.28C339.297 528.72 339.414 528.23 339.647 527.81C339.88 527.383 340.2 527.06 340.607 526.84C341.02 526.613 341.48 526.5 341.987 526.5C342.494 526.5 342.95 526.613 343.357 526.84C343.764 527.06 344.08 527.38 344.307 527.8C344.54 528.22 344.657 528.713 344.657 529.28C344.657 529.847 344.54 530.343 344.307 530.77C344.074 531.19 343.75 531.513 343.337 531.74C342.93 531.967 342.474 532.08 341.967 532.08ZM341.967 531.68C342.36 531.68 342.727 531.593 343.067 531.42C343.414 531.24 343.69 530.97 343.897 530.61C344.104 530.25 344.207 529.807 344.207 529.28C344.207 528.76 344.104 528.32 343.897 527.96C343.69 527.6 343.417 527.333 343.077 527.16C342.737 526.98 342.37 526.89 341.977 526.89C341.584 526.89 341.217 526.98 340.877 527.16C340.544 527.333 340.274 527.6 340.067 527.96C339.86 528.32 339.757 528.76 339.757 529.28C339.757 529.807 339.857 530.25 340.057 530.61C340.264 530.97 340.534 531.24 340.867 531.42C341.207 531.593 341.574 531.68 341.967 531.68ZM346.692 526.96V530.55C346.692 530.95 346.765 531.227 346.912 531.38C347.059 531.527 347.319 531.6 347.692 531.6H348.302V532H347.622C347.149 532 346.799 531.89 346.572 531.67C346.352 531.443 346.242 531.07 346.242 530.55V526.96H345.422V526.57H346.242V525.19H346.692V526.57H348.302V526.96H346.692ZM351.879 532.08C351.372 532.08 350.916 531.967 350.509 531.74C350.102 531.513 349.782 531.19 349.549 530.77C349.322 530.343 349.209 529.847 349.209 529.28C349.209 528.72 349.326 528.23 349.559 527.81C349.792 527.383 350.112 527.06 350.519 526.84C350.932 526.613 351.392 526.5 351.899 526.5C352.406 526.5 352.862 526.613 353.269 526.84C353.676 527.06 353.992 527.38 354.219 527.8C354.452 528.22 354.569 528.713 354.569 529.28C354.569 529.847 354.452 530.343 354.219 530.77C353.986 531.19 353.662 531.513 353.249 531.74C352.842 531.967 352.386 532.08 351.879 532.08ZM351.879 531.68C352.272 531.68 352.639 531.593 352.979 531.42C353.326 531.24 353.602 530.97 353.809 530.61C354.016 530.25 354.119 529.807 354.119 529.28C354.119 528.76 354.016 528.32 353.809 527.96C353.602 527.6 353.329 527.333 352.989 527.16C352.649 526.98 352.282 526.89 351.889 526.89C351.496 526.89 351.129 526.98 350.789 527.16C350.456 527.333 350.186 527.6 349.979 527.96C349.772 528.32 349.669 528.76 349.669 529.28C349.669 529.807 349.769 530.25 349.969 530.61C350.176 530.97 350.446 531.24 350.779 531.42C351.119 531.593 351.486 531.68 351.879 531.68ZM358.874 526.38C359.534 526.38 360.068 526.59 360.474 527.01C360.881 527.423 361.084 528.003 361.084 528.75V532H359.684V528.94C359.684 528.5 359.574 528.163 359.354 527.93C359.134 527.69 358.834 527.57 358.454 527.57C358.068 527.57 357.761 527.69 357.534 527.93C357.314 528.163 357.204 528.5 357.204 528.94V532H355.804V526.46H357.204V527.15C357.391 526.91 357.628 526.723 357.914 526.59C358.208 526.45 358.528 526.38 358.874 526.38ZM362.056 529.21C362.056 528.65 362.166 528.153 362.386 527.72C362.612 527.287 362.916 526.953 363.296 526.72C363.682 526.487 364.112 526.37 364.586 526.37C364.999 526.37 365.359 526.453 365.666 526.62C365.979 526.787 366.229 526.997 366.416 527.25V526.46H367.826V532H366.416V531.19C366.236 531.45 365.986 531.667 365.666 531.84C365.352 532.007 364.989 532.09 364.576 532.09C364.109 532.09 363.682 531.97 363.296 531.73C362.916 531.49 362.612 531.153 362.386 530.72C362.166 530.28 362.056 529.777 362.056 529.21ZM366.416 529.23C366.416 528.89 366.349 528.6 366.216 528.36C366.082 528.113 365.902 527.927 365.676 527.8C365.449 527.667 365.206 527.6 364.946 527.6C364.686 527.6 364.446 527.663 364.226 527.79C364.006 527.917 363.826 528.103 363.686 528.35C363.552 528.59 363.486 528.877 363.486 529.21C363.486 529.543 363.552 529.837 363.686 530.09C363.826 530.337 364.006 530.527 364.226 530.66C364.452 530.793 364.692 530.86 364.946 530.86C365.206 530.86 365.449 530.797 365.676 530.67C365.902 530.537 366.082 530.35 366.216 530.11C366.349 529.863 366.416 529.57 366.416 529.23ZM371.503 530.71L372.903 526.46H374.393L372.343 532H370.643L368.603 526.46H370.103L371.503 530.71ZM375.889 525.8C375.643 525.8 375.436 525.723 375.269 525.57C375.109 525.41 375.029 525.213 375.029 524.98C375.029 524.747 375.109 524.553 375.269 524.4C375.436 524.24 375.643 524.16 375.889 524.16C376.136 524.16 376.339 524.24 376.499 524.4C376.666 524.553 376.749 524.747 376.749 524.98C376.749 525.213 376.666 525.41 376.499 525.57C376.339 525.723 376.136 525.8 375.889 525.8ZM376.579 526.46V532H375.179V526.46H376.579Z" fill="white"/>
<rect x="464" width="232" height="232" rx="116" fill="#014FD7"/>
<path d="M552.808 109.088L554.104 110.552C553.912 110.624 553.84 110.648 553.576 110.744C552.328 111.248 551.272 111.584 549.952 111.896C550.144 114.008 550.24 114.704 550.552 116.168C551.776 115.52 552.736 114.848 553.792 113.888L554.92 115.232C553.072 116.576 552.112 117.176 550.984 117.776C551.992 121.208 553.072 123.056 555.136 125.048C554.488 125.696 554.392 125.84 553.792 126.728C551.896 124.616 550.84 122.744 549.856 119.84C549.088 117.488 548.752 115.88 548.32 112.232C547.504 112.4 547.24 112.448 546.304 112.568V124.04C546.304 125.192 546.352 125.96 546.448 126.656H544.384C544.48 125.912 544.528 125.072 544.528 124.016V112.76C543.784 112.832 543.736 112.832 541.912 112.952C541.744 119.912 540.952 123.56 538.984 126.728C538.504 126.128 538.168 125.792 537.472 125.384C538.456 123.992 539.032 122.504 539.488 120.248C540.016 117.632 540.208 115.04 540.208 110.48C540.208 109.088 540.184 108.272 540.112 107.288C540.4 107.312 540.568 107.312 540.712 107.312C542.632 107.312 546.28 106.76 548.824 106.088C550.144 105.752 551.176 105.344 551.968 104.864L553.48 106.4C553.072 106.544 553.072 106.544 552.4 106.784C549.448 107.888 546.136 108.56 541.936 108.872V111.392C545.656 111.2 547.768 110.888 550.168 110.192C551.416 109.832 552.184 109.496 552.808 109.088ZM533.992 106.64L535.168 105.32C536.704 106.376 537.784 107.264 538.936 108.44L537.808 109.88C536.368 108.344 535.648 107.744 533.992 106.64ZM533.104 112.616L534.136 111.248C535.792 112.232 536.656 112.832 538.192 114.152L537.136 115.712C535.408 114.104 534.832 113.672 533.104 112.616ZM536.32 117.848L537.808 118.976C537.112 121.208 536.536 122.768 535.84 124.184C535.72 124.424 535.432 125 534.664 126.464L533.056 125C534.04 124.04 535.264 121.352 536.32 117.848ZM569.872 110.168H566.152C565.336 110.168 564.808 110.192 564.304 110.24C564.352 109.784 564.376 109.424 564.376 108.68V107.72C564.376 107.096 564.352 106.712 564.28 106.184C564.76 106.256 565.288 106.28 566.152 106.28H569.872C569.848 105.584 569.824 105.32 569.728 104.864H571.624C571.528 105.344 571.504 105.632 571.48 106.28H575.44C576.304 106.28 576.808 106.256 577.312 106.184C577.24 106.64 577.216 107.12 577.216 107.72V108.68C577.216 109.304 577.24 109.784 577.312 110.24C576.808 110.192 576.064 110.168 575.44 110.168H571.48V111.368H576.64C577.648 111.368 578.104 111.344 578.752 111.248V112.904C578.032 112.808 577.6 112.784 576.64 112.784H564.64C563.608 112.784 563.104 112.808 562.528 112.904V111.248C563.08 111.344 563.584 111.368 564.64 111.368H569.872V110.168ZM569.872 107.552H566.032V108.92H569.872V107.552ZM571.48 107.552V108.92H575.536V107.552H571.48ZM575.8 123.056H566.464C565.888 123.056 565.336 123.08 564.88 123.128C564.928 122.672 564.952 122.216 564.952 121.688V115.232C564.952 114.656 564.928 114.176 564.88 113.84C565.24 113.888 565.696 113.912 566.44 113.912H575.008C575.8 113.912 576.184 113.888 576.568 113.84C576.52 114.152 576.496 114.536 576.496 115.136V116.552C576.496 117.176 576.52 117.584 576.568 117.896C576.184 117.848 575.68 117.824 575.032 117.824H566.632V118.928H575.824C576.544 118.928 577.024 118.904 577.384 118.856C577.336 119.168 577.312 119.576 577.312 120.176V121.808C577.312 122.384 577.336 122.792 577.384 123.128C577 123.08 576.448 123.056 575.8 123.056ZM566.632 115.232V116.504H574.792V115.232H566.632ZM566.632 121.712H575.584V120.272H566.632V121.712ZM557.536 106.568L558.856 105.368C560.68 107.072 561.4 107.84 562.792 109.64L561.352 110.96C559.984 109.04 559.144 108.056 557.536 106.568ZM557.224 116.264V114.392C557.824 114.488 558.232 114.512 559.096 114.512H560.512C561.184 114.512 561.784 114.464 562.36 114.392C562.264 115.136 562.24 115.76 562.24 116.96V121.88C562.624 122.648 562.912 123.032 563.464 123.392C564.808 124.28 566.224 124.568 569.416 124.568C574.192 124.568 576.976 124.424 579.376 124.088C578.992 125.048 578.896 125.36 578.776 126.08C576.232 126.176 573.856 126.224 570.88 126.224C566.464 126.224 565.192 126.08 563.776 125.408C562.816 124.976 562 124.28 561.304 123.272C560.296 124.28 559.624 124.856 558.568 125.624C558.16 125.936 557.944 126.104 557.632 126.416L556.72 124.496C557.704 124.088 559.048 123.104 560.464 121.76V116.144H558.952C558.208 116.144 557.824 116.168 557.224 116.264ZM586.864 116.816V124.496C586.864 125.552 586.912 126.224 586.984 126.872H584.896C584.992 126.176 585.04 125.504 585.04 124.472V117.416C583.912 118.52 583.288 119.024 581.896 120.032C581.632 119.36 581.344 118.88 580.912 118.352C582.616 117.32 583.888 116.288 585.232 114.848C586.432 113.552 587.176 112.448 588.064 110.648H583.744C582.976 110.648 582.448 110.672 581.776 110.744V108.848C582.472 108.92 582.928 108.944 583.672 108.944H585.04V106.76C585.04 106.112 584.992 105.416 584.896 104.912H587.008C586.912 105.416 586.864 106.04 586.864 106.808V108.944H588.16C588.856 108.944 589.24 108.92 589.528 108.872L590.392 109.832C590.224 110.096 590.056 110.384 589.84 110.84C589.072 112.448 588.4 113.504 587.248 114.92C588.496 116.336 589.456 117.152 591.112 118.136C590.68 118.688 590.44 119.096 590.152 119.768C588.76 118.808 587.824 117.968 586.864 116.816ZM596.8 113.912V123.896H600.352C601.6 123.896 602.344 123.848 602.992 123.752V125.888C602.224 125.768 601.36 125.72 600.352 125.72H591.832C590.776 125.72 589.984 125.768 589.216 125.888V123.752C589.912 123.848 590.608 123.896 591.856 123.896H594.928V113.912H592.72C591.856 113.912 591.088 113.96 590.368 114.032V112.016C591.016 112.112 591.688 112.16 592.72 112.16H594.928V107.24C594.928 106.4 594.88 105.872 594.76 104.984H596.968C596.824 105.896 596.8 106.352 596.8 107.24V112.16H599.8C600.856 112.16 601.48 112.136 602.152 112.016V114.032C601.432 113.96 600.688 113.912 599.8 113.912H596.8ZM611.992 122.768H609.928C608.68 122.768 608.008 122.792 607.216 122.864C607.288 122.312 607.288 122.312 607.312 120.344V114.608C607.312 113.36 607.288 112.664 607.216 112.016C607.96 112.088 608.728 112.112 609.928 112.112H622.168C623.344 112.112 624.064 112.088 624.856 112.016C624.784 112.592 624.76 113.312 624.76 114.608V120.344L624.784 121.664V122.096C624.784 122.264 624.808 122.456 624.856 122.864C624.088 122.792 623.392 122.768 622.168 122.768H619.936C621.808 124.04 624.16 124.928 627.112 125.456C626.56 126.032 626.224 126.488 625.96 127.088C622.288 126.128 620.896 125.504 618.472 123.824L619.768 122.768H612.088L613.528 123.896C612.184 124.808 611.296 125.288 609.808 125.912C608.92 126.272 608.368 126.44 606.112 127.064C605.752 126.32 605.536 126.008 604.936 125.384C607.792 124.976 610.408 123.992 611.992 122.768ZM609.088 113.6V115.184H622.984V113.6H609.088ZM609.088 116.6V118.208H622.984V116.6H609.088ZM609.088 119.624V121.304H622.984V119.624H609.088ZM623.872 107.456V109.088C623.872 109.808 623.896 110.288 623.968 110.816C623.2 110.768 622.408 110.744 621.304 110.744H610.792C609.664 110.744 608.896 110.768 608.128 110.816C608.2 110.216 608.224 109.76 608.224 109.088V107.456C608.224 106.76 608.2 106.376 608.128 105.704C608.872 105.8 609.52 105.824 610.84 105.824H621.256C622.552 105.824 623.2 105.8 623.968 105.704C623.896 106.304 623.872 106.712 623.872 107.456ZM622.024 107.312H610.048V109.28H622.024V107.312Z" fill="white"/>
<rect width="232" height="232" rx="116" fill="#014FD7"/>
<path d="M85.36 105.34L83.86 106.32C82.72 104.6 82.24 103.68 81.74 102.24C81.12 100.52 80.82 98.7 80.82 96.82C80.82 94.94 81.12 93.14 81.74 91.4C82.24 89.96 82.72 89.06 83.86 87.32L85.36 88.32C84.22 90.04 83.76 90.94 83.32 92.34C82.88 93.74 82.66 95.24 82.66 96.82C82.66 98.4 82.88 99.92 83.32 101.32C83.76 102.72 84.22 103.62 85.36 105.34ZM104.802 94.52V95.94C104.422 95.9 103.962 95.86 103.462 95.86C103.162 98.14 102.802 99.22 101.882 100.74C102.842 101.78 103.742 102.4 105.262 103.12C104.942 103.48 104.702 103.86 104.402 104.46C102.922 103.54 102.082 102.86 101.102 101.78C100.142 102.9 99.2223 103.6 97.4823 104.48C97.3023 104.02 97.0823 103.66 96.7023 103.26C98.3423 102.6 99.3623 101.88 100.282 100.74C99.6423 99.82 99.2423 99.04 98.8423 97.98C98.5423 98.54 98.3623 98.84 97.8023 99.6C97.5023 99.12 97.3023 98.92 96.8423 98.58C98.0023 97.16 98.5623 96.06 99.0623 94.22C99.2423 93.62 99.3023 93.24 99.3423 92.74L100.782 93.04C100.682 93.32 100.682 93.32 100.462 94.12C100.402 94.28 100.362 94.4 100.302 94.62H103.122C103.922 94.62 104.342 94.6 104.802 94.52ZM102.162 95.86H99.8423C99.7223 96.16 99.6823 96.24 99.5623 96.54C99.9823 97.92 100.282 98.58 101.022 99.66C101.702 98.4 101.962 97.52 102.162 95.86ZM93.0223 95.38V94.32H91.7623C91.2623 94.32 90.9623 94.34 90.4623 94.38V93.18C90.9223 93.22 91.2023 93.24 91.7623 93.24H95.8623C96.3823 93.24 96.6823 93.22 97.1023 93.18V94.38C96.6023 94.34 96.3423 94.32 95.8423 94.32H94.3023V95.38H96.1823C96.9823 95.38 97.3223 95.36 97.7023 95.32V96.54C97.3223 96.5 97.0223 96.48 96.4223 96.48V103.02C96.4223 103.64 96.4423 104.12 96.5223 104.6H95.0623C95.1223 104.14 95.1423 103.68 95.1423 102.98V102.66C93.6623 102.94 92.5823 103.1 90.7623 103.34C90.2823 103.4 89.9223 103.46 89.6023 103.54L89.3223 102.08C89.5423 102.1 89.6423 102.1 89.8223 102.1C90.0823 102.1 90.3023 102.1 90.8423 102.06V96.48C90.4023 96.5 90.2623 96.5 89.8623 96.56V95.3C90.2823 95.36 90.6023 95.38 91.0423 95.38H93.0223ZM92.1223 100.6V101.94C93.4423 101.78 94.1623 101.68 95.1423 101.5V100.6H92.1223ZM92.1223 99.58H95.1423V98.54H92.1223V99.58ZM92.1223 97.52H95.1423V96.48H92.1223V97.52ZM88.7423 89.16V87.94C88.7423 87.58 88.7223 87.18 88.6823 86.8C89.1823 86.86 89.6823 86.88 90.3823 86.88H93.7423C94.4423 86.88 94.8823 86.86 95.3823 86.82C95.3423 87.18 95.3223 87.44 95.3223 87.96V89.18C95.3223 89.72 95.3423 89.98 95.3823 90.3C94.9823 90.26 94.4423 90.24 93.7023 90.24H90.3423C89.6423 90.24 89.1423 90.26 88.6823 90.3C88.7223 90 88.7423 89.68 88.7423 89.16ZM90.1023 87.96V89.22H94.0223V87.96H90.1023ZM97.0623 89.18V87.96C97.0623 87.52 97.0423 87.12 97.0023 86.82C97.5423 86.86 97.9223 86.88 98.6823 86.88H102.162C102.882 86.88 103.402 86.86 103.862 86.8C103.822 87.2 103.802 87.48 103.802 87.96V89.2C103.802 89.68 103.822 89.96 103.862 90.3C103.362 90.26 102.942 90.24 102.102 90.24H98.6823C97.9423 90.24 97.5223 90.26 97.0023 90.3C97.0423 89.92 97.0623 89.68 97.0623 89.18ZM98.3623 87.96V89.22H102.442V87.96H98.3623ZM89.4223 92.34V93.8C89.4223 96.64 89.2223 99.16 88.8623 100.94C88.5823 102.24 88.2623 103.16 87.6223 104.4C87.2823 103.92 86.9823 103.6 86.4423 103.24C87.0623 102.04 87.3623 101.22 87.5823 99.98C87.8623 98.48 88.0223 96.16 88.0223 93.34C88.0223 92.26 88.0023 91.64 87.9223 91C88.5423 91.08 89.3023 91.1 90.2623 91.1H102.402C103.622 91.1 104.222 91.08 104.722 90.98V92.44C104.082 92.36 103.662 92.34 102.422 92.34H89.4223ZM115.062 96.08H114.382C113.482 96.08 112.982 96.1 112.502 96.18V94.84C112.942 94.92 113.402 94.94 114.362 94.94H115.062C115.042 94.34 115.022 94.16 114.962 93.74H116.542C116.482 94.1 116.462 94.4 116.442 94.94H119.642C119.622 94.42 119.602 94.1 119.542 93.74H121.122C121.062 94.14 121.042 94.4 121.022 94.94H122.262C123.202 94.94 123.662 94.92 124.102 94.84V96.18C123.602 96.1 123.142 96.08 122.222 96.08H121.022V97.78H122.802C123.822 97.78 124.242 97.76 124.742 97.68V99.06C124.282 98.98 123.762 98.96 122.802 98.96H113.462C112.642 98.96 112.142 98.98 111.722 99.06V97.68C112.182 97.76 112.602 97.78 113.442 97.78H115.062V96.08ZM116.442 96.08V97.78H119.642V96.08H116.442ZM117.482 87.96V89.46C117.482 89.96 117.502 90.26 117.542 90.54C117.122 90.5 116.802 90.48 116.282 90.48H113.422V91.56C113.422 92.06 113.542 92.12 114.722 92.12C115.882 92.12 116.302 92.06 116.462 91.92C116.582 91.78 116.642 91.54 116.702 90.74C117.122 91.02 117.442 91.16 117.902 91.26C117.782 92.28 117.642 92.64 117.282 92.96C117.002 93.18 116.402 93.26 114.902 93.26C112.442 93.26 112.122 93.12 112.122 92.04V90.44C112.122 89.9 112.102 89.64 112.062 89.3C112.422 89.34 112.742 89.36 113.362 89.36H116.142V88.1H113.522C112.782 88.1 112.382 88.12 111.922 88.18V86.84C112.362 86.9 112.902 86.94 113.522 86.94H115.762C116.702 86.94 117.142 86.92 117.542 86.86C117.502 87.18 117.482 87.44 117.482 87.96ZM124.122 87.96V89.46C124.122 89.94 124.142 90.26 124.182 90.54C123.762 90.5 123.442 90.48 122.922 90.48H120.062V91.56C120.062 92.06 120.202 92.12 121.442 92.12C122.882 92.12 123.182 92.08 123.302 91.82C123.402 91.62 123.462 91.32 123.502 90.74C123.962 91 124.302 91.16 124.762 91.26C124.522 93.16 124.362 93.26 121.462 93.26C120.162 93.26 119.602 93.22 119.282 93.08C118.862 92.92 118.722 92.62 118.722 92V90.48C118.722 90.2 118.702 89.8 118.662 89.3C119.022 89.34 119.342 89.36 119.962 89.36H122.762V88.1H120.182C119.442 88.1 119.042 88.12 118.582 88.18V86.84C119.022 86.92 119.542 86.94 120.182 86.94H122.422C123.342 86.94 123.762 86.92 124.182 86.86C124.142 87.14 124.122 87.44 124.122 87.96ZM107.242 87.82L108.342 86.82C109.722 88.14 110.322 88.8 111.342 90.1L110.142 91.2C109.102 89.7 108.542 89.06 107.242 87.82ZM115.902 99L117.082 99.76C115.682 101 114.982 101.46 113.422 102.14C113.162 101.74 112.902 101.46 112.382 101.06C113.962 100.48 114.842 99.96 115.902 99ZM119.102 99.82L120.222 99.04C121.542 100 122.602 100.48 124.382 101C123.922 101.46 123.702 101.74 123.402 102.24C121.622 101.58 120.442 100.92 119.102 99.82ZM106.942 95.72V94.16C107.442 94.24 107.762 94.26 108.502 94.26H109.602C110.222 94.26 110.622 94.24 111.102 94.18C111.042 94.84 111.022 95.22 111.022 96.3V100.34C111.482 101.28 111.882 101.68 112.642 102.02C113.582 102.46 114.782 102.62 117.102 102.62C120.902 102.62 123.002 102.52 125.322 102.22C125.002 102.96 124.962 103.1 124.822 103.9C122.762 103.98 120.622 104.02 118.162 104.02C114.482 104.02 113.462 103.9 112.262 103.34C111.482 102.98 110.822 102.38 110.262 101.54C109.442 102.34 109.002 102.76 108.342 103.28C107.702 103.8 107.642 103.84 107.322 104.14L106.562 102.56C107.422 102.18 108.282 101.52 109.542 100.3V95.62H108.382C107.762 95.62 107.442 95.64 106.942 95.72ZM135.142 91.08H130.942C130.282 92.14 129.702 92.88 128.782 93.84C128.302 93.32 128.062 93.12 127.542 92.8C128.882 91.54 129.382 90.9 130.142 89.44C130.662 88.4 130.942 87.58 131.102 86.68L132.762 87.1C132.602 87.44 132.562 87.54 132.382 88.04C132.082 88.8 131.982 89.06 131.702 89.66H135.142V88.24C135.142 87.5 135.122 87.06 135.022 86.4H136.802C136.722 86.98 136.682 87.48 136.682 88.24V89.66H141.322C142.182 89.66 142.762 89.62 143.302 89.54V91.2C142.742 91.12 142.162 91.08 141.322 91.08H136.682V94.42H142.722C143.662 94.42 144.282 94.38 144.842 94.3V95.98C144.222 95.9 143.622 95.86 142.722 95.86H138.642V102.24C138.642 102.74 138.902 102.82 140.442 102.82C142.142 102.82 142.602 102.7 142.842 102.16C143.082 101.62 143.162 100.84 143.162 99.3C143.682 99.58 144.042 99.72 144.722 99.9C144.582 101.7 144.402 102.62 144.062 103.2C143.562 104.08 142.802 104.28 140.122 104.28C137.702 104.28 137.102 103.98 137.102 102.82V95.86H134.322C134.102 99.1 133.542 100.66 132.042 102.12C130.902 103.22 129.842 103.86 127.742 104.72C127.482 104.2 127.382 104.02 126.782 103.26C128.742 102.64 130.002 101.96 131.082 100.88C131.862 100.1 132.362 99.02 132.582 97.56C132.662 97.14 132.682 96.76 132.742 95.86H129.262C128.382 95.86 127.762 95.9 127.162 95.98V94.3C127.722 94.38 128.342 94.42 129.262 94.42H135.142V91.08ZM147.942 106.32L146.442 105.34C147.582 103.62 148.042 102.72 148.482 101.32C148.922 99.92 149.142 98.42 149.142 96.82C149.142 95.22 148.922 93.74 148.482 92.34C148.042 90.94 147.582 90.04 146.442 88.32L147.942 87.32C149.082 89.06 149.562 89.96 150.062 91.4C150.682 93.14 150.982 94.94 150.982 96.82C150.982 98.72 150.682 100.52 150.062 102.24C149.562 103.68 149.082 104.6 147.942 106.32Z" fill="white"/>
<path d="M79.04 128.984H72.08C71.048 128.984 70.328 129.032 69.608 129.128V127.184C70.28 127.28 71.024 127.328 72.152 127.328H79.04V125.624C79.04 124.448 78.992 123.752 78.896 123.032H80.984C80.888 123.8 80.84 124.472 80.84 125.624V127.328H87.824C88.928 127.328 89.672 127.28 90.368 127.184V129.128C89.72 129.032 88.952 128.984 87.824 128.984H80.912C81.416 130.904 82.208 132.68 83.264 134.336C85.112 132.824 86.48 131.312 87.272 129.968L88.88 131.192C88.688 131.408 88.688 131.408 87.44 132.728C86.648 133.616 85.592 134.552 84.224 135.704C85.04 136.76 85.688 137.48 86.624 138.368C87.968 139.616 88.928 140.264 90.752 141.248C90.224 141.8 89.84 142.28 89.456 142.976C87.08 141.464 85.28 139.832 83.696 137.768C82.256 135.848 81.512 134.48 80.72 132.296C80.72 132.632 80.744 132.92 80.744 133.088C80.768 133.328 80.792 134.336 80.84 136.112V142.616C80.84 144.128 80.264 144.56 78.224 144.56C77.336 144.56 76.52 144.512 75.272 144.416C75.2 143.696 75.104 143.264 74.816 142.544C76.016 142.736 77.048 142.832 77.96 142.832C78.848 142.832 79.04 142.712 79.04 142.136V128.984ZM82.712 124.28L83.96 123.176C85.688 124.256 86.096 124.592 87.512 125.936L86.192 127.112C84.872 125.72 84.32 125.264 82.712 124.28ZM71.768 131.192L73.208 130.088C74.648 131.576 75.416 132.536 76.544 134.24L75.008 135.44C73.952 133.64 73.088 132.488 71.768 131.192ZM77.888 135.608L78.464 137.36C76.184 139.016 75.32 139.544 71.888 141.44C71.36 141.752 71.072 141.92 70.664 142.184L69.728 140.216C70.832 139.88 71.768 139.472 73.304 138.608C75.248 137.528 76.304 136.856 77.888 135.608ZM102.848 123.296H105.104C105.032 123.68 104.96 124.784 104.96 125.48C104.96 127.016 105.248 129.632 105.56 130.904C106.064 132.944 107.408 135.704 108.872 137.624C109.76 138.8 111.056 140.12 112.304 141.128C113.024 141.704 113.6 142.088 114.92 142.856C114.224 143.48 113.96 143.84 113.48 144.68C110.576 142.688 108.896 141.08 107.192 138.68C105.728 136.592 104.792 134.432 104.048 131.336C103.616 133.52 103.208 134.768 102.344 136.544C101.48 138.368 100.4 139.832 98.84 141.392C97.496 142.712 96.584 143.432 94.592 144.68C94.16 143.912 93.824 143.504 93.152 142.952C95.96 141.416 97.376 140.288 98.96 138.248C101.696 134.768 102.944 130.712 102.944 125.312C102.944 124.352 102.92 123.92 102.848 123.296ZM129.536 136.376V142.184H135.944C137.216 142.184 138.008 142.136 138.776 142.016V144.128C137.984 144.008 137.168 143.96 135.944 143.96H120.176C118.928 143.96 118.136 144.008 117.344 144.128V142.016C118.016 142.136 118.832 142.184 120.056 142.184H121.592V136.16C121.592 135.056 121.544 134.288 121.448 133.496H123.632C123.512 134.24 123.464 134.984 123.464 136.16V142.184H127.64V132.008C127.64 130.856 127.592 130.16 127.496 129.368H129.704C129.584 130.136 129.536 130.784 129.536 131.96V134.6H133.688C134.84 134.6 135.584 134.552 136.184 134.456V136.52C135.512 136.424 134.792 136.376 133.688 136.376H129.536ZM127.04 123.248H128.984C130.064 124.976 131.264 126.272 133.208 127.808C135.176 129.368 137.12 130.52 139.376 131.456C138.824 132.152 138.656 132.44 138.296 133.304C136.232 132.32 133.904 130.832 132.104 129.344C130.352 127.88 129.344 126.776 128.072 125.024C126.8 126.8 126.008 127.712 124.448 129.128C122.48 130.928 120.488 132.32 118.112 133.544C117.776 132.776 117.608 132.512 117.008 131.792C119.192 130.784 121.304 129.416 123.2 127.76C124.928 126.248 126.032 124.952 127.04 123.248ZM151.016 132.32H144.776C143.648 132.32 142.952 132.344 142.256 132.44V130.712C142.928 130.808 143.576 130.832 144.776 130.832H148.088C147.728 129.848 147.416 129.176 146.936 128.36H144.032C142.88 128.36 142.016 128.408 141.296 128.48V126.704C141.992 126.8 142.736 126.848 143.984 126.848H145.376C144.944 126.056 144.392 125.336 143.504 124.4L145.16 123.68C146.192 124.952 146.528 125.504 147.224 126.848H149.048V125.048C149.048 124.256 149 123.608 148.904 123.08H150.848C150.776 123.536 150.752 124.088 150.752 125V126.848H153.032V125C153.032 124.16 153.008 123.536 152.936 123.08H154.88C154.784 123.56 154.736 124.256 154.736 125.048V126.848H156.8C157.76 125.528 158.24 124.688 158.672 123.56L160.424 124.28C159.752 125.384 159.32 126.056 158.696 126.848H159.944C161.192 126.848 161.912 126.8 162.608 126.704V128.48C161.912 128.408 161.024 128.36 159.872 128.36H157.16C156.752 129.272 156.416 130.04 155.96 130.832H159.2C160.424 130.832 161.048 130.808 161.744 130.712V132.44C161.048 132.344 160.352 132.32 159.2 132.32H152.72V133.88H157.808C158.96 133.88 159.704 133.856 160.352 133.76V135.44C159.68 135.344 158.96 135.32 157.808 135.32H152.72V136.976H159.872C161.24 136.976 161.984 136.928 162.632 136.832V138.632C161.768 138.536 160.976 138.488 159.896 138.488H154.04C155.936 140.264 159.272 141.704 163.16 142.4C162.656 143.024 162.44 143.384 162.104 144.152C157.52 142.856 155.264 141.632 152.648 139.088C152.696 140.048 152.72 140.528 152.72 141.032V142.52C152.72 143.552 152.768 144.296 152.864 144.992H150.896C150.992 144.248 151.04 143.504 151.04 142.496V141.032C151.04 140.504 151.064 139.976 151.112 139.112C149.72 140.504 148.856 141.152 147.368 142.016C145.88 142.856 144.464 143.456 142.256 144.152C141.896 143.408 141.656 143.072 141.128 142.472C144.896 141.656 147.488 140.456 149.72 138.488H144.248C143.168 138.488 142.328 138.536 141.488 138.632V136.832C142.184 136.928 142.928 136.976 144.224 136.976H151.016V135.32H146.216C145.088 135.32 144.344 135.344 143.696 135.44V133.76C144.392 133.856 145.112 133.88 146.216 133.88H151.016V132.32ZM149.888 130.832H154.112C154.592 129.968 154.88 129.272 155.216 128.36H148.88C149.36 129.392 149.552 129.824 149.888 130.832Z" fill="white"/>
<path d="M313.386 76.64V72.986C313.386 72.248 313.35 71.78 313.278 71.258H314.934C314.844 71.798 314.826 72.23 314.826 73.004V76.64H318.246C319.038 76.64 319.65 76.604 320.226 76.514V78.098C319.596 78.008 318.912 77.972 318.246 77.972H314.826V85.19H317.742C318.516 85.19 319.092 85.154 319.686 85.064V86.594C319.128 86.504 318.462 86.468 317.724 86.468H310.866C310.128 86.468 309.444 86.504 308.886 86.594V85.064C309.48 85.154 310.074 85.19 310.848 85.19H313.386V77.972H310.452C309.822 77.972 309.102 78.008 308.49 78.098V76.514C309.048 76.604 309.696 76.64 310.47 76.64H313.386ZM306.132 85.172V79.61C306.132 78.872 306.15 78.35 306.186 77.486C305.556 78.548 305.196 79.07 304.314 80.06C304.152 79.718 304.062 79.52 303.954 79.376C303.666 78.872 303.666 78.872 303.558 78.71C304.782 77.432 305.736 76.064 306.546 74.426C307.194 73.094 307.644 71.816 307.788 70.88L309.282 71.348C309.102 71.744 309.102 71.744 308.67 72.932C308.382 73.742 308.076 74.408 307.536 75.488V85.208C307.536 85.982 307.572 86.684 307.626 87.314H306.024C306.096 86.666 306.132 86.09 306.132 85.172ZM329.226 80.978V79.88H324.942C324.24 79.88 323.772 79.898 323.25 79.952V78.692C323.682 78.764 324.132 78.782 324.978 78.782H329.226V77.774H325.392C324.798 77.774 324.33 77.792 323.916 77.846C323.97 77.432 323.988 77.108 323.988 76.622V75.722C323.988 75.236 323.97 74.93 323.916 74.48C324.348 74.534 324.78 74.552 325.41 74.552H329.226V73.526H324.042C323.196 73.526 322.548 73.562 321.99 73.634V72.284C322.476 72.356 323.034 72.392 324.096 72.392H329.226C329.226 71.636 329.208 71.33 329.118 70.862H330.63C330.522 71.312 330.504 71.582 330.504 72.392H335.886C336.948 72.392 337.506 72.356 337.992 72.284V73.634C337.398 73.562 336.804 73.526 335.958 73.526H330.504V74.552H334.644C335.274 74.552 335.688 74.534 336.12 74.48C336.066 74.93 336.048 75.2 336.048 75.722V76.622C336.048 77.144 336.066 77.396 336.12 77.846C335.706 77.792 335.256 77.774 334.68 77.774H330.504V78.782H334.464C335.508 78.782 335.976 78.764 336.444 78.71C336.408 79.106 336.39 79.412 336.39 80.276V80.978C337.326 80.978 337.83 80.942 338.208 80.87V82.166C337.776 82.094 337.38 82.076 336.39 82.076V83.246C336.39 84.146 336.408 84.614 336.498 85.082H335.094V84.362H330.504V85.712C330.504 87.044 330.108 87.332 328.236 87.332C327.858 87.332 327.318 87.314 326.526 87.26C326.472 86.738 326.4 86.486 326.148 85.946C327.12 86.072 327.732 86.126 328.434 86.126C329.064 86.126 329.226 86.036 329.226 85.658V84.362H324.87C324.06 84.362 323.682 84.38 323.106 84.452V83.174C323.628 83.228 323.934 83.246 324.834 83.246H329.226V82.076H323.844C322.854 82.076 322.368 82.094 321.882 82.166V80.87C322.332 80.96 322.818 80.978 323.826 80.978H329.226ZM330.504 80.978H335.094V79.88H330.504V80.978ZM330.504 82.076V83.246H335.094V82.076H330.504ZM329.226 75.596H325.302V76.748H329.226V75.596ZM330.504 75.596V76.748H334.734V75.596H330.504ZM342.888 83.642H342.906C343.086 82.634 343.374 81.77 343.95 80.348L345.03 80.852C344.13 82.76 343.518 84.83 343.518 85.928C343.518 86 343.518 86.126 343.536 86.27L341.97 86.378C341.934 86.09 341.916 85.982 341.862 85.622C341.52 83.642 341.394 82.31 341.394 80.492C341.394 77.972 341.61 76.028 342.186 73.364C342.366 72.464 342.402 72.284 342.438 71.834L344.148 72.068C343.824 72.914 343.5 74.246 343.248 75.65C342.978 77.234 342.834 79.106 342.834 81.158C342.834 81.518 342.852 82.382 342.87 82.868C342.87 83.264 342.888 83.336 342.888 83.642ZM346.29 75.416L346.326 73.904C347.154 74.102 347.982 74.174 349.368 74.174C351.474 74.174 353.202 73.994 354.3 73.688L354.39 75.218C354.336 75.218 353.922 75.272 353.148 75.38C352.05 75.524 350.646 75.614 349.314 75.614C348.396 75.614 347.82 75.578 346.902 75.488C346.848 75.488 346.848 75.488 346.578 75.452C346.47 75.434 346.434 75.434 346.29 75.416ZM347.586 78.782L348.81 79.394C347.874 80.42 347.46 81.248 347.46 82.04C347.46 83.264 348.576 83.876 350.754 83.876C352.374 83.876 353.922 83.642 354.948 83.246L355.11 84.884C354.876 84.92 354.84 84.92 354.462 84.992C353.166 85.226 351.96 85.334 350.754 85.334C348.63 85.334 347.28 84.884 346.524 83.912C346.182 83.462 345.984 82.832 345.984 82.184C345.984 81.122 346.47 80.078 347.586 78.782ZM364.92 75.11H368.772C369.798 73.58 370.284 72.626 370.806 71.132L372.174 71.618C371.472 73.094 370.878 74.156 370.194 75.11H372.102C372.84 75.11 373.326 75.092 373.848 75.02V76.424C373.272 76.37 372.732 76.334 372.066 76.334H368.862V79.628H371.508C372.192 79.628 372.714 79.592 373.182 79.538V80.924C372.66 80.87 372.138 80.834 371.49 80.834H368.862V85.046C369.816 85.244 370.932 85.334 372.3 85.334C372.804 85.334 373.308 85.316 374.352 85.28C374.118 85.874 374.028 86.162 373.938 86.756C373.506 86.774 373.164 86.774 372.948 86.774C371.166 86.774 369.6 86.63 368.646 86.36C366.738 85.82 365.622 85.01 364.614 83.426C364.128 84.92 363.606 86.018 362.85 87.116C362.382 86.612 362.22 86.486 361.716 86.18C362.652 84.866 363.21 83.678 363.606 82.094C363.912 80.906 364.092 79.574 364.092 78.548C364.092 78.314 364.092 78.26 364.092 78.08L365.55 78.278C365.514 78.458 365.46 78.872 365.406 79.376C365.298 80.348 365.19 81.032 365.01 81.86C365.658 83.174 366.468 84.056 367.494 84.56V76.334H364.992C364.308 76.334 363.678 76.37 363.21 76.424V75.02C363.714 75.092 364.2 75.11 364.92 75.11ZM361.608 70.934L362.796 71.78C362.76 71.816 362.76 71.816 361.662 73.076C360.924 73.922 359.682 74.966 358.548 75.722C358.332 75.272 358.116 74.966 357.738 74.606C359.52 73.526 360.978 72.158 361.608 70.934ZM364.326 71.744L365.478 71.132C366.36 72.284 366.72 72.842 367.458 74.282L366.198 74.93C365.622 73.58 365.1 72.68 364.326 71.744ZM359.844 85.28V81.536C359.844 80.744 359.844 80.51 359.898 79.43C359.358 80.114 358.89 80.6 358.224 81.14C358.062 80.654 357.846 80.222 357.54 79.844C359.304 78.584 360.978 76.604 361.608 75.002L362.832 75.776C362.688 75.956 362.634 76.046 362.436 76.352C361.95 77.108 361.896 77.198 361.194 78.098V85.262C361.194 86.216 361.212 86.792 361.284 87.368H359.736C359.808 86.81 359.844 86.144 359.844 85.28ZM383.226 80.978V79.88H378.942C378.24 79.88 377.772 79.898 377.25 79.952V78.692C377.682 78.764 378.132 78.782 378.978 78.782H383.226V77.774H379.392C378.798 77.774 378.33 77.792 377.916 77.846C377.97 77.432 377.988 77.108 377.988 76.622V75.722C377.988 75.236 377.97 74.93 377.916 74.48C378.348 74.534 378.78 74.552 379.41 74.552H383.226V73.526H378.042C377.196 73.526 376.548 73.562 375.99 73.634V72.284C376.476 72.356 377.034 72.392 378.096 72.392H383.226C383.226 71.636 383.208 71.33 383.118 70.862H384.63C384.522 71.312 384.504 71.582 384.504 72.392H389.886C390.948 72.392 391.506 72.356 391.992 72.284V73.634C391.398 73.562 390.804 73.526 389.958 73.526H384.504V74.552H388.644C389.274 74.552 389.688 74.534 390.12 74.48C390.066 74.93 390.048 75.2 390.048 75.722V76.622C390.048 77.144 390.066 77.396 390.12 77.846C389.706 77.792 389.256 77.774 388.68 77.774H384.504V78.782H388.464C389.508 78.782 389.976 78.764 390.444 78.71C390.408 79.106 390.39 79.412 390.39 80.276V80.978C391.326 80.978 391.83 80.942 392.208 80.87V82.166C391.776 82.094 391.38 82.076 390.39 82.076V83.246C390.39 84.146 390.408 84.614 390.498 85.082H389.094V84.362H384.504V85.712C384.504 87.044 384.108 87.332 382.236 87.332C381.858 87.332 381.318 87.314 380.526 87.26C380.472 86.738 380.4 86.486 380.148 85.946C381.12 86.072 381.732 86.126 382.434 86.126C383.064 86.126 383.226 86.036 383.226 85.658V84.362H378.87C378.06 84.362 377.682 84.38 377.106 84.452V83.174C377.628 83.228 377.934 83.246 378.834 83.246H383.226V82.076H377.844C376.854 82.076 376.368 82.094 375.882 82.166V80.87C376.332 80.96 376.818 80.978 377.826 80.978H383.226ZM384.504 80.978H389.094V79.88H384.504V80.978ZM384.504 82.076V83.246H389.094V82.076H384.504ZM383.226 75.596H379.302V76.748H383.226V75.596ZM384.504 75.596V76.748H388.734V75.596H384.504Z" fill="#797979"/>
<path d="M235.939 104.939C235.354 105.525 235.354 106.475 235.939 107.061L245.485 116.607C246.071 117.192 247.021 117.192 247.607 116.607C248.192 116.021 248.192 115.071 247.607 114.485L239.121 106L247.607 97.5147C248.192 96.9289 248.192 95.9792 247.607 95.3934C247.021 94.8076 246.071 94.8076 245.485 95.3934L235.939 104.939ZM237 107.5H459V104.5H237V107.5Z" fill="#E68A00"/>
<path d="M460.061 131.061C460.646 130.475 460.646 129.525 460.061 128.939L450.515 119.393C449.929 118.808 448.979 118.808 448.393 119.393C447.808 119.979 447.808 120.929 448.393 121.515L456.879 130L448.393 138.485C447.808 139.071 447.808 140.021 448.393 140.607C448.979 141.192 449.929 141.192 450.515 140.607L460.061 131.061ZM237 131.5H459V128.5H237V131.5Z" fill="#14BB61"/>
<path d="M313.386 149.64V145.986C313.386 145.248 313.35 144.78 313.278 144.258H314.934C314.844 144.798 314.826 145.23 314.826 146.004V149.64H318.246C319.038 149.64 319.65 149.604 320.226 149.514V151.098C319.596 151.008 318.912 150.972 318.246 150.972H314.826V158.19H317.742C318.516 158.19 319.092 158.154 319.686 158.064V159.594C319.128 159.504 318.462 159.468 317.724 159.468H310.866C310.128 159.468 309.444 159.504 308.886 159.594V158.064C309.48 158.154 310.074 158.19 310.848 158.19H313.386V150.972H310.452C309.822 150.972 309.102 151.008 308.49 151.098V149.514C309.048 149.604 309.696 149.64 310.47 149.64H313.386ZM306.132 158.172V152.61C306.132 151.872 306.15 151.35 306.186 150.486C305.556 151.548 305.196 152.07 304.314 153.06C304.152 152.718 304.062 152.52 303.954 152.376C303.666 151.872 303.666 151.872 303.558 151.71C304.782 150.432 305.736 149.064 306.546 147.426C307.194 146.094 307.644 144.816 307.788 143.88L309.282 144.348C309.102 144.744 309.102 144.744 308.67 145.932C308.382 146.742 308.076 147.408 307.536 148.488V158.208C307.536 158.982 307.572 159.684 307.626 160.314H306.024C306.096 159.666 306.132 159.09 306.132 158.172ZM329.226 153.978V152.88H324.942C324.24 152.88 323.772 152.898 323.25 152.952V151.692C323.682 151.764 324.132 151.782 324.978 151.782H329.226V150.774H325.392C324.798 150.774 324.33 150.792 323.916 150.846C323.97 150.432 323.988 150.108 323.988 149.622V148.722C323.988 148.236 323.97 147.93 323.916 147.48C324.348 147.534 324.78 147.552 325.41 147.552H329.226V146.526H324.042C323.196 146.526 322.548 146.562 321.99 146.634V145.284C322.476 145.356 323.034 145.392 324.096 145.392H329.226C329.226 144.636 329.208 144.33 329.118 143.862H330.63C330.522 144.312 330.504 144.582 330.504 145.392H335.886C336.948 145.392 337.506 145.356 337.992 145.284V146.634C337.398 146.562 336.804 146.526 335.958 146.526H330.504V147.552H334.644C335.274 147.552 335.688 147.534 336.12 147.48C336.066 147.93 336.048 148.2 336.048 148.722V149.622C336.048 150.144 336.066 150.396 336.12 150.846C335.706 150.792 335.256 150.774 334.68 150.774H330.504V151.782H334.464C335.508 151.782 335.976 151.764 336.444 151.71C336.408 152.106 336.39 152.412 336.39 153.276V153.978C337.326 153.978 337.83 153.942 338.208 153.87V155.166C337.776 155.094 337.38 155.076 336.39 155.076V156.246C336.39 157.146 336.408 157.614 336.498 158.082H335.094V157.362H330.504V158.712C330.504 160.044 330.108 160.332 328.236 160.332C327.858 160.332 327.318 160.314 326.526 160.26C326.472 159.738 326.4 159.486 326.148 158.946C327.12 159.072 327.732 159.126 328.434 159.126C329.064 159.126 329.226 159.036 329.226 158.658V157.362H324.87C324.06 157.362 323.682 157.38 323.106 157.452V156.174C323.628 156.228 323.934 156.246 324.834 156.246H329.226V155.076H323.844C322.854 155.076 322.368 155.094 321.882 155.166V153.87C322.332 153.96 322.818 153.978 323.826 153.978H329.226ZM330.504 153.978H335.094V152.88H330.504V153.978ZM330.504 155.076V156.246H335.094V155.076H330.504ZM329.226 148.596H325.302V149.748H329.226V148.596ZM330.504 148.596V149.748H334.734V148.596H330.504ZM347.586 157.812C349.152 157.56 350.016 157.308 350.898 156.84C352.698 155.886 353.742 154.122 353.742 152.034C353.742 150.072 352.788 148.488 351.078 147.66C350.448 147.354 349.944 147.228 349.062 147.174C348.756 149.82 348.108 152.466 347.262 154.374C346.236 156.732 345.156 157.812 343.806 157.812C341.988 157.812 340.656 155.886 340.656 153.258C340.656 151.386 341.34 149.586 342.582 148.218C344.04 146.616 346.056 145.788 348.504 145.788C352.59 145.788 355.308 148.308 355.308 152.106C355.308 154.896 353.886 157.128 351.366 158.334C350.502 158.748 349.746 158.982 348.36 159.27C348.126 158.55 348 158.316 347.586 157.812ZM347.514 147.21C346.47 147.3 345.732 147.534 344.94 148.056C343.194 149.154 342.132 151.134 342.132 153.276C342.132 154.914 342.852 156.21 343.788 156.21C344.49 156.21 345.174 155.382 345.912 153.69C346.632 152.016 347.28 149.442 347.514 147.21ZM360.582 147.498V145.824C360.582 145.104 360.546 144.528 360.456 143.988H362.058C361.986 144.51 361.95 145.086 361.95 145.788V147.498H362.526C363.066 147.498 363.498 147.48 363.966 147.408V148.812C363.444 148.74 363.03 148.722 362.508 148.722H361.95V152.16C362.58 151.962 362.922 151.854 363.984 151.458L364.002 152.7C363.192 153.042 362.976 153.114 361.95 153.474V158.838C361.95 159.918 361.482 160.206 359.826 160.206C359.34 160.206 359.07 160.188 358.476 160.152C358.44 159.54 358.368 159.27 358.188 158.766C358.89 158.874 359.43 158.928 359.988 158.928C360.456 158.928 360.582 158.82 360.582 158.442V153.924C359.952 154.122 359.898 154.14 359.16 154.338C358.872 154.41 358.512 154.536 358.242 154.644L357.936 153.15C358.584 153.096 359.016 152.988 360.582 152.556V148.722H359.538C359.034 148.722 358.584 148.74 358.098 148.812V147.39C358.548 147.462 358.98 147.498 359.538 147.498H360.582ZM366.072 145.734V146.328C369.006 145.896 371.382 145.212 372.372 144.528L373.434 145.716C371.04 146.598 368.808 147.138 366.072 147.48V148.614C366.072 149.316 366.36 149.388 369.366 149.388C372.462 149.388 372.516 149.334 372.66 147.138C373.128 147.39 373.524 147.534 373.974 147.642C373.812 149.19 373.578 149.802 373.02 150.162C372.462 150.522 371.634 150.612 368.7 150.612C365.388 150.612 364.722 150.342 364.722 148.992V145.806C364.722 145.014 364.686 144.564 364.614 144.042H366.162C366.09 144.492 366.072 144.978 366.072 145.734ZM364.758 158.586V153.366C364.758 152.718 364.74 152.286 364.686 151.926C365.136 151.98 365.532 151.998 366.288 151.998H371.436C372.228 151.998 372.588 151.98 373.038 151.926C372.984 152.286 372.966 152.718 372.966 153.384V158.55C372.966 159.522 372.984 159.9 373.056 160.35H371.634V159.414H366.09V160.368H364.668C364.74 159.882 364.758 159.486 364.758 158.586ZM366.09 153.186V155.022H371.634V153.186H366.09ZM366.09 156.21V158.226H371.634V156.21H366.09ZM383.406 150.54H378.24C377.394 150.54 376.836 150.576 376.278 150.648V149.082C376.854 149.172 377.322 149.19 378.258 149.19H389.85C390.696 149.19 391.272 149.154 391.812 149.082V150.648C391.218 150.576 390.696 150.54 389.85 150.54H384.918V158.37C384.918 159.702 384.54 159.99 382.758 159.99C382.002 159.99 381.156 159.954 380.454 159.9C380.382 159.27 380.31 158.982 380.094 158.442C380.994 158.586 381.804 158.658 382.506 158.658C383.298 158.658 383.406 158.604 383.406 158.208V150.54ZM390.012 144.978V146.544C389.418 146.472 388.806 146.436 388.05 146.436H379.878C379.194 146.436 378.528 146.472 377.934 146.544V144.978C378.492 145.05 379.068 145.086 379.896 145.086H388.05C388.824 145.086 389.454 145.05 390.012 144.978ZM379.608 151.962L381.012 152.484C380.112 155.058 378.852 157.128 377.196 158.766C376.71 158.28 376.476 158.1 375.954 157.794C377.574 156.444 378.996 154.176 379.608 151.962ZM387.204 152.484L388.482 151.944C389.274 153.744 389.832 154.716 390.822 155.976C391.326 156.624 391.668 156.984 392.316 157.596C391.884 157.92 391.596 158.19 391.128 158.712C389.31 156.696 388.464 155.346 387.204 152.484Z" fill="#797979"/>
<path d="M193.606 305.066L194.578 306.164C194.434 306.218 194.38 306.236 194.182 306.308C193.246 306.686 192.454 306.938 191.464 307.172C191.608 308.756 191.68 309.278 191.914 310.376C192.832 309.89 193.552 309.386 194.344 308.666L195.19 309.674C193.804 310.682 193.084 311.132 192.238 311.582C192.994 314.156 193.804 315.542 195.352 317.036C194.866 317.522 194.794 317.63 194.344 318.296C192.922 316.712 192.13 315.308 191.392 313.13C190.816 311.366 190.564 310.16 190.24 307.424C189.628 307.55 189.43 307.586 188.728 307.676V316.28C188.728 317.144 188.764 317.72 188.836 318.242H187.288C187.36 317.684 187.396 317.054 187.396 316.262V307.82C186.838 307.874 186.802 307.874 185.434 307.964C185.308 313.184 184.714 315.92 183.238 318.296C182.878 317.846 182.626 317.594 182.104 317.288C182.842 316.244 183.274 315.128 183.616 313.436C184.012 311.474 184.156 309.53 184.156 306.11C184.156 305.066 184.138 304.454 184.084 303.716C184.3 303.734 184.426 303.734 184.534 303.734C185.974 303.734 188.71 303.32 190.618 302.816C191.608 302.564 192.382 302.258 192.976 301.898L194.11 303.05C193.804 303.158 193.804 303.158 193.3 303.338C191.086 304.166 188.602 304.67 185.452 304.904V306.794C188.242 306.65 189.826 306.416 191.626 305.894C192.562 305.624 193.138 305.372 193.606 305.066ZM179.494 303.23L180.376 302.24C181.528 303.032 182.338 303.698 183.202 304.58L182.356 305.66C181.276 304.508 180.736 304.058 179.494 303.23ZM178.828 307.712L179.602 306.686C180.844 307.424 181.492 307.874 182.644 308.864L181.852 310.034C180.556 308.828 180.124 308.504 178.828 307.712ZM181.24 311.636L182.356 312.482C181.834 314.156 181.402 315.326 180.88 316.388C180.79 316.568 180.574 317 179.998 318.098L178.792 317C179.53 316.28 180.448 314.264 181.24 311.636ZM188.404 325.876H185.614C185.002 325.876 184.606 325.894 184.228 325.93C184.264 325.588 184.282 325.318 184.282 324.76V324.04C184.282 323.572 184.264 323.284 184.21 322.888C184.57 322.942 184.966 322.96 185.614 322.96H188.404C188.386 322.438 188.368 322.24 188.296 321.898H189.718C189.646 322.258 189.628 322.474 189.61 322.96H192.58C193.228 322.96 193.606 322.942 193.984 322.888C193.93 323.23 193.912 323.59 193.912 324.04V324.76C193.912 325.228 193.93 325.588 193.984 325.93C193.606 325.894 193.048 325.876 192.58 325.876H189.61V326.776H193.48C194.236 326.776 194.578 326.758 195.064 326.686V327.928C194.524 327.856 194.2 327.838 193.48 327.838H184.48C183.706 327.838 183.328 327.856 182.896 327.928V326.686C183.31 326.758 183.688 326.776 184.48 326.776H188.404V325.876ZM188.404 323.914H185.524V324.94H188.404V323.914ZM189.61 323.914V324.94H192.652V323.914H189.61ZM192.85 335.542H185.848C185.416 335.542 185.002 335.56 184.66 335.596C184.696 335.254 184.714 334.912 184.714 334.516V329.674C184.714 329.242 184.696 328.882 184.66 328.63C184.93 328.666 185.272 328.684 185.83 328.684H192.256C192.85 328.684 193.138 328.666 193.426 328.63C193.39 328.864 193.372 329.152 193.372 329.602V330.664C193.372 331.132 193.39 331.438 193.426 331.672C193.138 331.636 192.76 331.618 192.274 331.618H185.974V332.446H192.868C193.408 332.446 193.768 332.428 194.038 332.392C194.002 332.626 193.984 332.932 193.984 333.382V334.606C193.984 335.038 194.002 335.344 194.038 335.596C193.75 335.56 193.336 335.542 192.85 335.542ZM185.974 329.674V330.628H192.094V329.674H185.974ZM185.974 334.534H192.688V333.454H185.974V334.534ZM179.152 323.176L180.142 322.276C181.51 323.554 182.05 324.13 183.094 325.48L182.014 326.47C180.988 325.03 180.358 324.292 179.152 323.176ZM178.918 330.448V329.044C179.368 329.116 179.674 329.134 180.322 329.134H181.384C181.888 329.134 182.338 329.098 182.77 329.044C182.698 329.602 182.68 330.07 182.68 330.97V334.66C182.968 335.236 183.184 335.524 183.598 335.794C184.606 336.46 185.668 336.676 188.062 336.676C191.644 336.676 193.732 336.568 195.532 336.316C195.244 337.036 195.172 337.27 195.082 337.81C193.174 337.882 191.392 337.918 189.16 337.918C185.848 337.918 184.894 337.81 183.832 337.306C183.112 336.982 182.5 336.46 181.978 335.704C181.222 336.46 180.718 336.892 179.926 337.468C179.62 337.702 179.458 337.828 179.224 338.062L178.54 336.622C179.278 336.316 180.286 335.578 181.348 334.57V330.358H180.214C179.656 330.358 179.368 330.376 178.918 330.448ZM192.76 353.58H188.17C189.232 355.272 191.698 356.442 195.172 356.91C194.812 357.414 194.686 357.684 194.47 358.296C192.418 357.9 190.726 357.288 189.448 356.46C188.386 355.794 187.648 355.038 186.928 353.904C186.262 355.164 185.344 356.118 184.084 356.838C182.95 357.522 181.636 357.936 179.602 358.278C179.386 357.684 179.296 357.522 178.9 356.946C181.33 356.658 182.608 356.28 183.886 355.452C184.642 354.966 185.164 354.408 185.632 353.58H181.33C180.286 353.58 179.71 353.598 179.188 353.67V352.266C179.71 352.338 180.34 352.374 181.33 352.374H186.118C186.226 351.924 186.28 351.564 186.28 351.258C186.28 351.15 186.262 351.06 186.244 350.916L187.81 350.97C187.72 351.24 187.72 351.24 187.648 351.654C187.63 351.798 187.594 351.96 187.486 352.374H192.724C193.732 352.374 194.362 352.338 194.83 352.266V353.67C194.308 353.616 193.714 353.58 192.76 353.58ZM182.572 344.976H180.754C180.178 344.976 179.836 344.994 179.35 345.048V343.734C179.782 343.806 180.178 343.824 180.754 343.824H182.554L182.536 343.428C182.536 343.032 182.482 342.51 182.428 342.114L183.886 342.096C183.832 342.366 183.814 342.654 183.814 343.05C183.814 343.122 183.814 343.248 183.814 343.428L183.832 343.824H185.452C185.956 343.824 186.352 343.806 186.82 343.752V345.048C186.316 344.994 185.974 344.976 185.47 344.976H183.85L183.886 346.452H185.128C185.74 346.452 186.028 346.434 186.442 346.38V347.64C185.974 347.586 185.722 347.568 185.11 347.568H183.922L183.958 349.188C184.912 349.044 185.326 348.972 186.406 348.738V349.638C188.422 348.432 189.142 346.992 189.214 344.058H188.746C188.098 344.058 187.54 344.094 187.144 344.148V342.762C187.594 342.834 188.296 342.87 189.07 342.87H193.012C193.84 342.87 194.308 342.852 194.704 342.816C194.65 343.194 194.632 343.428 194.614 343.878C194.542 346.002 194.326 348.234 194.128 349.17C193.984 349.836 193.714 350.25 193.282 350.484C193.048 350.592 192.49 350.682 191.86 350.682C191.482 350.682 190.744 350.628 190.204 350.574C190.15 349.98 190.078 349.674 189.844 349.134C190.672 349.314 191.428 349.422 191.95 349.422C192.598 349.422 192.814 349.188 192.958 348.234C193.174 346.974 193.192 346.56 193.264 344.058H190.582C190.474 345.93 190.24 346.938 189.7 348.054C189.106 349.242 188.242 350.124 186.856 350.952C186.406 350.34 186.262 350.178 185.992 349.962C184.138 350.376 182.482 350.646 179.98 350.916C179.746 350.934 179.548 350.97 179.206 351.006L179.008 349.638C179.17 349.656 179.35 349.674 179.44 349.674C180.07 349.674 180.808 349.602 182.68 349.368L182.644 347.568H181.132C180.52 347.568 180.196 347.586 179.746 347.64V346.38C180.178 346.434 180.466 346.452 181.168 346.452H182.608L182.572 344.976ZM179.062 371.114L178.864 369.746C179.116 369.782 179.26 369.8 179.548 369.8C179.71 369.8 179.854 369.8 180.394 369.782C181.006 369.044 181.204 368.81 181.672 368.162C180.754 367.028 180.358 366.614 179.026 365.426L179.8 364.418L180.502 365.12C181.384 363.77 182.014 362.582 182.194 361.916L183.49 362.474C183.346 362.636 183.274 362.762 183.076 363.14C182.608 364.022 181.924 365.12 181.33 365.948C181.726 366.344 181.906 366.542 182.41 367.136C183.67 365.3 184.192 364.436 184.444 363.806L185.668 364.526C185.506 364.742 185.38 364.904 185.128 365.282C183.904 367.136 182.77 368.702 181.888 369.71C183.274 369.62 183.58 369.584 184.534 369.476C184.318 368.954 184.228 368.756 183.886 368.108L184.858 367.712C185.47 368.81 185.902 369.782 186.406 371.168L185.308 371.636C185.146 371.06 185.074 370.88 184.966 370.538C184.768 370.556 184.624 370.574 184.516 370.592C184.12 370.628 184.12 370.628 183.382 370.718V376.568C183.382 377.36 183.418 377.864 183.49 378.422H181.996C182.068 377.918 182.104 377.342 182.104 376.55V370.844C180.862 370.952 180.862 370.952 180.178 371.006C179.422 371.06 179.404 371.06 179.062 371.114ZM193.3 366.182H188.35C187.792 367.28 187.288 368.09 186.55 368.99C186.208 368.594 185.92 368.36 185.47 368.09C186.298 367.172 186.964 366.11 187.522 364.85C188.044 363.644 188.296 362.852 188.422 362.078L189.88 362.402C189.718 362.762 189.718 362.762 189.466 363.5C189.286 364.04 189.16 364.346 188.944 364.886H193.282C194.02 364.886 194.362 364.868 194.74 364.814C194.686 365.372 194.686 365.372 194.65 367.694C194.632 370.61 194.29 374.264 193.894 375.938C193.462 377.702 192.994 378.062 191.068 378.062C190.6 378.062 190.06 378.026 189.286 377.972C189.214 377.396 189.124 377.036 188.926 376.496C189.88 376.658 190.618 376.73 191.302 376.73C192.148 376.73 192.346 376.514 192.598 375.362C193.012 373.436 193.282 370.016 193.3 366.182ZM179.944 371.906L181.114 372.122C180.826 374.75 180.628 375.704 180.016 377.288L178.846 376.73C179.458 375.326 179.692 374.264 179.944 371.906ZM184.282 372.104L185.344 371.798C185.794 373.328 186.082 374.588 186.352 376.172L185.146 376.514C184.948 374.912 184.678 373.49 184.282 372.104ZM191.194 372.788L189.97 373.472C189.16 371.402 188.728 370.592 187.612 368.99L188.728 368.342C189.88 369.998 190.384 370.898 191.194 372.788Z" fill="#797979"/>
<path d="M492.808 315.29V316.568H496.336C497.11 316.568 497.434 316.55 497.83 316.478V317.792C497.344 317.702 496.93 317.684 496.282 317.684H487.786V318.458H486.418C486.49 317.954 486.508 317.486 486.508 316.694V313.382C486.508 313.04 486.508 312.932 486.562 312.032C486.166 312.554 485.788 312.968 485.302 313.418C485.158 313.04 485.014 312.806 484.744 312.482C484.438 314.84 483.898 316.406 482.764 318.242C482.386 317.81 482.098 317.576 481.612 317.27C483.322 314.732 483.682 312.896 483.682 306.56C483.682 305.858 483.664 305.264 483.61 304.832C484.042 304.886 484.6 304.904 485.59 304.904H495.166C495.976 304.904 496.3 304.886 496.93 304.832C496.894 305.174 496.876 305.48 496.876 305.912V307.532C496.876 307.928 496.894 308.234 496.93 308.522C496.516 308.486 496.174 308.468 495.238 308.468H484.996C484.942 310.304 484.906 311.006 484.78 312.158C486.184 311.114 487.012 310.052 487.66 308.486L488.902 308.9C488.56 309.476 488.506 309.548 488.29 309.836H491.566C491.944 309.368 492.196 308.918 492.376 308.468L493.618 308.882C493.276 309.35 493.132 309.566 492.898 309.836H496.048C496.858 309.836 497.182 309.818 497.614 309.746V310.952C497.218 310.898 496.786 310.88 496.12 310.88H492.808V312.068H495.652C496.48 312.068 496.75 312.05 497.11 311.996V313.148C496.732 313.094 496.462 313.076 495.652 313.076H492.808V314.282H495.652C496.498 314.282 496.732 314.264 497.11 314.21V315.362C496.75 315.308 496.444 315.29 495.652 315.29H492.808ZM491.566 315.29H487.786V316.568H491.566V315.29ZM491.566 314.282V313.076H487.786V314.282H491.566ZM491.566 312.068V310.88H487.786V312.068H491.566ZM485.014 307.406H495.58V306.02H485.032V306.578C485.032 307.028 485.032 307.046 485.014 307.406ZM498.01 302.438V303.788C497.38 303.734 496.93 303.716 495.976 303.716H484.492C483.646 303.716 483.034 303.734 482.476 303.788V302.438C483.07 302.51 483.61 302.546 484.492 302.546H495.976C496.894 302.546 497.416 302.51 498.01 302.438ZM490.792 332.482V335.758C490.792 336.73 490.81 337.306 490.882 337.774H489.37C489.442 337.252 489.46 336.748 489.46 335.776V332.482H484.726C484.474 335.056 484.024 336.46 482.836 338.332C482.35 337.864 482.17 337.738 481.594 337.378C483.25 335.146 483.556 333.22 483.556 324.85C483.556 323.896 483.538 323.356 483.484 322.708C484.024 322.762 484.546 322.78 485.482 322.78H495.274C496.21 322.78 496.696 322.762 497.236 322.708C497.182 323.248 497.164 323.68 497.164 324.544V336.55C497.164 337.792 496.732 338.08 494.824 338.08C494.248 338.08 493.42 338.044 492.718 337.99C492.664 337.504 492.592 337.18 492.394 336.622C493.384 336.748 494.23 336.82 494.842 336.82C495.67 336.82 495.814 336.73 495.814 336.298V332.482H490.792ZM490.792 326.992H495.814V324.076H490.792V326.992ZM489.46 326.992V324.076H484.924V326.146L484.906 326.992H489.46ZM490.792 328.252V331.204H495.814V328.252H490.792ZM489.46 328.252H484.888C484.87 328.756 484.87 329.17 484.87 329.422C484.852 330.394 484.852 330.394 484.816 331.204H489.46V328.252ZM495.76 353.58H491.17C492.232 355.272 494.698 356.442 498.172 356.91C497.812 357.414 497.686 357.684 497.47 358.296C495.418 357.9 493.726 357.288 492.448 356.46C491.386 355.794 490.648 355.038 489.928 353.904C489.262 355.164 488.344 356.118 487.084 356.838C485.95 357.522 484.636 357.936 482.602 358.278C482.386 357.684 482.296 357.522 481.9 356.946C484.33 356.658 485.608 356.28 486.886 355.452C487.642 354.966 488.164 354.408 488.632 353.58H484.33C483.286 353.58 482.71 353.598 482.188 353.67V352.266C482.71 352.338 483.34 352.374 484.33 352.374H489.118C489.226 351.924 489.28 351.564 489.28 351.258C489.28 351.15 489.262 351.06 489.244 350.916L490.81 350.97C490.72 351.24 490.72 351.24 490.648 351.654C490.63 351.798 490.594 351.96 490.486 352.374H495.724C496.732 352.374 497.362 352.338 497.83 352.266V353.67C497.308 353.616 496.714 353.58 495.76 353.58ZM485.572 344.976H483.754C483.178 344.976 482.836 344.994 482.35 345.048V343.734C482.782 343.806 483.178 343.824 483.754 343.824H485.554L485.536 343.428C485.536 343.032 485.482 342.51 485.428 342.114L486.886 342.096C486.832 342.366 486.814 342.654 486.814 343.05C486.814 343.122 486.814 343.248 486.814 343.428L486.832 343.824H488.452C488.956 343.824 489.352 343.806 489.82 343.752V345.048C489.316 344.994 488.974 344.976 488.47 344.976H486.85L486.886 346.452H488.128C488.74 346.452 489.028 346.434 489.442 346.38V347.64C488.974 347.586 488.722 347.568 488.11 347.568H486.922L486.958 349.188C487.912 349.044 488.326 348.972 489.406 348.738V349.638C491.422 348.432 492.142 346.992 492.214 344.058H491.746C491.098 344.058 490.54 344.094 490.144 344.148V342.762C490.594 342.834 491.296 342.87 492.07 342.87H496.012C496.84 342.87 497.308 342.852 497.704 342.816C497.65 343.194 497.632 343.428 497.614 343.878C497.542 346.002 497.326 348.234 497.128 349.17C496.984 349.836 496.714 350.25 496.282 350.484C496.048 350.592 495.49 350.682 494.86 350.682C494.482 350.682 493.744 350.628 493.204 350.574C493.15 349.98 493.078 349.674 492.844 349.134C493.672 349.314 494.428 349.422 494.95 349.422C495.598 349.422 495.814 349.188 495.958 348.234C496.174 346.974 496.192 346.56 496.264 344.058H493.582C493.474 345.93 493.24 346.938 492.7 348.054C492.106 349.242 491.242 350.124 489.856 350.952C489.406 350.34 489.262 350.178 488.992 349.962C487.138 350.376 485.482 350.646 482.98 350.916C482.746 350.934 482.548 350.97 482.206 351.006L482.008 349.638C482.17 349.656 482.35 349.674 482.44 349.674C483.07 349.674 483.808 349.602 485.68 349.368L485.644 347.568H484.132C483.52 347.568 483.196 347.586 482.746 347.64V346.38C483.178 346.434 483.466 346.452 484.168 346.452H485.608L485.572 344.976ZM482.062 371.114L481.864 369.746C482.116 369.782 482.26 369.8 482.548 369.8C482.71 369.8 482.854 369.8 483.394 369.782C484.006 369.044 484.204 368.81 484.672 368.162C483.754 367.028 483.358 366.614 482.026 365.426L482.8 364.418L483.502 365.12C484.384 363.77 485.014 362.582 485.194 361.916L486.49 362.474C486.346 362.636 486.274 362.762 486.076 363.14C485.608 364.022 484.924 365.12 484.33 365.948C484.726 366.344 484.906 366.542 485.41 367.136C486.67 365.3 487.192 364.436 487.444 363.806L488.668 364.526C488.506 364.742 488.38 364.904 488.128 365.282C486.904 367.136 485.77 368.702 484.888 369.71C486.274 369.62 486.58 369.584 487.534 369.476C487.318 368.954 487.228 368.756 486.886 368.108L487.858 367.712C488.47 368.81 488.902 369.782 489.406 371.168L488.308 371.636C488.146 371.06 488.074 370.88 487.966 370.538C487.768 370.556 487.624 370.574 487.516 370.592C487.12 370.628 487.12 370.628 486.382 370.718V376.568C486.382 377.36 486.418 377.864 486.49 378.422H484.996C485.068 377.918 485.104 377.342 485.104 376.55V370.844C483.862 370.952 483.862 370.952 483.178 371.006C482.422 371.06 482.404 371.06 482.062 371.114ZM496.3 366.182H491.35C490.792 367.28 490.288 368.09 489.55 368.99C489.208 368.594 488.92 368.36 488.47 368.09C489.298 367.172 489.964 366.11 490.522 364.85C491.044 363.644 491.296 362.852 491.422 362.078L492.88 362.402C492.718 362.762 492.718 362.762 492.466 363.5C492.286 364.04 492.16 364.346 491.944 364.886H496.282C497.02 364.886 497.362 364.868 497.74 364.814C497.686 365.372 497.686 365.372 497.65 367.694C497.632 370.61 497.29 374.264 496.894 375.938C496.462 377.702 495.994 378.062 494.068 378.062C493.6 378.062 493.06 378.026 492.286 377.972C492.214 377.396 492.124 377.036 491.926 376.496C492.88 376.658 493.618 376.73 494.302 376.73C495.148 376.73 495.346 376.514 495.598 375.362C496.012 373.436 496.282 370.016 496.3 366.182ZM482.944 371.906L484.114 372.122C483.826 374.75 483.628 375.704 483.016 377.288L481.846 376.73C482.458 375.326 482.692 374.264 482.944 371.906ZM487.282 372.104L488.344 371.798C488.794 373.328 489.082 374.588 489.352 376.172L488.146 376.514C487.948 374.912 487.678 373.49 487.282 372.104ZM494.194 372.788L492.97 373.472C492.16 371.402 491.728 370.592 490.612 368.99L491.728 368.342C492.88 369.998 493.384 370.898 494.194 372.788Z" fill="#797979"/>
<path d="M262.285 375.205C263.108 375.306 263.856 374.721 263.957 373.898L265.598 360.498C265.698 359.676 265.113 358.928 264.291 358.827C263.469 358.727 262.72 359.312 262.62 360.134L261.161 372.045L249.25 370.586C248.428 370.486 247.68 371.071 247.579 371.893C247.478 372.715 248.063 373.463 248.886 373.564L262.285 375.205ZM263.649 372.792L157.533 237.06L155.169 238.908L261.286 374.64L263.649 372.792Z" fill="#14BB61"/>
<path d="M183.638 215.745C182.815 215.644 182.067 216.229 181.966 217.051L180.326 230.451C180.225 231.274 180.81 232.022 181.632 232.123C182.454 232.223 183.203 231.638 183.303 230.816L184.762 218.905L196.673 220.364C197.495 220.464 198.243 219.879 198.344 219.057C198.445 218.235 197.86 217.486 197.038 217.386L183.638 215.745ZM290.754 352.042L184.637 216.31L182.274 218.158L288.391 353.89L290.754 352.042Z" fill="#FA2204"/>
<path d="M391.495 343.758C391.594 344.581 392.342 345.167 393.164 345.068L406.567 343.449C407.389 343.35 407.976 342.603 407.876 341.78C407.777 340.958 407.03 340.372 406.207 340.471L394.294 341.909L392.855 329.996C392.756 329.173 392.009 328.587 391.186 328.686C390.364 328.786 389.778 329.533 389.877 330.355L391.495 343.758ZM394.165 344.504L500.511 208.952L498.151 207.1L391.804 342.652L394.165 344.504Z" fill="#E68A00"/>
<path d="M527.461 229.188C527.361 228.365 526.614 227.779 525.792 227.878L512.389 229.497C511.566 229.596 510.98 230.343 511.08 231.166C511.179 231.988 511.926 232.574 512.749 232.475L524.662 231.037L526.1 242.95C526.2 243.773 526.947 244.359 527.769 244.259C528.592 244.16 529.178 243.413 529.079 242.59L527.461 229.188ZM420.805 365.846L527.152 230.293L524.791 228.442L418.445 363.994L420.805 365.846Z" fill="#FA2204"/>
<defs>
<filter id="filter0_d_1199_17197" x="325.01" y="475" width="45.9795" height="50" filterUnits="userSpaceOnUse" color-interpolation-filters="sRGB">
<feFlood flood-opacity="0" result="BackgroundImageFix"/>
<feColorMatrix in="SourceAlpha" type="matrix" values="0 0 0 0 0 0 0 0 0 0 0 0 0 0 0 0 0 0 127 0" result="hardAlpha"/>
<feOffset dy="4"/>
<feGaussianBlur stdDeviation="2"/>
<feComposite in2="hardAlpha" operator="out"/>
<feColorMatrix type="matrix" values="0 0 0 0 0 0 0 0 0 0 0 0 0 0 0 0 0 0 0.25 0"/>
<feBlend mode="normal" in2="BackgroundImageFix" result="effect1_dropShadow_1199_17197"/>
<feBlend mode="normal" in="SourceGraphic" in2="effect1_dropShadow_1199_17197" result="shape"/>
</filter>
</defs>
</svg>
