<svg width="64" height="62" viewBox="0 0 64 62" fill="none" xmlns="http://www.w3.org/2000/svg">
<g filter="url(#filter0_d_1417_70)">
<path d="M16.976 56.0396H16.3791C16.4028 55.8854 16.4107 55.7312 16.4107 55.5256V53.3473H16.2209C16.0747 53.3473 15.96 53.3552 15.8137 53.371V52.8689C15.9363 52.8887 16.0233 52.8926 16.2091 52.8926H16.5728C16.7744 52.8926 16.8337 52.8887 16.976 52.8729C16.9523 53.1061 16.9444 53.288 16.9444 53.5252V55.5256C16.9444 55.7352 16.9523 55.8775 16.976 56.0396Z" fill="#02409B"/>
<path d="M19.4229 56.1028C19.0869 56.1028 18.8022 55.9921 18.5927 55.7826C18.4741 55.664 18.3831 55.5256 18.3317 55.3833C18.229 55.1026 18.1776 54.7942 18.1776 54.474C18.1776 54.0549 18.2724 53.6201 18.4187 53.3789C18.6322 53.0231 18.988 52.8294 19.4269 52.8294C19.7629 52.8294 20.0515 52.9401 20.261 53.1496C20.3796 53.2682 20.4706 53.4066 20.522 53.5489C20.6248 53.8256 20.6762 54.1419 20.6762 54.4661C20.6762 54.9524 20.5694 55.3794 20.3836 55.6363C20.1622 55.9447 19.8341 56.1028 19.4229 56.1028ZM19.4269 55.6442C19.6008 55.6442 19.755 55.5849 19.8538 55.4782C20.0317 55.2924 20.1306 54.9247 20.1306 54.4621C20.1306 54.0035 20.0317 53.6438 19.8538 53.4501C19.7589 53.3433 19.6008 53.284 19.4229 53.284C19.2331 53.284 19.0948 53.3473 18.9801 53.4856C18.8062 53.6912 18.7192 54.0154 18.7192 54.4463C18.7192 54.8614 18.7943 55.2054 18.9208 55.3873C19.0434 55.5612 19.2094 55.6442 19.4269 55.6442Z" fill="#02409B"/>
<path d="M21.7156 54.391C21.5495 54.3475 21.4467 54.2882 21.3321 54.1735C21.2095 54.047 21.1384 53.8533 21.1384 53.6517C21.1384 53.1456 21.5653 52.8254 22.2414 52.8254C22.7198 52.8254 23.0716 52.9796 23.2416 53.2563C23.3088 53.367 23.3484 53.5094 23.3484 53.6517C23.3484 54.0194 23.1388 54.2882 22.7791 54.391C22.957 54.4147 23.0756 54.4661 23.206 54.5768C23.3919 54.727 23.4828 54.9326 23.4828 55.1935C23.4828 55.7826 23.04 56.1068 22.2295 56.1068C21.7709 56.1068 21.4547 56.008 21.2293 55.7905C21.083 55.6482 21 55.4347 21 55.1975C21 54.9208 21.1067 54.7033 21.3242 54.5491C21.4547 54.4582 21.5535 54.4187 21.7156 54.391ZM22.2414 53.2524C21.8935 53.2524 21.6681 53.4303 21.6681 53.707C21.6681 53.9956 21.8895 54.1775 22.2493 54.1775C22.6012 54.1775 22.8146 53.9996 22.8146 53.711C22.8146 53.4303 22.5933 53.2524 22.2414 53.2524ZM22.2335 55.6719C22.6763 55.6719 22.9253 55.4861 22.9253 55.154C22.9253 54.8259 22.6684 54.6282 22.2414 54.6282C21.8144 54.6282 21.5535 54.8298 21.5535 55.158C21.5535 55.4821 21.8065 55.6719 22.2335 55.6719Z" fill="#02409B"/>
<path d="M26.2103 53.537L25.6766 53.6635C25.5738 53.3749 25.4276 53.2642 25.1469 53.2642C24.8662 53.2642 24.6606 53.4026 24.5262 53.6754C24.4273 53.881 24.3838 54.0708 24.3641 54.3752C24.5776 54.0866 24.8108 53.9798 25.2101 53.9798C25.6134 53.9798 25.9534 54.1538 26.1273 54.4503C26.2222 54.6045 26.2696 54.8101 26.2696 55.0433C26.2696 55.668 25.7952 56.1107 25.1231 56.1107C24.8069 56.1107 24.5143 56.0159 24.3206 55.8498C24.028 55.5968 23.862 55.1224 23.862 54.5254C23.862 54.0391 23.9845 53.5726 24.1862 53.3038C24.4194 52.9875 24.7357 52.8333 25.1508 52.8333C25.4908 52.8333 25.7715 52.9361 25.9613 53.1338C26.0641 53.2405 26.1234 53.3315 26.2103 53.537ZM25.1192 54.4108C24.7317 54.4108 24.4431 54.6796 24.4431 55.0433C24.4431 55.4031 24.7238 55.668 25.1113 55.668C25.3406 55.668 25.5422 55.5652 25.6529 55.3912C25.7122 55.3003 25.7438 55.1698 25.7438 55.0314C25.7438 54.6401 25.5106 54.4108 25.1192 54.4108Z" fill="#02409B"/>
<path d="M27.8665 56.1028C27.5305 56.1028 27.2458 55.9921 27.0363 55.7826C26.9177 55.664 26.8267 55.5256 26.7753 55.3833C26.6726 55.1026 26.6212 54.7942 26.6212 54.474C26.6212 54.0549 26.716 53.6201 26.8623 53.3789C27.0758 53.0231 27.4316 52.8294 27.8705 52.8294C28.2065 52.8294 28.4951 52.9401 28.7046 53.1496C28.8232 53.2682 28.9142 53.4066 28.9656 53.5489C29.0684 53.8256 29.1198 54.1419 29.1198 54.4661C29.1198 54.9524 29.013 55.3794 28.8272 55.6363C28.6058 55.9447 28.2777 56.1028 27.8665 56.1028ZM27.8705 55.6442C28.0444 55.6442 28.1986 55.5849 28.2974 55.4782C28.4753 55.2924 28.5742 54.9247 28.5742 54.4621C28.5742 54.0035 28.4753 53.6438 28.2974 53.4501C28.2026 53.3433 28.0444 53.284 27.8665 53.284C27.6767 53.284 27.5384 53.3473 27.4237 53.4856C27.2498 53.6912 27.1628 54.0154 27.1628 54.4463C27.1628 54.8614 27.2379 55.2054 27.3644 55.3873C27.487 55.5612 27.653 55.6442 27.8705 55.6442Z" fill="#02409B"/>
<path d="M30.681 56.1028C30.345 56.1028 30.0603 55.9921 29.8508 55.7826C29.7322 55.664 29.6413 55.5256 29.5899 55.3833C29.4871 55.1026 29.4357 54.7942 29.4357 54.474C29.4357 54.0549 29.5306 53.6201 29.6769 53.3789C29.8903 53.0231 30.2462 52.8294 30.685 52.8294C31.021 52.8294 31.3096 52.9401 31.5192 53.1496C31.6378 53.2682 31.7287 53.4066 31.7801 53.5489C31.8829 53.8256 31.9343 54.1419 31.9343 54.4661C31.9343 54.9524 31.8276 55.3794 31.6417 55.6363C31.4203 55.9447 31.0922 56.1028 30.681 56.1028ZM30.685 55.6442C30.8589 55.6442 31.0131 55.5849 31.112 55.4782C31.2899 55.2924 31.3887 54.9247 31.3887 54.4621C31.3887 54.0035 31.2899 53.6438 31.112 53.4501C31.0171 53.3433 30.8589 53.284 30.681 53.284C30.4913 53.284 30.3529 53.3473 30.2383 53.4856C30.0643 53.6912 29.9773 54.0154 29.9773 54.4463C29.9773 54.8614 30.0524 55.2054 30.179 55.3873C30.3015 55.5612 30.4676 55.6442 30.685 55.6442Z" fill="#02409B"/>
<path d="M33.4956 56.1028C33.1595 56.1028 32.8749 55.9921 32.6653 55.7826C32.5467 55.664 32.4558 55.5256 32.4044 55.3833C32.3016 55.1026 32.2502 54.7942 32.2502 54.474C32.2502 54.0549 32.3451 53.6201 32.4914 53.3789C32.7049 53.0231 33.0607 52.8294 33.4995 52.8294C33.8356 52.8294 34.1242 52.9401 34.3337 53.1496C34.4523 53.2682 34.5432 53.4066 34.5946 53.5489C34.6974 53.8256 34.7488 54.1419 34.7488 54.4661C34.7488 54.9524 34.6421 55.3794 34.4563 55.6363C34.2349 55.9447 33.9067 56.1028 33.4956 56.1028ZM33.4995 55.6442C33.6735 55.6442 33.8277 55.5849 33.9265 55.4782C34.1044 55.2924 34.2032 54.9247 34.2032 54.4621C34.2032 54.0035 34.1044 53.6438 33.9265 53.4501C33.8316 53.3433 33.6735 53.284 33.4956 53.284C33.3058 53.284 33.1674 53.3473 33.0528 53.4856C32.8788 53.6912 32.7919 54.0154 32.7919 54.4463C32.7919 54.8614 32.867 55.2054 32.9935 55.3873C33.116 55.5612 33.2821 55.6442 33.4995 55.6442Z" fill="#02409B"/>
<path d="M35.1399 55.3359L35.6855 55.2212C35.721 55.3359 35.7487 55.3873 35.8041 55.4505C35.9148 55.5849 36.0808 55.6521 36.2903 55.6521C36.6817 55.6521 36.9387 55.3912 36.9387 54.9998C36.9387 54.6124 36.6936 54.3633 36.318 54.3633C36.1243 54.3633 35.9503 54.4266 35.8278 54.5452C35.7724 54.6005 35.7448 54.6361 35.7092 54.7231L35.215 54.6756C35.2545 54.3949 35.2585 54.3752 35.2664 54.2645L35.3573 53.284C35.3613 53.2128 35.3692 53.0784 35.3731 52.8808C35.4917 52.8887 35.5827 52.8926 35.7922 52.8926H36.7648C37.0376 52.8926 37.1364 52.8887 37.3143 52.861V53.3591C37.1403 53.3354 36.9862 53.3275 36.7687 53.3275H35.8396L35.7764 54.0194C35.7724 54.051 35.7645 54.1063 35.7527 54.1854C35.9464 54.0194 36.1559 53.9442 36.4287 53.9442C36.7489 53.9442 37.0059 54.0391 37.1996 54.2408C37.3934 54.4305 37.4803 54.6677 37.4803 54.984C37.4803 55.6798 37.0257 56.1107 36.2903 56.1107C35.899 56.1107 35.6064 56.0001 35.389 55.7668C35.2822 55.6521 35.2269 55.5573 35.1399 55.3359Z" fill="#02409B"/>
<path d="M39.2235 56.4073L38.8123 56.688C38.5909 56.3677 38.5 56.2056 38.3933 55.9368C38.2351 55.5533 38.164 55.1738 38.164 54.7587C38.164 54.4147 38.2153 54.0787 38.3181 53.7742C38.4249 53.4461 38.5395 53.2287 38.8123 52.8373L39.2314 53.1061C39.0021 53.4382 38.9072 53.6161 38.8202 53.8928C38.7293 54.1656 38.6858 54.4542 38.6858 54.7666C38.6858 55.0749 38.7293 55.3635 38.8123 55.6245C38.8993 55.8933 38.9942 56.0712 39.2235 56.4073Z" fill="#02409B"/>
<path d="M41.0984 56.0396H40.5014C40.5252 55.8854 40.5331 55.7312 40.5331 55.5256V53.3473H40.3433C40.197 53.3473 40.0824 53.3552 39.9361 53.371V52.8689C40.0587 52.8887 40.1456 52.8926 40.3314 52.8926H40.6952C40.8968 52.8926 40.9561 52.8887 41.0984 52.8729C41.0747 53.1061 41.0668 53.288 41.0668 53.5252V55.5256C41.0668 55.7352 41.0747 55.8775 41.0984 56.0396Z" fill="#02409B"/>
<path d="M43.5453 56.1028C43.2092 56.1028 42.9246 55.9921 42.7151 55.7826C42.5964 55.664 42.5055 55.5256 42.4541 55.3833C42.3513 55.1026 42.2999 54.7942 42.2999 54.474C42.2999 54.0549 42.3948 53.6201 42.5411 53.3789C42.7546 53.0231 43.1104 52.8294 43.5492 52.8294C43.8853 52.8294 44.1739 52.9401 44.3834 53.1496C44.502 53.2682 44.593 53.4066 44.6443 53.5489C44.7471 53.8256 44.7985 54.1419 44.7985 54.4661C44.7985 54.9524 44.6918 55.3794 44.506 55.6363C44.2846 55.9447 43.9564 56.1028 43.5453 56.1028ZM43.5492 55.6442C43.7232 55.6442 43.8774 55.5849 43.9762 55.4782C44.1541 55.2924 44.253 54.9247 44.253 54.4621C44.253 54.0035 44.1541 53.6438 43.9762 53.4501C43.8813 53.3433 43.7232 53.284 43.5453 53.284C43.3555 53.284 43.2171 53.3473 43.1025 53.4856C42.9285 53.6912 42.8416 54.0154 42.8416 54.4463C42.8416 54.8614 42.9167 55.2054 43.0432 55.3873C43.1657 55.5612 43.3318 55.6442 43.5492 55.6442Z" fill="#02409B"/>
<path d="M45.4703 56.688L45.0591 56.4073C45.2884 56.0712 45.3833 55.8933 45.4703 55.6245C45.5533 55.3596 45.5968 55.0789 45.5968 54.7666C45.5968 54.4542 45.5533 54.1656 45.4624 53.8928C45.3754 53.6161 45.2805 53.4382 45.0512 53.1061L45.4703 52.8373C45.7431 53.2287 45.8577 53.4461 45.9684 53.7742C46.0673 54.0826 46.1187 54.4108 46.1187 54.7587C46.1187 55.1777 46.0475 55.5533 45.8933 55.9368C45.7826 56.2056 45.6917 56.3677 45.4703 56.688Z" fill="#02409B"/>
<path d="M56.235 17.5112L57.3448 17.0504C57.4002 17.2971 57.4633 17.4867 57.6798 18.0081L58.7537 20.5946C58.968 21.1109 59.0511 21.2922 59.1889 21.5107L58.0924 21.9659C58.0275 21.7531 57.9008 21.4102 57.7353 21.0115L56.6635 18.43C56.4788 17.9853 56.3445 17.6995 56.235 17.5112Z" fill="#02409B"/>
<path d="M55.8939 11.607L56.9319 10.9592C57.1779 11.6319 57.3188 12.2113 57.3984 12.8884L56.3021 13.6118C56.242 12.7808 56.1142 12.1753 55.8939 11.607ZM54.1129 13.1903L55.1759 12.5377C55.4074 13.2475 55.52 13.7809 55.5721 14.5213L54.4657 15.2852C54.4636 14.5352 54.3486 13.8671 54.1129 13.1903ZM51.5907 17.0748L52.3441 15.7126C52.7554 16.0057 53.347 16.1845 54.0525 16.2339C54.8789 16.292 55.621 16.092 56.5861 15.5571C57.2418 15.1938 57.7194 14.8501 58.3825 14.2752C58.2867 14.9135 58.279 15.0887 58.3187 15.5055C57.3872 16.2355 56.8185 16.6054 56.139 16.9262C54.6611 17.6208 53.4279 17.6954 52.0052 17.1893C51.8325 17.1285 51.7248 17.0937 51.5907 17.0748Z" fill="#02409B"/>
<path d="M53.6833 9.25493L54.2099 9.20777C54.0936 9.69525 53.9835 10.0559 53.782 10.5983L53.2401 10.6599C53.4458 10.1319 53.5611 9.7626 53.6833 9.25493ZM54.4182 9.21601L54.9206 9.16601C54.8202 9.62752 54.7031 10.0314 54.5191 10.5132L53.9914 10.5835C54.1707 10.0987 54.2977 9.68908 54.4182 9.21601ZM51.6792 7.47416L52.2841 8.19954C52.1807 8.3266 52.1807 8.3266 51.7897 8.87228C50.9249 10.0676 50.3089 10.8444 49.6411 11.5895C48.7471 12.5889 48.0409 13.2274 47.101 13.878C47.1201 13.2955 47.1051 13.1082 46.9889 12.6096C47.7155 12.1498 48.1803 11.7798 48.8195 11.1241C49.545 10.3903 50.3043 9.46335 51.0499 8.42107C51.3053 8.06594 51.4785 7.80323 51.6158 7.57808C51.6264 7.56076 51.6528 7.51746 51.6792 7.47416ZM52.9543 8.58457L53.7949 8.76457C53.5127 9.26968 53.1884 9.9392 52.8003 10.8193C52.4016 11.7168 52.0472 12.7006 51.832 13.5199C51.6711 14.1228 51.5807 14.5785 51.5018 15.2908C51.0089 15.4417 50.8202 15.5285 50.3047 15.8438C50.4647 14.7652 50.6875 13.8911 51.131 12.6765C51.5141 11.6032 52.0441 10.4056 52.6142 9.28008C52.7966 8.92798 52.8887 8.73463 52.9543 8.58457Z" fill="#02409B"/>
<path d="M50.1541 6.40993L50.4482 7.5133C50.2717 7.61246 50.2537 7.62428 50.1148 7.72125C49.4194 8.19537 48.777 8.56137 48.1337 8.85469L46.5279 12.1318C46.2019 12.7972 46.0682 13.0825 45.9493 13.3749L45.1386 12.9776C45.318 12.6736 45.4248 12.4681 45.759 11.786L46.998 9.25748C46.2343 9.52279 45.8483 9.60182 44.6859 9.72335C44.8059 9.14265 44.8285 8.94741 44.8422 8.39715C46.0629 8.41767 47.2176 8.13768 48.4912 7.50331C49.2007 7.14957 49.8029 6.75359 50.1541 6.40993Z" fill="#02409B"/>
<path d="M40.8611 5.04677L41.1902 3.73029C41.3715 3.8335 41.5456 3.89632 41.9192 3.98973L43.6949 4.43374C44.1334 4.54339 44.2386 4.56003 44.4494 4.54521L44.1202 5.86169C43.9452 5.77934 43.8663 5.74996 43.4061 5.6349L41.6033 5.18412C41.2568 5.09748 41.0357 5.06149 40.8611 5.04677ZM39.8478 7.16653L40.177 5.85005C40.3962 5.96274 40.4968 5.99754 40.9786 6.11801L43.5881 6.77049C43.9021 6.84901 43.9585 6.85346 44.1359 6.81101L44.3306 7.57356C44.2302 7.7221 44.1859 7.80747 44.036 8.10765C43.4262 9.37325 42.7483 10.3131 42.0307 10.9054C41.5377 11.3127 41.0901 11.5385 40.2258 11.8433C40.2136 11.2711 40.1855 11.0614 40.0325 10.454C40.7579 10.3364 41.2488 10.1215 41.7811 9.69506C42.308 9.26729 42.6924 8.7653 43.1291 7.93876L40.6658 7.32284C40.2219 7.21183 40.0572 7.1803 39.8478 7.16653Z" fill="#02409B"/>
<path d="M36.1466 4.25343H38.6701C38.7362 4.25343 38.8023 4.25343 38.907 4.2355C38.929 3.71551 39.1935 3.31207 39.513 3.31207C39.8546 3.31207 40.1246 3.76034 40.1246 4.30722C40.1246 4.8541 39.8546 5.30237 39.5186 5.30237C39.513 5.30237 39.502 5.30237 39.4965 5.30237L39.4745 5.42788C39.2431 6.93405 38.8905 8.09954 38.3836 9.05883C37.8767 10.0271 37.2541 10.7264 36.3064 11.4167C36.1246 10.8429 36.0364 10.6457 35.7224 10.1347C36.2017 9.8926 36.5048 9.6595 36.907 9.2471C37.7555 8.3685 38.2954 7.14025 38.5489 5.50857H36.1356C35.6838 5.50857 35.5075 5.51753 35.2816 5.56236V4.19067C35.5185 4.24446 35.6893 4.25343 36.1466 4.25343ZM39.513 3.86792C39.3643 3.86792 39.2431 4.06516 39.2431 4.30722C39.2431 4.54928 39.3643 4.74652 39.513 4.74652C39.6618 4.74652 39.783 4.54928 39.783 4.30722C39.783 4.06516 39.6618 3.86792 39.513 3.86792Z" fill="#02409B"/>
<path d="M29.6982 8.26472L29.5906 7.47469C29.7238 7.47142 29.7788 7.46547 29.8779 7.45477C29.999 7.44168 30.5474 7.36569 32.0945 7.15392C32.0389 6.7424 32.0359 6.71489 31.9881 6.53077L32.8191 6.44095C32.8171 6.68054 32.8183 6.69155 32.8521 7.05533C33.7815 6.9493 34.204 6.89249 34.4217 6.84669L34.5093 7.60548C34.2709 7.61455 34.1382 7.62332 33.5494 7.68697C33.2578 7.7185 33.2138 7.72326 32.9337 7.75909L32.9529 7.88506L32.9725 8.06666L33.0158 8.51848C33.0182 8.54049 33.0224 8.57901 33.0295 8.64505C33.2023 8.90472 33.289 9.1403 33.3229 9.45396C33.3913 10.0868 33.155 10.6301 32.6176 11.0667C32.3621 11.2781 32.0946 11.4295 31.6209 11.631C31.4209 11.274 31.3362 11.1607 31.0839 10.9375C31.6564 10.7754 32.0256 10.5851 32.2751 10.3188C32.4303 10.1573 32.504 10.0157 32.5235 9.83543C32.3541 10.0709 32.1276 10.19 31.7809 10.2275C31.5333 10.2542 31.3049 10.201 31.0968 10.0787C30.8284 9.91289 30.6805 9.67835 30.6466 9.36469C30.5818 8.76489 31.0196 8.28332 31.702 8.20957C31.9166 8.18637 32.0974 8.21135 32.2323 8.27471C32.23 8.2527 32.23 8.2527 32.2173 8.18726C32.2143 8.15975 32.2143 8.15975 32.181 7.85159C30.8755 8.03168 30.1643 8.14753 29.6982 8.26472ZM31.8494 8.80045C31.5797 8.8296 31.3995 9.01609 31.4233 9.23621C31.4459 9.44531 31.6386 9.58036 31.8807 9.55418C32.1504 9.52504 32.3398 9.32084 32.3149 9.08972C32.2935 8.89162 32.108 8.77249 31.8494 8.80045Z" fill="#8E93C8"/>
<path d="M30.2685 11.2532L30.0331 12.107C29.8947 12.018 29.8608 11.9985 29.716 11.9284C29.3425 11.7534 28.928 11.6181 28.5889 11.5714C28.6043 11.6074 28.6129 11.6395 28.6172 11.6556C28.7819 12.2704 28.4544 12.6733 27.599 12.9025C26.7863 13.1202 26.2392 12.9173 26.0845 12.3399C25.924 11.7411 26.4001 11.2297 27.3517 10.9747C27.4426 10.9503 27.5082 10.9385 27.6219 10.9137L27.4966 10.4889C27.3469 10.529 27.1398 10.5902 27.0276 10.6203C26.6801 10.7134 26.4969 10.7568 26.0032 10.8604C25.9269 10.8751 25.8788 10.888 25.7879 10.9124L25.6099 10.2266C25.8594 10.217 26.3759 10.113 26.8731 9.9798C26.9854 9.94972 27.1725 9.89958 27.3154 9.85555L27.227 9.5469C27.2113 9.48809 27.1998 9.44532 27.1912 9.41324C27.0536 9.45584 26.9895 9.47303 26.9093 9.49451C26.7061 9.54895 26.2474 9.65468 25.5423 9.80348C25.4768 9.81533 25.4286 9.82822 25.4073 9.83395C25.3912 9.83825 25.3591 9.84684 25.3232 9.86222L25.1433 9.1483C25.4574 9.14435 26.0195 9.03957 26.6397 8.8734C26.7039 8.85621 26.8682 8.80646 27.0057 8.76386C26.8983 8.36289 26.8815 8.32156 26.8046 8.1416L27.6119 7.92529C27.6199 8.08358 27.6314 8.12635 27.731 8.54088C28.4427 8.31006 28.8707 8.13235 29.2138 7.93728L29.4229 8.63191C29.296 8.67163 29.296 8.67163 28.992 8.79892C28.5893 8.96412 28.2611 9.08645 27.9019 9.1999C27.9631 9.40697 28.0018 9.55132 28.0247 9.63686C28.6455 9.4304 29.0589 9.26233 29.382 9.07833L29.5911 9.77296C29.5483 9.78443 29.5483 9.78443 29.4817 9.81374C29.471 9.81661 29.4403 9.83055 29.3922 9.84344C29.3202 9.87419 29.3202 9.87419 29.0081 9.99222C28.7586 10.0877 28.4183 10.2076 28.2073 10.2755C28.29 10.5628 28.3508 10.7471 28.3723 10.8273C28.915 10.8423 29.334 10.9306 30.0363 11.1779C30.1376 11.2138 30.1754 11.2266 30.2685 11.2532ZM27.8092 11.5913C27.6441 11.5954 27.5557 11.6076 27.406 11.6477C27.0318 11.748 26.8334 11.9272 26.885 12.1197C26.9294 12.2854 27.1437 12.3369 27.4591 12.2523C27.8227 12.1549 27.9263 12.0069 27.8432 11.6968C27.8317 11.654 27.8092 11.5913 27.8092 11.5913Z" fill="#8E93C8"/>
<path d="M20.5729 10.6458L21.3817 10.198C21.4971 10.5085 22.1785 11.8215 22.6572 12.6507C22.9257 13.1157 23.0437 13.2648 23.2123 13.3465C23.4015 13.4417 23.667 13.4035 23.9498 13.2402C24.4579 12.9468 24.6849 12.4323 24.5962 11.7805C24.5502 11.4683 24.4776 11.2099 24.316 10.8302C24.7687 10.8948 24.9129 10.901 25.2677 10.8624C25.4717 11.6585 25.5113 12.0703 25.4225 12.4922C25.2887 13.1127 24.9235 13.5983 24.31 13.9526C23.9553 14.1574 23.5946 14.2633 23.2987 14.2488C23.0199 14.2309 22.7475 14.1133 22.5324 13.9179C22.4007 13.7894 22.2281 13.5568 22.0648 13.274C21.9403 13.0583 21.7652 12.7439 21.4142 12.1029C21.0467 11.4331 20.8827 11.138 20.7997 10.9942C20.7083 10.836 20.6648 10.7717 20.5729 10.6458Z" fill="#8E93C8"/>
<path d="M16.6459 13.0976L17.4351 12.7377C17.5536 13.4299 18.0228 14.597 18.5952 15.6215C18.5495 15.3985 18.5495 15.3985 18.5403 15.3272L18.4985 15.0445L19.02 14.9735C19.0869 15.6762 19.2413 16.2646 19.4599 16.6433C19.4876 16.6912 19.5014 16.7152 19.545 16.7795L18.8693 17.2143C18.8147 17.1308 18.7878 17.0952 18.7097 16.9933C18.2672 16.4371 18.0095 16.0682 17.741 15.6033C17.3979 15.0089 17.1205 14.3957 16.8459 13.6212C16.7319 13.2908 16.7117 13.2449 16.6459 13.0976ZM18.4995 13.574L18.1106 12.8782C18.3815 12.8049 18.6418 12.6802 19.078 12.4283C19.6052 12.1239 20.0569 11.7993 20.3166 11.5406L20.7515 12.2163C20.7083 12.2412 20.7035 12.244 20.6536 12.2792C20.291 12.5589 19.831 12.8692 19.4331 13.0989C19.1312 13.2732 18.9531 13.3633 18.6393 13.5061C18.6125 13.5151 18.5742 13.5373 18.4995 13.574ZM19.2282 14.1055L19.9501 14.0275C19.8881 14.4404 19.9024 14.7197 20.0048 14.8971C20.1432 15.1367 20.4651 15.1298 20.9061 14.8752C21.3231 14.6344 21.7014 14.3266 21.9629 14.0158L22.4288 14.7119C22.3576 14.7658 22.3316 14.7872 22.2345 14.8624C21.8514 15.1731 21.6112 15.3437 21.2804 15.5347C20.6717 15.8861 20.1908 15.972 19.8008 15.7946C19.635 15.7177 19.4771 15.566 19.3747 15.3887C19.2003 15.0867 19.1497 14.6558 19.2282 14.1055Z" fill="#8E93C8"/>
<path d="M13.6439 18.3815L12.8572 17.8531C12.9942 17.6926 13.0568 17.5987 13.2604 17.2856C13.9061 16.2954 14.1527 15.9628 14.5441 15.5714C14.9315 15.1839 15.3229 14.9491 15.7064 14.8787C16.2074 14.7847 16.6966 14.9452 17.0841 15.3327C17.6398 15.8884 17.7846 16.6751 17.4989 17.5244C17.3072 18.0762 17.0371 18.5106 16.4109 19.2777C16.0939 19.0859 15.953 19.0233 15.5655 18.9177C16.0704 18.3815 16.3718 17.9862 16.5518 17.6183C16.7436 17.2387 16.814 16.8629 16.7553 16.5303C16.7162 16.3111 16.6262 16.135 16.4657 15.9745C16.3013 15.8101 16.1174 15.728 15.91 15.724C15.6399 15.7201 15.3855 15.8493 15.1155 16.1193C14.7084 16.5264 14.2897 17.1252 13.8513 17.9392C13.7809 18.0723 13.6987 18.2406 13.6439 18.3815Z" fill="#8E93C8"/>
<path d="M9.2026 20.5666L9.76531 19.8972C9.90071 20.0544 9.93528 20.0907 10.5298 20.6049C10.9638 20.037 10.9638 20.037 11.4477 19.4097C11.3672 19.3421 11.3043 19.2964 11.2873 19.2822C10.8171 18.8869 10.8086 18.8798 10.6177 18.7627L11.1377 18.1441C11.216 18.2316 11.3402 18.3505 11.4461 18.4396L11.8063 18.7423C11.8232 18.7565 11.8571 18.785 11.9037 18.8242C12.4339 18.1419 12.4339 18.1419 12.5345 17.9878L13.1517 18.4922C13.0143 18.6298 12.9709 18.6729 12.8463 18.8211C12.7822 18.8974 12.7608 18.9228 12.463 19.2943C12.9339 19.6974 13.1942 19.9813 13.2876 20.1971C13.397 20.4627 13.337 20.7232 13.1091 20.9943C12.9417 21.1935 12.7576 21.3351 12.4649 21.494C12.359 21.405 12.359 21.405 12.2785 21.3373C12.1344 21.2162 12.0299 21.1428 11.839 21.0258C12.15 20.8967 12.3738 20.7595 12.4842 20.6281C12.616 20.4714 12.5294 20.3335 11.9984 19.8727C11.6764 20.2817 11.3692 20.6815 11.0734 21.0764C11.1243 21.1191 11.1539 21.144 11.1836 21.169C11.2006 21.1832 11.2387 21.2153 11.2768 21.2473C11.4421 21.3862 11.4421 21.3862 11.5776 21.5002C11.8234 21.7067 12.2027 22.0039 12.3072 22.0773C12.6359 22.2885 12.8659 22.1782 13.3966 21.5469C13.8062 21.0597 14.1486 20.5233 14.2962 20.1412L14.9892 20.6587C14.8666 20.8304 14.8666 20.8304 14.7033 21.0763C14.4458 21.46 14.1814 21.8089 13.9107 22.1309C13.2483 22.919 12.7966 23.1467 12.2808 22.9517C12.0169 22.8528 11.7442 22.6525 10.9562 21.99C10.9477 21.9829 10.8502 21.901 10.6045 21.6944C10.323 22.0724 10.1796 22.2773 10.0426 22.5091L9.41314 22.0451C9.4708 21.9851 9.51065 21.9463 9.53558 21.9167C9.58188 21.8616 9.7508 21.6348 10.0537 21.2315L9.87577 21.0819C9.54106 20.8005 9.38565 20.6843 9.2026 20.5666Z" fill="#8E93C8"/>
<path d="M6.30382 25.7057L6.75971 24.9271C6.93004 25.0638 7.19496 25.2359 7.5257 25.4269C8.67131 26.0883 9.62212 26.4008 9.76326 26.1563C9.79924 26.094 9.76534 25.9977 9.66636 25.8703C9.46915 25.6031 9.2286 25.3555 8.95983 25.1236C9.30816 25.0627 9.45459 25.0194 9.80406 24.8569C10.5969 25.6534 10.8436 26.2113 10.589 26.6522C10.387 27.0022 9.96965 27.1383 9.35491 27.0518C8.75253 26.966 8.10503 26.6817 6.63605 25.8719C6.46072 25.7771 6.42237 25.7549 6.30382 25.7057ZM8.1772 23.5789L8.24383 22.7993C9.33624 22.612 10.3915 22.7547 11.5543 23.2534L11.4048 24.1322C10.9336 23.8857 10.355 23.6923 9.80281 23.5971C9.25814 23.5 8.71787 23.4948 8.1772 23.5789Z" fill="#8E93C8"/>
<path d="M5.29246 31.9133L4.55754 31.7049C4.64797 31.5171 4.7299 31.2755 4.81585 30.9547C4.82588 30.9173 4.82731 30.9119 4.85778 30.7768C4.60336 30.6571 4.24058 30.5141 4.09089 30.4739C4.07485 30.4696 4.04277 30.4611 4 30.4496L4.29584 29.6235C4.41412 29.6953 4.41412 29.6953 4.78578 29.8694C4.9244 29.9294 4.93366 29.9377 5.03629 29.9824C5.10057 29.5927 5.12083 29.346 5.12582 29.0494L5.86542 29.2189C5.8489 29.3234 5.8489 29.3234 5.82941 29.5244C5.80914 29.7711 5.7675 30.0121 5.70761 30.2998C6.14447 30.5085 6.46658 30.675 6.9504 30.9651C7.49017 31.2816 7.65084 31.3877 8.29065 31.8227C8.42602 31.9163 8.53752 31.992 8.62659 32.0446L8.10125 32.7862C7.50756 32.2432 6.44665 31.5407 5.52376 31.0928L5.48365 31.2425L5.31433 31.8103C5.3043 31.8477 5.30535 31.8652 5.29246 31.9133ZM6.4635 27.5857L7.22697 27.773C7.13148 28.0225 7.07924 28.1747 7.00475 28.4527C6.85433 29.014 6.79721 29.3769 6.76088 29.9402L6.0462 29.806C6.11529 28.9707 6.16019 28.6963 6.32636 28.0761C6.36218 27.9424 6.36791 27.921 6.4635 27.5857ZM7.03526 30.071L7.43705 29.4911C7.6631 29.7808 7.77565 29.874 7.95208 29.9213C8.20336 29.9886 8.39222 29.7757 8.53117 29.2571C8.63145 28.8828 8.67808 28.3452 8.64355 28.0036L9.44913 28.1622C9.43403 28.2613 9.42792 28.3055 9.40814 28.4434C9.35875 28.9058 9.30851 29.1789 9.22542 29.4889C9.09363 29.9808 8.93101 30.3097 8.699 30.534C8.4941 30.7427 8.18667 30.8208 7.89797 30.7434C7.60927 30.666 7.3667 30.4807 7.03526 30.071Z" fill="#8E93C8"/>
<path d="M27.6712 26.7859C47.7845 18.3847 43.5839 34.7422 16.3544 40.5242C59.0025 37.1143 52.8746 8.84696 25.6945 23.5242L27.6712 26.7859Z" fill="#02409B"/>
<path d="M20.4561 46.6149V36.1754L26.584 36.2322V47.5773C24.2341 47.6988 21.5196 46.9864 20.4561 46.6149Z" fill="#8E93C8"/>
<path d="M26.584 36.2248C26.584 37.917 25.2122 39.2887 23.52 39.2887C21.8279 39.2887 20.4561 37.917 20.4561 36.2248C20.4561 34.5326 21.8279 33.1608 23.52 33.1608C25.2122 33.1608 26.584 34.5326 26.584 36.2248Z" fill="#8E93C8"/>
<path d="M27.6712 26.9835C27.6712 29.2489 25.8348 31.0853 23.5694 31.0853C21.3041 31.0853 19.4677 29.2489 19.4677 26.9835C19.4677 24.7182 21.3041 22.8818 23.5694 22.8818C25.8348 22.8818 27.6712 24.7182 27.6712 26.9835Z" fill="#8E93C8"/>
<path fill-rule="evenodd" clip-rule="evenodd" d="M40.5224 47.3294C52.1038 40.6429 57.5208 28.3435 52.6216 19.8579C47.7224 11.3722 34.3623 9.91374 22.7809 16.6002C11.1996 23.2867 5.78263 35.5862 10.6818 44.0718C15.581 52.5574 28.9411 54.0159 40.5224 47.3294ZM39.5387 45.6255C49.8357 39.6805 54.652 28.7451 50.2961 21.2005C45.9402 13.6559 34.0617 12.3592 23.7647 18.3041C13.4677 24.2491 8.65147 35.1846 13.0073 42.7292C17.3632 50.2738 29.2417 51.5705 39.5387 45.6255Z" fill="#02409B"/>
</g>
<defs>
<filter id="filter0_d_1417_70" x="0" y="0.312073" width="64" height="61.3759" filterUnits="userSpaceOnUse" color-interpolation-filters="sRGB">
<feFlood flood-opacity="0" result="BackgroundImageFix"/>
<feColorMatrix in="SourceAlpha" type="matrix" values="0 0 0 0 0 0 0 0 0 0 0 0 0 0 0 0 0 0 127 0" result="hardAlpha"/>
<feOffset dy="1"/>
<feGaussianBlur stdDeviation="2"/>
<feComposite in2="hardAlpha" operator="out"/>
<feColorMatrix type="matrix" values="0 0 0 0 0 0 0 0 0 0 0 0 0 0 0 0 0 0 0.25 0"/>
<feBlend mode="normal" in2="BackgroundImageFix" result="effect1_dropShadow_1417_70"/>
<feBlend mode="normal" in="SourceGraphic" in2="effect1_dropShadow_1417_70" result="shape"/>
</filter>
</defs>
</svg>
